<svg width="212" height="136" viewBox="0 0 212 136" fill="none" xmlns="http://www.w3.org/2000/svg">
<g opacity="0.2">
<g clip-path="url(#clip0_2628_42377)">
<path d="M171.573 29.9888L196.62 59.9776L200.356 56.8541L177.939 29.9888L200.356 3.12342L196.62 0L171.573 29.9888Z" fill="#FFE610"/>
<path d="M137.512 29.9888L162.559 59.9776L166.295 56.8541L143.878 29.9888L166.295 3.12342L162.559 0L137.512 29.9888Z" fill="#FFE610"/>
<path d="M103.451 29.9888L128.498 59.9776L132.254 56.8541L109.817 29.9888L132.254 3.12342L128.498 0L103.451 29.9888Z" fill="#FFE610"/>
<path d="M124.118 113.259L146.638 135.778L169.157 113.259L146.638 90.74L124.118 113.259Z" fill="#FFE610"/>
<path d="M124.347 113.115L102.008 135.454L79.6698 113.115L102.008 90.7769L124.347 113.115ZM102.008 133.773L122.666 113.115L102.008 92.4572L81.3501 113.115L102.008 133.773Z" fill="white"/>
<path d="M212 113.115L189.662 135.454L167.323 113.115L189.662 90.7769L212 113.115ZM189.662 133.773L210.32 113.115L189.662 92.4572L169.004 113.115L189.662 133.773Z" fill="white"/>
<path d="M34.4177 113.248L56.9369 135.767L79.4561 113.248L56.9369 90.7289L34.4177 113.248Z" fill="#FFE610"/>
<path d="M34.657 113.115L12.3186 135.453L-10 113.115L12.3384 90.7766L34.6768 113.115H34.657ZM12.3186 133.773L32.9767 113.115L12.3186 92.4569L-8.33945 113.115L12.3186 133.773Z" fill="white"/>
</g>
</g>
<defs>
<clipPath id="clip0_2628_42377">
<rect width="222" height="135.77" fill="white" transform="translate(-10)"/>
</clipPath>
</defs>
</svg>
