<svg width="176" height="223" viewBox="0 0 176 223" fill="none" xmlns="http://www.w3.org/2000/svg">
<g opacity="0.2">
<g clip-path="url(#clip0_2628_42369)">
<path d="M38.3256 184.154C-58.7747 83.4863 88.1996 -63.4503 188.83 33.6687C285.949 134.337 138.975 281.273 38.3256 184.154ZM37.0487 185.431C139.35 284.297 288.954 134.656 190.088 32.3918C87.8052 -66.4924 -61.8167 83.1483 37.0675 185.431H37.0487Z" fill="#A8AEBA"/>
<path d="M58.4367 164.043C-12.7877 90.3215 95.0159 -17.4634 168.719 53.761C239.962 127.483 132.14 235.268 58.4367 164.025M57.0283 165.433C132.666 238.404 243.061 127.971 170.09 52.3526C94.4902 -20.5993 -15.9236 89.8332 57.0471 165.433H57.0283Z" fill="#A8AEBA"/>
<path d="M61.2721 161.208C32.3918 132.328 32.3918 85.4768 61.2721 56.5964L33.8377 29.162C-70.0038 133.942 88.6127 292.427 193.318 188.642L165.884 161.208C137.003 190.088 90.1525 190.088 61.2721 161.208Z" fill="#DFE3E8"/>
<path d="M171.31 104.029C171.423 96.4994 159.593 96.4994 159.687 104.029C159.574 111.559 171.404 111.559 171.31 104.029Z" fill="#FC7F4F"/>
<path d="M134.543 73.3839C134.769 58.3053 111.09 58.3053 111.315 73.3839C111.09 88.4438 134.769 88.4438 134.543 73.3839Z" stroke="#C1C1C1" stroke-linecap="round" stroke-linejoin="round"/>
</g>
</g>
<defs>
<clipPath id="clip0_2628_42369">
<rect width="222.48" height="222.48" fill="white"/>
</clipPath>
</defs>
</svg>
