<svg width="178" height="154" viewBox="0 0 178 154" fill="none" xmlns="http://www.w3.org/2000/svg">
<g opacity="0.2" clip-path="url(#clip0_2628_41526)">
<mask id="mask0_2628_41526" style="mask-type:luminance" maskUnits="userSpaceOnUse" x="52" y="6" width="143" height="143">
<path d="M173.857 127.688C201.623 99.9219 201.623 54.9039 173.857 27.1376C146.09 -0.628658 101.072 -0.628666 73.3061 27.1376C45.5398 54.9039 45.5398 99.9219 73.3061 127.688C101.072 155.454 146.09 155.454 173.857 127.688Z" fill="white"/>
</mask>
<g mask="url(#mask0_2628_41526)">
<path d="M53.1712 122.142L51.8852 123.43L56.8171 128.355L58.1032 127.067L53.1712 122.142Z" fill="#FFC073"/>
<path d="M51.8823 127.079L53.1702 128.365L58.0953 123.433L56.8074 122.147L51.8823 127.079Z" fill="#FFC073"/>
<path d="M53.1883 135.172L51.9023 136.46L56.8343 141.385L58.1203 140.098L53.1883 135.172Z" fill="#FFC073"/>
<path d="M51.8924 140.102L53.1803 141.388L58.1054 136.456L56.8175 135.17L51.8924 140.102Z" fill="#FFC073"/>
<path d="M53.1944 147.287L51.9084 148.574L56.8404 153.499L58.1264 152.212L53.1944 147.287Z" fill="#FFC073"/>
<path d="M51.9066 152.236L53.1944 153.522L58.1195 148.59L56.8317 147.304L51.9066 152.236Z" fill="#FFC073"/>
<path d="M53.1537 83.5554L51.8677 84.8432L56.7997 89.7683L58.0857 88.4805L53.1537 83.5554Z" fill="#FFC073"/>
<path d="M51.8554 88.4763L53.1432 89.7623L58.0683 84.8304L56.7805 83.5443L51.8554 88.4763Z" fill="#FFC073"/>
<path d="M53.1537 96.5784L51.8677 97.8662L56.7997 102.791L58.0857 101.503L53.1537 96.5784Z" fill="#FFC073"/>
<path d="M51.8684 101.516L53.1562 102.802L58.0813 97.8703L56.7935 96.5842L51.8684 101.516Z" fill="#FFC073"/>
<path d="M53.1669 108.695L51.8809 109.983L56.8129 114.908L58.0989 113.621L53.1669 108.695Z" fill="#FFC073"/>
<path d="M51.8755 113.633L53.1633 114.919L58.0884 109.987L56.8006 108.701L51.8755 113.633Z" fill="#FFC073"/>
<path d="M53.1262 44.9442L51.8402 46.2321L56.7722 51.1571L58.0582 49.8693L53.1262 44.9442Z" fill="#FFC073"/>
<path d="M51.8343 49.8838L53.1221 51.1698L58.0472 46.2378L56.7594 44.9518L51.8343 49.8838Z" fill="#FFC073"/>
<path d="M53.1262 57.9914L51.8402 59.2792L56.7722 64.2043L58.0582 62.9165L53.1262 57.9914Z" fill="#FFC073"/>
<path d="M51.8514 62.9137L53.1393 64.1998L58.0643 59.2678L56.7765 57.9818L51.8514 62.9137Z" fill="#FFC073"/>
<path d="M53.1394 70.1085L51.8534 71.3963L56.7854 76.3214L58.0714 75.0336L53.1394 70.1085Z" fill="#FFC073"/>
<path d="M51.8585 75.0306L53.1463 76.3166L58.0714 71.3846L56.7836 70.0986L51.8585 75.0306Z" fill="#FFC073"/>
<path d="M53.0916 6.36024L51.8056 7.64807L56.7376 12.5732L58.0236 11.2853L53.0916 6.36024Z" fill="#FFC073"/>
<path d="M51.8102 11.2884L53.0981 12.5744L58.0231 7.64243L56.7353 6.35639L51.8102 11.2884Z" fill="#FFC073"/>
<path d="M53.1088 19.3803L51.8227 20.6682L56.7547 25.5932L58.0407 24.3054L53.1088 19.3803Z" fill="#FFC073"/>
<path d="M51.8203 24.3113L53.1082 25.5973L58.0332 20.6653L56.7454 19.3793L51.8203 24.3113Z" fill="#FFC073"/>
<path d="M53.1119 31.4974L51.8259 32.7852L56.7579 37.7103L58.0439 36.4225L53.1119 31.4974Z" fill="#FFC073"/>
<path d="M51.8274 36.4381L53.1152 37.7241L58.0403 32.7921L56.7525 31.5061L51.8274 36.4381Z" fill="#FFC073"/>
<path d="M66.8747 122.141L65.5887 123.429L70.5207 128.354L71.8067 127.066L66.8747 122.141Z" fill="#FFC073"/>
<path d="M65.5811 127.065L66.869 128.351L71.794 123.419L70.5062 122.133L65.5811 127.065Z" fill="#FFC073"/>
<path d="M79.8354 122.128L78.5493 123.416L83.4813 128.341L84.7673 127.053L79.8354 122.128Z" fill="#FFC073"/>
<path d="M78.5477 127.055L79.8355 128.341L84.7606 123.409L83.4728 122.123L78.5477 127.055Z" fill="#FFC073"/>
<path d="M92.7789 122.117L91.4929 123.405L96.4249 128.33L97.7109 127.042L92.7789 122.117Z" fill="#FFC073"/>
<path d="M91.5072 127.051L92.795 128.337L97.7201 123.405L96.4323 122.119L91.5072 127.051Z" fill="#FFC073"/>
<path d="M105.74 122.12L104.453 123.407L109.385 128.333L110.672 127.045L105.74 122.12Z" fill="#FFC073"/>
<path d="M104.44 127.04L105.727 128.326L110.653 123.394L109.365 122.108L104.44 127.04Z" fill="#FFC073"/>
<path d="M118.683 122.099L117.397 123.387L122.329 128.312L123.615 127.024L118.683 122.099Z" fill="#FFC073"/>
<path d="M117.399 127.037L118.687 128.323L123.612 123.391L122.324 122.105L117.399 127.037Z" fill="#FFC073"/>
<path d="M66.8918 135.151L65.6057 136.439L70.5377 141.364L71.8238 140.076L66.8918 135.151Z" fill="#FFC073"/>
<path d="M65.5912 140.098L66.879 141.384L71.8041 136.452L70.5163 135.166L65.5912 140.098Z" fill="#FFC073"/>
<path d="M79.8354 135.151L78.5493 136.439L83.4813 141.364L84.7673 140.076L79.8354 135.151Z" fill="#FFC073"/>
<path d="M78.5407 140.095L79.8286 141.381L84.7536 136.449L83.4658 135.163L78.5407 140.095Z" fill="#FFC073"/>
<path d="M92.796 135.157L91.51 136.445L96.442 141.37L97.728 140.082L92.796 135.157Z" fill="#FFC073"/>
<path d="M91.5073 140.084L92.7951 141.37L97.7202 136.438L96.4324 135.152L91.5073 140.084Z" fill="#FFC073"/>
<path d="M105.747 135.14L104.461 136.428L109.393 141.353L110.679 140.065L105.747 135.14Z" fill="#FFC073"/>
<path d="M104.45 140.063L105.738 141.349L110.663 136.417L109.375 135.131L104.45 140.063Z" fill="#FFC073"/>
<path d="M118.7 135.139L117.414 136.427L122.346 141.352L123.632 140.064L118.7 135.139Z" fill="#FFC073"/>
<path d="M117.399 140.06L118.687 141.346L123.612 136.414L122.324 135.128L117.399 140.06Z" fill="#FFC073"/>
<path d="M66.895 147.278L65.6089 148.566L70.5409 153.491L71.827 152.203L66.895 147.278Z" fill="#FFC073"/>
<path d="M65.6083 152.215L66.8961 153.501L71.8212 148.569L70.5334 147.283L65.6083 152.215Z" fill="#FFC073"/>
<path d="M79.8486 147.278L78.5625 148.566L83.4945 153.491L84.7805 152.203L79.8486 147.278Z" fill="#FFC073"/>
<path d="M78.5478 152.211L79.8356 153.497L84.7607 148.566L83.4729 147.279L78.5478 152.211Z" fill="#FFC073"/>
<path d="M92.7992 147.274L91.5132 148.562L96.4451 153.487L97.7312 152.2L92.7992 147.274Z" fill="#FFC073"/>
<path d="M91.5144 152.201L92.8022 153.487L97.7273 148.555L96.4394 147.269L91.5144 152.201Z" fill="#FFC073"/>
<path d="M105.753 147.264L104.467 148.552L109.399 153.477L110.685 152.189L105.753 147.264Z" fill="#FFC073"/>
<path d="M104.464 152.197L105.752 153.483L110.677 148.551L109.389 147.265L104.464 152.197Z" fill="#FFC073"/>
<path d="M118.703 147.256L117.417 148.544L122.349 153.469L123.635 152.181L118.703 147.256Z" fill="#FFC073"/>
<path d="M117.406 152.177L118.694 153.463L123.619 148.531L122.331 147.245L117.406 152.177Z" fill="#FFC073"/>
<path d="M66.8473 83.5441L65.5612 84.832L70.4932 89.7571L71.7792 88.4692L66.8473 83.5441Z" fill="#FFC073"/>
<path d="M65.5642 88.4728L66.852 89.7588L71.7771 84.8268L70.4893 83.5408L65.5642 88.4728Z" fill="#FFC073"/>
<path d="M79.8079 83.5266L78.5218 84.8145L83.4538 89.7395L84.7398 88.4517L79.8079 83.5266Z" fill="#FFC073"/>
<path d="M78.5166 88.4621L79.8044 89.7482L84.7295 84.8162L83.4417 83.5302L78.5166 88.4621Z" fill="#FFC073"/>
<path d="M92.7614 83.5261L91.4754 84.814L96.4074 89.7391L97.6934 88.4512L92.7614 83.5261Z" fill="#FFC073"/>
<path d="M91.4661 88.4586L92.754 89.7446L97.6791 84.8127L96.3912 83.5266L91.4661 88.4586Z" fill="#FFC073"/>
<path d="M105.705 83.5056L104.419 84.7935L109.351 89.7186L110.637 88.4307L105.705 83.5056Z" fill="#FFC073"/>
<path d="M104.426 88.445L105.713 89.731L110.639 84.799L109.351 83.513L104.426 88.445Z" fill="#FFC073"/>
<path d="M118.659 83.5051L117.373 84.793L122.305 89.7181L123.591 88.4302L118.659 83.5051Z" fill="#FFC073"/>
<path d="M117.375 88.4414L118.663 89.7275L123.588 84.7955L122.3 83.5095L117.375 88.4414Z" fill="#FFC073"/>
<path d="M66.8643 96.5742L65.5783 97.8621L70.5103 102.787L71.7963 101.499L66.8643 96.5742Z" fill="#FFC073"/>
<path d="M65.5743 101.496L66.8621 102.782L71.7872 97.8497L70.4994 96.5637L65.5743 101.496Z" fill="#FFC073"/>
<path d="M79.815 96.5567L78.5289 97.8445L83.4609 102.77L84.7469 101.482L79.815 96.5567Z" fill="#FFC073"/>
<path d="M78.5267 101.485L79.8145 102.771L84.7396 97.8391L83.4518 96.553L78.5267 101.485Z" fill="#FFC073"/>
<path d="M92.7685 96.5462L91.4825 97.834L96.4145 102.759L97.7005 101.471L92.7685 96.5462Z" fill="#FFC073"/>
<path d="M91.4762 101.481L92.764 102.768L97.6891 97.8355L96.4013 96.5495L91.4762 101.481Z" fill="#FFC073"/>
<path d="M105.722 96.5457L104.436 97.8336L109.368 102.759L110.654 101.471L105.722 96.5457Z" fill="#FFC073"/>
<path d="M104.426 101.478L105.714 102.764L110.639 97.8319L109.351 96.5459L104.426 101.478Z" fill="#FFC073"/>
<path d="M118.666 96.5352L117.38 97.8231L122.312 102.748L123.598 101.46L118.666 96.5352Z" fill="#FFC073"/>
<path d="M117.385 101.474L118.673 102.76L123.598 97.8284L122.31 96.5424L117.385 101.474Z" fill="#FFC073"/>
<path d="M66.8675 108.701L65.5815 109.989L70.5135 114.914L71.7995 113.626L66.8675 108.701Z" fill="#FFC073"/>
<path d="M65.5814 113.612L66.8692 114.898L71.7943 109.967L70.5065 108.68L65.5814 113.612Z" fill="#FFC073"/>
<path d="M79.8211 108.681L78.5351 109.969L83.467 114.894L84.7531 113.606L79.8211 108.681Z" fill="#FFC073"/>
<path d="M78.5408 113.609L79.8287 114.895L84.7538 109.963L83.4659 108.677L78.5408 113.609Z" fill="#FFC073"/>
<path d="M92.7817 108.673L91.4957 109.961L96.4276 114.886L97.7137 113.598L92.7817 108.673Z" fill="#FFC073"/>
<path d="M91.4833 113.598L92.7711 114.884L97.6962 109.952L96.4084 108.666L91.4833 113.598Z" fill="#FFC073"/>
<path d="M105.725 108.663L104.439 109.951L109.371 114.876L110.657 113.588L105.725 108.663Z" fill="#FFC073"/>
<path d="M104.433 113.595L105.721 114.881L110.646 109.949L109.358 108.663L104.433 113.595Z" fill="#FFC073"/>
<path d="M118.679 108.652L117.393 109.94L122.325 114.865L123.611 113.577L118.679 108.652Z" fill="#FFC073"/>
<path d="M117.392 113.591L118.68 114.877L123.605 109.945L122.317 108.659L117.392 113.591Z" fill="#FFC073"/>
<path d="M66.8297 44.9431L65.5437 46.2309L70.4757 51.156L71.7617 49.8682L66.8297 44.9431Z" fill="#FFC073"/>
<path d="M65.5431 49.8703L66.8309 51.1563L71.756 46.2243L70.4682 44.9383L65.5431 49.8703Z" fill="#FFC073"/>
<path d="M79.7733 44.9426L78.4873 46.2305L83.4192 51.1556L84.7053 49.8677L79.7733 44.9426Z" fill="#FFC073"/>
<path d="M78.4826 49.8667L79.7704 51.1528L84.6955 46.2208L83.4077 44.9348L78.4826 49.8667Z" fill="#FFC073"/>
<path d="M92.7269 44.9321L91.4408 46.2199L96.3728 51.145L97.6588 49.8572L92.7269 44.9321Z" fill="#FFC073"/>
<path d="M91.4421 49.8631L92.7299 51.1492L97.655 46.2172L96.3672 44.9312L91.4421 49.8631Z" fill="#FFC073"/>
<path d="M105.677 44.9146L104.391 46.2024L109.323 51.1275L110.609 49.8397L105.677 44.9146Z" fill="#FFC073"/>
<path d="M104.385 49.8525L105.672 51.1385L110.597 46.2066L109.31 44.9205L104.385 49.8525Z" fill="#FFC073"/>
<path d="M118.638 44.9111L117.352 46.199L122.284 51.1241L123.57 49.8362L118.638 44.9111Z" fill="#FFC073"/>
<path d="M117.341 49.8419L118.629 51.1279L123.554 46.196L122.266 44.9099L117.341 49.8419Z" fill="#FFC073"/>
<path d="M66.8368 57.9732L65.5508 59.261L70.4828 64.1861L71.7688 62.8982L66.8368 57.9732Z" fill="#FFC073"/>
<path d="M65.5432 62.9032L66.831 64.1892L71.7561 59.2572L70.4683 57.9712L65.5432 62.9032Z" fill="#FFC073"/>
<path d="M79.7904 57.9627L78.5043 59.2505L83.4363 64.1756L84.7223 62.8878L79.7904 57.9627Z" fill="#FFC073"/>
<path d="M78.5027 62.8996L79.7905 64.1857L84.7156 59.2537L83.4278 57.9677L78.5027 62.8996Z" fill="#FFC073"/>
<path d="M92.7339 57.9622L91.4479 59.2501L96.3799 64.1752L97.6659 62.8873L92.7339 57.9622Z" fill="#FFC073"/>
<path d="M91.4422 62.8961L92.73 64.1821L97.6551 59.2502L96.3673 57.9641L91.4422 62.8961Z" fill="#FFC073"/>
<path d="M105.695 57.9346L104.409 59.2225L109.341 64.1476L110.627 62.8597L105.695 57.9346Z" fill="#FFC073"/>
<path d="M104.395 62.8754L105.682 64.1614L110.608 59.2295L109.32 57.9434L104.395 62.8754Z" fill="#FFC073"/>
<path d="M118.638 57.9241L117.352 59.212L122.284 64.1371L123.57 62.8492L118.638 57.9241Z" fill="#FFC073"/>
<path d="M117.354 62.8719L118.642 64.1579L123.567 59.2259L122.279 57.9399L117.354 62.8719Z" fill="#FFC073"/>
<path d="M66.843 70.0973L65.5569 71.3851L70.4889 76.3102L71.7749 75.0224L66.843 70.0973Z" fill="#FFC073"/>
<path d="M65.5573 75.0271L66.8452 76.3131L71.7702 71.3811L70.4824 70.0951L65.5573 75.0271Z" fill="#FFC073"/>
<path d="M79.7936 70.0798L78.5075 71.3676L83.4395 76.2927L84.7255 75.0049L79.7936 70.0798Z" fill="#FFC073"/>
<path d="M78.4997 75.0165L79.7876 76.3025L84.7127 71.3705L83.4248 70.0845L78.4997 75.0165Z" fill="#FFC073"/>
<path d="M92.7471 70.0693L91.4611 71.3571L96.3931 76.2822L97.6791 74.9944L92.7471 70.0693Z" fill="#FFC073"/>
<path d="M91.4492 75.0129L92.7371 76.2989L97.6622 71.3669L96.3743 70.0809L91.4492 75.0129Z" fill="#FFC073"/>
<path d="M105.691 70.0588L104.405 71.3466L109.337 76.2717L110.623 74.9839L105.691 70.0588Z" fill="#FFC073"/>
<path d="M104.419 74.9993L105.707 76.2853L110.632 71.3534L109.344 70.0673L104.419 74.9993Z" fill="#FFC073"/>
<path d="M118.651 70.0512L117.365 71.3391L122.297 76.2641L123.583 74.9763L118.651 70.0512Z" fill="#FFC073"/>
<path d="M117.361 74.9887L118.649 76.2747L123.574 71.3427L122.286 70.0567L117.361 74.9887Z" fill="#FFC073"/>
<path d="M66.7952 6.34901L65.5091 7.63684L70.4411 12.5619L71.7271 11.2741L66.7952 6.34901Z" fill="#FFC073"/>
<path d="M65.509 11.2848L66.7969 12.5708L71.722 7.63883L70.4341 6.35279L65.509 11.2848Z" fill="#FFC073"/>
<path d="M79.7458 6.33149L78.4598 7.61932L83.3918 12.5444L84.6778 11.2566L79.7458 6.33149Z" fill="#FFC073"/>
<path d="M78.4615 11.2742L79.7493 12.5602L84.6744 7.62827L83.3866 6.34223L78.4615 11.2742Z" fill="#FFC073"/>
<path d="M92.7064 6.32801L91.4204 7.61584L96.3524 12.5409L97.6384 11.2531L92.7064 6.32801Z" fill="#FFC073"/>
<path d="M91.418 11.2635L92.7059 12.5496L97.631 7.61759L96.3431 6.33155L91.418 11.2635Z" fill="#FFC073"/>
<path d="M105.66 6.32752L104.374 7.61536L109.306 12.5404L110.592 11.2526L105.66 6.32752Z" fill="#FFC073"/>
<path d="M104.378 11.25L105.665 12.536L110.59 7.60404L109.303 6.318L104.378 11.25Z" fill="#FFC073"/>
<path d="M118.604 6.31703L117.318 7.60486L122.249 12.53L123.536 11.2421L118.604 6.31703Z" fill="#FFC073"/>
<path d="M117.327 11.2464L118.615 12.5325L123.54 7.6005L122.252 6.31446L117.327 11.2464Z" fill="#FFC073"/>
<path d="M66.8023 19.3691L65.5162 20.6569L70.4482 25.582L71.7342 24.2942L66.8023 19.3691Z" fill="#FFC073"/>
<path d="M65.5191 24.3077L66.8069 25.5938L71.732 20.6618L70.4442 19.3757L65.5191 24.3077Z" fill="#FFC073"/>
<path d="M79.7558 19.3686L78.4698 20.6564L83.4018 25.5815L84.6878 24.2937L79.7558 19.3686Z" fill="#FFC073"/>
<path d="M78.4786 24.3041L79.7664 25.5901L84.6915 20.6582L83.4037 19.3721L78.4786 24.3041Z" fill="#FFC073"/>
<path d="M92.7165 19.3511L91.4304 20.6389L96.3624 25.564L97.6484 24.2762L92.7165 19.3511Z" fill="#FFC073"/>
<path d="M91.4211 24.2936L92.7089 25.5796L97.634 20.6476L96.3462 19.3616L91.4211 24.2936Z" fill="#FFC073"/>
<path d="M105.667 19.3477L104.381 20.6355L109.313 25.5606L110.599 24.2728L105.667 19.3477Z" fill="#FFC073"/>
<path d="M104.378 24.2829L105.665 25.569L110.591 20.637L109.303 19.351L104.378 24.2829Z" fill="#FFC073"/>
<path d="M118.621 19.3472L117.335 20.635L122.267 25.5601L123.553 24.2723L118.621 19.3472Z" fill="#FFC073"/>
<path d="M117.337 24.2793L118.625 25.5654L123.55 20.6334L122.262 19.3474L117.337 24.2793Z" fill="#FFC073"/>
<path d="M66.8155 31.4962L65.5294 32.784L70.4614 37.7091L71.7474 36.4213L66.8155 31.4962Z" fill="#FFC073"/>
<path d="M65.5262 36.4245L66.814 37.7106L71.7391 32.7786L70.4513 31.4926L65.5262 36.4245Z" fill="#FFC073"/>
<path d="M79.769 31.4857L78.483 32.7736L83.4149 37.6987L84.701 36.4108L79.769 31.4857Z" fill="#FFC073"/>
<path d="M78.4857 36.421L79.7735 37.707L84.6986 32.7751L83.4108 31.489L78.4857 36.421Z" fill="#FFC073"/>
<path d="M92.7126 31.4752L91.4265 32.7631L96.3585 37.6882L97.6446 36.4003L92.7126 31.4752Z" fill="#FFC073"/>
<path d="M91.4352 36.4174L92.7231 37.7034L97.6481 32.7715L96.3603 31.4854L91.4352 36.4174Z" fill="#FFC073"/>
<path d="M105.673 31.4677L104.387 32.7555L109.319 37.6806L110.605 36.3927L105.673 31.4677Z" fill="#FFC073"/>
<path d="M104.378 36.4068L105.665 37.6928L110.591 32.7608L109.303 31.4748L104.378 36.4068Z" fill="#FFC073"/>
<path d="M118.624 31.4642L117.338 32.752L122.27 37.6771L123.556 36.3893L118.624 31.4642Z" fill="#FFC073"/>
<path d="M117.344 36.3861L118.632 37.6722L123.557 32.7402L122.269 31.4542L117.344 36.3861Z" fill="#FFC073"/>
<path d="M130.352 122.094L129.066 123.382L133.998 128.307L135.284 127.019L130.352 122.094Z" fill="#FFC073"/>
<path d="M129.064 127.028L130.352 128.314L135.277 123.382L133.99 122.096L129.064 127.028Z" fill="#FFC073"/>
<path d="M143.306 122.084L142.02 123.372L146.952 128.297L148.238 127.009L143.306 122.084Z" fill="#FFC073"/>
<path d="M142.024 127.024L143.312 128.31L148.237 123.378L146.949 122.092L142.024 127.024Z" fill="#FFC073"/>
<path d="M156.273 122.083L154.987 123.371L159.919 128.296L161.205 127.008L156.273 122.083Z" fill="#FFC073"/>
<path d="M154.973 127.007L156.261 128.293L161.186 123.361L159.898 122.075L154.973 127.007Z" fill="#FFC073"/>
<path d="M169.217 122.073L167.931 123.361L172.863 128.286L174.149 126.998L169.217 122.073Z" fill="#FFC073"/>
<path d="M167.923 127.003L169.211 128.289L174.136 123.357L172.848 122.071L167.923 127.003Z" fill="#FFC073"/>
<path d="M130.369 135.124L129.083 136.412L134.015 141.337L135.301 140.05L130.369 135.124Z" fill="#FFC073"/>
<path d="M129.074 140.061L130.362 141.347L135.287 136.415L134 135.129L129.074 140.061Z" fill="#FFC073"/>
<path d="M143.313 135.114L142.027 136.402L146.959 141.327L148.245 140.039L143.313 135.114Z" fill="#FFC073"/>
<path d="M142.024 140.057L143.312 141.343L148.237 136.411L146.949 135.125L142.024 140.057Z" fill="#FFC073"/>
<path d="M156.274 135.096L154.987 136.384L159.919 141.309L161.205 140.022L156.274 135.096Z" fill="#FFC073"/>
<path d="M154.976 140.036L156.264 141.323L161.189 136.391L159.902 135.105L154.976 140.036Z" fill="#FFC073"/>
<path d="M169.234 135.093L167.948 136.381L172.88 141.306L174.166 140.018L169.234 135.093Z" fill="#FFC073"/>
<path d="M167.943 140.026L169.231 141.312L174.156 136.38L172.868 135.094L167.943 140.026Z" fill="#FFC073"/>
<path d="M130.372 147.252L129.086 148.539L134.018 153.464L135.304 152.177L130.372 147.252Z" fill="#FFC073"/>
<path d="M129.082 152.177L130.369 153.464L135.294 148.532L134.007 147.245L129.082 152.177Z" fill="#FFC073"/>
<path d="M143.326 147.231L142.04 148.519L146.972 153.444L148.258 152.156L143.326 147.231Z" fill="#FFC073"/>
<path d="M142.031 152.174L143.319 153.46L148.244 148.528L146.956 147.242L142.031 152.174Z" fill="#FFC073"/>
<path d="M156.28 147.211L154.994 148.498L159.926 153.424L161.212 152.136L156.28 147.211Z" fill="#FFC073"/>
<path d="M155.001 152.16L156.288 153.446L161.214 148.514L159.926 147.228L155.001 152.16Z" fill="#FFC073"/>
<path d="M169.23 147.203L167.944 148.491L172.876 153.416L174.162 152.128L169.23 147.203Z" fill="#FFC073"/>
<path d="M167.943 152.15L169.231 153.436L174.156 148.504L172.868 147.218L167.943 152.15Z" fill="#FFC073"/>
<path d="M130.335 83.4833L129.049 84.7711L133.981 89.6962L135.267 88.4084L130.335 83.4833Z" fill="#FFC073"/>
<path d="M129.043 88.4353L130.331 89.7213L135.256 84.7893L133.968 83.5033L129.043 88.4353Z" fill="#FFC073"/>
<path d="M143.285 83.4899L141.999 84.7777L146.931 89.7028L148.217 88.415L143.285 83.4899Z" fill="#FFC073"/>
<path d="M142 88.4146L143.288 89.7007L148.213 84.7687L146.925 83.4827L142 88.4146Z" fill="#FFC073"/>
<path d="M156.239 83.4794L154.953 84.7672L159.885 89.6923L161.171 88.4045L156.239 83.4794Z" fill="#FFC073"/>
<path d="M154.939 88.4211L156.227 89.7071L161.152 84.7751L159.864 83.4891L154.939 88.4211Z" fill="#FFC073"/>
<path d="M169.182 83.4689L167.896 84.7567L172.828 89.6818L174.114 88.394L169.182 83.4689Z" fill="#FFC073"/>
<path d="M167.899 88.4075L169.187 89.6935L174.112 84.7616L172.824 83.4755L167.899 88.4075Z" fill="#FFC073"/>
<path d="M130.335 96.5205L129.049 97.8083L133.981 102.733L135.267 101.446L130.335 96.5205Z" fill="#FFC073"/>
<path d="M129.05 101.465L130.338 102.751L135.263 97.8193L133.976 96.5333L129.05 101.465Z" fill="#FFC073"/>
<path d="M143.295 96.5129L142.009 97.8007L146.941 102.726L148.227 101.438L143.295 96.5129Z" fill="#FFC073"/>
<path d="M142.003 101.455L143.291 102.741L148.216 97.8087L146.928 96.5227L142.003 101.455Z" fill="#FFC073"/>
<path d="M156.246 96.5095L154.96 97.7973L159.892 102.722L161.178 101.435L156.246 96.5095Z" fill="#FFC073"/>
<path d="M154.959 101.444L156.247 102.73L161.172 97.798L159.885 96.512L154.959 101.444Z" fill="#FFC073"/>
<path d="M169.2 96.499L167.914 97.7868L172.846 102.712L174.132 101.424L169.2 96.499Z" fill="#FFC073"/>
<path d="M167.909 101.44L169.197 102.726L174.122 97.7945L172.834 96.5084L167.909 101.44Z" fill="#FFC073"/>
<path d="M130.348 108.648L129.062 109.935L133.994 114.86L135.28 113.573L130.348 108.648Z" fill="#FFC073"/>
<path d="M129.048 113.582L130.335 114.868L135.26 109.936L133.973 108.65L129.048 113.582Z" fill="#FFC073"/>
<path d="M143.299 108.63L142.013 109.918L146.944 114.843L148.231 113.555L143.299 108.63Z" fill="#FFC073"/>
<path d="M142 113.571L143.288 114.857L148.213 109.925L146.925 108.639L142 113.571Z" fill="#FFC073"/>
<path d="M156.259 108.627L154.973 109.914L159.905 114.839L161.191 113.552L156.259 108.627Z" fill="#FFC073"/>
<path d="M154.967 113.561L156.254 114.847L161.179 109.915L159.892 108.629L154.967 113.561Z" fill="#FFC073"/>
<path d="M169.203 108.616L167.917 109.904L172.849 114.829L174.135 113.541L169.203 108.616Z" fill="#FFC073"/>
<path d="M167.916 113.557L169.204 114.843L174.129 109.911L172.841 108.625L167.916 113.557Z" fill="#FFC073"/>
<path d="M130.307 44.9063L129.021 46.1942L133.953 51.1192L135.239 49.8314L130.307 44.9063Z" fill="#FFC073"/>
<path d="M129.016 49.8328L130.304 51.1188L135.229 46.1869L133.941 44.9008L129.016 49.8328Z" fill="#FFC073"/>
<path d="M143.251 44.8859L141.965 46.1737L146.897 51.0988L148.183 49.811L143.251 44.8859Z" fill="#FFC073"/>
<path d="M141.966 49.8293L143.254 51.1153L148.179 46.1833L146.891 44.8973L141.966 49.8293Z" fill="#FFC073"/>
<path d="M156.211 44.8783L154.925 46.1661L159.857 51.0912L161.143 49.8034L156.211 44.8783Z" fill="#FFC073"/>
<path d="M154.928 49.8186L156.216 51.1046L161.141 46.1726L159.853 44.8866L154.928 49.8186Z" fill="#FFC073"/>
<path d="M169.165 44.8678L167.879 46.1556L172.811 51.0807L174.097 49.7929L169.165 44.8678Z" fill="#FFC073"/>
<path d="M167.878 49.815L169.166 51.1011L174.091 46.1691L172.803 44.8831L167.878 49.815Z" fill="#FFC073"/>
<path d="M130.314 57.9265L129.028 59.2143L133.96 64.1394L135.246 62.8515L130.314 57.9265Z" fill="#FFC073"/>
<path d="M129.026 62.8657L130.314 64.1517L135.239 59.2198L133.952 57.9337L129.026 62.8657Z" fill="#FFC073"/>
<path d="M143.268 57.916L141.982 59.2038L146.914 64.1289L148.2 62.841L143.268 57.916Z" fill="#FFC073"/>
<path d="M141.986 62.8521L143.274 64.1382L148.199 59.2062L146.911 57.9202L141.986 62.8521Z" fill="#FFC073"/>
<path d="M156.221 57.9155L154.935 59.2033L159.867 64.1284L161.153 62.8406L156.221 57.9155Z" fill="#FFC073"/>
<path d="M154.925 62.8486L156.213 64.1346L161.138 59.2026L159.851 57.9166L154.925 62.8486Z" fill="#FFC073"/>
<path d="M169.172 57.8979L167.886 59.1857L172.818 64.1108L174.104 62.823L169.172 57.8979Z" fill="#FFC073"/>
<path d="M167.878 62.8379L169.166 64.124L174.091 59.192L172.803 57.9059L167.878 62.8379Z" fill="#FFC073"/>
<path d="M130.328 70.0435L129.042 71.3314L133.973 76.2565L135.26 74.9686L130.328 70.0435Z" fill="#FFC073"/>
<path d="M129.044 74.9725L130.331 76.2585L135.256 71.3266L133.969 70.0405L129.044 74.9725Z" fill="#FFC073"/>
<path d="M143.281 70.043L141.995 71.3309L146.927 76.256L148.213 74.9681L143.281 70.043Z" fill="#FFC073"/>
<path d="M141.993 74.969L143.281 76.255L148.206 71.323L146.918 70.037L141.993 74.969Z" fill="#FFC073"/>
<path d="M156.225 70.0425L154.939 71.3304L159.871 76.2555L161.157 74.9676L156.225 70.0425Z" fill="#FFC073"/>
<path d="M154.933 74.9754L156.22 76.2614L161.145 71.3294L159.858 70.0434L154.933 74.9754Z" fill="#FFC073"/>
<path d="M169.185 70.015L167.899 71.3028L172.831 76.2279L174.117 74.9401L169.185 70.015Z" fill="#FFC073"/>
<path d="M167.885 74.9548L169.173 76.2408L174.098 71.3088L172.81 70.0228L167.885 74.9548Z" fill="#FFC073"/>
<path d="M130.283 6.31227L128.997 7.6001L133.929 12.5252L135.215 11.2374L130.283 6.31227Z" fill="#FFC073"/>
<path d="M128.992 11.2473L130.28 12.5333L135.205 7.60135L133.917 6.31532L128.992 11.2473Z" fill="#FFC073"/>
<path d="M143.233 6.29474L141.947 7.58258L146.879 12.5077L148.165 11.2198L143.233 6.29474Z" fill="#FFC073"/>
<path d="M141.945 11.2267L143.233 12.5128L148.158 7.58078L146.87 6.29474L141.945 11.2267Z" fill="#FFC073"/>
<path d="M156.177 6.28426L154.891 7.57208L159.823 12.4972L161.109 11.2093L156.177 6.28426Z" fill="#FFC073"/>
<path d="M154.894 11.2231L156.182 12.5092L161.107 7.57718L159.819 6.29115L154.894 11.2231Z" fill="#FFC073"/>
<path d="M169.13 6.27376L167.844 7.56158L172.776 12.4867L174.062 11.1988L169.13 6.27376Z" fill="#FFC073"/>
<path d="M167.854 11.2196L169.142 12.5056L174.067 7.57364L172.779 6.28761L167.854 11.2196Z" fill="#FFC073"/>
<path d="M130.29 19.3324L129.004 20.6202L133.936 25.5453L135.222 24.2575L130.29 19.3324Z" fill="#FFC073"/>
<path d="M129.002 24.2702L130.29 25.5563L135.215 20.6243L133.927 19.3383L129.002 24.2702Z" fill="#FFC073"/>
<path d="M143.25 19.3248L141.964 20.6127L146.896 25.5378L148.182 24.2499L143.25 19.3248Z" fill="#FFC073"/>
<path d="M141.945 24.2596L143.233 25.5457L148.158 20.6137L146.87 19.3277L141.945 24.2596Z" fill="#FFC073"/>
<path d="M156.184 19.3043L154.898 20.5922L159.83 25.5173L161.116 24.2294L156.184 19.3043Z" fill="#FFC073"/>
<path d="M154.904 24.256L156.192 25.5421L161.117 20.6101L159.829 19.3241L154.904 24.256Z" fill="#FFC073"/>
<path d="M169.138 19.3038L167.851 20.5917L172.783 25.5168L174.069 24.2289L169.138 19.3038Z" fill="#FFC073"/>
<path d="M167.864 24.2425L169.152 25.5285L174.077 20.5965L172.789 19.3105L167.864 24.2425Z" fill="#FFC073"/>
<path d="M130.293 31.4495L129.007 32.7373L133.939 37.6624L135.225 36.3746L130.293 31.4495Z" fill="#FFC073"/>
<path d="M129.009 36.3871L130.297 37.6731L135.222 32.7411L133.935 31.4551L129.009 36.3871Z" fill="#FFC073"/>
<path d="M143.247 31.449L141.96 32.7368L146.892 37.6619L148.178 36.3741L143.247 31.449Z" fill="#FFC073"/>
<path d="M141.959 36.3835L143.247 37.6696L148.172 32.7376L146.884 31.4516L141.959 36.3835Z" fill="#FFC073"/>
<path d="M156.197 31.4214L154.911 32.7092L159.843 37.6343L161.129 36.3465L156.197 31.4214Z" fill="#FFC073"/>
<path d="M154.921 36.3628L156.209 37.6489L161.134 32.7169L159.846 31.4309L154.921 36.3628Z" fill="#FFC073"/>
<path d="M169.151 31.4209L167.865 32.7087L172.797 37.6338L174.083 36.346L169.151 31.4209Z" fill="#FFC073"/>
<path d="M167.861 36.3593L169.149 37.6453L174.074 32.7134L172.786 31.4273L167.861 36.3593Z" fill="#FFC073"/>
</g>
<path d="M70.6 0H68V6.5H70.6V0Z" fill="#103155"/>
<path d="M70.6 0H68V6.5H70.6V0Z" fill="#103155"/>
<path d="M70.6 107.26H68V113.76H70.6V107.26Z" fill="#103155"/>
<path d="M18.92 55.58H12.42V58.18H18.92V55.58Z" fill="#103155"/>
<path d="M18.92 55.58H12.42V58.18H18.92V55.58Z" fill="#103155"/>
<path d="M126.18 55.58H119.68V58.18H126.18V55.58Z" fill="#103155"/>
<path d="M30.0069 15.7404L28.1684 17.5789L32.7646 22.1751L34.6031 20.3366L30.0069 15.7404Z" fill="#103155"/>
<path d="M30.0069 15.7404L28.1684 17.5789L32.7646 22.1751L34.6031 20.3366L30.0069 15.7404Z" fill="#103155"/>
<path d="M105.841 91.5904L104.002 93.4289L108.599 98.0251L110.437 96.1866L105.841 91.5904Z" fill="#103155"/>
<path d="M32.7589 91.5816L28.1635 96.1786L30.0023 98.0167L34.5977 93.4197L32.7589 91.5816Z" fill="#103155"/>
<path d="M32.7589 91.5816L28.1635 96.1786L30.0023 98.0167L34.5977 93.4197L32.7589 91.5816Z" fill="#103155"/>
<path d="M108.6 15.7376L104.005 20.3346L105.844 22.1728L110.439 17.5758L108.6 15.7376Z" fill="#103155"/>
<path d="M57.6058 1.20156L55.0742 1.79395L56.5551 8.12298L59.0867 7.5306L57.6058 1.20156Z" fill="#103155"/>
<path d="M57.6058 1.20156L55.0742 1.79395L56.5551 8.12298L59.0867 7.5306L57.6058 1.20156Z" fill="#103155"/>
<path d="M82.0484 105.644L79.5168 106.236L80.9978 112.565L83.5294 111.973L82.0484 105.644Z" fill="#103155"/>
<path d="M19.9543 67.0924L13.6258 68.5756L14.2191 71.107L20.5476 69.6239L19.9543 67.0924Z" fill="#103155"/>
<path d="M19.9543 67.0924L13.6258 68.5756L14.2191 71.107L20.5476 69.6239L19.9543 67.0924Z" fill="#103155"/>
<path d="M124.39 42.6589L118.061 44.141L118.654 46.6725L124.983 45.1904L124.39 42.6589Z" fill="#103155"/>
<path d="M21.6625 25.7792L20.2917 27.9884L25.8148 31.4155L27.1856 29.2063L21.6625 25.7792Z" fill="#103155"/>
<path d="M21.6625 25.7792L20.2917 27.9884L25.8148 31.4155L27.1856 29.2063L21.6625 25.7792Z" fill="#103155"/>
<path d="M112.791 82.3366L111.42 84.5458L116.943 87.973L118.314 85.7637L112.791 82.3366Z" fill="#103155"/>
<path d="M41.6368 98.994L38.2086 104.517L40.4177 105.888L43.8458 100.365L41.6368 98.994Z" fill="#103155"/>
<path d="M41.6368 98.994L38.2086 104.517L40.4177 105.888L43.8458 100.365L41.6368 98.994Z" fill="#103155"/>
<path d="M98.1825 7.86244L94.7544 13.3849L96.9634 14.7562L100.391 9.23368L98.1825 7.86244Z" fill="#103155"/>
<path d="M49.5295 3.52404L47.1129 4.48328L49.511 10.5247L51.9275 9.5655L49.5295 3.52404Z" fill="#103155"/>
<path d="M49.5295 3.52404L47.1129 4.48328L49.511 10.5247L51.9275 9.5655L49.5295 3.52404Z" fill="#103155"/>
<path d="M89.0916 103.226L86.675 104.185L89.0731 110.226L91.4897 109.267L89.0916 103.226Z" fill="#103155"/>
<path d="M21.9916 74.2489L15.9502 76.647L16.9094 79.0636L22.9509 76.6655L21.9916 74.2489Z" fill="#103155"/>
<path d="M21.9916 74.2489L15.9502 76.647L16.9094 79.0636L22.9509 76.6655L21.9916 74.2489Z" fill="#103155"/>
<path d="M121.693 34.6868L115.652 37.0848L116.611 39.5014L122.652 37.1033L121.693 34.6868Z" fill="#103155"/>
<path d="M17.6 33.1366L16.5691 35.5235L22.5363 38.1008L23.5672 35.7139L17.6 33.1366Z" fill="#103155"/>
<path d="M17.6 33.1366L16.5691 35.5235L22.5363 38.1008L23.5672 35.7139L17.6 33.1366Z" fill="#103155"/>
<path d="M116.079 75.6675L115.048 78.0544L121.015 80.6317L122.046 78.2448L116.079 75.6675Z" fill="#103155"/>
<path d="M48.1439 102.626L45.5677 108.593L47.9547 109.624L50.531 103.656L48.1439 102.626Z" fill="#103155"/>
<path d="M48.1439 102.626L45.5677 108.593L47.9547 109.624L50.531 103.656L48.1439 102.626Z" fill="#103155"/>
<path d="M90.6521 4.14581L88.0758 10.1135L90.4629 11.144L93.0391 5.17631L90.6521 4.14581Z" fill="#103155"/>
<path d="M37.8932 9.44252L35.7587 10.9271L39.4702 16.2633L41.6047 14.7787L37.8932 9.44252Z" fill="#103155"/>
<path d="M37.8932 9.44252L35.7587 10.9271L39.4702 16.2633L41.6047 14.7787L37.8932 9.44252Z" fill="#103155"/>
<path d="M99.1386 97.4916L97.0042 98.9762L100.716 104.312L102.85 102.828L99.1386 97.4916Z" fill="#103155"/>
<path d="M27.2019 84.5752L21.8657 88.2867L23.3503 90.4212L28.6865 86.7097L27.2019 84.5752Z" fill="#103155"/>
<path d="M27.2019 84.5752L21.8657 88.2867L23.3503 90.4212L28.6865 86.7097L27.2019 84.5752Z" fill="#103155"/>
<path d="M115.259 23.3437L109.922 27.0552L111.407 29.1897L116.743 25.4782L115.259 23.3437Z" fill="#103155"/>
<path d="M13.5445 45.5437L13.085 48.1027L19.4826 49.2515L19.9422 46.6925L13.5445 45.5437Z" fill="#103155"/>
<path d="M13.5445 45.5437L13.085 48.1027L19.4826 49.2515L19.9422 46.6925L13.5445 45.5437Z" fill="#103155"/>
<path d="M119.125 64.5066L118.665 67.0657L125.063 68.2145L125.522 65.6554L119.125 64.5066Z" fill="#103155"/>
<path d="M59.1235 106.236L57.9758 112.634L60.535 113.093L61.6827 106.695L59.1235 106.236Z" fill="#103155"/>
<path d="M59.1235 106.236L57.9758 112.634L60.535 113.093L61.6827 106.695L59.1235 106.236Z" fill="#103155"/>
<path d="M78.0702 0.661453L76.9225 7.05933L79.4816 7.51841L80.6293 1.12053L78.0702 0.661453Z" fill="#103155"/>
</g>
<defs>
<clipPath id="clip0_2628_41526">
<rect width="252.63" height="153.55" fill="white"/>
</clipPath>
</defs>
</svg>
