<svg width="105" height="139" viewBox="0 0 105 139" fill="none" xmlns="http://www.w3.org/2000/svg">
<g opacity="0.2" clip-path="url(#clip0_1_10734)">
<path d="M119.05 19.9502L30.3407 41.1767L64.0821 74.918L97.8148 108.651L119.05 19.9502Z" fill="#FE45D7"/>
<path d="M105.173 139C104.89 139 104.616 138.889 104.419 138.683L0.316995 34.5809C0.0428839 34.3068 -0.0599078 33.9042 0.0428839 33.5359C0.145676 33.159 0.445484 32.8763 0.822387 32.7821L137.681 0.0257988C138.041 -0.0598609 138.426 0.0514967 138.683 0.308476C138.949 0.574021 139.051 0.950924 138.966 1.31069L106.21 138.169C106.115 138.546 105.833 138.846 105.456 138.949C105.361 138.974 105.259 138.992 105.164 138.992L105.173 139ZM3.17803 34.4267L104.573 135.822L136.482 2.5185L3.17803 34.4267Z" fill="#FFE610"/>
<path d="M105.173 139C104.899 139 104.625 138.897 104.419 138.683L0.316976 34.581C-0.025663 34.2384 -0.0941908 33.7158 0.145656 33.2961C0.385504 32.8764 0.873764 32.6708 1.34489 32.7907L84.2035 54.0343C84.5804 54.1285 84.8802 54.4283 84.9745 54.8052L106.218 137.664C106.338 138.135 106.132 138.623 105.713 138.863C105.55 138.957 105.361 139 105.182 139H105.173ZM4.5914 35.8316L103.16 134.4L83.0471 55.9531L4.5914 35.8316Z" fill="#FFE610"/>
<path d="M84.6147 55.4562C84.3406 55.4562 84.0665 55.3534 83.8609 55.1393C83.4412 54.7195 83.4412 54.0428 83.8609 53.6231L135.599 1.88462C136.019 1.46489 136.696 1.46489 137.116 1.88462C137.535 2.30436 137.535 2.98107 137.116 3.4008L85.3771 55.1393C85.1715 55.3448 84.8974 55.4562 84.6233 55.4562H84.6147Z" fill="#FFE610"/>
</g>
<defs>
<clipPath id="clip0_1_10734">
<rect width="139" height="139" fill="white"/>
</clipPath>
</defs>
</svg>
