<svg width="55" height="55" viewBox="0 0 55 55" fill="none" xmlns="http://www.w3.org/2000/svg">
<path fill-rule="evenodd" clip-rule="evenodd" d="M0 27.4999C0 6.87649 6.87646 0 27.4999 0C48.1234 0 55 6.87649 55 27.4999C55 48.1233 48.1234 55 27.4999 55C6.87646 55 0 48.1233 0 27.4999Z" fill="#FFE610"/>
<ellipse cx="28" cy="29.0542" rx="24" ry="23.9458" fill="#FFD910"/>
<path d="M45.1434 29.6785L43.817 29.2411L44.1282 32.8281C44.1282 32.8281 45.185 33.2582 45.1433 33.1889C45.1016 33.1195 45.1433 29.6786 45.1433 29.6786L45.1434 29.6785Z" fill="#FD64AD"/>
<path d="M38.5979 32.9364C46.9037 32.8082 46.7284 19.6704 38.4816 19.7047C38.4518 19.7044 38.4217 19.704 38.392 19.7047C36.1482 19.7395 34.3762 22.7295 34.4332 26.3838C34.4891 30.0373 36.3541 32.9712 38.5979 32.9364Z" fill="#FFA363"/>
<g opacity="0.55">
<path d="M42.6456 31.4382C45.7318 27.6961 44.0909 20.2907 37.897 20.3165C37.8668 20.3159 37.8374 20.3154 37.8077 20.3165C37.1466 20.3272 36.5266 20.5934 35.9821 21.0584C36.6471 20.2213 37.4817 19.7195 38.3933 19.7048C38.4228 19.7036 38.4522 19.7041 38.4826 19.7048C45.0361 19.6775 46.4929 27.9681 42.6456 31.4382Z" fill="white"/>
</g>
<path d="M38.5586 33.2697C37.3697 33.2697 36.2547 32.5441 35.414 31.2216C34.5948 29.9328 34.1282 28.2165 34.1001 26.389C34.0716 24.561 34.4846 22.8311 35.2631 21.5176C36.0721 20.1526 37.1817 19.3907 38.3873 19.3719C38.4184 19.3711 38.4526 19.3716 38.4866 19.3719H38.5202C40.5148 19.3719 42.2054 20.117 43.4049 21.5281C44.4683 22.7788 45.0635 24.4616 45.0812 26.2663C45.0989 28.0691 44.537 29.7591 43.4992 31.0248C42.3206 32.4622 40.6276 33.2383 38.6036 33.2696C38.5886 33.2696 38.5734 33.2699 38.5582 33.2699L38.5586 33.2697ZM38.4319 20.0372C38.4214 20.0372 38.411 20.0372 38.401 20.0376C37.4333 20.0526 36.5242 20.6986 35.8378 21.8564C35.1211 23.0657 34.7409 24.6717 34.7676 26.3785C34.7937 28.0851 35.2235 29.6782 35.9777 30.8648C36.6997 32.001 37.6274 32.6219 38.5934 32.6034C42.6347 32.541 44.4436 29.2779 44.414 26.2726C44.3845 23.2658 42.5252 20.0376 38.5148 20.0376C38.5043 20.0376 38.4943 20.0376 38.4836 20.0376C38.4646 20.0374 38.4477 20.0372 38.4317 20.0372H38.4319Z" fill="#1F2F40"/>
<path d="M42.8401 38.1531C42.4588 39.0513 41.9914 39.9085 41.4477 40.7132C41.421 40.7528 41.3943 40.7924 41.3669 40.831C41.2848 40.9513 41.2005 41.0693 41.1146 41.1872C41.0826 41.2316 41.0499 41.2761 41.0165 41.3194C40.916 41.4546 40.8126 41.5876 40.7078 41.7193C40.6664 41.7721 40.6236 41.8239 40.5811 41.8748C40.521 41.9494 40.4594 42.022 40.397 42.0951C40.355 42.1436 40.3134 42.193 40.2705 42.2413C40.2285 42.2897 40.1854 42.338 40.1427 42.3855C40.0998 42.4338 40.0563 42.481 40.0126 42.5283C39.9788 42.5648 39.945 42.6014 39.9104 42.6377C39.8724 42.6785 39.8343 42.7193 39.7949 42.7589C39.7559 42.8004 39.7162 42.8417 39.6756 42.8818C39.6156 42.9436 39.5536 43.005 39.4921 43.0658C39.4569 43.1013 39.421 43.1356 39.3861 43.1694C39.3225 43.2313 39.2584 43.2914 39.1944 43.3517C39.139 43.4025 39.0844 43.4536 39.0283 43.5035C38.9969 43.532 38.9649 43.5605 38.9329 43.5888C38.9068 43.6124 38.881 43.6352 38.8551 43.658C38.792 43.7133 38.7289 43.7686 38.6635 43.8225C38.6148 43.8655 38.5649 43.9063 38.5158 43.9474C38.4708 43.985 38.4251 44.0217 38.3793 44.0585C38.3071 44.1169 38.234 44.1753 38.1606 44.2319C38.113 44.2691 38.0658 44.3054 38.0184 44.3418C37.9662 44.3815 37.9139 44.4211 37.861 44.4597C37.8058 44.5013 37.7492 44.5416 37.6933 44.5823C37.3547 44.8259 37.0055 45.0555 36.6453 45.2711C36.5796 45.3105 36.5138 45.3492 36.4474 45.3876C36.3423 45.4489 36.2365 45.5092 36.1295 45.5666C36.0556 45.6079 35.9803 45.6479 35.9051 45.688C35.6329 45.8303 35.3562 45.9659 35.0744 46.0926C35.007 46.1232 34.9387 46.1537 34.8699 46.1823C34.8407 46.196 34.812 46.208 34.7832 46.2201C34.7113 46.2516 34.639 46.2812 34.5666 46.3109C34.4664 46.3518 34.3646 46.3918 34.2632 46.4307C34.1894 46.4592 34.1148 46.4867 34.0396 46.514C34.0182 46.5225 33.9964 46.53 33.9753 46.5368C33.8999 46.5649 33.824 46.5912 33.747 46.6175C33.736 46.6212 33.7252 46.625 33.7132 46.6294C33.6319 46.6563 33.5498 46.684 33.4679 46.71C33.455 46.7141 33.4415 46.7183 33.4288 46.7224C33.3552 46.7459 33.2816 46.7684 33.2084 46.7902C33.0951 46.8243 32.9804 46.8573 32.8649 46.8893C32.7683 46.9166 32.6705 46.9419 32.5727 46.9665C32.4793 46.991 32.3862 47.014 32.2916 47.0358C32.2764 47.0395 32.2612 47.0433 32.2452 47.0459C32.1639 47.0653 32.0818 47.0836 32 47.1012C31.9877 47.1039 31.9752 47.1064 31.962 47.1089C31.8996 47.1227 31.8367 47.1355 31.7737 47.1475C31.7452 47.1537 31.717 47.159 31.6886 47.1643C31.6523 47.1715 31.6167 47.1788 31.5807 47.1851C31.5276 47.1948 31.4739 47.2045 31.42 47.2139C31.3953 47.2183 31.3714 47.2229 31.3469 47.2264C31.2569 47.2423 31.1663 47.2564 31.075 47.2704C29.2593 47.5459 27.4689 47.4893 25.7667 47.1475C25.572 47.1084 25.3782 47.0653 25.1858 47.019C24.9066 46.9519 24.63 46.876 24.3565 46.7929C24.285 46.7717 24.2144 46.7499 24.1444 46.7264C23.8443 46.6314 23.5479 46.5268 23.2552 46.4128C23.1958 46.3906 23.1361 46.3668 23.0772 46.3422C23.0084 46.3157 22.9402 46.2874 22.8728 46.2586C22.81 46.2324 22.7473 46.2053 22.6855 46.1785C22.6667 46.1705 22.648 46.1625 22.6293 46.1537C22.5525 46.1204 22.4769 46.0866 22.4007 46.0508C22.3259 46.0163 22.2503 45.9815 22.1759 45.9454C22.1315 45.9246 22.0866 45.9028 22.0417 45.8803C21.9983 45.8588 21.9551 45.8373 21.9117 45.816C21.8623 45.7909 21.8136 45.7666 21.7644 45.7406C21.6958 45.7048 21.6274 45.6688 21.559 45.6322C21.4944 45.5981 21.4293 45.5619 21.365 45.5261C21.355 45.5208 21.3444 45.5152 21.3337 45.5088C21.2609 45.4687 21.1885 45.4271 21.1169 45.3855C21.1024 45.3775 21.0872 45.3685 21.0727 45.3596C20.9988 45.3169 20.9258 45.2732 20.8531 45.2289C20.8486 45.2263 20.8447 45.2239 20.8409 45.2215C20.7641 45.1755 20.6885 45.1289 20.6131 45.0806C20.6024 45.0743 20.5927 45.0679 20.5822 45.0608C20.509 45.0147 20.4367 44.9679 20.3646 44.9203C20.3548 44.9141 20.3449 44.9078 20.3361 44.9009C20.2692 44.857 20.2033 44.813 20.1383 44.7677C20.1188 44.7544 20.1001 44.7423 20.0816 44.7283C20.0232 44.6885 19.965 44.648 19.9079 44.6067C19.881 44.5878 19.8543 44.5688 19.8283 44.55C19.7659 44.5052 19.7043 44.4597 19.6431 44.4134C19.6386 44.4108 19.634 44.4074 19.6305 44.4041C19.5638 44.355 19.4975 44.3044 19.432 44.2538C19.4151 44.2401 19.3981 44.2275 19.3812 44.2138C19.3121 44.16 19.2422 44.1052 19.1743 44.05C19.1121 44 19.05 43.9494 18.9887 43.8981C18.9624 43.8766 18.937 43.8555 18.9116 43.8334C18.8491 43.7809 18.7875 43.7278 18.7259 43.6738C18.652 43.6097 18.5791 43.545 18.5071 43.4795C18.4394 43.4184 18.3728 43.3567 18.3062 43.2939C18.299 43.2874 18.2919 43.2807 18.2849 43.2734C18.2161 43.2095 18.1484 43.144 18.0809 43.0779C18.0114 43.0097 17.9419 42.9404 17.8733 42.8707C17.8049 42.8009 17.7372 42.7313 17.6699 42.6599C17.6257 42.6136 17.5815 42.5665 17.5376 42.5187C17.4585 42.4339 17.3806 42.3478 17.304 42.2594C17.1673 42.1054 17.034 41.9479 16.9046 41.7877C16.8704 41.7461 16.8364 41.7043 16.8032 41.662C16.7855 41.6399 16.768 41.6176 16.7504 41.5946C16.7212 41.5581 16.6929 41.521 16.6638 41.4839C16.5053 41.2788 16.3524 41.0698 16.2049 40.8559C16.1739 40.8114 16.1437 40.7671 16.1135 40.7228C16.0317 40.6011 15.9509 40.4779 15.8722 40.3542C15.844 40.3086 15.8154 40.2638 15.7872 40.2182C15.7839 40.2133 15.7809 40.2075 15.7776 40.2027C15.711 40.0941 15.6452 39.9851 15.5806 39.8752C15.5523 39.8262 15.5239 39.7771 15.4955 39.7273C15.4326 39.6171 15.371 39.5052 15.3111 39.393C15.2839 39.3425 15.2574 39.2923 15.2304 39.2408C15.1126 39.015 14.9999 38.7843 14.8929 38.5505C14.8769 38.5159 14.8609 38.4812 14.8452 38.4458C14.7693 38.2776 14.6972 38.1078 14.6273 37.9358C14.6033 37.8775 14.5802 37.8186 14.5574 37.7595C14.4399 37.4599 14.3314 37.1544 14.233 36.8451C14.2121 36.7798 14.1919 36.7154 14.1727 36.6504C14.1665 36.6304 14.1604 36.6106 14.155 36.5908C14.1437 36.5545 14.133 36.5184 14.1227 36.4816C14.1055 36.4238 14.0883 36.3652 14.0728 36.3068C14.0691 36.2958 14.0661 36.2851 14.0639 36.2745C14.0377 36.1809 14.0123 36.0875 13.9888 35.9928C13.9693 35.9167 13.9498 35.8406 13.9327 35.7642C13.9074 35.6623 13.8837 35.5599 13.8627 35.458C13.8503 35.4053 13.8395 35.3539 13.8288 35.3008C13.8136 35.2282 13.7987 35.1546 13.7846 35.0813C13.7679 34.9956 13.7529 34.9093 13.7372 34.8229C13.7347 34.8055 13.7313 34.7886 13.7288 34.7712C13.7131 34.6806 13.6983 34.5892 13.6843 34.4981C13.3974 32.613 13.4692 30.7557 13.8506 28.9965C13.8645 28.9322 13.8782 28.8686 13.8935 28.8047C13.9087 28.7381 13.9244 28.6725 13.9403 28.6069C13.9461 28.5826 13.9518 28.5582 13.9583 28.5341C13.9718 28.48 13.9851 28.4265 13.9992 28.3733C14.0038 28.3546 14.0083 28.336 14.0138 28.3177C14.0355 28.2354 14.0579 28.1542 14.0811 28.0731C14.1066 27.9805 14.1338 27.8874 14.1627 27.7957C14.1841 27.7236 14.2063 27.6515 14.2301 27.5799C14.24 27.5479 14.2496 27.5168 14.2612 27.4852C14.2817 27.4214 14.302 27.3583 14.3241 27.2957C14.3354 27.2606 14.3474 27.2264 14.3603 27.1918C14.3828 27.1267 14.4062 27.0618 14.4302 26.997C14.435 26.9818 14.4406 26.9669 14.4469 26.9519C14.4763 26.8695 14.5083 26.7867 14.5402 26.7048C14.5744 26.6157 14.6101 26.527 14.6468 26.4384C14.6835 26.349 14.7209 26.2614 14.7591 26.173C14.7898 26.1011 14.8212 26.0301 14.8536 25.9584C14.8566 25.9522 14.8594 25.946 14.8626 25.9389C14.8751 25.9108 14.8883 25.8829 14.9018 25.8541C14.9327 25.7855 14.965 25.7183 14.9974 25.65C15.0371 25.5671 15.0775 25.4852 15.1189 25.4026C15.1237 25.3908 15.1304 25.3795 15.1361 25.3678C15.1746 25.2905 15.2149 25.2138 15.2549 25.1377C15.334 24.9864 15.4161 24.8363 15.5004 24.6885C15.5045 24.6808 15.5094 24.6733 15.5146 24.665C15.5398 24.6201 15.566 24.5751 15.592 24.5303C15.7217 24.3092 15.8567 24.0918 15.9968 23.878C16.0424 23.8082 16.0888 23.7384 16.135 23.6697C16.2233 23.5405 16.3127 23.4133 16.4047 23.2866C16.4297 23.2508 16.4556 23.2153 16.4824 23.1798C16.4956 23.1612 16.5085 23.1435 16.5232 23.1261C16.561 23.0734 16.6006 23.021 16.6408 22.9689C16.6987 22.893 16.7571 22.8182 16.8165 22.7434C16.8679 22.6782 16.9212 22.6132 16.9742 22.5483C16.9936 22.5242 17.0138 22.5002 17.0338 22.4762C17.0779 22.4223 17.1226 22.3692 17.1681 22.3164C17.1736 22.3099 17.1803 22.3027 17.186 22.2954C17.2315 22.2426 17.2761 22.1903 17.3222 22.1394C17.4049 22.0456 17.4884 21.9529 17.5731 21.8612C17.6254 21.8046 17.6774 21.7496 17.7303 21.694C17.8176 21.6029 17.9056 21.5135 17.995 21.4244C18.0444 21.374 18.0953 21.324 18.1469 21.2749C18.2952 21.1306 18.4471 20.9895 18.6018 20.8509C18.6421 20.8149 18.6819 20.7786 18.7229 20.7436C18.7456 20.7236 18.7685 20.7035 18.792 20.6837C18.8424 20.6404 18.894 20.5963 18.9452 20.5532C18.9862 20.518 19.0281 20.4841 19.07 20.4491C19.1863 20.3535 19.304 20.2599 19.423 20.1675C19.4695 20.1311 19.5159 20.0953 19.5628 20.0606C19.571 20.0538 19.58 20.0472 19.588 20.0412C19.6372 20.0035 19.6873 19.9669 19.7372 19.9301C20.008 19.7306 20.2867 19.5395 20.5724 19.3592C20.6283 19.3229 20.6847 19.2874 20.7411 19.253L20.7499 19.2471C20.8636 19.1774 20.9779 19.1086 21.0935 19.0418C22.7091 18.1011 24.525 17.4443 26.4856 17.1469C34.8231 15.8827 42.6091 21.6013 43.8762 29.9197C44.1342 31.6105 44.1023 33.2787 43.8178 34.8741C43.6157 36.0104 43.2858 37.1093 42.8403 38.1534L42.8401 38.1531Z" fill="#FD64AD"/>
<path d="M41.5468 40.5654C37.2638 44.2356 30.3974 45.8954 23.2164 44.4529C21.2575 44.0593 19.4101 43.4624 17.7078 42.6991C16.6539 41.5957 15.7616 40.3279 15.0742 38.9296C17.3033 40.3761 19.9184 41.4619 22.7977 42.0403C32.8129 44.0523 42.2591 39.1699 44.0114 31.1191C44.2624 34.557 43.3351 37.849 41.5468 40.5656V40.5654Z" fill="#FF449E"/>
<path d="M36.549 19.0934C34.224 21.2852 30.0183 23.0286 25.0819 23.5801C21.9317 23.9314 18.9634 23.7436 16.5122 23.14C16.7966 22.7556 17.1004 22.3844 17.4218 22.0276C17.4254 22.0233 17.4294 22.0198 17.4329 22.0155C17.5634 21.8709 17.6967 21.7288 17.8322 21.5887C18.0481 21.3663 18.2712 21.1505 18.5015 20.9419C20.1479 21.0791 21.9235 21.0578 23.7601 20.8518C27.635 20.4192 31.0594 19.2526 33.4774 17.7096C34.0607 17.8981 34.6294 18.1211 35.1812 18.3763C35.3741 18.466 35.5649 18.5586 35.7538 18.656C35.8689 18.714 35.9827 18.7742 36.0962 18.836C36.2487 18.9193 36.3993 19.0047 36.549 19.0934Z" fill="#FF449E"/>
<path d="M43.5602 28.3801C41.6144 35.4834 32.4466 39.6012 22.6343 37.6301C19.1842 36.9369 16.101 35.5813 13.593 33.7953C13.5593 33.4854 13.5368 33.1759 13.5239 32.8685C13.5153 32.6875 13.5109 32.5067 13.5089 32.3271C15.8545 33.8334 18.6405 34.9791 21.7168 35.5971C31.6853 37.5998 40.9891 33.3179 42.7305 26.0046C42.8571 26.2882 42.975 26.5769 43.0853 26.8699C43.2678 27.3609 43.4277 27.8642 43.5602 28.3801Z" fill="#FF449E"/>
<path d="M38.3577 20.3441C35.9075 22.8868 31.707 24.9414 26.7361 25.7235C22.4675 26.3953 18.4499 26.0002 15.4275 24.8197C15.4385 24.7991 15.4505 24.7776 15.4622 24.7571C15.583 24.542 15.7082 24.331 15.8395 24.1229C18.7223 25.0255 22.3348 25.2766 26.1472 24.6762C30.8878 23.9301 34.9284 22.027 37.4173 19.6464C37.4444 19.6646 37.4704 19.6826 37.4966 19.7005C37.6004 19.7723 37.703 19.8456 37.8048 19.9195C37.9926 20.0565 38.1768 20.198 38.3575 20.3439L38.3577 20.3441Z" fill="#FF449E"/>
<path d="M41.3296 24.9376C40.0334 31.3604 31.5123 35.0665 22.2962 33.2151C19.0113 32.5552 16.0815 31.2787 13.7299 29.6165C13.9136 28.5503 14.2108 27.5163 14.6081 26.5295C14.7593 26.1557 14.9242 25.7897 15.1041 25.4301C16.652 26.1232 18.343 26.6683 20.14 27.0295C28.462 28.7013 36.2175 25.8417 38.5976 20.542C38.8703 20.7683 39.134 21.0055 39.3898 21.2515C39.8404 21.6842 40.2639 22.1455 40.6591 22.6334C40.9496 22.9907 41.2243 23.3627 41.4819 23.7481C41.4599 24.1445 41.4093 24.542 41.3296 24.9377V24.9376Z" fill="#FF449E"/>
<g opacity="0.55">
<path d="M40.4238 42.0631C42.6149 38.9621 43.6553 35.0457 43.0387 30.9986C41.7715 22.6809 33.9856 16.9616 25.6481 18.2259C21.8554 18.8006 18.6016 20.7225 16.3013 23.4296C18.6135 20.1584 22.2063 17.7951 26.4855 17.1466C34.8229 15.8824 42.609 21.6009 43.8761 29.9194C44.5666 34.4518 43.1786 38.8208 40.4236 42.0631H40.4238Z" fill="white"/>
</g>
<g opacity="0.3">
<path d="M28.4639 41.6951C28.3762 41.7081 28.2884 41.7218 28.2006 41.7348C30.616 42.6803 33.306 43.0236 36.0559 42.6062C38.0166 42.3089 39.8325 41.652 41.4477 40.713C41.421 40.7526 41.3943 40.7922 41.3669 40.8308C41.2848 40.9511 41.2005 41.0691 41.1146 41.187C41.0826 41.2314 41.0499 41.2759 41.0165 41.3192C40.916 41.4544 40.8126 41.5874 40.7078 41.7191C40.6664 41.7719 40.6236 41.8237 40.5811 41.8746C40.521 41.9492 40.4594 42.0218 40.397 42.0949C40.355 42.1434 40.3134 42.1928 40.2705 42.2411C40.2285 42.2895 40.1854 42.3378 40.1427 42.3853C40.0998 42.4336 40.0563 42.4809 40.0126 42.5281C39.9788 42.5646 39.945 42.6012 39.9104 42.6375C39.8724 42.6783 39.8343 42.7191 39.7949 42.7587C39.7559 42.8002 39.7162 42.8415 39.6756 42.8816C39.6156 42.9434 39.5536 43.0048 39.4921 43.0656C39.4569 43.1011 39.421 43.1354 39.3861 43.1692C39.3225 43.2311 39.2584 43.2912 39.1944 43.3515C39.139 43.4023 39.0844 43.4534 39.0283 43.5033C38.9969 43.5318 38.9649 43.5603 38.9329 43.5886C38.9068 43.6122 38.881 43.635 38.8551 43.6578C38.7919 43.7139 38.7281 43.7682 38.6635 43.8223C38.6148 43.8653 38.5649 43.9061 38.5158 43.9472C38.4708 43.9848 38.4251 44.0215 38.3793 44.0583C38.3071 44.1167 38.234 44.1751 38.1606 44.2318C38.113 44.2689 38.0658 44.3052 38.0184 44.3416C37.9662 44.3813 37.9139 44.4209 37.861 44.4595C37.8058 44.5011 37.7492 44.5414 37.6933 44.5821C37.3547 44.8257 37.0055 45.0553 36.6453 45.2709C36.5796 45.3103 36.5138 45.349 36.4474 45.3874C36.3423 45.4487 36.2365 45.509 36.1295 45.5664C36.0556 45.6077 35.9803 45.6477 35.9051 45.6878C35.6329 45.8301 35.3562 45.9657 35.0744 46.0924C35.007 46.123 34.9387 46.1535 34.8699 46.1821C34.8407 46.1958 34.812 46.2078 34.7832 46.2199C34.7113 46.2514 34.639 46.281 34.5666 46.3107C34.4664 46.3516 34.3646 46.3916 34.2632 46.4305C34.1894 46.459 34.1148 46.4865 34.0396 46.5138C34.0182 46.5223 33.9964 46.5298 33.9753 46.5366C33.8999 46.5647 33.824 46.591 33.747 46.6173C33.736 46.621 33.7252 46.6248 33.7132 46.6292C33.6319 46.6561 33.5498 46.6838 33.4679 46.7098C33.455 46.7139 33.4415 46.7181 33.4288 46.7222C33.3552 46.7457 33.2816 46.7682 33.2084 46.79C33.0951 46.8241 32.9804 46.8571 32.8649 46.8891C32.7683 46.9164 32.6705 46.9417 32.5727 46.9663C32.4793 46.9908 32.3862 47.0138 32.2916 47.0356C32.2764 47.0393 32.2612 47.0431 32.2452 47.0457C32.1639 47.0651 32.0818 47.0834 32 47.101C31.9877 47.1037 31.9752 47.1062 31.962 47.1087C31.8996 47.1225 31.8367 47.1353 31.7737 47.1473C31.7452 47.1535 31.717 47.1588 31.6886 47.1641C31.6523 47.1713 31.6167 47.1786 31.5807 47.1849C31.5276 47.1946 31.4739 47.2043 31.42 47.2137C31.3953 47.2181 31.3714 47.2227 31.3469 47.2262C31.2569 47.2421 31.1663 47.2562 31.075 47.2702C29.2593 47.5457 27.4689 47.4891 25.7667 47.1473C25.572 47.1082 25.3782 47.0651 25.1858 47.0188C24.9066 46.9517 24.63 46.8758 24.3565 46.7927C24.285 46.7715 24.2144 46.7497 24.1444 46.7262C23.8443 46.6312 23.5479 46.5266 23.2552 46.4126C23.1958 46.3904 23.1361 46.3666 23.0772 46.342C23.0084 46.3155 22.9402 46.2872 22.8728 46.2584C22.81 46.2322 22.7473 46.2051 22.6855 46.1783C22.6667 46.1703 22.648 46.1623 22.6293 46.1535C22.5525 46.1202 22.4769 46.0864 22.4007 46.0506C22.3259 46.0161 22.2503 45.9813 22.1759 45.9452C22.1315 45.9244 22.0866 45.9026 22.0417 45.8801C21.9983 45.8586 21.9551 45.8371 21.9117 45.8158C21.8623 45.7907 21.8136 45.7664 21.7644 45.7404C21.6958 45.7046 21.6274 45.6686 21.559 45.632C21.4944 45.5979 21.4293 45.5617 21.365 45.5259C21.355 45.5206 21.3444 45.515 21.3337 45.5086C21.2609 45.4685 21.1885 45.4269 21.1169 45.3853C21.1024 45.3773 21.0872 45.3683 21.0727 45.3594C20.9988 45.3167 20.9258 45.273 20.8531 45.2288C20.8486 45.2261 20.8447 45.2238 20.8409 45.2213C20.7641 45.1753 20.6885 45.1287 20.6131 45.0804C20.6024 45.0741 20.5927 45.0677 20.5822 45.0606C20.509 45.0145 20.4367 44.9677 20.3646 44.9201C20.3548 44.9139 20.3449 44.9076 20.3361 44.9007C20.2692 44.8568 20.2033 44.8128 20.1383 44.7675C20.1188 44.7542 20.1001 44.7421 20.0816 44.7281C20.0232 44.6883 19.965 44.6478 19.9079 44.6065C19.881 44.5876 19.8543 44.5686 19.8283 44.5498C19.7659 44.505 19.7043 44.4595 19.6431 44.4132C19.6386 44.4106 19.634 44.4072 19.6305 44.4039C19.5638 44.3548 19.4975 44.3042 19.432 44.2536C19.4151 44.2399 19.3981 44.2273 19.3812 44.2136C19.3121 44.1598 19.2422 44.105 19.1743 44.0498C19.1121 43.9998 19.05 43.9492 18.9887 43.8979C18.9624 43.8764 18.937 43.8553 18.9116 43.8332C18.8491 43.7807 18.7875 43.7276 18.7259 43.6736C18.652 43.6095 18.5791 43.5448 18.5071 43.4793C18.4394 43.4182 18.3728 43.3565 18.3062 43.2937C18.299 43.2872 18.2919 43.2805 18.2849 43.2732C18.2161 43.2093 18.1484 43.1439 18.0809 43.0777C18.0114 43.0095 17.9419 42.9402 17.8733 42.8705C17.8049 42.8007 17.7372 42.7311 17.6699 42.6597C17.6257 42.6134 17.5815 42.5663 17.5376 42.5185C17.4587 42.4331 17.3807 42.3468 17.304 42.2592C17.1673 42.1052 17.034 41.9477 16.9046 41.7875C16.8704 41.7459 16.8364 41.7041 16.8032 41.6618C16.7855 41.6397 16.768 41.6174 16.7504 41.5944C16.7212 41.558 16.6929 41.5208 16.6638 41.4837C16.5053 41.2786 16.3524 41.0696 16.2049 40.8557C16.1739 40.8112 16.1437 40.7669 16.1135 40.7226C16.0317 40.6009 15.9509 40.4777 15.8722 40.354C15.844 40.3084 15.8154 40.2636 15.7872 40.218C15.7839 40.2131 15.7809 40.2073 15.7776 40.2025C15.711 40.0939 15.6452 39.9849 15.5806 39.875C15.5523 39.826 15.5239 39.7769 15.4955 39.7271C15.4326 39.6169 15.371 39.505 15.3111 39.3928C15.2839 39.3424 15.2574 39.2921 15.2304 39.2406C15.1126 39.0148 14.9999 38.7841 14.8929 38.5503C14.8769 38.5157 14.8609 38.4811 14.8452 38.4456C14.7693 38.2774 14.6972 38.1076 14.6273 37.9356C14.6033 37.8773 14.5802 37.8184 14.5574 37.7593C14.4399 37.4597 14.3314 37.1542 14.233 36.8449C14.2121 36.7796 14.1919 36.7152 14.1727 36.6502C14.1665 36.6303 14.1604 36.6104 14.155 36.5906C14.1437 36.5543 14.133 36.5182 14.1227 36.4814C14.1055 36.4236 14.0883 36.365 14.0728 36.3066C14.0691 36.2956 14.0661 36.2849 14.0639 36.2743C14.0377 36.1807 14.0123 36.0873 13.9888 35.9926C13.9693 35.9165 13.9498 35.8404 13.9327 35.764C13.9074 35.6621 13.8837 35.5597 13.8627 35.4578C13.8503 35.4052 13.8395 35.3537 13.8288 35.3006C13.8136 35.228 13.7987 35.1544 13.7846 35.0811C13.7679 34.9954 13.7529 34.9092 13.7372 34.8227C13.7347 34.8053 13.7313 34.7884 13.7288 34.771C13.7131 34.6804 13.6983 34.589 13.6843 34.4979C13.3974 32.6128 13.4692 30.7555 13.8506 28.9963C13.8645 28.932 13.8782 28.8684 13.8935 28.8045C13.9087 28.7379 13.9244 28.6723 13.9403 28.6067C13.9461 28.5824 13.9518 28.5581 13.9583 28.5339C13.9718 28.4798 13.9851 28.4264 13.9992 28.3731C14.0038 28.3544 14.0083 28.3358 14.0138 28.3175C14.0355 28.2352 14.0579 28.154 14.0811 28.0729C14.1066 27.9803 14.1338 27.8872 14.1627 27.7955C14.1841 27.7234 14.2063 27.6513 14.2301 27.5797C14.24 27.5477 14.2496 27.5166 14.2612 27.485C14.2817 27.4212 14.302 27.3581 14.3241 27.2955C14.3354 27.2604 14.3474 27.2262 14.3603 27.1916C14.3828 27.1265 14.4062 27.0616 14.4302 26.9968C14.435 26.9816 14.4406 26.9667 14.4469 26.9517C14.4763 26.8693 14.5083 26.7865 14.5402 26.7046C14.5744 26.6155 14.6101 26.5268 14.6468 26.4382C14.6835 26.3488 14.7209 26.2612 14.7591 26.1728C14.7898 26.1009 14.8212 26.0299 14.8536 25.9582C14.8566 25.952 14.8594 25.9459 14.8626 25.9387C14.8751 25.9106 14.8883 25.8828 14.9018 25.854C14.9327 25.7854 14.965 25.7181 14.9974 25.6498C15.0371 25.5669 15.0775 25.485 15.1189 25.4024C15.1237 25.3906 15.1304 25.3793 15.1361 25.3676C15.1746 25.2904 15.2149 25.2136 15.2549 25.1375C15.334 24.9862 15.4161 24.8361 15.5004 24.6883C15.5045 24.6806 15.5094 24.6731 15.5146 24.6648C15.5398 24.6199 15.566 24.5749 15.592 24.5301C15.7217 24.309 15.8567 24.0916 15.9968 23.8778C16.0424 23.808 16.0888 23.7382 16.135 23.6695C16.2233 23.5403 16.3127 23.4131 16.4047 23.2864C16.4297 23.2506 16.4556 23.2151 16.4824 23.1796C16.4956 23.161 16.5085 23.1433 16.5232 23.1259C16.561 23.0733 16.6006 23.0208 16.6408 22.9687C16.6987 22.8928 16.7571 22.818 16.8165 22.7433C16.8679 22.678 16.9212 22.6131 16.9742 22.5481C16.9936 22.524 17.0138 22.5 17.0338 22.476C17.0779 22.4221 17.1226 22.369 17.1681 22.3162C17.1736 22.3097 17.1803 22.3025 17.186 22.2952C17.2315 22.2424 17.2761 22.1901 17.3222 22.1392C17.4049 22.0455 17.4884 21.9527 17.5731 21.861C17.6254 21.8044 17.6774 21.7494 17.7303 21.6938C17.8176 21.6027 17.9056 21.5133 17.995 21.4243C18.0444 21.3738 18.0953 21.3239 18.1469 21.2747C18.2952 21.1304 18.4471 20.9894 18.6018 20.8507C18.6421 20.8147 18.6819 20.7784 18.7229 20.7434C18.7456 20.7235 18.7685 20.7033 18.792 20.6835C18.8424 20.6402 18.894 20.5961 18.9452 20.553C18.9862 20.5178 19.0281 20.4839 19.07 20.4489C19.1863 20.3533 19.304 20.2598 19.423 20.1674C19.4695 20.1309 19.5159 20.0951 19.5628 20.0605C19.571 20.0536 19.58 20.047 19.588 20.041C19.6372 20.0034 19.6873 19.9667 19.7372 19.9299C20.008 19.7305 20.2874 19.5403 20.5724 19.359C20.6283 19.3227 20.6847 19.2872 20.7411 19.2528L20.7499 19.2469C20.8636 19.1772 20.9779 19.1084 21.0935 19.0417C19.0308 22.0979 18.0678 25.9042 18.6663 29.8339C19.2988 33.9879 21.5575 37.4937 24.6991 39.8046C25.8358 39.6797 27.0091 39.5255 28.2074 39.3442C35.3244 38.2654 41.314 36.4922 43.8178 34.8739C43.6157 36.0102 43.2858 37.1091 42.8403 38.1532C39.2543 39.538 34.1711 40.83 28.4641 41.6953L28.4639 41.6951Z" fill="#1F2F40"/>
</g>
<path d="M28.7704 47.7774C21.1936 47.7774 14.5269 42.2451 13.3543 34.5474C12.0615 26.0609 17.9299 18.1073 26.4357 16.8174C34.9415 15.5272 42.9131 21.3826 44.2059 29.8693C45.4987 38.3559 39.6303 46.3095 31.1245 47.5992C30.3339 47.7191 29.5471 47.7774 28.7704 47.7774ZM28.7893 17.3054C28.0455 17.3054 27.2932 17.361 26.536 17.4759C18.3941 18.7105 12.7769 26.324 14.0143 34.4475C15.2517 42.571 22.8827 48.176 31.0242 46.9409C39.1661 45.7063 44.7835 38.0928 43.5459 29.9693C42.4237 22.6016 36.0415 17.3054 28.7893 17.3054Z" fill="#1F2F40"/>
<path d="M29.6387 39.7797C18.3387 41.493 8.87356 40.8844 8.49809 38.4186C8.31536 37.2189 10.3187 35.802 13.7263 34.4642C12.2061 35.2268 11.3784 35.976 11.4776 36.6287C11.7663 38.5268 19.783 38.8848 29.3826 37.4287C38.9821 35.9735 46.5298 33.2554 46.2411 31.3574C46.2053 31.1251 46.0543 30.9153 45.7973 30.7297C45.9274 30.6123 46.0543 30.4899 46.1761 30.3625C48.116 30.753 49.2925 31.3765 49.4193 32.2132C49.7956 34.679 40.9387 38.0664 29.6387 39.7797Z" fill="#FFDF19"/>
<g opacity="0.55">
<path d="M29.6396 39.7804C19.8686 41.2619 11.4694 41.0062 9.13281 39.3157C12.4036 40.501 19.9478 40.544 28.5575 39.2386C39.8581 37.5252 48.714 34.1378 48.3385 31.6717C48.2875 31.3387 48.0712 31.0397 47.7064 30.7763C48.7272 31.1461 49.3313 31.6276 49.4207 32.2137C49.7964 34.6797 40.9403 38.0671 29.6396 39.7806V39.7804Z" fill="white"/>
</g>
<path d="M17.8709 41.0868C16.842 41.0868 15.8649 41.0576 14.9509 40.9989C12.0039 40.8092 8.43494 40.2163 8.16877 38.4687C7.90978 36.7686 10.982 35.1842 13.6047 34.1544C13.7711 34.0893 13.9589 34.1661 14.0316 34.3284C14.1044 34.4911 14.0363 34.6819 13.8769 34.7618C11.8552 35.776 11.7825 36.409 11.8083 36.5788C11.8893 37.1108 13.2855 37.7901 16.9541 37.9539C20.315 38.1041 24.711 37.8006 29.3331 37.0996C33.955 36.399 38.2431 35.3855 41.4072 34.246C44.8615 33.0019 45.9928 31.9393 45.9118 31.4075C45.8906 31.27 45.7863 31.1326 45.6023 30.9996C45.4529 30.8919 45.4196 30.6836 45.5275 30.5346C45.6026 30.4312 45.7263 30.3836 45.8449 30.4C45.8411 30.3664 45.8424 30.3318 45.8494 30.2968C45.886 30.1165 46.0619 30.0001 46.2426 30.0362C48.4223 30.475 49.6023 31.1906 49.7498 32.1634C50.0165 33.9107 46.7853 35.5349 44.0275 36.5896C40.2698 38.027 35.1777 39.2769 29.6892 40.1091C25.4497 40.7518 21.3621 41.0866 17.8706 41.0866L17.8709 41.0868ZM11.2922 35.936C9.61742 36.8355 8.72647 37.6967 8.82893 38.3687C8.97996 39.3607 11.2847 40.0954 14.9941 40.3342C18.9634 40.5896 24.1469 40.2759 29.5894 39.4507C35.0319 38.6256 40.0747 37.3887 43.789 35.9679C47.2599 34.6403 49.2417 33.2553 49.0903 32.2633C48.9967 31.6459 47.9799 31.0895 46.291 30.7265C46.4455 30.9034 46.5396 31.0975 46.572 31.307C46.743 32.4317 45.0816 33.6309 41.6341 34.8725C38.4303 36.0264 34.0974 37.0512 29.4335 37.7581C24.7699 38.4656 20.3275 38.7716 16.9246 38.6194C13.2628 38.4559 11.3196 37.8029 11.1487 36.6789C11.1113 36.4328 11.1587 36.1857 11.2923 35.936H11.2922Z" fill="#1F2F40"/>
<path d="M16.0046 36.7815C7.70033 36.5787 7.99436 23.443 16.2405 23.5514C16.2704 23.5514 16.3004 23.5514 16.3301 23.5522C18.5734 23.6073 20.3184 26.6129 20.2283 30.2666C20.1394 33.9194 18.2479 36.8365 16.0046 36.7814V36.7815Z" fill="#FFA363"/>
<g opacity="0.3">
<path d="M18.4988 35.4914C17.7953 36.3222 16.931 36.8042 16.0059 36.7819C8.51032 36.5986 8.02038 25.8774 14.0609 23.8728C10.408 27.3561 11.6619 35.3524 18.1262 35.5102C18.2515 35.5135 18.376 35.5067 18.4988 35.4914Z" fill="#1F2F40"/>
</g>
<path d="M19.193 25.5712C22.269 16.0115 33.8251 15.2207 38.494 20.4537C34.2006 12.3902 19.599 13.0562 15.9146 23.5546" fill="#FFA363"/>
<g opacity="0.55">
<path d="M38.577 20.5375C37.9178 19.7982 37.1201 19.1789 36.229 18.6894C30.7472 13.751 19.851 15.0689 16.1222 23.2981C19.9995 13.1266 34.33 12.5622 38.577 20.5375Z" fill="white"/>
</g>
<g opacity="0.55">
<path d="M16.4929 36.7472C17.9975 35.7966 19.0977 33.4525 19.1649 30.6866C19.2557 27.0328 17.5104 24.0278 15.2665 23.9719C15.2373 23.9711 15.2071 23.9719 15.1769 23.9717C14.4725 23.9627 13.8252 24.0498 13.2377 24.2188C14.0804 23.7827 15.0825 23.5358 16.2409 23.5513C16.2711 23.5513 16.3012 23.5515 16.3304 23.5523C18.5743 23.6073 20.3185 26.6131 20.2288 30.267C20.1463 33.6516 18.5164 36.4047 16.4927 36.7472H16.4929Z" fill="white"/>
</g>
<path d="M16.0685 37.1155C16.0447 37.1155 16.0208 37.1152 15.9969 37.1147C13.9732 37.0652 12.2875 36.2738 11.1218 34.826C10.0954 33.5509 9.54888 31.8561 9.58292 30.0533C9.61696 28.2488 10.2276 26.5715 11.3021 25.3304C12.4997 23.9469 14.1708 23.2178 16.14 23.2178C16.175 23.2178 16.2102 23.218 16.2456 23.2185C16.2741 23.2185 16.3082 23.2185 16.3417 23.2195C17.5445 23.249 18.6471 24.021 19.4438 25.3931C20.2104 26.7136 20.6077 28.4474 20.5627 30.2751C20.5181 32.102 20.036 33.8142 19.2051 35.0955C18.3589 36.4005 17.2475 37.1153 16.0685 37.1155ZM16.1438 23.8838C12.1737 23.8838 10.3065 27.0759 10.2501 30.0658C10.1934 33.0707 11.9726 36.3501 16.0131 36.4487C16.9785 36.4751 17.9122 35.8633 18.6446 34.7337C19.4095 33.5539 19.8536 31.9647 19.8952 30.2587C19.9372 28.5521 19.5718 26.9426 18.866 25.727C18.1902 24.563 17.2869 23.909 16.3225 23.8852C16.294 23.8842 16.268 23.8845 16.2419 23.8845C16.2092 23.8842 16.1763 23.8838 16.1438 23.8838Z" fill="#1F2F40"/>
<path d="M13.5796 30.2073C13.7006 28.7615 13.0747 27.5291 12.1818 27.4548C11.2889 27.3804 10.4671 28.4923 10.3461 29.9381C10.2252 31.3839 10.851 32.6163 11.7439 32.6906C12.6368 32.765 13.4587 31.6531 13.5796 30.2073Z" fill="#FFDF19"/>
<g opacity="0.3">
<path d="M13.0842 31.8237C12.7384 32.3929 12.253 32.7354 11.7442 32.6931C10.8512 32.6185 10.2253 31.3863 10.3464 29.9402C10.4594 28.5896 11.1843 27.5308 12.0072 27.4573C11.7445 27.8875 11.5628 28.4484 11.5104 29.0713C11.3892 30.5173 12.0152 31.7496 12.9081 31.8242C12.9672 31.8293 13.0258 31.8285 13.084 31.8235L13.0842 31.8237Z" fill="#1F2F40"/>
</g>
<path d="M11.8315 32.9614C11.7953 32.9614 11.7589 32.9599 11.7226 32.9569C11.1956 32.913 10.7361 32.5557 10.4291 31.9508C10.1432 31.3879 10.0203 30.6661 10.0828 29.9185C10.1454 29.1711 10.3867 28.4796 10.7622 27.9716C11.1655 27.426 11.6777 27.1501 12.205 27.1936C12.732 27.2375 13.1914 27.5949 13.4984 28.1997C13.7843 28.7628 13.9073 29.4846 13.8447 30.232C13.7142 31.792 12.8408 32.9616 11.8315 32.9616V32.9614ZM12.0984 27.7184C11.7816 27.7184 11.4611 27.9177 11.1889 28.2858C10.8708 28.7161 10.6657 29.3115 10.6113 29.9625C10.5568 30.6135 10.6601 31.2347 10.9022 31.7114C11.123 32.1463 11.43 32.4013 11.7666 32.4293C12.4982 32.4884 13.2092 31.4638 13.316 30.1877C13.3706 29.5366 13.2673 28.9155 13.0252 28.4387C12.8044 28.0038 12.4974 27.7489 12.1608 27.7207C12.1401 27.7191 12.1192 27.7181 12.0984 27.7181V27.7184Z" fill="#1F2F40"/>
<path d="M30.4607 32.4361C30.7174 32.1639 31.0373 31.9428 31.4198 31.7953C31.8743 31.6204 32.3758 31.5785 32.8474 31.6995C33.2878 31.8134 33.6743 32.0447 33.9932 32.3637C34.8295 33.1942 35.2169 34.6204 34.9532 36.1007C33.8448 35.2193 31.7003 35.3144 30.3015 36.5914C29.3866 35.4697 29.4143 33.5393 30.4607 32.4361Z" fill="#1F2F40"/>
<path d="M30.4609 32.4361C30.7176 32.1639 31.0375 31.9428 31.42 31.7953C31.8745 31.6204 32.376 31.5785 32.8476 31.6995C33.288 31.8134 33.6745 32.0447 33.9934 32.3637C33.3203 33.4348 31.5625 33.7872 30.4609 32.4361Z" fill="#D80D6F"/>
<path d="M32.2958 31.298C32.5117 31.298 32.7255 31.3242 32.9306 31.3768C33.4208 31.5035 33.8577 31.7562 34.2295 32.1284C35.157 33.0494 35.5607 34.594 35.2818 36.1588C35.2611 36.2743 35.1957 36.5572 34.7452 36.3609C33.4886 35.7644 31.1038 36.5914 30.5269 36.8369C30.2122 36.9948 30.1007 36.8726 30.0426 36.8015C28.9946 35.5166 29.0747 33.4131 30.2178 32.2076C30.5185 31.8888 30.8823 31.6455 31.2994 31.4845C31.6211 31.3608 31.9612 31.2982 32.2958 31.2982V31.298ZM34.6883 35.5387C34.776 34.3688 34.4368 33.2737 33.7578 32.5994C33.4704 32.3118 33.1363 32.1177 32.7637 32.0215C32.3752 31.9217 31.9403 31.9515 31.5398 32.1055C31.2171 32.2303 30.9356 32.4181 30.7039 32.6638C30.7038 32.664 30.7034 32.6643 30.7033 32.6645C29.8721 33.5409 29.7451 35.0681 30.3664 36.1038C31.7346 35.6403 33.2893 35.2497 34.6884 35.5386L34.6883 35.5387Z" fill="#1F2F40"/>
<path d="M21.163 37.1492C21.163 37.1492 20.1333 37.6729 19.752 38.8833C19.5943 39.3853 19.5468 40.0047 19.7303 40.7531C20.0549 44.4352 15.2314 43.5961 16.4437 38.6544C16.5397 38.2623 16.674 37.8435 16.8517 37.399L21.163 37.1492Z" fill="#FD64AD"/>
<g opacity="0.55">
<path d="M19.7304 40.7531C19.9047 42.7294 18.5964 43.4029 17.5334 42.8393C18.4171 42.9092 19.2456 42.1633 19.1046 40.5658C18.921 39.8174 18.9686 39.198 19.1263 38.696C19.1705 38.5561 19.2231 38.4254 19.2815 38.3039C19.4592 38.4487 19.6186 38.6385 19.7521 38.8833C19.5944 39.3853 19.5468 40.0047 19.7304 40.7531Z" fill="white"/>
</g>
<path d="M18.2777 43.3627C17.7973 43.3627 17.3018 43.1652 16.897 42.7904C16.4581 42.3842 15.1351 40.7854 16.5424 37.2751C16.6108 37.1043 16.805 37.0211 16.9762 37.0897C17.1475 37.1579 17.2306 37.3517 17.1621 37.5226C16.1694 39.9987 16.6088 41.6153 17.3509 42.3022C17.7702 42.6903 18.2919 42.8041 18.7124 42.5986C19.2234 42.349 19.4735 41.6965 19.4004 40.8062C18.7398 38.0437 20.9888 36.8641 21.0116 36.8524C21.1758 36.7688 21.3767 36.8339 21.4605 36.9979C21.544 37.1614 21.4792 37.3614 21.3158 37.4453C21.2416 37.4838 19.5022 38.4148 20.0551 40.6739C20.0591 40.6904 20.0619 40.7068 20.0633 40.7237C20.1686 41.9156 19.7831 42.8171 19.0059 43.1968C18.7775 43.3084 18.5295 43.3628 18.2775 43.3628L18.2777 43.3627Z" fill="#1F2F40"/>
<g opacity="0.3">
<path d="M21.1628 37.1492C21.1628 37.1492 20.1332 37.6729 19.7519 38.8833C18.9059 37.3307 16.9784 37.9651 16.4436 38.6544C16.5396 38.2623 16.6739 37.8435 16.8516 37.399L21.1628 37.1492Z" fill="#1F2F40"/>
</g>
<path d="M19.1935 25.9044C19.1596 25.9044 19.1252 25.8992 19.0914 25.8884C18.9158 25.8321 18.8192 25.6446 18.8756 25.4695C20.273 21.1265 23.5802 18.1071 27.9488 17.1855C31.0336 16.5346 34.1796 17.038 36.5858 18.469C34.3426 16.2792 30.882 15.1252 27.1239 15.4382C22.9537 15.7851 17.8373 18.1299 15.9841 23.6711C15.9259 23.8456 15.7368 23.94 15.562 23.8816C15.3871 23.8233 15.2926 23.6348 15.351 23.4603C17.3068 17.6119 22.6864 15.1389 27.0685 14.7744C29.4839 14.5736 31.8398 14.9474 33.8822 15.8553C36.0608 16.8238 37.7576 18.3598 38.7892 20.2972C38.8684 20.446 38.8237 20.6305 38.6851 20.7267C38.5464 20.8232 38.3575 20.8007 38.2452 20.6748C35.9732 18.1284 31.9858 17.0143 28.087 17.8368C23.9591 18.7074 20.8334 21.5637 19.5112 25.6728C19.4658 25.8141 19.3347 25.904 19.1935 25.904V25.9044Z" fill="#1F2F40"/>
<path d="M44.6506 33.1061V29.3407C48.6323 31.2504 47.0261 34.6395 44.6506 33.1061Z" fill="#FD64AD"/>
<g opacity="0.55">
<path d="M44.9819 33.2909C46.5447 33.3999 47.1863 31.1505 44.6506 29.538V29.3407C48.4437 31.1605 47.1654 34.3223 44.9819 33.2909Z" fill="white"/>
</g>
<path d="M45.8104 33.8264C45.1731 33.8264 44.4652 33.4909 43.8127 32.8587C43.6805 32.7305 43.6774 32.5197 43.8059 32.3879C43.9342 32.256 44.1455 32.2528 44.2778 32.3809C44.969 33.0505 45.6916 33.3113 46.211 33.0782C46.5598 32.9218 46.7561 32.5602 46.7359 32.111C46.6972 31.2477 45.8494 30.0469 43.5863 29.2659C43.412 29.2057 43.3198 29.0161 43.38 28.8423C43.4402 28.6686 43.6301 28.5764 43.8045 28.6365C47.0503 29.7565 47.3793 31.5564 47.4029 32.0812C47.4352 32.8023 47.0835 33.417 46.4849 33.6856C46.2741 33.78 46.0472 33.8263 45.8105 33.8263L45.8104 33.8264Z" fill="#1F2F40"/>
<path d="M25.1477 32.1906C26.448 32.1906 27.502 31.1334 27.502 29.8293C27.502 28.5252 26.448 27.468 25.1477 27.468C23.8475 27.468 22.7935 28.5252 22.7935 29.8293C22.7935 31.1334 23.8475 32.1906 25.1477 32.1906Z" fill="white"/>
<path d="M25.1479 32.22C23.8294 32.22 22.7566 31.1476 22.7566 29.8296C22.7566 28.5116 23.8293 27.439 25.1479 27.439C26.4666 27.439 27.5392 28.5114 27.5392 29.8296C27.5392 31.1477 26.4666 32.22 25.1479 32.22ZM25.1479 27.4974C23.8702 27.4974 22.8305 28.5437 22.8305 29.8296C22.8305 31.1154 23.8702 32.1616 25.1479 32.1616C26.4257 32.1616 27.4653 31.1154 27.4653 29.8296C27.4653 28.5437 26.4257 27.4974 25.1479 27.4974Z" fill="#1F2F40"/>
<path d="M25.1481 32.4317C23.6818 32.4317 22.4888 31.2643 22.4888 29.8293C22.4888 28.3942 23.6818 27.2269 25.1481 27.2269C26.6144 27.2269 27.8074 28.3944 27.8074 29.8293C27.8074 31.2642 26.6144 32.4317 25.1481 32.4317ZM25.1481 27.7091C24.018 27.7091 23.0987 28.6601 23.0987 29.8293C23.0987 30.9984 24.018 31.9495 25.1481 31.9495C26.2782 31.9495 27.1975 30.9984 27.1975 29.8293C27.1975 28.6601 26.2782 27.7091 25.1481 27.7091Z" fill="#1F2F40"/>
<path d="M25.5336 31.9846C26.5754 31.9846 27.4199 31.1216 27.4199 30.0569C27.4199 28.9923 26.5754 28.1292 25.5336 28.1292C24.4918 28.1292 23.6472 28.9923 23.6472 30.0569C23.6472 31.1216 24.4918 31.9846 25.5336 31.9846Z" fill="#1F2F40"/>
<path d="M25.0919 29.9827C25.336 29.9827 25.5338 29.7537 25.5338 29.4712C25.5338 29.1887 25.336 28.9597 25.0919 28.9597C24.8479 28.9597 24.65 29.1887 24.65 29.4712C24.65 29.7537 24.8479 29.9827 25.0919 29.9827Z" fill="white"/>
<path d="M25.0919 30.0118C24.8279 30.0118 24.6132 29.7692 24.6132 29.471C24.6132 29.1728 24.8279 28.9302 25.0919 28.9302C25.3559 28.9302 25.5707 29.1728 25.5707 29.471C25.5707 29.7692 25.3559 30.0118 25.0919 30.0118ZM25.0919 28.9887C24.8686 28.9887 24.6871 29.2049 24.6871 29.471C24.6871 29.7371 24.8688 29.9534 25.0919 29.9534C25.315 29.9534 25.4968 29.7369 25.4968 29.471C25.4968 29.2051 25.315 28.9887 25.0919 28.9887Z" fill="#1F2F40"/>
<path d="M36.8258 29.0231C38.0648 29.0231 39.0691 28.0682 39.0691 26.8903C39.0691 25.7123 38.0648 24.7574 36.8258 24.7574C35.5869 24.7574 34.5825 25.7123 34.5825 26.8903C34.5825 28.0682 35.5869 29.0231 36.8258 29.0231Z" fill="white"/>
<path d="M36.8247 29.05C35.568 29.05 34.5457 28.0811 34.5457 26.8903C34.5457 25.6995 35.5682 24.7307 36.8247 24.7307C38.0813 24.7307 39.1038 25.6995 39.1038 26.8903C39.1038 28.0811 38.0813 29.05 36.8247 29.05ZM36.8247 24.7843C35.6075 24.7843 34.6171 25.729 34.6171 26.8903C34.6171 28.0516 35.6074 28.9964 36.8247 28.9964C38.0421 28.9964 39.0323 28.0516 39.0323 26.8903C39.0323 25.729 38.0421 24.7843 36.8247 24.7843Z" fill="#1F2F40"/>
<path d="M36.8251 29.241C35.4278 29.241 34.2913 28.1866 34.2913 26.8904C34.2913 25.5942 35.428 24.5397 36.8251 24.5397C38.2222 24.5397 39.3589 25.5942 39.3589 26.8904C39.3589 28.1866 38.2222 29.241 36.8251 29.241ZM36.8251 24.9753C35.7484 24.9753 34.8723 25.8344 34.8723 26.8904C34.8723 27.9463 35.7482 28.8054 36.8251 28.8054C37.9019 28.8054 38.7779 27.9463 38.7779 26.8904C38.7779 25.8344 37.9019 24.9753 36.8251 24.9753Z" fill="#1F2F40"/>
<path d="M36.4568 28.8372C37.4494 28.8372 38.254 28.0576 38.254 27.0959C38.254 26.1342 37.4494 25.3547 36.4568 25.3547C35.4642 25.3547 34.6595 26.1342 34.6595 27.0959C34.6595 28.0576 35.4642 28.8372 36.4568 28.8372Z" fill="#1F2F40"/>
<path d="M36.8786 27.0287C37.1111 27.0287 37.2996 26.8218 37.2996 26.5667C37.2996 26.3115 37.1111 26.1046 36.8786 26.1046C36.6461 26.1046 36.4576 26.3115 36.4576 26.5667C36.4576 26.8218 36.6461 27.0287 36.8786 27.0287Z" fill="white"/>
<path d="M36.8787 27.0551C36.6272 27.0551 36.4224 26.836 36.4224 26.5666C36.4224 26.2972 36.627 26.0781 36.8787 26.0781C37.1303 26.0781 37.3349 26.2972 37.3349 26.5666C37.3349 26.836 37.1303 27.0551 36.8787 27.0551ZM36.8787 26.1309C36.6659 26.1309 36.4928 26.3263 36.4928 26.5666C36.4928 26.8068 36.6659 27.0023 36.8787 27.0023C37.0914 27.0023 37.2645 26.8068 37.2645 26.5666C37.2645 26.3263 37.0914 26.1309 36.8787 26.1309Z" fill="#1F2F40"/>
<path d="M43.7929 10.594L42.8038 13.7701C42.1889 15.3461 40.7778 15.2735 40.055 14.6111C39.7518 14.3332 39.6053 13.9145 39.7029 13.5154C39.8584 12.8794 40.5438 12.5137 41.7331 13.1503L42.6147 10.3191L39.871 9.48663L39.0628 12.082C38.4478 13.6579 37.0367 13.5855 36.314 12.923C36.0108 12.6451 35.8643 12.2264 35.9619 11.8273C36.1174 11.1912 36.8028 10.8256 37.9921 11.4621L39.1953 7.59787C39.3027 7.25288 39.67 7.06024 40.0156 7.1673L43.8074 8.34262C44.1532 8.44984 44.3462 8.81631 44.2389 9.16113L43.7929 10.594Z" fill="#FFDF19"/>
<g opacity="0.55">
<path d="M42.0058 10.1345L39.8703 9.48652L39.0623 12.0814C38.5357 13.4305 37.4266 13.5716 36.6652 13.169C37.3272 13.2426 38.0572 12.9127 38.4551 11.8931L39.1289 9.72911C39.2274 9.41293 39.5631 9.23544 39.8805 9.33168L42.0506 9.98985L42.0055 10.1344L42.0058 10.1345Z" fill="white"/>
</g>
<g opacity="0.55">
<path d="M44.2401 9.16089L42.8048 13.7704C42.2783 15.1189 41.1684 15.2604 40.4068 14.8578C41.0691 14.9306 41.7992 14.6007 42.1967 13.5819L43.632 8.97241C43.7395 8.62743 43.5467 8.26163 43.2008 8.15441L43.8079 8.34255C44.1537 8.44978 44.3472 8.81574 44.2399 9.16072L44.2401 9.16089Z" fill="white"/>
</g>
<path d="M41.192 15.3464C40.7104 15.3464 40.2249 15.1617 39.8583 14.8256C39.4675 14.4674 39.2996 13.9388 39.4199 13.4461C39.5114 13.072 39.7442 12.785 40.0752 12.6376C40.3631 12.5094 40.8427 12.4366 41.5556 12.7408L42.2495 10.5123L40.0646 9.84943L39.3425 12.1683C39.3405 12.1747 39.3382 12.1812 39.3358 12.1876C39.0363 12.9551 38.513 13.4608 37.8623 13.6116C37.2579 13.7518 36.5894 13.57 36.1173 13.1373C35.7265 12.7791 35.5586 12.2505 35.6789 11.7578C35.7704 11.3837 36.0032 11.0967 36.3342 10.9493C36.6221 10.8211 37.1017 10.7482 37.8146 11.0525L38.9173 7.51112C39.0723 7.01328 39.6043 6.7344 40.1033 6.88874L43.895 8.06406C44.1367 8.13898 44.3347 8.30332 44.4526 8.52676C44.5704 8.7502 44.5939 9.00611 44.5188 9.2472L43.0835 13.8566C43.0815 13.863 43.0792 13.8695 43.0768 13.8759C42.7773 14.6434 42.254 15.1491 41.6033 15.2999C41.4685 15.3312 41.3305 15.3464 41.1921 15.3464H41.192ZM40.6299 13.1091C40.5108 13.1091 40.4043 13.1293 40.3132 13.1699C40.105 13.2627 40.0212 13.4465 39.9875 13.5843C39.9174 13.8707 40.0193 14.1819 40.2535 14.3965C40.5856 14.7007 41.052 14.8296 41.4712 14.7323C41.9324 14.6254 42.298 14.2595 42.529 13.6737L43.5149 10.5074L43.9611 9.07437C43.99 8.9818 43.9808 8.88373 43.9357 8.79799C43.8905 8.71224 43.8146 8.64914 43.722 8.6205L39.9302 7.44518C39.7392 7.38558 39.5349 7.49297 39.4753 7.68394L38.2722 11.548C38.2463 11.6311 38.1845 11.6982 38.1039 11.7314C38.0235 11.7643 37.9321 11.7595 37.8553 11.7184C37.3238 11.434 36.8682 11.3496 36.5725 11.4814C36.3643 11.5742 36.2805 11.758 36.2468 11.8959C36.1767 12.1822 36.2787 12.4934 36.5128 12.708C36.8447 13.0122 37.3113 13.1411 37.7305 13.0439C38.1917 12.937 38.5573 12.571 38.7883 11.9853L39.5933 9.39988C39.641 9.24687 39.8036 9.16062 39.9571 9.20757L42.7009 10.0401C42.7753 10.0627 42.8375 10.1138 42.8739 10.1824C42.9103 10.251 42.9178 10.3313 42.8948 10.4052L42.0132 13.2365C41.9873 13.3196 41.9256 13.3867 41.845 13.4198C41.7644 13.4526 41.6732 13.448 41.5963 13.4068C41.2287 13.2102 40.8974 13.1091 40.6303 13.1091H40.6299Z" fill="#30465E"/>
<path d="M30.7846 4.36792L31.1394 7.67492C31.2013 9.36488 29.8772 9.85672 28.9503 9.53471C28.5615 9.39951 28.2605 9.07317 28.1914 8.66808C28.0812 8.02273 28.5652 7.41584 29.9099 7.5294L29.5936 4.58153L26.7441 4.90321L27.0339 7.60565C27.0958 9.29562 25.7717 9.78745 24.8449 9.46544C24.456 9.33025 24.155 9.00391 24.0859 8.59882C23.9758 7.95347 24.4597 7.34658 25.8044 7.46013L25.3727 3.43669C25.3341 3.07755 25.5946 2.75521 25.9546 2.71691L29.9025 2.29534C30.2625 2.25688 30.5855 2.51678 30.6239 2.87592L30.784 4.36808L30.7846 4.36792Z" fill="#FFDF19"/>
<g opacity="0.55">
<path d="M28.9608 4.6532L26.7429 4.90345L27.0327 7.60522C27.0856 9.05227 26.1236 9.62053 25.2645 9.55226C25.9015 9.35779 26.4405 8.76605 26.4004 7.67266L26.1586 5.41943C26.1233 5.09026 26.3611 4.79439 26.6906 4.75726L28.9443 4.50269L28.9605 4.6532H28.9608Z" fill="white"/>
</g>
<g opacity="0.55">
<path d="M30.6247 2.87559L31.1395 7.67492C31.1922 9.12113 30.2295 9.69022 29.3704 9.62212C30.0074 9.42682 30.5464 8.83508 30.5063 7.74252L29.9915 2.94319C29.953 2.58389 29.6306 2.32448 29.2706 2.36294L29.9028 2.29534C30.2629 2.25688 30.5861 2.51629 30.6245 2.87543L30.6247 2.87559Z" fill="white"/>
</g>
<path d="M29.5048 9.9192C29.2853 9.9192 29.0644 9.88324 28.8531 9.80998C28.352 9.63582 27.9877 9.21708 27.9024 8.71725C27.8377 8.3378 27.9371 7.98199 28.1824 7.71576C28.3957 7.48416 28.8072 7.22742 29.5824 7.22442L29.3334 4.90409L27.0642 5.16017L27.3232 7.57457C27.3239 7.58139 27.3244 7.58805 27.3247 7.59488C27.3549 8.41805 27.0756 9.08937 26.5382 9.48531C26.0391 9.85294 25.3531 9.95067 24.7478 9.74055C24.2467 9.56623 23.8824 9.14748 23.7971 8.64782C23.7324 8.26837 23.8318 7.91256 24.0771 7.64633C24.2904 7.41473 24.7019 7.15799 25.4771 7.15499L25.0814 3.46771C25.0258 2.94956 25.4031 2.4827 25.9226 2.42709L29.8707 2.00551C30.1227 1.97854 30.3695 2.05114 30.5664 2.20964C30.7633 2.36815 30.8867 2.59376 30.9137 2.84484L31.0737 4.337L31.4285 7.644C31.4292 7.65082 31.4297 7.65748 31.43 7.66431C31.4602 8.48748 31.1809 9.1588 30.6435 9.55474C30.3186 9.79416 29.9143 9.9192 29.5048 9.9192ZM29.5967 7.80717C29.1391 7.80717 28.7952 7.91173 28.6125 8.11003C28.4583 8.27752 28.4543 8.47932 28.4781 8.61935C28.5277 8.90989 28.745 9.15531 29.0452 9.25954C29.4709 9.40755 29.9503 9.34112 30.2964 9.08604C30.6774 8.80533 30.8675 8.32464 30.8466 7.69561L30.333 2.90677C30.3226 2.81054 30.2754 2.72396 30.1998 2.66319C30.1242 2.60241 30.0298 2.57427 29.933 2.58493L25.985 3.00651C25.7858 3.02765 25.6411 3.2068 25.6623 3.40544L26.094 7.42905C26.1033 7.51546 26.0733 7.60154 26.0124 7.66381C25.9515 7.72591 25.8659 7.75805 25.7789 7.75039C25.1779 7.69977 24.7263 7.80284 24.5072 8.0406C24.353 8.20793 24.349 8.40989 24.3728 8.54992C24.4224 8.84046 24.6398 9.08588 24.9401 9.19027C25.3658 9.33812 25.8452 9.27186 26.1913 9.01661C26.5723 8.7359 26.7623 8.25521 26.7415 7.62618L26.4528 4.93406C26.4356 4.77472 26.5507 4.63153 26.7103 4.61355L29.5598 4.29188C29.6371 4.28322 29.7147 4.30553 29.7754 4.35415C29.8362 4.40276 29.8749 4.47336 29.8831 4.55045L30.1993 7.49831C30.2086 7.58472 30.1786 7.6708 30.1177 7.73307C30.0568 7.79518 29.971 7.82748 29.8842 7.81965C29.7841 7.81116 29.688 7.807 29.5967 7.807V7.80717Z" fill="#30465E"/>
<path d="M18.2815 9.45738L19.8361 12.3994C20.5197 13.9469 19.4715 14.8922 18.491 14.9347C18.0796 14.9525 17.6791 14.7602 17.4648 14.4094C17.1234 13.8503 17.3482 13.108 18.64 12.7176L17.2543 10.0951L14.7254 11.4447L15.9958 13.8488C16.6794 15.3962 15.6312 16.3416 14.6507 16.3841C14.2393 16.4019 13.8388 16.2096 13.6245 15.8588C13.2831 15.2997 13.5079 14.5574 14.7997 14.167L12.9083 10.5876C12.7394 10.2681 12.8623 9.87246 13.1825 9.70413L16.6947 7.85649C17.015 7.688 17.4114 7.81054 17.5802 8.13005L18.2815 9.45755V9.45738Z" fill="#FFDF19"/>
<g opacity="0.55">
<path d="M16.6934 10.3946L14.7252 11.445L15.9953 13.8486C16.5804 15.1736 15.897 16.0564 15.0737 16.3098C15.5935 15.8942 15.8752 15.1456 15.433 14.1445L14.3738 12.14C14.2191 11.8471 14.3304 11.4846 14.6229 11.3285L16.6228 10.2609L16.6935 10.3947L16.6934 10.3946Z" fill="white"/>
</g>
<g opacity="0.55">
<path d="M17.5802 8.12952L19.8363 12.3992C20.4211 13.7235 19.7374 14.6073 18.9139 14.8607C19.4333 14.4443 19.715 13.6957 19.2731 12.6954L17.017 8.42572C16.8481 8.10604 16.4524 7.98383 16.1322 8.15233L16.6946 7.85646C17.015 7.68797 17.4113 7.80984 17.5802 8.12935V8.12952Z" fill="white"/>
</g>
<path d="M14.5981 16.6765C14.0933 16.6765 13.6294 16.4253 13.3759 16.0103C13.1751 15.6815 13.1359 15.3144 13.2651 14.9764C13.3776 14.6827 13.6646 14.2924 14.384 14.0037L12.6505 10.7233C12.4068 10.2621 12.5846 9.68922 13.0468 9.44613L16.559 7.59849C17.0213 7.35541 17.5953 7.53273 17.839 7.99376L18.5404 9.32126L20.095 12.2633C20.0981 12.2695 20.1011 12.2754 20.1038 12.2818C20.4367 13.0353 20.4259 13.7623 20.0733 14.3284C19.7459 14.8542 19.1446 15.198 18.5041 15.2258C17.974 15.2474 17.4804 14.994 17.216 14.561C17.0153 14.2321 16.9761 13.865 17.1052 13.527C17.2177 13.2333 17.5047 12.843 18.2241 12.5543L17.1333 10.4902L15.1196 11.565L16.2547 13.713C16.2578 13.719 16.2608 13.7252 16.2635 13.7313C16.5964 14.4851 16.5856 15.2118 16.233 15.7779C15.9056 16.3037 15.3043 16.6475 14.6638 16.6753C14.6418 16.6762 14.6198 16.6767 14.5979 16.6767L14.5981 16.6765ZM17.0004 8.07235C16.9434 8.07235 16.8854 8.08584 16.8315 8.11414L13.3193 9.96161C13.1421 10.0549 13.0738 10.2746 13.1673 10.4516L15.0587 14.031C15.0994 14.1079 15.1034 14.199 15.0698 14.2793C15.0363 14.3595 14.9685 14.4206 14.8851 14.4458C14.3079 14.6202 13.9264 14.8825 13.8109 15.1843C13.7297 15.3968 13.8008 15.5859 13.8748 15.7072C14.0285 15.9589 14.3219 16.1089 14.639 16.0929C15.0894 16.0735 15.5102 15.8349 15.7373 15.4702C15.9873 15.069 15.986 14.5523 15.7335 13.9754L14.4681 11.5805C14.3932 11.4388 14.4471 11.2633 14.5887 11.1877L17.1176 9.83807C17.1862 9.80144 17.2664 9.79361 17.3409 9.81642C17.4153 9.83923 17.4774 9.89052 17.5137 9.95911L18.8995 12.5816C18.9402 12.6586 18.9442 12.7496 18.9106 12.8299C18.8771 12.9101 18.8094 12.9712 18.7259 12.9964C18.1487 13.1709 17.7672 13.4331 17.6517 13.735C17.5705 13.9474 17.6416 14.1366 17.7157 14.2578C17.8693 14.5095 18.1629 14.6595 18.4798 14.6436C18.9302 14.6241 19.351 14.3855 19.5782 14.0209C19.8281 13.6196 19.8268 13.1029 19.5743 12.526L18.0245 9.59315L17.3232 8.26565C17.2581 8.14261 17.1318 8.07235 17.0011 8.07235H17.0004Z" fill="#30465E"/>
</svg>
