<svg width="182" height="414" viewBox="0 0 182 414" fill="none" xmlns="http://www.w3.org/2000/svg">
<g opacity="0.34">
<g clip-path="url(#clip0_2628_40763)">
<path d="M71.7875 303.784C125.24 250.332 125.24 163.668 71.7875 110.216C18.3352 56.7637 -68.3282 56.7637 -121.78 110.216C-175.233 163.668 -175.233 250.332 -121.78 303.784C-68.3282 357.236 18.3352 357.236 71.7875 303.784Z" fill="url(#paint0_linear_2628_40763)"/>
<path d="M-24.9999 268.315C8.86314 268.315 36.3146 240.863 36.3146 207C36.3146 173.137 8.86314 145.685 -24.9999 145.685C-58.863 145.685 -86.3145 173.137 -86.3145 207C-86.3145 240.863 -58.863 268.315 -24.9999 268.315Z" fill="white" fill-opacity="0.47"/>
<path d="M88.9144 204.225C89.95 204.421 90.6144 204.987 90.5362 206.062C90.458 207.117 89.7546 207.742 88.6799 207.645C87.7225 207.567 87.1363 206.922 87.1559 205.945C87.1754 204.851 87.8593 204.323 88.9144 204.225Z" fill="white" fill-opacity="0.47"/>
<path d="M24.0047 246.235C23.9461 247.329 23.4381 248.013 22.3439 248.072C21.2692 248.13 20.5853 247.525 20.5267 246.43C20.4681 245.356 21.0738 244.672 22.1485 244.613C23.2427 244.555 23.8289 245.199 23.9852 246.215L24.0047 246.235Z" fill="white" fill-opacity="0.47"/>
<path d="M89.2857 244.75C89.0708 245.766 88.4846 246.43 87.41 246.333C86.3548 246.235 85.7491 245.512 85.8663 244.437C85.9836 243.48 86.6088 242.894 87.5858 242.952C88.6605 242.991 89.188 243.695 89.2662 244.75H89.2857Z" fill="white" fill-opacity="0.47"/>
<path d="M60.8559 245.864C62.0478 246.04 62.6926 246.606 62.634 247.7C62.5949 248.775 61.9306 249.4 60.8559 249.361C59.7617 249.322 59.1755 248.658 59.1951 247.583C59.2146 246.45 59.9571 246.02 60.8559 245.864Z" fill="white" fill-opacity="0.47"/>
<path d="M49.4254 241.585C50.461 241.761 51.1058 242.327 51.0277 243.421C50.9691 244.496 50.3047 245.102 49.2105 245.043C48.1163 244.985 47.5301 244.32 47.5887 243.226C47.6473 242.132 48.3312 241.624 49.4254 241.565V241.585Z" fill="white" fill-opacity="0.47"/>
<path d="M12.8282 242.229C12.75 243.48 12.2225 244.164 11.1283 244.203C10.0341 244.242 9.38925 243.636 9.35017 242.542C9.31109 241.467 9.91682 240.823 11.011 240.744C12.1443 240.686 12.6132 241.428 12.8477 242.21L12.8282 242.229Z" fill="white" fill-opacity="0.47"/>
<path d="M16.1889 333.185C17.1659 333.283 17.8497 333.81 17.8888 334.787C17.9279 335.882 17.2636 336.565 16.1694 336.546C15.1924 336.526 14.5671 335.862 14.5671 334.885C14.5671 333.889 15.2315 333.361 16.1889 333.185Z" fill="white" fill-opacity="0.47"/>
<path d="M4.60214 328.887C5.57911 329.023 6.26298 329.531 6.28252 330.528C6.30206 331.622 5.6182 332.306 4.52399 332.247C3.54703 332.208 2.92176 331.544 2.96084 330.547C2.98038 329.551 3.64471 329.043 4.60214 328.887Z" fill="white" fill-opacity="0.47"/>
<path d="M33.4032 327.577C33.1883 328.613 32.6607 329.258 31.6642 329.238C30.6872 329.219 30.0229 328.574 30.0424 327.597C30.0424 326.503 30.7458 325.838 31.84 325.916C32.817 325.975 33.2859 326.698 33.4227 327.577H33.4032Z" fill="white" fill-opacity="0.47"/>
<path d="M76.3506 242.073C75.315 241.897 74.6312 241.331 74.7093 240.236C74.7875 239.162 75.4714 238.556 76.546 238.654C77.5034 238.732 78.0896 239.357 78.0896 240.334C78.0896 241.428 77.4057 241.956 76.3506 242.073Z" fill="white" fill-opacity="0.47"/>
<path d="M21.7967 323.318C21.6404 324.275 21.0933 324.94 20.1163 324.94C19.1394 324.94 18.475 324.314 18.436 323.337C18.4164 322.243 19.1003 321.579 20.1945 321.618C21.1715 321.657 21.699 322.341 21.7967 323.318Z" fill="white" fill-opacity="0.47"/>
<path d="M48.8588 320.367C48.6438 321.305 48.1163 321.97 47.1198 321.93C46.0451 321.872 45.3807 321.168 45.5175 320.074C45.6348 319.117 46.3186 318.511 47.3151 318.628C48.2726 318.726 48.8001 319.39 48.8588 320.387V320.367Z" fill="white" fill-opacity="0.47"/>
<path d="M7.18127 318.863C7.39621 317.847 7.98239 317.182 9.05705 317.28C10.1122 317.378 10.7179 318.101 10.6007 319.175C10.4834 320.133 9.85816 320.719 8.88119 320.66C7.80652 320.621 7.27896 319.918 7.2008 318.863H7.18127Z" fill="white" fill-opacity="0.47"/>
<path d="M37.819 237.286C38.8546 237.462 39.4994 238.029 39.4212 239.123C39.3626 240.197 38.6983 240.803 37.6041 240.744C36.5098 240.686 35.9237 240.022 35.9823 238.927C36.0409 237.833 36.7248 237.325 37.819 237.266V237.286Z" fill="white" fill-opacity="0.47"/>
<path d="M36.0995 314.271C37.0374 314.486 37.7017 315.014 37.6627 316.01C37.604 317.085 36.9006 317.749 35.8064 317.612C34.849 317.495 34.2433 316.811 34.3605 315.815C34.4582 314.857 35.1226 314.33 36.1191 314.271H36.0995Z" fill="white" fill-opacity="0.47"/>
<path d="M99.1336 246.802C100.111 246.919 100.794 247.427 100.814 248.423C100.853 249.518 100.169 250.201 99.0749 250.162C98.098 250.123 97.4727 249.479 97.4923 248.482C97.4923 247.486 98.1566 246.958 99.1336 246.802Z" fill="white" fill-opacity="0.47"/>
<path d="M24.5713 313.841C23.3794 313.704 22.676 313.157 22.6956 312.083C22.6956 311.008 23.3795 310.383 24.4541 310.402C25.4311 310.422 26.0368 311.047 26.0759 312.005C26.1345 313.118 25.4116 313.607 24.5518 313.841H24.5713Z" fill="white" fill-opacity="0.47"/>
<path d="M-0.497588 236.426C0.557538 236.563 1.20232 237.13 1.18278 238.224C1.1437 239.318 0.498918 239.924 -0.575747 239.904C-1.66995 239.885 -2.27567 239.22 -2.25613 238.146C-2.23659 237.052 -1.55272 236.524 -0.478059 236.426H-0.497588Z" fill="white" fill-opacity="0.47"/>
<path d="M103.628 239.025C102.553 238.947 101.869 238.419 101.811 237.442C101.732 236.348 102.416 235.664 103.491 235.664C104.468 235.664 105.093 236.309 105.132 237.306C105.152 238.322 104.468 238.81 103.628 239.025Z" fill="white" fill-opacity="0.47"/>
<path d="M53.177 308.663C52.9621 309.699 52.4345 310.344 51.438 310.324C50.461 310.305 49.7967 309.66 49.8162 308.683C49.8162 307.589 50.5196 306.924 51.6138 307.002C52.5908 307.061 53.0598 307.784 53.1965 308.663H53.177Z" fill="white" fill-opacity="0.47"/>
<path d="M66.5615 236.035C66.3661 237.188 65.7995 237.833 64.7053 237.774C63.6306 237.716 63.0249 237.052 63.0835 235.957C63.1421 234.883 63.8064 234.277 64.9006 234.316C66.0144 234.355 66.4638 235.098 66.581 236.035H66.5615Z" fill="white" fill-opacity="0.47"/>
<path d="M12.8868 306.084C13.9029 306.299 14.5672 306.885 14.4695 307.96C14.3718 309.015 13.6489 309.621 12.5742 309.503C11.6168 309.386 11.0306 308.761 11.0892 307.784C11.1283 306.709 11.8317 306.182 12.8868 306.104V306.084Z" fill="white" fill-opacity="0.47"/>
<path d="M26.4861 233.398C27.678 233.573 28.3228 234.14 28.2642 235.234C28.2251 236.309 27.5608 236.934 26.4861 236.895C25.3919 236.856 24.8058 236.192 24.8253 235.117C24.8448 233.984 25.5873 233.554 26.4861 233.398Z" fill="white" fill-opacity="0.47"/>
<path d="M41.5902 304.716C41.4925 305.791 40.9649 306.475 39.8902 306.494C38.8156 306.494 38.1708 305.85 38.1708 304.775C38.1708 303.798 38.7765 303.173 39.7339 303.114C40.8281 303.036 41.3948 303.681 41.5902 304.716Z" fill="white" fill-opacity="0.47"/>
<path d="M1.90573 305.263C0.63567 305.205 -0.0677446 304.677 -0.106823 303.583C-0.165441 302.508 0.440272 301.824 1.53448 301.766C2.60914 301.707 3.27348 302.313 3.35164 303.407C3.42979 304.54 2.68731 305.009 1.92527 305.263H1.90573Z" fill="white" fill-opacity="0.47"/>
<path d="M91.9431 234.765C90.8684 234.668 90.1846 234.14 90.165 233.066C90.165 231.991 90.8098 231.346 91.8845 231.346C92.8615 231.346 93.4867 231.952 93.5453 232.909C93.6235 234.003 92.9591 234.57 91.9431 234.765Z" fill="white" fill-opacity="0.47"/>
<path d="M68.6327 301.356C68.4959 302.333 67.9683 302.997 66.9718 303.016C65.8776 303.016 65.2133 302.333 65.2719 301.238C65.3305 300.281 65.9949 299.656 66.9914 299.695C67.9879 299.734 68.4959 300.398 68.6327 301.356Z" fill="white" fill-opacity="0.47"/>
<path d="M35.611 250.397C35.5329 251.647 35.0053 252.351 33.9111 252.37C32.8169 252.41 32.1721 251.804 32.133 250.71C32.0939 249.635 32.6997 248.99 33.7939 248.912C34.9271 248.853 35.3961 249.596 35.6306 250.377L35.611 250.397Z" fill="white" fill-opacity="0.47"/>
<path d="M55.3654 231.756C55.2481 232.811 54.701 233.476 53.6068 233.476C52.5126 233.476 51.8873 232.831 51.8873 231.737C51.8873 230.643 52.5321 230.017 53.6263 230.017C54.7205 230.017 55.2677 230.682 55.3654 231.756Z" fill="white" fill-opacity="0.47"/>
<path d="M28.7724 302.235C27.6977 302.137 27.0138 301.61 26.9943 300.535C26.9943 299.46 27.639 298.815 28.7137 298.815C29.6907 298.815 30.3159 299.421 30.3746 300.379C30.4527 301.473 29.8079 302.039 28.7724 302.235Z" fill="white" fill-opacity="0.47"/>
<path d="M3.72277 82.632C4.7779 82.8274 5.4227 83.3549 5.4227 84.3514C5.4227 85.3284 4.79744 85.9927 3.82047 86.0123C2.72627 86.0123 2.06192 85.3479 2.101 84.2537C2.14008 83.2572 2.86304 82.8078 3.72277 82.6515V82.632Z" fill="white" fill-opacity="0.47"/>
<path d="M55.3068 295.767C56.3619 295.904 57.0458 296.432 57.0263 297.526C57.0067 298.601 56.3424 299.226 55.2482 299.187C54.2907 299.148 53.6655 298.542 53.6264 297.565C53.5873 296.471 54.2517 295.924 55.2872 295.748L55.3068 295.767Z" fill="white" fill-opacity="0.47"/>
<path d="M14.8213 229.119C15.9155 229.177 16.5993 229.685 16.658 230.779C16.7166 231.854 16.1109 232.538 15.0167 232.597C13.942 232.655 13.2581 232.049 13.1995 230.975C13.1409 229.881 13.7857 229.294 14.8017 229.138L14.8213 229.119Z" fill="white" fill-opacity="0.47"/>
<path d="M18.8463 296.197C18.7486 297.272 18.2015 297.936 17.1073 297.936C16.0131 297.936 15.3878 297.311 15.3683 296.217C15.3683 295.123 15.9936 294.497 17.0878 294.478C18.182 294.478 18.7291 295.123 18.8463 296.197Z" fill="white" fill-opacity="0.47"/>
<path d="M15.0166 90.3695C13.9419 90.2718 13.2581 89.7443 13.2385 88.6696C13.2385 87.5949 13.8833 86.9501 14.958 86.9501C15.935 86.9501 16.5602 87.5559 16.6188 88.5133C16.697 89.6075 16.0326 90.1741 15.0166 90.3695Z" fill="white" fill-opacity="0.47"/>
<path d="M44.2279 291.469C45.2635 291.664 45.9278 292.231 45.8496 293.305C45.7715 294.36 45.0681 294.986 43.9934 294.888C43.036 294.81 42.4498 294.185 42.4693 293.188C42.4889 292.094 43.1728 291.566 44.2279 291.469Z" fill="white" fill-opacity="0.47"/>
<path d="M80.3954 230.486C79.2035 230.31 78.5196 229.763 78.5782 228.669C78.6173 227.594 79.3011 226.969 80.3758 227.028C81.3332 227.086 81.939 227.692 81.9585 228.669C81.978 229.783 81.2551 230.252 80.3954 230.467V230.486Z" fill="white" fill-opacity="0.47"/>
<path d="M26.5252 91.2292C27.5022 91.366 28.1861 91.874 28.2056 92.8706C28.2252 93.9648 27.5413 94.6486 26.4471 94.59C25.4701 94.5509 24.8449 93.8866 24.8839 92.8901C24.9035 91.8936 25.5678 91.3856 26.5252 91.2292Z" fill="white" fill-opacity="0.47"/>
<path d="M-0.653985 94.1797C0.518377 94.3556 1.20225 94.9222 1.16318 95.9969C1.10456 97.0715 0.42068 97.6772 -0.653985 97.6186C-1.61141 97.56 -2.21714 96.9347 -2.23668 95.9578C-2.25622 94.844 -1.51372 94.3751 -0.653985 94.1602V94.1797Z" fill="white" fill-opacity="0.47"/>
<path d="M5.50096 290.57C6.55609 290.687 7.22042 291.234 7.22042 292.328C7.22042 293.423 6.57563 294.048 5.48142 294.048C4.38722 294.048 3.76196 293.403 3.76196 292.309C3.76196 291.215 4.4263 290.668 5.50096 290.57Z" fill="white" fill-opacity="0.47"/>
<path d="M43.7785 227.575C43.7199 228.845 43.1923 229.548 42.0981 229.587C41.0235 229.646 40.3396 229.04 40.281 227.946C40.2224 226.872 40.8281 226.207 41.9223 226.129C43.0556 226.051 43.5245 226.793 43.7785 227.555V227.575Z" fill="white" fill-opacity="0.47"/>
<path d="M39.8511 96.7784C39.7143 97.7554 39.2063 98.4393 38.2098 98.4588C37.1155 98.4783 36.4317 97.7945 36.4903 96.7003C36.5294 95.7233 37.1937 95.098 38.1902 95.1371C39.1867 95.1566 39.6948 95.821 39.8511 96.7784Z" fill="white" fill-opacity="0.47"/>
<path d="M72.1106 249.772C73.1461 249.928 73.83 250.495 73.7909 251.569C73.7323 252.644 73.0485 253.25 71.9738 253.191C71.0164 253.132 70.4106 252.507 70.4106 251.53C70.4106 250.436 71.075 249.889 72.1301 249.772H72.1106Z" fill="white" fill-opacity="0.47"/>
<path d="M71.4071 291.879C70.3325 291.801 69.6486 291.293 69.5704 290.316C69.4923 289.222 70.1566 288.518 71.2508 288.518C72.2278 288.518 72.853 289.163 72.8921 290.14C72.9312 291.156 72.2278 291.644 71.4071 291.879Z" fill="white" fill-opacity="0.47"/>
<path d="M10.9719 101.976C9.9559 101.781 9.29157 101.194 9.38927 100.1C9.48696 99.045 10.1904 98.4393 11.265 98.5565C12.2225 98.6542 12.8086 99.299 12.7696 100.276C12.7305 101.351 12.0466 101.878 10.9719 101.976Z" fill="white" fill-opacity="0.47"/>
<path d="M49.5036 102.797C48.4289 102.738 47.745 102.21 47.6473 101.253C47.5496 100.159 48.214 99.4553 49.3082 99.4358C50.2851 99.4358 50.9299 100.061 50.969 101.038C51.0081 102.054 50.3242 102.543 49.5036 102.797Z" fill="white" fill-opacity="0.47"/>
<path d="M34.302 288.792C34.2433 289.886 33.7353 290.57 32.6411 290.628C31.5665 290.687 30.8826 290.081 30.824 288.987C30.7653 287.912 31.3711 287.229 32.4653 287.17C33.5595 287.111 34.1457 287.756 34.302 288.772V288.792Z" fill="white" fill-opacity="0.47"/>
<path d="M3.82054 228.337C2.74587 228.259 2.06199 227.712 2.04245 226.618C2.02291 225.523 2.62863 224.879 3.72284 224.859C4.81704 224.839 5.46184 225.445 5.48138 226.539C5.52046 227.634 4.85612 228.2 3.801 228.337H3.82054Z" fill="white" fill-opacity="0.47"/>
<path d="M22.2266 105.845C21.1715 105.688 20.4876 105.141 20.5462 104.047C20.5853 102.972 21.2692 102.347 22.3438 102.406C23.3013 102.464 23.907 103.07 23.9265 104.047C23.9265 105.141 23.2817 105.688 22.2266 105.825V105.845Z" fill="white" fill-opacity="0.47"/>
<path d="M62.6145 105.434C62.4582 106.392 61.9306 107.056 60.9341 107.056C59.9571 107.056 59.2928 106.431 59.2537 105.454C59.2342 104.36 59.9181 103.695 61.0123 103.734C61.9892 103.774 62.5168 104.457 62.6145 105.434Z" fill="white" fill-opacity="0.47"/>
<path d="M33.8331 110.143C32.7779 109.987 32.094 109.44 32.1527 108.346C32.1917 107.271 32.8756 106.646 33.9503 106.704C34.9077 106.763 35.5134 107.369 35.533 108.346C35.533 109.44 34.8882 109.987 33.8331 110.124V110.143Z" fill="white" fill-opacity="0.47"/>
<path d="M109.02 225.836C108.806 226.774 108.278 227.458 107.281 227.399C106.207 227.34 105.542 226.637 105.679 225.543C105.797 224.585 106.48 223.98 107.477 224.097C108.434 224.195 108.962 224.859 109.02 225.855V225.836Z" fill="white" fill-opacity="0.47"/>
<path d="M8.54903 111.316C8.39272 112.527 7.82607 113.172 6.73187 113.152C5.63767 113.113 5.03194 112.469 5.05148 111.394C5.07102 110.3 5.73536 109.714 6.81003 109.714C7.94331 109.714 8.37318 110.476 8.54903 111.335V111.316Z" fill="white" fill-opacity="0.47"/>
<path d="M46.768 112.527C46.6312 113.719 46.0841 114.422 45.0094 114.403C43.9348 114.403 43.3095 113.719 43.3291 112.644C43.3486 111.667 43.9738 111.062 44.9313 111.023C46.045 110.964 46.5335 111.687 46.768 112.547V112.527Z" fill="white" fill-opacity="0.47"/>
<path d="M70.8405 224.781C70.7623 225.855 70.2543 226.539 69.1601 226.578C68.0659 226.618 67.4211 226.012 67.382 224.918C67.343 223.843 67.9487 223.179 69.0429 223.139C70.1371 223.1 70.7037 223.745 70.86 224.781H70.8405Z" fill="white" fill-opacity="0.47"/>
<path d="M61.3835 285.724C61.2272 286.916 60.6997 287.6 59.6055 287.58C58.5308 287.561 57.9055 286.896 57.9446 285.802C57.9837 284.825 58.5894 284.239 59.5664 284.18C60.6801 284.122 61.1686 284.864 61.3835 285.705V285.724Z" fill="white" fill-opacity="0.47"/>
<path d="M18.3188 113.934C19.5107 114.11 20.1555 114.677 20.0969 115.771C20.0578 116.845 19.3935 117.471 18.3188 117.432C17.2246 117.392 16.6384 116.728 16.6579 115.653C16.6775 114.52 17.42 114.09 18.3188 113.934Z" fill="white" fill-opacity="0.47"/>
<path d="M58.3744 116.396C58.2376 117.588 57.6906 118.291 56.6159 118.272C55.5412 118.272 54.916 117.588 54.9355 116.513C54.955 115.536 55.5803 114.931 56.5377 114.891C57.6515 114.833 58.1399 115.556 58.3744 116.416V116.396Z" fill="white" fill-opacity="0.47"/>
<path d="M21.4255 286.779C20.3509 286.701 19.667 286.154 19.6474 285.06C19.6279 283.966 20.2336 283.321 21.3278 283.301C22.422 283.282 23.0668 283.887 23.0864 284.982C23.1255 286.076 22.4611 286.642 21.406 286.779H21.4255Z" fill="white" fill-opacity="0.47"/>
<path d="M31.2929 119.503C31.2147 120.577 30.7067 121.261 29.6125 121.3C28.5183 121.339 27.8735 120.734 27.8344 119.64C27.7953 118.565 28.4011 117.901 29.4953 117.861C30.5895 117.822 31.1561 118.467 31.3124 119.503H31.2929Z" fill="white" fill-opacity="0.47"/>
<path d="M69.9222 120.831C69.8049 121.808 69.2969 122.492 68.3004 122.512C67.2062 122.551 66.5223 121.867 66.5614 120.773C66.6005 119.796 67.2453 119.171 68.2418 119.19C69.2383 119.19 69.7659 119.854 69.9222 120.831Z" fill="white" fill-opacity="0.47"/>
<path d="M86.7652 284.571C85.7882 284.474 85.1043 283.966 85.0457 282.989C84.9871 281.894 85.6514 281.21 86.7456 281.21C87.7226 281.21 88.3479 281.875 88.3674 282.871C88.3674 283.868 87.7226 284.395 86.7652 284.571Z" fill="white" fill-opacity="0.47"/>
<path d="M30.7653 221.791C31.9572 221.967 32.602 222.534 32.5434 223.628C32.5043 224.703 31.84 225.328 30.7653 225.289C29.6711 225.25 29.0849 224.585 29.1045 223.511C29.124 222.377 29.8665 221.948 30.7653 221.791Z" fill="white" fill-opacity="0.47"/>
<path d="M2.72634 124.778C1.47583 124.7 0.772419 124.173 0.752879 123.078C0.713801 121.984 1.31952 121.339 2.41372 121.3C3.48839 121.261 4.13318 121.867 4.21134 122.961C4.26996 124.094 3.52746 124.563 2.74589 124.798L2.72634 124.778Z" fill="white" fill-opacity="0.47"/>
<path d="M42.9188 123.684C42.8016 124.915 42.2545 125.599 41.1603 125.599C40.0661 125.599 39.4408 124.974 39.4213 123.88C39.4213 122.785 40.0465 122.18 41.1407 122.141C42.274 122.101 42.7234 122.863 42.9188 123.684Z" fill="white" fill-opacity="0.47"/>
<path d="M79.4965 123.469C80.4344 123.684 81.0987 124.212 81.0597 125.208C81.001 126.283 80.2976 126.947 79.2034 126.81C78.246 126.693 77.6403 126.009 77.7575 125.013C77.8552 124.055 78.5195 123.528 79.516 123.469H79.4965Z" fill="white" fill-opacity="0.47"/>
<path d="M50.207 281.582C50.1093 282.656 49.5622 283.321 48.468 283.321C47.3738 283.321 46.7485 282.695 46.729 281.601C46.729 280.507 47.3543 279.882 48.4485 279.862C49.5427 279.862 50.0898 280.507 50.207 281.582Z" fill="white" fill-opacity="0.47"/>
<path d="M15.8373 126.889C15.72 127.944 15.1729 128.608 14.0787 128.608C12.9845 128.608 12.3593 127.963 12.3593 126.869C12.3593 125.775 13.0041 125.15 14.0983 125.15C15.1925 125.15 15.7396 125.814 15.8373 126.889Z" fill="white" fill-opacity="0.47"/>
<path d="M52.454 129.917C51.2621 129.741 50.5782 129.194 50.6368 128.1C50.6759 127.025 51.3598 126.4 52.4344 126.459C53.3919 126.517 53.9976 127.123 54.0171 128.1C54.0562 129.214 53.3137 129.683 52.454 129.898V129.917Z" fill="white" fill-opacity="0.47"/>
<path d="M11.5581 280.546C11.4409 281.777 10.8938 282.461 9.79955 282.461C8.70534 282.461 8.08009 281.836 8.06055 280.742C8.06055 279.647 8.6858 279.042 9.78001 279.003C10.9133 278.963 11.3627 279.726 11.5581 280.546Z" fill="white" fill-opacity="0.47"/>
<path d="M25.9001 132.946C24.6496 132.848 23.9657 132.321 23.9461 131.226C23.9266 130.132 24.5323 129.487 25.6265 129.468C26.7207 129.448 27.346 130.054 27.3851 131.148C27.4437 132.281 26.6816 132.731 25.8805 132.965L25.9001 132.946Z" fill="white" fill-opacity="0.47"/>
<path d="M63.8844 134.196C62.8488 134.02 62.165 133.454 62.2431 132.36C62.3213 131.285 63.0052 130.679 64.0798 130.777C65.0373 130.855 65.643 131.48 65.6235 132.457C65.6235 133.552 64.9396 134.079 63.8844 134.196Z" fill="white" fill-opacity="0.47"/>
<path d="M75.1978 280.312C74.1231 280.214 73.4392 279.686 73.4197 278.612C73.4197 277.537 74.0645 276.892 75.1392 276.892C76.1161 276.892 76.7414 277.498 76.8 278.455C76.8781 279.55 76.2334 280.116 75.1978 280.312Z" fill="white" fill-opacity="0.47"/>
<path d="M0.362037 134.196C0.244801 135.251 -0.302304 135.916 -1.39651 135.916C-2.49071 135.916 -3.11597 135.271 -3.11597 134.177C-3.11597 133.083 -2.47117 132.457 -1.37696 132.457C-0.282761 132.457 0.26434 133.122 0.362037 134.196Z" fill="white" fill-opacity="0.47"/>
<path d="M36.7443 133.727C37.8385 133.786 38.5224 134.294 38.581 135.388C38.6396 136.463 38.0339 137.147 36.9397 137.205C35.8651 137.264 35.1812 136.658 35.1226 135.564C35.064 134.47 35.7087 133.884 36.7248 133.727H36.7443Z" fill="white" fill-opacity="0.47"/>
<path d="M76.8392 136.404C76.6438 137.44 76.0771 138.104 75.0025 138.026C73.9473 137.948 73.3221 137.244 73.4198 136.17C73.4979 135.212 74.1232 134.626 75.1197 134.646C76.2139 134.665 76.7415 135.349 76.8392 136.404Z" fill="white" fill-opacity="0.47"/>
<path d="M38.6201 277.654C38.4443 278.846 37.8776 279.491 36.7834 279.432C35.7087 279.393 35.0835 278.729 35.1226 277.654C35.1617 276.56 35.826 275.974 36.9006 275.993C38.0339 276.013 38.4638 276.756 38.6201 277.654Z" fill="white" fill-opacity="0.47"/>
<path d="M11.5386 138.397C11.4605 139.472 10.9524 140.156 9.85822 140.195C8.78356 140.234 8.11923 139.628 8.08015 138.534C8.04107 137.459 8.64679 136.795 9.74099 136.756C10.8352 136.717 11.4018 137.362 11.5582 138.397H11.5386Z" fill="white" fill-opacity="0.47"/>
<path d="M48.5657 141.094C47.4715 141.035 46.7876 140.527 46.729 139.433C46.6704 138.358 47.2761 137.674 48.3703 137.616C49.445 137.557 50.1288 138.163 50.1875 139.257C50.2461 140.351 49.6013 140.937 48.5853 141.094H48.5657Z" fill="white" fill-opacity="0.47"/>
<path d="M88.4063 140.547C88.25 141.602 87.742 142.286 86.7455 142.305C85.6513 142.305 84.987 141.641 85.026 140.547C85.0847 139.57 85.749 138.964 86.726 138.983C87.742 139.003 88.1914 139.706 88.3868 140.547H88.4063Z" fill="white" fill-opacity="0.47"/>
<path d="M-1.37696 274.684C-0.321839 274.802 0.342509 275.349 0.342509 276.443C0.342509 277.537 -0.302304 278.162 -1.39651 278.162C-2.49071 278.162 -3.11597 277.518 -3.11597 276.423C-3.11597 275.329 -2.45163 274.782 -1.37696 274.684Z" fill="white" fill-opacity="0.47"/>
<path d="M97.883 221.44C97.7267 222.495 97.1796 223.179 96.0854 223.12C95.0107 223.081 94.3855 222.397 94.4441 221.322C94.5027 220.365 95.1084 219.759 96.0854 219.74C97.1796 219.74 97.7267 220.384 97.8635 221.44H97.883Z" fill="white" fill-opacity="0.47"/>
<path d="M21.6014 144.552C20.3508 144.455 19.667 143.927 19.6474 142.833C19.6279 141.739 20.2336 141.094 21.3278 141.074C22.422 141.055 23.0473 141.66 23.0864 142.755C23.145 143.888 22.383 144.337 21.5818 144.572L21.6014 144.552Z" fill="white" fill-opacity="0.47"/>
<path d="M61.4031 143.536C61.2467 144.748 60.6801 145.392 59.5859 145.373C58.4917 145.334 57.8859 144.689 57.9055 143.614C57.925 142.52 58.5894 141.934 59.664 141.934C60.7973 141.934 61.2272 142.696 61.4031 143.556V143.536Z" fill="white" fill-opacity="0.47"/>
<path d="M8.52951 253.543C8.47089 254.637 7.96287 255.321 6.86866 255.379C5.794 255.438 5.11012 254.832 5.0515 253.738C4.99288 252.663 5.59861 251.98 6.69282 251.921C7.78702 251.862 8.37319 252.507 8.52951 253.523V253.543Z" fill="white" fill-opacity="0.47"/>
<path d="M59.2341 220.56C59.1364 221.635 58.5893 222.299 57.4951 222.299C56.4009 222.299 55.7756 221.674 55.7561 220.58C55.7561 219.486 56.3813 218.86 57.4755 218.841C58.5698 218.841 59.1169 219.486 59.2341 220.56Z" fill="white" fill-opacity="0.47"/>
<path d="M32.4457 144.884C33.6572 145.041 34.302 145.607 34.2824 146.701C34.2433 147.796 33.5986 148.401 32.5239 148.382C31.4297 148.362 30.8435 147.698 30.8435 146.623C30.8435 145.49 31.6055 145.06 32.4653 144.884H32.4457Z" fill="white" fill-opacity="0.47"/>
<path d="M72.9703 147.991C72.7945 149.027 72.2278 149.711 71.1336 149.632C70.0589 149.554 69.4532 148.87 69.5314 147.796C69.6096 146.838 70.2348 146.233 71.2118 146.252C72.306 146.252 72.8336 146.936 72.9508 147.991H72.9703Z" fill="white" fill-opacity="0.47"/>
<path d="M65.6821 274.548C65.5258 275.739 64.9982 276.423 63.904 276.404C62.8294 276.384 62.2041 275.72 62.2432 274.626C62.2823 273.649 62.888 273.063 63.865 273.004C64.9787 272.945 65.4672 273.688 65.6821 274.528V274.548Z" fill="white" fill-opacity="0.47"/>
<path d="M7.66978 149.984C7.61116 151.078 7.10313 151.762 6.00892 151.821C4.93426 151.879 4.25038 151.274 4.19176 150.18C4.13314 149.105 4.73887 148.421 5.83307 148.362C6.92728 148.304 7.51346 148.949 7.66978 149.965V149.984Z" fill="white" fill-opacity="0.47"/>
<path d="M45.9083 150.902C45.8106 151.977 45.283 152.661 44.1888 152.681C43.0946 152.7 42.4498 152.094 42.4303 151C42.4107 149.906 43.0165 149.261 44.1107 149.242C45.2049 149.203 45.7715 149.867 45.9083 150.922V150.902Z" fill="white" fill-opacity="0.47"/>
<path d="M82.486 153.54C81.4113 153.443 80.7274 152.915 80.7079 151.84C80.7079 150.766 81.3527 150.121 82.4274 150.121C83.4043 150.121 84.0296 150.727 84.0882 151.684C84.1664 152.778 83.502 153.345 82.486 153.54Z" fill="white" fill-opacity="0.47"/>
<path d="M25.2943 275.173C24.2196 275.095 23.5357 274.548 23.5162 273.453C23.4967 272.359 24.1024 271.714 25.1966 271.695C26.2908 271.675 26.9356 272.281 26.9551 273.375C26.9942 274.469 26.3299 275.036 25.2747 275.173H25.2943Z" fill="white" fill-opacity="0.47"/>
<path d="M20.9957 219.173C20.9371 220.267 20.4291 220.951 19.3349 221.01C18.2602 221.068 17.5763 220.463 17.5177 219.368C17.4591 218.294 18.0648 217.61 19.159 217.551C20.2532 217.493 20.8394 218.137 20.9957 219.153V219.173Z" fill="white" fill-opacity="0.47"/>
<path d="M17.0292 152.192C18.1038 152.29 18.7877 152.817 18.8073 153.912C18.8268 155.006 18.2211 155.651 17.1269 155.67C16.0327 155.69 15.3879 155.084 15.3683 153.99C15.3293 152.895 15.9936 152.329 17.0487 152.192H17.0292Z" fill="white" fill-opacity="0.47"/>
<path d="M55.6584 153.501C56.7526 153.56 57.4365 154.068 57.4951 155.162C57.5537 156.237 56.948 156.921 55.8538 156.979C54.7792 157.038 54.0953 156.432 54.0366 155.338C53.978 154.244 54.6228 153.658 55.6389 153.501H55.6584Z" fill="white" fill-opacity="0.47"/>
<path d="M94.0924 157.8C93.1154 157.722 92.4315 157.194 92.3534 156.237C92.2752 155.142 92.9591 154.459 94.0337 154.459C95.0107 154.459 95.636 155.103 95.675 156.1C95.6946 157.096 95.0498 157.624 94.0924 157.819V157.8Z" fill="white" fill-opacity="0.47"/>
<path d="M30.4527 158.21C30.355 159.285 29.8275 159.969 28.7333 159.988C27.6391 160.008 26.9942 159.402 26.9747 158.308C26.9552 157.214 27.5609 156.569 28.6551 156.549C29.7493 156.51 30.316 157.175 30.4527 158.23V158.21Z" fill="white" fill-opacity="0.47"/>
<path d="M68.6911 159.011C68.6325 160.106 68.1245 160.789 67.0303 160.848C65.9556 160.907 65.2717 160.301 65.2131 159.207C65.1545 158.132 65.7602 157.448 66.8544 157.39C67.9486 157.331 68.5348 157.976 68.6911 158.992V159.011Z" fill="white" fill-opacity="0.47"/>
<path d="M86.2766 217.668C86.0616 218.685 85.4754 219.349 84.4008 219.251C83.3457 219.153 82.7399 218.43 82.8572 217.356C82.9744 216.398 83.5997 215.812 84.5767 215.871C85.6513 215.91 86.1789 216.613 86.257 217.668H86.2766Z" fill="white" fill-opacity="0.47"/>
<path d="M92.705 271.284C92.4901 272.32 91.9625 272.965 90.966 272.945C89.9891 272.926 89.3248 272.281 89.3443 271.304C89.3443 270.21 90.0477 269.545 91.1419 269.624C92.1189 269.682 92.5878 270.405 92.7246 271.284H92.705Z" fill="white" fill-opacity="0.47"/>
<path d="M3.37113 161.18C3.29297 162.255 2.78495 162.939 1.69074 162.978C0.616079 163.017 -0.0482519 162.411 -0.0873306 161.317C-0.126409 160.242 0.479308 159.578 1.57351 159.539C2.66772 159.5 3.23436 160.145 3.39067 161.18H3.37113Z" fill="white" fill-opacity="0.47"/>
<path d="M41.6096 162.431C41.551 163.525 41.0429 164.209 39.9487 164.267C38.8741 164.326 38.1902 163.72 38.1316 162.626C38.073 161.551 38.6787 160.868 39.7729 160.809C40.8671 160.75 41.4533 161.395 41.6096 162.411V162.431Z" fill="white" fill-opacity="0.47"/>
<path d="M76.7805 163.427C77.015 162.274 77.6012 161.61 78.6758 161.727C79.731 161.825 80.3367 162.548 80.2194 163.623C80.1022 164.58 79.477 165.147 78.5 165.127C77.4058 165.088 76.9368 164.346 76.7805 163.447V163.427Z" fill="white" fill-opacity="0.47"/>
<path d="M52.5126 272.183C51.2816 272.066 50.5978 271.519 50.5978 270.425C50.5978 269.331 51.223 268.705 52.3172 268.686C53.4114 268.686 54.0171 269.311 54.0562 270.405C54.0953 271.538 53.3333 271.988 52.5126 272.183Z" fill="white" fill-opacity="0.47"/>
<path d="M13.0431 167.335C11.7926 167.257 11.1087 166.729 11.0697 165.635C11.0306 164.541 11.6363 163.896 12.7305 163.857C13.8052 163.818 14.45 164.424 14.5281 165.518C14.5867 166.651 13.8442 167.12 13.0627 167.355L13.0431 167.335Z" fill="white" fill-opacity="0.47"/>
<path d="M53.2355 166.319C53.0792 167.53 52.5126 168.175 51.4184 168.156C50.3242 168.117 49.7185 167.472 49.738 166.397C49.7575 165.303 50.4219 164.717 51.4965 164.717C52.6298 164.717 53.0597 165.479 53.2355 166.339V166.319Z" fill="white" fill-opacity="0.47"/>
<path d="M13.9615 267.377C15.0557 267.435 15.7396 267.943 15.7982 269.037C15.8568 270.112 15.2511 270.796 14.1569 270.855C13.0822 270.913 12.3984 270.307 12.3397 269.213C12.2811 268.119 12.9259 267.533 13.942 267.377H13.9615Z" fill="white" fill-opacity="0.47"/>
<path d="M89.481 165.967C90.6925 166.085 91.3959 166.612 91.3959 167.687C91.3959 168.761 90.7511 169.406 89.6764 169.406C88.6995 169.406 88.0937 168.801 88.0156 167.843C87.9374 166.729 88.6604 166.241 89.481 165.967Z" fill="white" fill-opacity="0.47"/>
<path d="M46.2014 214.523C47.2956 214.581 47.9795 215.089 48.0381 216.183C48.0967 217.258 47.491 217.942 46.3968 218.001C45.3221 218.059 44.6382 217.454 44.5796 216.359C44.521 215.265 45.1658 214.679 46.1818 214.523H46.2014Z" fill="white" fill-opacity="0.47"/>
<path d="M26.1736 169.328C26.0172 170.54 25.4506 171.184 24.3564 171.165C23.2622 171.126 22.6565 170.481 22.676 169.406C22.6955 168.312 23.3599 167.726 24.4346 167.726C25.5678 167.726 25.9977 168.488 26.1736 169.348V169.328Z" fill="white" fill-opacity="0.47"/>
<path d="M62.7512 172.474C61.657 172.415 60.9732 171.907 60.9145 170.813C60.8559 169.738 61.4616 169.055 62.5558 168.996C63.6305 168.937 64.3144 169.543 64.373 170.637C64.4316 171.731 63.7868 172.318 62.7708 172.474H62.7512Z" fill="white" fill-opacity="0.47"/>
<path d="M103.022 171.517C102.924 172.494 102.416 173.177 101.439 173.236C100.345 173.295 99.6611 172.63 99.6611 171.536C99.6611 170.559 100.325 169.934 101.322 169.914C102.318 169.914 102.846 170.559 103.022 171.517Z" fill="white" fill-opacity="0.47"/>
<path d="M81.1182 267.513C80.9033 268.529 80.3171 269.194 79.2424 269.096C78.1873 268.998 77.5816 268.275 77.7184 267.201C77.8356 266.243 78.4608 265.657 79.4574 265.716C80.532 265.755 81.0596 266.458 81.1377 267.513H81.1182Z" fill="white" fill-opacity="0.47"/>
<path d="M37.7408 173.607C37.6822 174.701 37.1742 175.385 36.08 175.444C35.0053 175.503 34.3214 174.897 34.2628 173.803C34.2042 172.728 34.8099 172.044 35.9041 171.985C36.9983 171.927 37.5845 172.572 37.7408 173.588V173.607Z" fill="white" fill-opacity="0.47"/>
<path d="M74.4944 176.773C73.2439 176.694 72.56 176.167 72.5209 175.073C72.4819 173.978 73.0876 173.334 74.1818 173.295C75.2564 173.256 75.9012 173.861 75.9794 174.955C76.038 176.089 75.2955 176.558 74.5139 176.792L74.4944 176.773Z" fill="white" fill-opacity="0.47"/>
<path d="M10.6789 176.48C10.6007 177.73 10.0732 178.414 8.97897 178.453C7.88476 178.492 7.23996 177.886 7.20088 176.792C7.1618 175.717 7.76752 175.073 8.86172 174.995C9.995 174.936 10.464 175.678 10.6984 176.46L10.6789 176.48Z" fill="white" fill-opacity="0.47"/>
<path d="M41.1603 264.368C42.2154 264.485 42.8797 265.032 42.8797 266.126C42.8797 267.22 42.2349 267.846 41.1407 267.846C40.0465 267.846 39.4213 267.201 39.4213 266.107C39.4213 265.012 40.0856 264.465 41.1603 264.368Z" fill="white" fill-opacity="0.47"/>
<path d="M48.9175 178.043C48.8002 179.098 48.2531 179.762 47.1589 179.762C46.0647 179.762 45.4395 179.117 45.4395 178.023C45.4395 176.929 46.0843 176.304 47.1785 176.304C48.2727 176.304 48.8198 176.968 48.9175 178.043Z" fill="white" fill-opacity="0.47"/>
<path d="M85.9835 180.641C84.7916 180.466 84.1077 179.918 84.1663 178.824C84.2054 177.75 84.8893 177.124 85.9639 177.183C86.9214 177.242 87.5271 177.847 87.5466 178.824C87.5857 179.938 86.8432 180.407 85.9835 180.622V180.641Z" fill="white" fill-opacity="0.47"/>
<path d="M46.768 255.067C46.5922 256.102 46.0255 256.747 44.9313 256.669C43.8567 256.61 43.2509 255.946 43.3096 254.852C43.3682 253.758 44.0325 253.171 45.1267 253.211C46.2209 253.269 46.7289 253.953 46.7876 255.047L46.768 255.067Z" fill="white" fill-opacity="0.47"/>
<path d="M4.2309 265.305C4.09413 266.361 3.52749 267.005 2.43329 266.986C1.33908 266.947 0.733361 266.302 0.7529 265.227C0.772439 264.133 1.43677 263.527 2.51143 263.547C3.60563 263.566 4.13321 264.25 4.2309 265.325V265.305Z" fill="white" fill-opacity="0.47"/>
<path d="M18.3187 181.13C18.475 179.918 19.0417 179.274 20.1359 179.293C21.2301 179.332 21.8358 179.977 21.8163 181.052C21.7967 182.146 21.1324 182.732 20.0577 182.732C18.9244 182.732 18.4946 181.97 18.3187 181.11V181.13Z" fill="white" fill-opacity="0.47"/>
<path d="M58.8239 183.67C57.632 183.494 56.9872 182.927 57.0458 181.833C57.0849 180.759 57.7492 180.133 58.8239 180.172C59.8985 180.212 60.5043 180.876 60.4847 181.951C60.4652 183.064 59.7227 183.514 58.8239 183.67Z" fill="white" fill-opacity="0.47"/>
<path d="M97.2577 184.92C96.0463 184.823 95.3429 184.276 95.3234 183.201C95.3234 182.126 95.9681 181.482 97.0428 181.482C98.0198 181.482 98.6255 182.087 98.7037 183.045C98.8014 184.139 98.0784 184.666 97.2382 184.92H97.2577Z" fill="white" fill-opacity="0.47"/>
<path d="M9.38925 215.304C9.33063 216.398 8.82261 217.082 7.7284 217.141C6.65374 217.2 5.96986 216.594 5.91124 215.5C5.85262 214.425 6.45834 213.741 7.55254 213.682C8.64675 213.624 9.23293 214.269 9.38925 215.285V215.304Z" fill="white" fill-opacity="0.47"/>
<path d="M33.4813 185.272C33.3055 186.464 32.7388 187.109 31.6446 187.05C30.5699 187.011 29.9447 186.347 29.9838 185.272C30.0229 184.178 30.6872 183.592 31.7619 183.611C32.8952 183.631 33.325 184.373 33.4813 185.272Z" fill="white" fill-opacity="0.47"/>
<path d="M71.7198 186.073C71.5635 187.285 70.9969 187.93 69.9026 187.91C68.8084 187.871 68.2027 187.226 68.2223 186.152C68.2418 185.057 68.9062 184.471 69.9808 184.471C71.1141 184.471 71.544 185.233 71.7198 186.093V186.073Z" fill="white" fill-opacity="0.47"/>
<path d="M108.669 189.18C107.692 189.082 107.008 188.574 106.949 187.597C106.891 186.503 107.555 185.819 108.649 185.819C109.626 185.819 110.251 186.484 110.271 187.48C110.271 188.477 109.626 189.004 108.669 189.18Z" fill="white" fill-opacity="0.47"/>
<path d="M6.39977 188.144C6.28253 189.375 5.73543 190.059 4.64122 190.059C3.54702 190.059 2.92176 189.434 2.90222 188.34C2.90222 187.246 3.52748 186.64 4.62168 186.601C5.75496 186.562 6.20438 187.324 6.39977 188.144Z" fill="white" fill-opacity="0.47"/>
<path d="M67.9292 264.856C66.7373 264.68 66.0534 264.133 66.112 263.039C66.1511 261.964 66.835 261.339 67.9096 261.398C68.8671 261.456 69.4728 262.062 69.4923 263.039C69.5118 264.153 68.7889 264.622 67.9292 264.837V264.856Z" fill="white" fill-opacity="0.47"/>
<path d="M45.0485 189.141C44.9508 190.216 44.4233 190.9 43.3291 190.919C42.2349 190.939 41.5901 190.333 41.5705 189.239C41.551 188.144 42.1567 187.5 43.2509 187.48C44.3451 187.441 44.9118 188.105 45.0485 189.161V189.141Z" fill="white" fill-opacity="0.47"/>
<path d="M83.2871 190.45C83.1503 191.505 82.6032 192.189 81.5286 192.17C80.4539 192.15 79.8286 191.486 79.8677 190.392C79.9068 189.415 80.5125 188.809 81.4895 188.77C82.5837 188.731 83.1308 189.395 83.3066 190.431L83.2871 190.45Z" fill="white" fill-opacity="0.47"/>
<path d="M16.228 190.86C17.3808 191.056 18.0256 191.623 17.9475 192.717C17.8889 193.791 17.2245 194.397 16.1303 194.338C15.0361 194.28 14.4499 193.616 14.489 192.521C14.5281 191.408 15.2706 190.958 16.2085 190.841L16.228 190.86Z" fill="white" fill-opacity="0.47"/>
<path d="M54.5838 195.257C53.4896 195.198 52.8057 194.69 52.7471 193.596C52.6884 192.521 53.2942 191.837 54.3884 191.779C55.4631 191.72 56.1469 192.326 56.2055 193.42C56.2642 194.514 55.6193 195.1 54.6033 195.257H54.5838Z" fill="white" fill-opacity="0.47"/>
<path d="M29.4953 260.499C30.5699 260.596 31.2538 261.124 31.2733 262.218C31.2929 263.312 30.6872 263.957 29.593 263.977C28.4988 263.996 27.8539 263.391 27.8344 262.296C27.7953 261.202 28.4597 260.636 29.5148 260.499H29.4953Z" fill="white" fill-opacity="0.47"/>
<path d="M93.2327 196.507C92.158 196.41 91.4741 195.882 91.4546 194.807C91.4546 193.733 92.0994 193.088 93.1741 193.088C94.151 193.088 94.7763 193.694 94.8349 194.651C94.9131 195.745 94.2487 196.312 93.2327 196.507Z" fill="white" fill-opacity="0.47"/>
<path d="M27.385 194.729C28.5378 194.925 29.1826 195.491 29.1045 196.585C29.0459 197.66 28.3815 198.266 27.2873 198.207C26.1931 198.149 25.6069 197.484 25.646 196.39C25.6851 195.276 26.4276 194.827 27.3655 194.71L27.385 194.729Z" fill="white" fill-opacity="0.47"/>
<path d="M64.2949 197.895C64.4512 196.683 65.0179 196.038 66.1121 196.058C67.2063 196.097 67.812 196.742 67.7925 197.816C67.7729 198.911 67.1086 199.497 66.0339 199.497C64.9006 199.497 64.4708 198.735 64.2949 197.875V197.895Z" fill="white" fill-opacity="0.47"/>
<path d="M106.031 198.618C105.836 199.673 105.308 200.318 104.311 200.318C103.334 200.318 102.67 199.692 102.651 198.715C102.651 197.621 103.315 196.957 104.409 196.996C105.406 197.035 105.855 197.758 106.011 198.618H106.031Z" fill="white" fill-opacity="0.47"/>
<path d="M96.5934 260.069C96.398 261.124 95.8705 261.769 94.874 261.769C93.897 261.769 93.2327 261.144 93.2131 260.167C93.2131 259.072 93.8775 258.408 94.9717 258.447C95.9682 258.486 96.4176 259.209 96.5739 260.069H96.5934Z" fill="white" fill-opacity="0.47"/>
<path d="M2.08153 199.927C1.98384 200.982 1.43674 201.666 0.342532 201.666C-0.751672 201.666 -1.37695 201.04 -1.39648 199.946C-1.39648 198.852 -0.771215 198.227 0.322989 198.207C1.41719 198.207 1.9643 198.852 2.08153 199.927Z" fill="white" fill-opacity="0.47"/>
<path d="M38.8936 199.047C39.9879 199.106 40.6717 199.614 40.7304 200.708C40.789 201.783 40.1833 202.467 39.0891 202.525C38.0144 202.584 37.3305 201.978 37.2719 200.884C37.2133 199.79 37.8581 199.204 38.8741 199.047H38.8936Z" fill="white" fill-opacity="0.47"/>
<path d="M77.4644 203.424C76.2139 203.327 75.53 202.799 75.5105 201.705C75.4909 200.611 76.0967 199.966 77.1909 199.946C78.2851 199.927 78.9103 200.532 78.9494 201.627C79.008 202.76 78.246 203.209 77.4448 203.444L77.4644 203.424Z" fill="white" fill-opacity="0.47"/>
<path d="M58.3745 258.936C58.1986 259.971 57.632 260.616 56.5378 260.538C55.4631 260.479 54.8574 259.815 54.916 258.721C54.9746 257.626 55.639 257.04 56.7332 257.079C57.8274 257.138 58.3354 257.822 58.394 258.916L58.3745 258.936Z" fill="white" fill-opacity="0.47"/>
<path d="M75.1391 213.272C75.0219 214.327 74.4748 214.992 73.3806 214.992C72.2864 214.992 71.6611 214.347 71.6611 213.253C71.6611 212.158 72.3059 211.533 73.4001 211.533C74.4943 211.533 75.0414 212.197 75.1391 213.272Z" fill="white" fill-opacity="0.47"/>
<path d="M13.688 203.698C13.6293 204.792 13.1213 205.476 12.0271 205.535C10.9524 205.593 10.2686 204.987 10.21 203.893C10.1513 202.819 10.7571 202.135 11.8317 202.076C12.9259 202.017 13.5121 202.662 13.6684 203.678L13.688 203.698Z" fill="white" fill-opacity="0.47"/>
<path d="M50.0702 203.346C51.1644 203.405 51.8482 203.913 51.9069 205.007C51.9655 206.082 51.3598 206.766 50.2656 206.824C49.1909 206.883 48.507 206.277 48.4484 205.183C48.3898 204.089 49.0346 203.502 50.0506 203.346H50.0702Z" fill="white" fill-opacity="0.47"/>
<path d="M17.9475 256.2C19.0026 256.317 19.667 256.864 19.667 257.959C19.667 259.053 19.0222 259.678 17.928 259.678C16.8338 259.678 16.2085 259.033 16.2085 257.939C16.2085 256.845 16.8728 256.298 17.9475 256.2Z" fill="white" fill-opacity="0.47"/>
<path d="M25.2943 207.918C25.177 209.149 24.63 209.833 23.5358 209.833C22.4416 209.833 21.8163 209.208 21.7968 208.114C21.7968 207.02 22.422 206.414 23.5162 206.375C24.6495 206.336 25.0989 207.098 25.2943 207.918Z" fill="white" fill-opacity="0.47"/>
<path d="M61.8915 210.712C60.7973 210.654 60.1134 210.146 60.0548 209.052C59.9962 207.977 60.6019 207.293 61.6961 207.234C62.7708 207.176 63.4547 207.782 63.5133 208.876C63.5719 209.97 62.9271 210.556 61.911 210.712H61.8915Z" fill="white" fill-opacity="0.47"/>
<path d="M101.732 210.204C101.537 211.26 101.009 211.904 100.013 211.904C99.0359 211.904 98.3716 211.279 98.3521 210.302C98.3521 209.208 99.0164 208.544 100.111 208.583C101.107 208.622 101.556 209.345 101.713 210.204H101.732Z" fill="white" fill-opacity="0.47"/>
<path d="M34.9272 214.171C33.6767 214.073 32.9928 213.546 32.9732 212.451C32.9537 211.357 33.5594 210.712 34.6536 210.693C35.7478 210.673 36.3731 211.279 36.4122 212.373C36.4708 213.507 35.7088 213.956 34.9076 214.19L34.9272 214.171Z" fill="white" fill-opacity="0.47"/>
<path d="M83.7952 254.07C84.8112 254.285 85.4756 254.871 85.3779 255.946C85.2802 257.001 84.5572 257.607 83.4826 257.49C82.5251 257.372 81.9389 256.747 81.9976 255.77C82.0366 254.696 82.74 254.168 83.7952 254.09V254.07Z" fill="white" fill-opacity="0.47"/>
<path d="M115.957 204.597C115 204.479 114.335 203.971 114.296 202.994C114.257 202.017 114.902 201.353 115.859 201.334C116.836 201.295 117.481 201.939 117.52 202.897C117.559 203.874 116.895 204.421 115.937 204.597H115.957Z" fill="white" fill-opacity="0.47"/>
<path d="M119.767 192.893C118.868 192.775 118.263 192.267 118.263 191.388C118.263 190.392 118.907 189.766 119.904 189.825C120.783 189.884 121.35 190.509 121.311 191.408C121.272 192.306 120.666 192.795 119.767 192.893Z" fill="white" fill-opacity="0.47"/>
<path d="M113.3 214.034C113.182 215.031 112.655 215.695 111.697 215.734C110.72 215.773 110.056 215.128 110.037 214.171C109.998 213.194 110.642 212.549 111.6 212.51C112.596 212.471 113.104 213.155 113.319 214.054L113.3 214.034Z" fill="white" fill-opacity="0.47"/>
<path d="M108.141 263.879C108.024 264.876 107.496 265.54 106.539 265.579C105.562 265.618 104.898 264.973 104.859 264.016C104.82 263.039 105.464 262.394 106.422 262.335C107.399 262.296 107.926 262.961 108.141 263.879Z" fill="white" fill-opacity="0.47"/>
<path d="M112.518 174.213C113.495 174.389 114.14 174.936 114.101 175.932C114.062 176.89 113.397 177.535 112.44 177.496C111.482 177.456 110.838 176.812 110.877 175.835C110.916 174.858 111.58 174.35 112.538 174.232L112.518 174.213Z" fill="white" fill-opacity="0.47"/>
<path d="M115.234 164.267C115.351 163.369 115.859 162.763 116.739 162.763C117.735 162.763 118.36 163.408 118.302 164.404C118.243 165.283 117.618 165.85 116.719 165.811C115.82 165.772 115.332 165.166 115.234 164.267Z" fill="white" fill-opacity="0.47"/>
<path d="M105.523 158.738C106.52 158.855 107.184 159.383 107.223 160.34C107.262 161.317 106.617 161.981 105.66 162.02C104.683 162.059 104.038 161.415 103.979 160.457C103.94 159.461 104.624 158.953 105.523 158.738Z" fill="white" fill-opacity="0.47"/>
<path d="M123.284 216.867C124.222 217.024 124.808 217.551 124.75 218.45C124.691 219.447 124.046 220.033 123.03 219.916C122.131 219.818 121.623 219.153 121.701 218.274C121.78 217.395 122.405 216.926 123.265 216.867H123.284Z" fill="white" fill-opacity="0.47"/>
<path d="M111.033 148.773C110.974 149.632 110.486 150.258 109.607 150.336C108.708 150.414 108.063 149.886 107.965 148.988C107.868 147.991 108.454 147.327 109.45 147.288C110.349 147.249 110.877 147.835 111.033 148.773Z" fill="white" fill-opacity="0.47"/>
<path d="M99.9542 144.904C99.837 145.861 99.329 146.526 98.352 146.565C97.375 146.604 96.7107 145.959 96.6716 145.002C96.6325 144.025 97.2773 143.38 98.2347 143.321C99.2117 143.282 99.7588 143.927 99.9542 144.904Z" fill="white" fill-opacity="0.47"/>
<path d="M103.725 275.583C103.549 276.56 103.022 277.146 102.143 277.088C101.146 277.029 100.56 276.384 100.677 275.368C100.775 274.469 101.439 273.961 102.319 274.04C103.198 274.118 103.667 274.763 103.725 275.564V275.583Z" fill="white" fill-opacity="0.47"/>
<path d="M103.725 133.297C103.647 134.196 103.159 134.802 102.26 134.861C101.361 134.919 100.716 134.353 100.658 133.473C100.579 132.477 101.185 131.812 102.201 131.812C103.1 131.812 103.608 132.399 103.725 133.297Z" fill="white" fill-opacity="0.47"/>
<path d="M110.681 251.139C111.678 251.257 112.342 251.784 112.381 252.742C112.42 253.719 111.775 254.383 110.818 254.402C109.841 254.442 109.196 253.797 109.157 252.839C109.118 251.843 109.802 251.335 110.701 251.12L110.681 251.139Z" fill="white" fill-opacity="0.47"/>
<path d="M91.0443 130.699C90.0868 130.582 89.4225 130.074 89.3834 129.097C89.3443 128.12 89.9891 127.455 90.9466 127.436C91.9235 127.397 92.5683 128.041 92.6074 128.999C92.6465 129.976 92.0017 130.523 91.0247 130.699H91.0443Z" fill="white" fill-opacity="0.47"/>
<path d="M94.8936 119.405C94.0338 119.346 93.4281 118.858 93.3499 117.979C93.2718 117.08 93.8189 116.435 94.6982 116.357C95.6947 116.259 96.359 116.865 96.3981 117.861C96.4372 118.76 95.8314 119.268 94.9131 119.425L94.8936 119.405Z" fill="white" fill-opacity="0.47"/>
<path d="M83.7365 111.902C84.7135 112.078 85.3583 112.625 85.3192 113.621C85.2801 114.579 84.6158 115.224 83.6583 115.185C82.7009 115.145 82.0561 114.501 82.0952 113.524C82.1343 112.547 82.7986 112.039 83.756 111.921L83.7365 111.902Z" fill="white" fill-opacity="0.47"/>
<path d="M98.3129 285.626C99.2898 285.802 99.876 286.33 99.8174 287.209C99.7588 288.206 99.114 288.792 98.0979 288.675C97.1991 288.577 96.6911 287.912 96.7692 287.033C96.8474 286.154 97.4922 285.685 98.2933 285.626H98.3129Z" fill="white" fill-opacity="0.47"/>
<path d="M73.7715 109.225C73.5761 110.28 73.029 110.925 72.052 110.886C71.0946 110.847 70.4498 110.182 70.4889 109.225C70.5279 108.268 71.1727 107.642 72.1693 107.662C73.1658 107.681 73.6152 108.404 73.791 109.245L73.7715 109.225Z" fill="white" fill-opacity="0.47"/>
<path d="M76.4093 96.5439C77.3081 96.6612 77.9138 97.1692 77.9138 98.0485C77.9138 99.045 77.269 99.6702 76.2725 99.6116C75.3932 99.553 74.8266 98.9277 74.8657 98.0289C74.9047 97.1301 75.5105 96.6416 76.4093 96.5439Z" fill="white" fill-opacity="0.47"/>
<path d="M66.3465 93.7694C66.2098 94.7463 65.6822 95.3325 64.7834 95.313C63.7869 95.2934 63.1811 94.6291 63.2788 93.6326C63.357 92.7533 64.0018 92.2062 64.9006 92.2648C65.7994 92.3235 66.2488 92.9487 66.3465 93.7694Z" fill="white" fill-opacity="0.47"/>
<path d="M53.6459 91.1511C52.6885 91.0339 52.0242 90.5259 51.9851 89.5489C51.946 88.5719 52.5908 87.9076 53.5482 87.888C54.5252 87.849 55.17 88.4938 55.2091 89.4512C55.2482 90.4282 54.6033 90.9753 53.6264 91.1511H53.6459Z" fill="white" fill-opacity="0.47"/>
<path d="M84.0687 294.009C83.9515 294.966 83.4435 295.631 82.4665 295.67C81.4895 295.709 80.8252 295.064 80.7861 294.107C80.747 293.13 81.3918 292.465 82.3493 292.426C83.3262 292.387 83.8733 293.032 84.0687 294.009Z" fill="white" fill-opacity="0.47"/>
<path d="M118.888 228.474C119.748 228.532 120.373 229.021 120.451 229.9C120.529 230.799 120.002 231.444 119.103 231.541C118.106 231.639 117.442 231.053 117.403 230.056C117.364 229.158 117.95 228.63 118.888 228.474Z" fill="white" fill-opacity="0.47"/>
<path d="M41.9223 83.9606C42.9188 84.0779 43.5831 84.6054 43.6222 85.5629C43.6613 86.5398 43.0165 87.2042 42.0591 87.2432C41.0821 87.2823 40.4373 86.6375 40.3787 85.6801C40.3396 84.6836 41.0235 84.1756 41.9223 83.9606Z" fill="white" fill-opacity="0.47"/>
<path d="M29.1631 81.3814C29.3585 80.3263 29.9056 79.6815 30.8826 79.7206C31.84 79.7596 32.4848 80.424 32.4457 81.4009C32.4066 82.3584 31.7618 82.9836 30.7653 82.9641C29.7688 82.9445 29.3194 82.2216 29.1436 81.3814H29.1631Z" fill="white" fill-opacity="0.47"/>
<path d="M17.5567 77.0828C17.752 76.0276 18.2992 75.3828 19.2761 75.4219C20.2336 75.461 20.8783 76.1253 20.8393 77.1023C20.8002 78.0597 20.1554 78.685 19.1589 78.6654C18.1624 78.6459 17.713 77.923 17.5371 77.0828H17.5567Z" fill="white" fill-opacity="0.47"/>
<path d="M9.29161 73.1358C9.17437 74.0932 8.66635 74.7576 7.68938 74.7967C6.71241 74.8357 6.04808 74.1909 6.02854 73.2335C5.98946 72.2565 6.63427 71.6117 7.59169 71.5727C8.56866 71.5336 9.11575 72.1784 9.29161 73.1554V73.1358Z" fill="white" fill-opacity="0.47"/>
<path d="M36.2558 69.736C36.08 70.6934 35.5524 71.2796 34.6536 71.2405C33.6766 71.1819 33.0709 70.5371 33.1882 69.5211C33.2859 68.6223 33.9502 68.1142 34.849 68.1924C35.7283 68.2705 36.1777 68.9153 36.2558 69.736Z" fill="white" fill-opacity="0.47"/>
<path d="M78.5 307.315C77.523 307.139 76.8783 306.592 76.9173 305.596C76.9564 304.638 77.6208 303.993 78.5977 304.032C79.5551 304.072 80.1999 304.716 80.1608 305.693C80.1218 306.67 79.4574 307.178 78.5 307.296V307.315Z" fill="white" fill-opacity="0.47"/>
<path d="M21.9922 65.8476C22.1094 64.9488 22.6174 64.3431 23.4967 64.3431C24.4932 64.3431 25.1185 64.9879 25.0599 65.9844C25.0012 66.8637 24.376 67.4303 23.4772 67.3912C22.5784 67.3521 22.0899 66.7464 21.9922 65.8476Z" fill="white" fill-opacity="0.47"/>
<path d="M11.9098 63.1121C10.9524 62.9363 10.3662 62.4087 10.4053 61.5099C10.4639 60.5329 11.1087 59.9272 12.1248 60.064C13.0236 60.1812 13.5316 60.826 13.4339 61.7248C13.3362 62.6041 12.7109 63.0535 11.8903 63.1317L11.9098 63.1121Z" fill="white" fill-opacity="0.47"/>
<path d="M64.2949 312.923C64.1777 313.88 63.6697 314.545 62.6927 314.584C61.7157 314.623 61.0514 313.978 61.0123 313.021C60.9732 312.044 61.618 311.399 62.5754 311.34C63.5524 311.301 64.0995 311.946 64.2949 312.923Z" fill="white" fill-opacity="0.47"/>
<path d="M74.2599 315.717C75.1587 315.834 75.7644 316.342 75.7644 317.222C75.7644 318.218 75.1196 318.843 74.1231 318.785C73.2438 318.726 72.6772 318.101 72.7163 317.202C72.7553 316.303 73.3611 315.815 74.2599 315.717Z" fill="white" fill-opacity="0.47"/>
<path d="M60.3088 324.568C60.1916 325.467 59.6835 326.073 58.8043 326.073C57.8077 326.073 57.1825 325.428 57.2411 324.432C57.2997 323.552 57.925 322.986 58.8238 323.025C59.7226 323.064 60.2111 323.67 60.3088 324.568Z" fill="white" fill-opacity="0.47"/>
<path d="M42.8407 333.107C41.8637 332.931 41.219 332.384 41.258 331.388C41.2971 330.43 41.9614 329.785 42.9384 329.824C43.8958 329.864 44.5406 330.508 44.5015 331.505C44.4625 332.482 43.7981 332.99 42.8407 333.107Z" fill="white" fill-opacity="0.47"/>
<path d="M116.172 241.194C116.094 242.054 115.586 242.659 114.706 242.718C113.808 242.777 113.163 242.21 113.104 241.331C113.026 240.334 113.651 239.67 114.648 239.67C115.547 239.67 116.055 240.256 116.172 241.194Z" fill="white" fill-opacity="0.47"/>
<path d="M29.0459 338.774C28.8701 339.75 28.3229 340.395 27.3264 340.356C26.369 340.317 25.7242 339.653 25.7633 338.676C25.8024 337.718 26.4472 337.074 27.4241 337.113C28.4011 337.152 28.9091 337.816 29.0263 338.774H29.0459Z" fill="white" fill-opacity="0.47"/>
<path d="M0.362109 343.854C-0.693017 343.658 -1.33781 343.111 -1.29873 342.134C-1.25966 341.177 -0.595316 340.532 0.381652 340.571C1.33908 340.61 1.96435 341.255 1.94481 342.251C1.92527 343.248 1.2023 343.697 0.362109 343.873V343.854Z" fill="white" fill-opacity="0.47"/>
<path d="M13.473 346.062C13.3557 346.96 12.8477 347.566 11.9684 347.566C10.9719 347.566 10.3467 346.921 10.4053 345.925C10.4639 345.046 11.0892 344.479 11.988 344.518C12.8868 344.557 13.3753 345.163 13.473 346.062Z" fill="white" fill-opacity="0.47"/>
<path d="M127.602 245.551C127.524 246.411 127.075 246.86 126.215 246.86C125.238 246.86 124.789 246.255 124.867 245.336C124.945 244.476 125.512 244.086 126.332 244.144C127.192 244.203 127.563 244.73 127.583 245.551H127.602Z" fill="white" fill-opacity="0.47"/>
<path d="M126.254 283.692C126.215 284.434 125.824 284.942 125.101 285.021C124.261 285.099 123.714 284.63 123.675 283.79C123.636 282.949 124.164 282.461 125.004 282.481C125.746 282.481 126.137 282.989 126.235 283.692H126.254Z" fill="white" fill-opacity="0.47"/>
<path d="M21.66 350.302C21.7773 349.344 22.3243 348.875 23.2232 348.934C24.161 349.012 24.5909 349.637 24.5128 350.536C24.4346 351.337 23.8875 351.806 23.0864 351.767C22.1485 351.748 21.7186 351.181 21.6796 350.302H21.66Z" fill="white" fill-opacity="0.47"/>
<path d="M9.05704 357.668C8.95934 358.606 8.45131 359.114 7.53296 359.075C6.59507 359.036 6.14568 358.43 6.2043 357.531C6.26291 356.711 6.77094 356.242 7.59159 356.242C8.52948 356.242 8.97888 356.769 9.05704 357.668Z" fill="white" fill-opacity="0.47"/>
<path d="M130.103 232.518C130.924 232.557 131.452 232.968 131.471 233.808C131.491 234.765 130.983 235.273 130.025 235.234C129.185 235.195 128.736 234.687 128.755 233.847C128.755 232.987 129.244 232.557 130.103 232.518Z" fill="white" fill-opacity="0.47"/>
<path d="M138.72 249.733C138.662 250.553 138.251 251.081 137.392 251.061C136.649 251.061 136.18 250.592 136.141 249.869C136.102 249.029 136.59 248.521 137.45 248.521C138.193 248.521 138.583 248.99 138.72 249.733Z" fill="white" fill-opacity="0.47"/>
<path d="M17.5567 50.2748C17.5567 51.115 17.1854 51.6425 16.3257 51.7011C15.505 51.7598 14.9775 51.3299 14.9189 50.4897C14.8602 49.6691 15.2901 49.1415 16.1303 49.0829C16.9705 49.0243 17.4394 49.4541 17.5567 50.2748Z" fill="white" fill-opacity="0.47"/>
<path d="M135.789 222.671C135.692 223.628 135.242 224.077 134.402 224.058C133.425 224.038 132.995 223.452 133.073 222.534C133.152 221.674 133.718 221.303 134.539 221.361C135.399 221.42 135.75 221.967 135.789 222.671Z" fill="white" fill-opacity="0.47"/>
<path d="M46.3578 357.219C47.1589 357.355 47.6669 357.805 47.5692 358.645C47.491 359.368 47.0221 359.817 46.2601 359.778C45.4199 359.739 44.9509 359.212 45.0291 358.371C45.0877 357.649 45.5957 357.258 46.3578 357.199V357.219Z" fill="white" fill-opacity="0.47"/>
<path d="M85.9445 322.497C85.1043 322.497 84.5572 322.126 84.4985 321.266C84.4399 320.328 84.9089 319.762 85.8663 319.781C86.7065 319.781 87.1754 320.25 87.195 321.11C87.195 321.95 86.7651 322.419 85.9249 322.517L85.9445 322.497Z" fill="white" fill-opacity="0.47"/>
<path d="M137.372 211.084C137.45 210.244 137.9 209.775 138.74 209.814C139.58 209.833 140.029 210.322 140.01 211.162C139.99 212.002 139.502 212.451 138.662 212.432C137.821 212.432 137.411 211.904 137.372 211.084Z" fill="white" fill-opacity="0.47"/>
<path d="M50.0702 348.699C49.2301 348.602 48.8002 348.133 48.8197 347.293C48.8588 346.316 49.445 345.886 50.3829 345.983C51.2426 346.081 51.6139 346.667 51.5357 347.468C51.4575 348.328 50.9104 348.699 50.0702 348.68V348.699Z" fill="white" fill-opacity="0.47"/>
<path d="M128.54 207.176C128.521 208.055 128.071 208.641 127.153 208.661C126.235 208.68 125.707 208.153 125.707 207.234C125.707 206.414 126.176 205.906 126.977 205.828C127.876 205.769 128.423 206.218 128.56 207.176H128.54Z" fill="white" fill-opacity="0.47"/>
<path d="M123.382 257.001C123.284 258.037 122.776 258.545 121.858 258.506C120.92 258.467 120.451 257.861 120.529 256.962C120.588 256.141 121.096 255.673 121.916 255.673C122.854 255.673 123.304 256.22 123.382 257.001Z" fill="white" fill-opacity="0.47"/>
<path d="M19.3543 360.618C20.175 360.736 20.6049 361.224 20.5462 362.045C20.4876 362.885 19.96 363.315 19.1394 363.256C18.2992 363.198 17.8889 362.67 17.928 361.849C17.9866 361.009 18.5141 360.638 19.3543 360.618Z" fill="white" fill-opacity="0.47"/>
<path d="M144.289 199.985C144.152 200.786 143.703 201.295 142.863 201.197C142.14 201.119 141.69 200.65 141.729 199.907C141.768 199.067 142.296 198.598 143.136 198.676C143.859 198.735 144.25 199.243 144.309 200.005L144.289 199.985Z" fill="white" fill-opacity="0.47"/>
<path d="M131.549 197.015C130.631 197.015 130.084 196.605 130.045 195.745C130.006 194.807 130.494 194.26 131.452 194.28C132.292 194.28 132.761 194.788 132.761 195.628C132.761 196.488 132.292 196.918 131.549 196.996V197.015Z" fill="white" fill-opacity="0.47"/>
<path d="M134.852 260.89C134.793 261.71 134.383 262.238 133.523 262.218C132.78 262.218 132.311 261.749 132.272 261.026C132.233 260.186 132.722 259.678 133.581 259.678C134.324 259.678 134.715 260.147 134.852 260.89Z" fill="white" fill-opacity="0.47"/>
<path d="M28.7332 54.1631C28.6355 55.1205 28.2056 55.5895 27.3654 55.5699C26.5252 55.5504 26.0758 55.0619 26.0953 54.2217C26.0953 53.3815 26.6034 52.9321 27.4436 52.9517C28.3033 52.9517 28.6745 53.4988 28.7527 54.1631H28.7332Z" fill="white" fill-opacity="0.47"/>
<path d="M4.50445 47.422C3.6838 47.3048 3.25393 46.8163 3.31255 45.9956C3.37117 45.1554 3.89873 44.7256 4.71938 44.7842C5.55958 44.8428 5.96989 45.3704 5.93082 46.191C5.8722 47.0312 5.34464 47.4025 4.50445 47.4025V47.422Z" fill="white" fill-opacity="0.47"/>
<path d="M137.02 183.885C136.981 184.823 136.571 185.331 135.731 185.35C134.89 185.35 134.402 184.921 134.382 184.08C134.363 183.24 134.812 182.771 135.653 182.732C136.512 182.693 136.903 183.201 137.02 183.904V183.885Z" fill="white" fill-opacity="0.47"/>
<path d="M124.085 181.599C123.147 181.501 122.639 180.993 122.678 180.075C122.718 179.137 123.323 178.687 124.222 178.746C125.043 178.805 125.512 179.313 125.512 180.133C125.512 181.071 124.984 181.521 124.085 181.599Z" fill="white" fill-opacity="0.47"/>
<path d="M40.4373 342.974C40.3396 344.01 39.812 344.518 38.8937 344.459C37.9558 344.401 37.5064 343.815 37.565 342.896C37.6236 342.076 38.1512 341.626 38.9718 341.626C39.9097 341.626 40.3396 342.193 40.4373 342.974Z" fill="white" fill-opacity="0.47"/>
<path d="M65.9752 338.695C66.9327 338.793 67.4016 339.223 67.3821 340.063C67.3625 340.903 66.874 341.353 66.0338 341.333C65.1936 341.333 64.7443 340.825 64.7638 339.985C64.7638 339.125 65.3109 338.754 65.9752 338.676V338.695Z" fill="white" fill-opacity="0.47"/>
<path d="M140.85 172.923C140.713 173.724 140.264 174.232 139.424 174.135C138.701 174.057 138.251 173.588 138.29 172.845C138.33 172.005 138.857 171.536 139.697 171.614C140.42 171.673 140.811 172.181 140.87 172.943L140.85 172.923Z" fill="white" fill-opacity="0.47"/>
<path d="M119.083 268.236C119.044 269.135 118.575 269.682 117.657 269.702C116.836 269.702 116.309 269.252 116.231 268.451C116.152 267.552 116.602 266.947 117.54 266.869C118.458 266.81 118.986 267.298 119.083 268.236Z" fill="white" fill-opacity="0.47"/>
<path d="M129.771 168.468C129.713 169.426 129.283 169.914 128.443 169.934C127.485 169.934 126.997 169.406 127.055 168.468C127.094 167.609 127.641 167.198 128.482 167.237C129.341 167.257 129.732 167.785 129.791 168.488L129.771 168.468Z" fill="white" fill-opacity="0.47"/>
<path d="M133.581 157.272C133.581 158.113 133.21 158.64 132.35 158.699C131.53 158.757 131.002 158.327 130.944 157.487C130.885 156.667 131.295 156.139 132.155 156.08C132.995 156.022 133.464 156.452 133.581 157.272Z" fill="white" fill-opacity="0.47"/>
<path d="M129.185 271.265C129.928 271.304 130.436 271.695 130.514 272.418C130.592 273.258 130.142 273.805 129.283 273.844C128.443 273.883 127.954 273.356 127.974 272.515C127.974 271.773 128.482 271.382 129.185 271.284V271.265Z" fill="white" fill-opacity="0.47"/>
<path d="M121.076 151.665C121.975 151.743 122.522 152.212 122.503 153.15C122.483 154.068 121.897 154.556 120.998 154.517C120.178 154.478 119.709 153.97 119.689 153.169C119.669 152.251 120.178 151.762 121.096 151.665H121.076Z" fill="white" fill-opacity="0.47"/>
<path d="M2.1988 57.2503C2.14018 58.1491 1.69078 58.6767 0.752893 58.6962C-0.0677603 58.6962 -0.595325 58.2468 -0.653944 57.4262C-0.732101 56.5274 -0.26316 55.9216 0.65519 55.863C1.57354 55.8044 2.08156 56.3124 2.17926 57.2503H2.1988Z" fill="white" fill-opacity="0.47"/>
<path d="M101.263 312.532C102.006 312.571 102.514 312.962 102.592 313.685C102.67 314.525 102.201 315.072 101.361 315.111C100.521 315.15 100.032 314.623 100.032 313.783C100.032 313.04 100.54 312.649 101.244 312.552L101.263 312.532Z" fill="white" fill-opacity="0.47"/>
<path d="M40.3396 58.5595C40.2029 59.4973 39.7339 59.9272 38.8937 59.8686C38.0535 59.81 37.6237 59.2824 37.6823 58.4618C37.7409 57.6216 38.2685 57.2112 39.0891 57.2503C39.9489 57.3089 40.281 57.856 40.3201 58.5595H40.3396Z" fill="white" fill-opacity="0.47"/>
<path d="M124.984 140.175C125.824 140.254 126.293 140.703 126.254 141.543C126.235 142.383 125.746 142.833 124.906 142.813C124.066 142.794 123.616 142.305 123.636 141.465C123.636 140.625 124.163 140.214 124.984 140.175Z" fill="white" fill-opacity="0.47"/>
<path d="M115.214 137.616C115.136 138.515 114.667 139.062 113.749 139.042C112.831 139.023 112.323 138.456 112.362 137.538C112.401 136.717 112.889 136.228 113.71 136.209C114.628 136.189 115.117 136.697 115.214 137.616Z" fill="white" fill-opacity="0.47"/>
<path d="M36.08 354.561C36.08 355.401 35.7088 355.949 34.849 356.007C33.9111 356.066 33.3445 355.597 33.364 354.639C33.364 353.799 33.833 353.33 34.6927 353.311C35.5329 353.311 36.0018 353.741 36.0995 354.581L36.08 354.561Z" fill="white" fill-opacity="0.47"/>
<path d="M71.3876 328.437C71.2899 329.375 70.7819 329.883 69.8636 329.844C68.9257 329.805 68.4762 329.199 68.5349 328.3C68.5935 327.48 69.1015 327.011 69.9222 327.011C70.8601 327.011 71.3095 327.538 71.3876 328.437Z" fill="white" fill-opacity="0.47"/>
<path d="M115.136 279.98C115.039 280.82 114.57 281.25 113.729 281.23C112.752 281.191 112.323 280.605 112.42 279.667C112.518 278.807 113.104 278.436 113.905 278.514C114.765 278.592 115.136 279.139 115.117 279.98H115.136Z" fill="white" fill-opacity="0.47"/>
<path d="M116.739 125.99C116.817 125.15 117.266 124.681 118.106 124.72C118.946 124.739 119.396 125.228 119.376 126.068C119.357 126.908 118.868 127.358 118.028 127.338C117.188 127.338 116.778 126.81 116.739 125.99Z" fill="white" fill-opacity="0.47"/>
<path d="M107.848 121.75C107.789 122.609 107.34 123.078 106.5 123.078C105.523 123.078 105.074 122.512 105.132 121.574C105.191 120.714 105.738 120.323 106.578 120.362C107.438 120.402 107.829 120.929 107.848 121.73V121.75Z" fill="white" fill-opacity="0.47"/>
<path d="M91.142 310.012C91.0247 310.969 90.4776 311.438 89.5788 311.379C88.6409 311.301 88.2111 310.676 88.3088 309.777C88.3869 308.976 88.934 308.507 89.7547 308.546C90.6926 308.585 91.1224 309.132 91.1615 310.012H91.142Z" fill="white" fill-opacity="0.47"/>
<path d="M50.6368 64.1868C49.8161 64.1477 49.3081 63.7374 49.2886 62.8972C49.2886 62.057 49.7184 61.5685 50.5586 61.549C51.3988 61.5294 51.8873 61.9788 51.9068 62.819C51.9264 63.6592 51.4574 64.1086 50.6368 64.1868Z" fill="white" fill-opacity="0.47"/>
<path d="M5.05151 368.884C4.91474 369.685 4.46532 370.193 3.62513 370.095C2.90218 370.017 2.45278 369.548 2.49186 368.805C2.53094 367.965 3.0585 367.496 3.8987 367.574C4.62165 367.633 5.01244 368.141 5.07106 368.903L5.05151 368.884Z" fill="white" fill-opacity="0.47"/>
<path d="M54.3884 334.299C55.424 334.397 55.932 334.924 55.8734 335.843C55.8147 336.78 55.2286 337.23 54.3102 337.171C53.4896 337.113 53.0402 336.585 53.0402 335.764C53.0402 334.827 53.6068 334.397 54.3884 334.299Z" fill="white" fill-opacity="0.47"/>
<path d="M110.818 109.264C111.619 109.401 112.127 109.85 112.03 110.69C111.951 111.413 111.482 111.863 110.74 111.824C109.9 111.785 109.431 111.257 109.509 110.417C109.568 109.694 110.076 109.303 110.838 109.245L110.818 109.264Z" fill="white" fill-opacity="0.47"/>
<path d="M100.54 106.255C100.501 107.095 100.071 107.603 99.2117 107.603C98.2543 107.603 97.7658 107.076 97.8244 106.138C97.8635 105.278 98.4106 104.868 99.2508 104.907C100.111 104.946 100.521 105.434 100.56 106.275L100.54 106.255Z" fill="white" fill-opacity="0.47"/>
<path d="M61.8133 68.0556C60.9927 68.0165 60.4846 67.6062 60.4651 66.766C60.4651 65.9258 60.895 65.4373 61.7352 65.4178C62.5754 65.4178 63.0638 65.8477 63.0834 66.6878C63.1029 67.528 62.634 67.9774 61.7938 68.0556H61.8133Z" fill="white" fill-opacity="0.47"/>
<path d="M87.918 100.53C88.7973 100.55 89.3835 100.999 89.403 101.917C89.4225 102.836 88.895 103.363 87.9766 103.363C87.156 103.363 86.6479 102.894 86.5698 102.093C86.5112 101.194 86.9606 100.647 87.918 100.51V100.53Z" fill="white" fill-opacity="0.47"/>
<path d="M81.6068 334.025C80.7861 333.967 80.2586 333.537 80.2781 332.697C80.2781 331.954 80.747 331.485 81.47 331.446C82.3102 331.407 82.8182 331.896 82.8182 332.755C82.8182 333.498 82.3493 333.889 81.6068 334.025Z" fill="white" fill-opacity="0.47"/>
<path d="M110.857 291.058C110.799 291.918 110.349 292.407 109.509 292.387C108.532 292.387 108.083 291.82 108.141 290.882C108.2 290.023 108.747 289.632 109.587 289.671C110.447 289.71 110.838 290.238 110.857 291.039V291.058Z" fill="white" fill-opacity="0.47"/>
<path d="M74.6703 70.9474C74.6312 71.7094 74.2599 72.1979 73.537 72.2761C72.6968 72.3738 72.1497 71.9048 72.1106 71.0646C72.0715 70.2244 72.5796 69.7164 73.4198 69.736C74.1623 69.736 74.553 70.2244 74.6703 70.9474Z" fill="white" fill-opacity="0.47"/>
<path d="M93.1935 90.6627C93.1935 91.5028 92.8223 92.0304 91.9625 92.089C91.1419 92.1476 90.6143 91.7178 90.5557 90.8776C90.4971 90.0569 90.9269 89.5294 91.7671 89.4708C92.6073 89.4121 93.0763 89.842 93.1935 90.6627Z" fill="white" fill-opacity="0.47"/>
<path d="M82.0561 86.3835C81.978 87.3605 81.5286 87.8294 80.6884 87.8294C79.7114 87.8294 79.262 87.2628 79.3206 86.3249C79.3792 85.4651 79.9264 85.0744 80.7665 85.1134C81.6263 85.1525 81.9975 85.6996 82.0561 86.364V86.3835Z" fill="white" fill-opacity="0.47"/>
<path d="M69.0625 81.186C69.9613 81.2447 70.4889 81.6941 70.5085 82.632C70.5085 83.4526 70.059 83.9802 69.2384 84.0388C68.3396 84.1169 67.7338 83.648 67.6752 82.7296C67.6166 81.8113 68.1246 81.3033 69.0625 81.2056V81.186Z" fill="white" fill-opacity="0.47"/>
<path d="M94.0925 299.792C93.2132 299.773 92.627 299.343 92.6075 298.405C92.5879 297.487 93.096 296.959 94.0338 296.94C94.8545 296.94 95.3821 297.389 95.4407 298.21C95.5188 299.109 95.0499 299.675 94.112 299.792H94.0925Z" fill="white" fill-opacity="0.47"/>
<path d="M106.5 302.528C106.5 303.368 106.129 303.896 105.269 303.954C104.448 304.013 103.921 303.583 103.862 302.743C103.803 301.922 104.214 301.395 105.073 301.336C105.914 301.277 106.383 301.707 106.5 302.528Z" fill="white" fill-opacity="0.47"/>
<path d="M58.9215 78.2942C58.8629 79.193 58.4134 79.7206 57.4755 79.7401C56.6549 79.7401 56.1273 79.2907 56.0687 78.4701C55.9906 77.5712 56.4595 76.9655 57.3779 76.9069C58.2962 76.8483 58.8042 77.3563 58.9019 78.2942H58.9215Z" fill="white" fill-opacity="0.47"/>
<path d="M47.745 74.0151C47.6669 74.9335 47.198 75.461 46.2601 75.4415C45.3417 75.4219 44.8532 74.8358 44.8923 73.9369C44.9314 73.1163 45.4394 72.6473 46.2405 72.6083C47.1589 72.5887 47.6473 73.0968 47.745 74.0151Z" fill="white" fill-opacity="0.47"/>
<path d="M85.7881 75.2656C85.6904 75.969 85.3192 76.477 84.5962 76.5161C83.8733 76.5552 83.3848 76.0667 83.3457 75.3633C83.3066 74.6403 83.7951 74.1518 84.4985 74.1128C85.241 74.0737 85.6123 74.5817 85.7881 75.2656Z" fill="white" fill-opacity="0.47"/>
<path d="M96.1831 78.0206C96.8865 78.177 97.3554 78.5873 97.2773 79.3102C97.2186 79.916 96.7497 80.3654 96.1244 80.3067C95.4015 80.2677 94.9325 79.7792 95.0107 79.0367C95.0693 78.431 95.5187 78.0597 96.1635 78.0011L96.1831 78.0206Z" fill="white" fill-opacity="0.47"/>
<path d="M32.8561 43.0257C32.817 43.6705 32.4457 44.1199 31.8595 44.198C31.1366 44.2957 30.6481 43.8268 30.57 43.1234C30.5113 42.4786 30.9608 42.0291 31.5469 41.9315C32.2699 41.8142 32.6997 42.3027 32.8756 43.0061L32.8561 43.0257Z" fill="white" fill-opacity="0.47"/>
<path d="M121.135 296.588C120.431 296.49 119.923 296.119 119.884 295.396C119.845 294.673 120.334 294.185 121.037 294.145C121.76 294.106 122.249 294.595 122.288 295.298C122.327 296.041 121.819 296.412 121.135 296.588Z" fill="white" fill-opacity="0.47"/>
<path d="M103.51 93.8475C104.194 94.0234 104.722 94.3946 104.663 95.1371C104.624 95.8405 104.136 96.329 103.413 96.29C102.709 96.2509 102.221 95.7624 102.26 95.0394C102.299 94.3165 102.807 93.9452 103.51 93.8475Z" fill="white" fill-opacity="0.47"/>
<path d="M16.1695 373.085C16.0718 373.788 15.7005 374.296 14.9776 374.335C14.2546 374.374 13.7661 373.886 13.727 373.182C13.688 372.459 14.1764 371.971 14.8799 371.932C15.6224 371.893 15.9936 372.401 16.1695 373.085Z" fill="white" fill-opacity="0.47"/>
<path d="M117.95 306.846C117.872 307.569 117.501 308.018 116.895 308.058C116.172 308.116 115.683 307.647 115.644 306.944C115.605 306.319 116.055 305.869 116.66 305.811C117.403 305.732 117.774 306.26 117.95 306.846Z" fill="white" fill-opacity="0.47"/>
<path d="M20.0578 39.9384C19.3544 39.7821 18.8854 39.3523 18.9636 38.6293C19.0417 38.0431 19.4911 37.5937 20.1359 37.6523C20.8393 37.711 21.3083 38.219 21.2301 38.9419C21.152 39.5281 20.7026 39.8994 20.0578 39.958V39.9384Z" fill="white" fill-opacity="0.47"/>
<path d="M122.014 113.27C122.698 113.465 123.187 113.875 123.069 114.598C122.972 115.185 122.503 115.634 121.877 115.556C121.174 115.458 120.705 114.989 120.842 114.247C120.94 113.641 121.389 113.289 122.034 113.27H122.014Z" fill="white" fill-opacity="0.47"/>
<path d="M129.205 131.558C128.521 131.383 127.993 130.992 128.052 130.269C128.091 129.565 128.579 129.077 129.302 129.116C130.006 129.155 130.494 129.644 130.455 130.367C130.416 131.09 129.908 131.461 129.205 131.558Z" fill="white" fill-opacity="0.47"/>
<path d="M8.88129 33.3341C9.52609 33.3928 9.9755 33.764 10.0537 34.3502C10.1513 35.0731 9.68241 35.5616 8.95945 35.6203C8.31465 35.6789 7.86525 35.2099 7.78709 34.6237C7.6894 33.9008 8.17788 33.4709 8.88129 33.3146V33.3341Z" fill="white" fill-opacity="0.47"/>
<path d="M136.512 147.034C135.829 146.858 135.301 146.487 135.36 145.744C135.399 145.041 135.887 144.552 136.61 144.591C137.313 144.63 137.802 145.119 137.763 145.842C137.724 146.565 137.216 146.936 136.512 147.034Z" fill="white" fill-opacity="0.47"/>
<path d="M31.6446 365.777C31.5469 366.48 31.1756 366.988 30.4527 367.027C29.7297 367.066 29.2412 366.578 29.2021 365.875C29.1631 365.152 29.6516 364.663 30.355 364.624C31.0975 364.585 31.4687 365.093 31.6446 365.777Z" fill="white" fill-opacity="0.47"/>
<path d="M145.012 161.219C144.973 161.864 144.602 162.313 144.015 162.392C143.292 162.489 142.804 162.02 142.726 161.317C142.667 160.672 143.117 160.223 143.703 160.125C144.426 160.027 144.856 160.496 145.032 161.2L145.012 161.219Z" fill="white" fill-opacity="0.47"/>
<path d="M148.021 188.281C147.982 188.926 147.611 189.375 147.024 189.454C146.302 189.551 145.813 189.082 145.735 188.379C145.676 187.734 146.126 187.285 146.712 187.187C147.435 187.089 147.865 187.558 148.041 188.262L148.021 188.281Z" fill="white" fill-opacity="0.47"/>
<path d="M78.4805 343.951C78.3046 344.635 77.9139 345.163 77.1909 345.104C76.4875 345.065 75.999 344.577 76.0381 343.854C76.0772 343.15 76.5656 342.662 77.2886 342.701C77.992 342.74 78.3828 343.248 78.4805 343.951Z" fill="white" fill-opacity="0.47"/>
<path d="M149.858 214.249C150.502 214.327 150.952 214.698 151.011 215.304C151.069 216.027 150.6 216.516 149.897 216.555C149.272 216.594 148.803 216.144 148.763 215.539C148.705 214.816 149.174 214.405 149.877 214.269L149.858 214.249Z" fill="white" fill-opacity="0.47"/>
<path d="M54.4274 52.4046C53.724 52.2482 53.255 51.8184 53.3332 51.0954C53.4114 50.5092 53.8608 50.0598 54.5056 50.1185C55.209 50.1771 55.6779 50.6851 55.5998 51.4081C55.5216 51.9942 55.0722 52.3655 54.4274 52.4241V52.4046Z" fill="white" fill-opacity="0.47"/>
<path d="M63.0248 351.064C62.9271 351.865 62.5363 352.373 61.8134 352.412C61.0904 352.451 60.6019 351.963 60.5629 351.259C60.5238 350.536 61.0123 350.048 61.7157 350.009C62.4777 349.95 62.7904 350.536 63.0248 351.064Z" fill="white" fill-opacity="0.47"/>
<path d="M147.239 226.539C147.142 227.243 146.77 227.751 146.048 227.79C145.325 227.829 144.836 227.34 144.797 226.637C144.758 225.914 145.246 225.426 145.95 225.387C146.692 225.347 147.064 225.855 147.239 226.539Z" fill="white" fill-opacity="0.47"/>
<path d="M44.4624 46.914C44.3061 47.6565 43.9153 48.145 43.1728 48.0668C42.5671 48.0082 42.1177 47.5588 42.1568 46.9335C42.1959 46.2106 42.6843 45.7416 43.4073 45.8198C44.013 45.8784 44.3452 46.3474 44.4624 46.914Z" fill="white" fill-opacity="0.47"/>
<path d="M142.96 238.224C142.785 238.908 142.394 239.435 141.671 239.377C140.967 239.338 140.479 238.849 140.518 238.126C140.557 237.423 141.045 236.934 141.768 236.973C142.491 237.012 142.863 237.52 142.96 238.224Z" fill="white" fill-opacity="0.47"/>
<path d="M98.2543 325.467C98.0784 326.151 97.7072 326.679 96.9647 326.62C96.2613 326.581 95.7728 326.092 95.8119 325.369C95.851 324.666 96.3394 324.178 97.0624 324.217C97.7658 324.256 98.1566 324.764 98.2543 325.467Z" fill="white" fill-opacity="0.47"/>
<path d="M112.401 319.097C111.717 319 111.424 318.57 111.521 317.925C111.6 317.358 112.01 317.085 112.577 317.143C113.261 317.202 113.554 317.671 113.456 318.316C113.378 318.882 112.967 319.117 112.401 319.117V319.097Z" fill="white" fill-opacity="0.47"/>
<path d="M65.9167 54.5734C66.5419 54.5734 66.9522 54.8079 67.0304 55.355C67.1281 55.9998 66.835 56.4492 66.1511 56.5274C65.5845 56.586 65.1742 56.3124 65.096 55.7458C64.9983 55.101 65.3109 54.6711 65.9167 54.5734Z" fill="white" fill-opacity="0.47"/>
<path d="M78.1678 59.3801C78.0896 60.0835 77.7379 60.3571 77.1712 60.318C76.5851 60.2789 76.3115 59.9077 76.3506 59.341C76.3897 58.7549 76.7609 58.4813 77.3276 58.5204C77.9333 58.5595 78.1482 58.9503 78.1678 59.3997V59.3801Z" fill="white" fill-opacity="0.47"/>
<path d="M109.528 329.727C109.47 330.313 109.177 330.645 108.591 330.626C108.004 330.606 107.692 330.274 107.711 329.688C107.731 329.101 108.063 328.789 108.649 328.808C109.235 328.808 109.509 329.16 109.528 329.727Z" fill="white" fill-opacity="0.47"/>
<path d="M108.239 83.4526C108.239 84.0192 107.946 84.3514 107.36 84.3709C106.773 84.3709 106.441 84.0779 106.422 83.4917C106.422 82.9055 106.715 82.5733 107.301 82.5538C107.887 82.5342 108.2 82.8469 108.239 83.4331V83.4526Z" fill="white" fill-opacity="0.47"/>
<path d="M26.5644 378.419C25.7828 378.321 25.4897 377.891 25.5679 377.246C25.646 376.68 26.0368 376.387 26.6035 376.445C27.2873 376.504 27.5804 376.953 27.5022 377.598C27.4436 378.184 27.0138 378.399 26.5644 378.419Z" fill="white" fill-opacity="0.47"/>
<path d="M115.625 99.0059C115.566 99.6702 115.156 99.9829 114.492 99.9243C113.925 99.8656 113.632 99.4944 113.651 98.9082C113.69 98.2243 114.12 97.9117 114.765 97.9703C115.332 98.0289 115.605 98.4002 115.605 99.0059H115.625Z" fill="white" fill-opacity="0.47"/>
<path d="M135.633 288.03C135.692 287.444 135.985 287.111 136.571 287.131C137.157 287.15 137.47 287.483 137.45 288.069C137.431 288.655 137.099 288.968 136.512 288.948C135.926 288.948 135.653 288.596 135.633 288.03Z" fill="white" fill-opacity="0.47"/>
<path d="M134.461 118.721C134.402 119.307 134.109 119.64 133.523 119.62C132.937 119.6 132.624 119.268 132.644 118.682C132.663 118.096 132.995 117.783 133.581 117.803C134.168 117.803 134.441 118.155 134.461 118.721Z" fill="white" fill-opacity="0.47"/>
<path d="M92.666 338.011C92.0017 337.953 91.6891 337.542 91.7477 336.878C91.8063 336.311 92.1775 336.018 92.7637 336.038C93.4476 336.077 93.7602 336.507 93.7016 337.152C93.643 337.718 93.2717 337.992 92.666 337.992V338.011Z" fill="white" fill-opacity="0.47"/>
<path d="M139.932 134.177C139.99 133.591 140.283 133.258 140.87 133.278C141.456 133.298 141.768 133.63 141.749 134.216C141.729 134.802 141.397 135.115 140.811 135.095C140.225 135.095 139.951 134.743 139.932 134.177Z" fill="white" fill-opacity="0.47"/>
<path d="M141.768 276.521C141.69 277.107 141.358 277.381 140.772 277.342C140.186 277.303 139.912 276.931 139.951 276.365C139.99 275.779 140.362 275.505 140.928 275.544C141.514 275.583 141.768 275.954 141.749 276.521H141.768Z" fill="white" fill-opacity="0.47"/>
<path d="M145.637 265.13C145.637 265.813 145.344 266.146 144.758 266.165C144.172 266.165 143.84 265.872 143.82 265.286C143.82 264.7 144.113 264.387 144.699 264.348C145.305 264.328 145.559 264.68 145.637 265.13Z" fill="white" fill-opacity="0.47"/>
<path d="M-0.595326 381.408C-1.25966 381.35 -1.5723 380.939 -1.51368 380.275C-1.45506 379.708 -1.0838 379.415 -0.497624 379.435C0.186254 379.474 0.498876 379.904 0.440257 380.549C0.381639 381.115 0.0103939 381.389 -0.595326 381.389V381.408Z" fill="white" fill-opacity="0.47"/>
<path d="M152.144 176.675C152.144 177.261 151.87 177.632 151.304 177.691C150.659 177.75 150.229 177.457 150.19 176.753C150.151 176.186 150.463 175.796 151.03 175.737C151.675 175.678 152.085 175.991 152.163 176.655L152.144 176.675Z" fill="white" fill-opacity="0.47"/>
<path d="M58.4721 362.787C58.4721 363.373 58.179 363.745 57.6124 363.784C56.9676 363.842 56.5377 363.53 56.5182 362.826C56.4987 362.24 56.8113 361.888 57.3779 361.83C58.0423 361.771 58.433 362.103 58.4917 362.768L58.4721 362.787Z" fill="white" fill-opacity="0.47"/>
<path d="M154.098 204.714C153.512 204.636 153.238 204.304 153.277 203.717C153.316 203.131 153.687 202.858 154.254 202.897C154.84 202.936 155.114 203.307 155.075 203.874C155.036 204.46 154.664 204.714 154.098 204.694V204.714Z" fill="white" fill-opacity="0.47"/>
<path d="M73.9277 355.48C73.9277 356.066 73.6346 356.437 73.068 356.476C72.4232 356.535 71.9933 356.222 71.9738 355.519C71.9542 354.932 72.2668 354.581 72.8335 354.522C73.4978 354.464 73.8886 354.796 73.9472 355.46L73.9277 355.48Z" fill="white" fill-opacity="0.47"/>
<path d="M149.916 253.582C149.916 254.148 149.662 254.52 149.076 254.559C148.509 254.598 148.138 254.324 148.099 253.738C148.06 253.171 148.334 252.8 148.92 252.761C149.486 252.722 149.838 252.996 149.897 253.582H149.916Z" fill="white" fill-opacity="0.47"/>
<path d="M153.394 241.565C153.981 241.643 154.254 241.975 154.215 242.562C154.176 243.148 153.805 243.421 153.238 243.382C152.652 243.343 152.378 242.972 152.417 242.405C152.456 241.819 152.828 241.565 153.394 241.585V241.565Z" fill="white" fill-opacity="0.47"/>
<path d="M42.9969 369.958C42.9969 370.623 42.7429 371.013 42.1763 371.092C41.5315 371.17 41.0821 370.877 41.0234 370.193C40.9844 369.626 41.2579 369.235 41.8246 369.157C42.4889 369.079 42.8797 369.392 42.9774 369.978L42.9969 369.958Z" fill="white" fill-opacity="0.47"/>
<path d="M88.9145 349.051C88.426 349.051 88.0938 348.797 88.0352 348.328C87.9766 347.761 88.2892 347.371 88.8949 347.39C89.3639 347.39 89.6765 347.722 89.696 348.191C89.696 348.68 89.4029 348.953 88.934 349.051H88.9145Z" fill="white" fill-opacity="0.47"/>
<path d="M105.113 340.962C104.937 341.392 104.663 341.763 104.194 341.646C103.784 341.548 103.413 341.196 103.569 340.708C103.667 340.395 103.94 340.063 104.351 340.122C104.819 340.18 105.074 340.493 105.113 340.962Z" fill="white" fill-opacity="0.47"/>
<path d="M129.224 310.734C129.029 311.301 128.755 311.672 128.267 311.575C127.837 311.477 127.485 311.145 127.622 310.656C127.7 310.344 127.974 310.031 128.384 310.051C128.892 310.07 129.009 310.5 129.224 310.754V310.734Z" fill="white" fill-opacity="0.47"/>
<path d="M133.093 299.577C133.093 300.066 132.839 300.398 132.37 300.457C131.803 300.515 131.413 300.203 131.432 299.597C131.432 299.128 131.764 298.815 132.233 298.796C132.722 298.796 132.995 299.089 133.093 299.558V299.577Z" fill="white" fill-opacity="0.47"/>
<path d="M158.025 230.818C158.025 231.307 157.771 231.639 157.302 231.698C156.735 231.756 156.345 231.444 156.364 230.838C156.364 230.369 156.696 230.056 157.165 230.037C157.654 230.037 157.927 230.33 158.025 230.799V230.818Z" fill="white" fill-opacity="0.47"/>
<path d="M162.324 219.622C162.128 220.189 161.855 220.56 161.366 220.463C160.937 220.365 160.585 220.033 160.722 219.544C160.8 219.232 161.073 218.919 161.484 218.939C161.992 218.958 162.109 219.388 162.324 219.642V219.622Z" fill="white" fill-opacity="0.47"/>
<path d="M14.0005 23.2518C13.9614 23.7208 13.7074 24.0334 13.2385 24.092C12.8282 24.1311 12.5546 23.8185 12.4569 23.4863C12.3201 22.9978 12.6718 22.6461 13.0822 22.5484C13.5707 22.4312 13.8247 22.8024 14.0005 23.2518Z" fill="white" fill-opacity="0.47"/>
<path d="M158.592 193.498C157.986 193.42 157.654 193.166 157.654 192.678C157.654 192.072 158.025 191.759 158.592 191.818C159.041 191.877 159.334 192.209 159.295 192.697C159.256 193.205 158.885 193.362 158.572 193.479L158.592 193.498Z" fill="white" fill-opacity="0.47"/>
<path d="M155.485 164.775C155.934 164.893 156.306 165.147 156.228 165.635C156.169 166.085 155.817 166.417 155.348 166.319C155.016 166.26 154.703 165.967 154.703 165.596C154.703 165.108 155.036 164.854 155.485 164.775Z" fill="white" fill-opacity="0.47"/>
<path d="M149.018 149.965C148.959 150.57 148.705 150.902 148.216 150.922C147.63 150.942 147.279 150.59 147.337 150.004C147.376 149.554 147.708 149.242 148.197 149.281C148.685 149.3 148.881 149.671 148.998 149.984L149.018 149.965Z" fill="white" fill-opacity="0.47"/>
<path d="M69.8831 367.184C69.7072 367.614 69.4337 367.985 68.9647 367.868C68.5544 367.77 68.1832 367.418 68.3395 366.93C68.4372 366.617 68.7107 366.285 69.1211 366.344C69.59 366.402 69.844 366.715 69.8831 367.184Z" fill="white" fill-opacity="0.47"/>
<path d="M127.075 103.226C127.075 103.715 126.782 104.028 126.313 104.067C125.727 104.106 125.375 103.774 125.394 103.168C125.414 102.699 125.746 102.406 126.235 102.406C126.723 102.406 126.977 102.718 127.055 103.207L127.075 103.226Z" fill="white" fill-opacity="0.47"/>
<path d="M118.966 88.5719C118.517 88.4938 118.184 88.2398 118.165 87.7513C118.165 87.3605 118.478 87.0869 118.81 87.0088C119.298 86.9111 119.63 87.2433 119.709 87.6927C119.787 88.1811 119.415 88.4352 118.966 88.5719Z" fill="white" fill-opacity="0.47"/>
<path d="M100.462 68.7981C100.013 68.6809 99.6612 68.4464 99.6807 67.9579C99.6807 67.5671 99.9933 67.2936 100.345 67.2349C100.834 67.1568 101.166 67.489 101.224 67.9384C101.283 68.4268 100.912 68.6613 100.462 68.7786V68.7981Z" fill="white" fill-opacity="0.47"/>
<path d="M88.9536 64.5581C88.4651 64.5776 88.1134 64.3236 88.0352 63.8742C87.9375 63.3075 88.2697 62.9168 88.8559 62.8972C89.3444 62.8972 89.6375 63.2098 89.6766 63.6788C89.7156 64.1868 89.403 64.4408 88.9536 64.5581Z" fill="white" fill-opacity="0.47"/>
<path d="M53.5482 375.214C53.1183 375.038 52.7471 374.765 52.8643 374.296C52.962 373.886 53.3137 373.514 53.8022 373.671C54.1149 373.768 54.447 374.042 54.3884 374.452C54.3298 374.921 54.0172 375.175 53.5482 375.214Z" fill="white" fill-opacity="0.47"/>
<path d="M59.6055 39.5281C59.4492 40.1143 59.1951 40.466 58.7066 40.4074C58.2572 40.3488 57.9251 39.9971 58.0228 39.5281C58.0814 39.1959 58.3549 38.8833 58.7457 38.8833C59.2733 38.8638 59.3905 39.3132 59.6055 39.5476V39.5281Z" fill="white" fill-opacity="0.47"/>
<path d="M47.96 35.8547C47.7841 36.2846 47.5106 36.6558 47.0416 36.5386C46.6313 36.4409 46.2601 36.0892 46.4164 35.6007C46.5141 35.2881 46.7876 34.9559 47.198 35.0145C47.6669 35.0731 47.9209 35.3858 47.96 35.8547Z" fill="white" fill-opacity="0.47"/>
<path d="M36.7835 31.4584C36.7053 31.9078 36.4513 32.2399 35.9628 32.2595C35.572 32.2595 35.2985 31.9468 35.2203 31.6147C35.1226 31.1262 35.4743 30.794 35.9042 30.7159C36.3927 30.6377 36.6467 31.009 36.7835 31.4584Z" fill="white" fill-opacity="0.47"/>
<path d="M37.6432 382.092C37.2133 381.916 36.8421 381.643 36.9593 381.174C37.057 380.764 37.4087 380.392 37.8972 380.549C38.2098 380.646 38.542 380.92 38.4834 381.33C38.4247 381.799 38.1121 382.053 37.6432 382.092Z" fill="white" fill-opacity="0.47"/>
<path d="M24.3173 27.9804C23.8875 27.8045 23.5162 27.531 23.6335 27.062C23.7312 26.6517 24.0829 26.2804 24.5714 26.4368C24.884 26.5344 25.2162 26.808 25.1576 27.2183C25.0989 27.6873 24.7863 27.9413 24.3173 27.9804Z" fill="white" fill-opacity="0.47"/>
<path d="M10.6202 385.57C10.1317 385.512 9.81909 385.258 9.81909 384.769C9.81909 384.163 10.1903 383.851 10.757 383.909C11.2064 383.968 11.519 384.3 11.4604 384.789C11.4213 385.258 11.1087 385.531 10.6202 385.57Z" fill="white" fill-opacity="0.47"/>
<path d="M-25 0C-139.051 0 -231.531 92.2062 -232 206.14H-229.108C-228.639 93.8085 -137.449 2.89183 -25 2.89183C87.449 2.89183 179.108 94.2774 179.108 207C179.108 319.723 87.7226 411.108 -25 411.108C-25.1368 411.108 -25.2736 411.108 -25.4103 411.108V414C-25.2736 414 -25.1368 414 -25 414C89.3248 414 182 321.325 182 207C182 92.6752 89.3248 0 -25 0Z" fill="url(#paint1_linear_2628_40763)"/>
</g>
</g>
<defs>
<linearGradient id="paint0_linear_2628_40763" x1="-121.78" y1="110.216" x2="71.7875" y2="303.784" gradientUnits="userSpaceOnUse">
<stop stop-color="#FF69AC"/>
<stop offset="1" stop-color="#FFB948"/>
</linearGradient>
<linearGradient id="paint1_linear_2628_40763" x1="-25" y1="0" x2="-25" y2="414" gradientUnits="userSpaceOnUse">
<stop stop-color="#FF69AC"/>
<stop offset="1" stop-color="#FFB948"/>
</linearGradient>
<clipPath id="clip0_2628_40763">
<rect width="414" height="414" fill="white" transform="translate(-232)"/>
</clipPath>
</defs>
</svg>
