<svg width="44" height="45" viewBox="0 0 44 45" fill="none" xmlns="http://www.w3.org/2000/svg">
<path d="M34.2 17.5001C34.2 8.50005 26.8 1.00005 17.9 0.800052C8.60002 0.600052 0.900024 8.10005 0.900024 17.4001C0.900024 18.7001 1.10002 19.9001 1.40002 21.1001C1.50002 21.6001 1.70002 22.2001 1.90002 22.7001V22.8001C2.10002 23.4001 2.20002 24.0001 2.40002 24.6001C3.00002 26.9001 2.50002 29.4001 1.20002 31.5001C0.800024 32.2001 1.00002 33.1001 1.80002 33.5001C3.10002 34.2001 4.50002 34.6001 6.00002 34.6001C7.90002 34.6001 9.70002 34.0001 11.2 32.8001C22 37.4001 34.2 29.2001 34.2 17.5001ZM10 30.2001C8.50002 31.6001 6.40002 32.1001 4.50002 31.6001C5.60002 29.3001 5.80002 26.7001 5.30002 24.3001C5.00002 23.5001 4.80002 22.7001 4.60002 22.0001C4.50002 21.6001 4.40002 21.2001 4.30002 20.9001C4.00002 19.8001 3.80002 18.7001 3.80002 17.5001C3.80002 9.80005 10.2 3.60005 17.9 3.70005C25.4 3.90005 31.4 10.0001 31.4 17.5001C31.4 27.5001 20.7 34.3001 11.6 30.0001C11 29.7001 10.4 29.8001 10 30.2001Z" fill="#FFC073" stroke="#FFC073" stroke-width="0.3"/>
<path d="M19.5 17.6001C19.5 16.5001 18.6 15.6001 17.5 15.6001C16.4 15.6001 15.5 16.5001 15.5 17.6001C15.5 18.7001 16.4 19.6001 17.5 19.6001C18.6 19.6001 19.5 18.7001 19.5 17.6001Z" fill="#FFC073" stroke="#FFC073" stroke-width="0.3"/>
<path d="M10.1 15.5C8.99998 15.5 8.09998 16.4 8.09998 17.5C8.09998 18.6 8.99998 19.5 10.1 19.5C11.2 19.5 12.1 18.6 12.1 17.5C12.1 16.5 11.2 15.5 10.1 15.5Z" fill="#FFC073" stroke="#FFC073" stroke-width="0.3"/>
<path d="M25 19.6001C26.1 19.6001 27 18.7001 27 17.6001C27 16.5001 26.1 15.6001 25 15.6001C23.9 15.6001 23 16.5001 23 17.6001C22.9 18.7001 23.8 19.6001 25 19.6001Z" fill="#FFC073" stroke="#FFC073" stroke-width="0.3"/>
<path d="M36.2001 28.9C37.3001 28.9 38.2001 28 38.2001 26.9C38.2001 25.8 37.3001 24.9 36.2001 24.9C35.1001 24.9 34.2001 25.8 34.2001 26.9C34.2001 28 35.1001 28.9 36.2001 28.9Z" fill="#FFC073" stroke="#FFC073" stroke-width="0.3"/>
<path d="M43.2 41C41.9 39 41.5 36.5 42 34.1C42.2 33.5 42.3 32.9 42.5 32.3V32.2001C42.7 31.7001 42.8 31.1 43 30.6C43.3 29.4 43.5 28.2 43.5 26.9C43.5 21.6 40.9 16.9 37 13.8C37.3 15.1 37.4 16.4 37.4 17.7C37.4 17.8 37.4 18 37.4 18.1C39.4 20.5 40.6 23.5 40.6 26.9C40.6 28.1 40.4 29.2 40.1 30.3C40 30.7 39.9 31 39.8 31.4C39.6 32.1 39.4 32.9001 39.2 33.7001C38.7 36.1 39 38.7001 40 41C38.1 41.5 35.9 41 34.5 39.6C34.1 39.2 33.4 39.1 32.9 39.3C27.3 42 21.1 40.4 17.2 36.5C15.8 36.4 14.3 36.1 12.9 35.7001C17.1 42.2001 25.5 45.5 33.3 42.3C34.8 43.4 36.7 44.1 38.5 44.1C40 44.1 41.4 43.7001 42.7 43C43.4 42.6 43.7 41.7001 43.2 41Z" fill="#FFC073" stroke="#FFC073" stroke-width="0.3"/>
</svg>
