<svg width="1024" height="1024" viewBox="0 0 1024 1024" fill="none" xmlns="http://www.w3.org/2000/svg">
<path fill-rule="evenodd" clip-rule="evenodd" d="M766.692 247.813L781.08 236.129C784.383 239.739 787.623 243.412 790.761 247.149L776.386 258.718L736.5 290.798L726.717 298.668L723.567 301.206L717.597 323.17L714.536 334.395L712.993 335.734L694.918 351.423L687.737 357.648L679.115 365.122C681.691 369.013 681.092 374.281 677.469 377.431L672.52 381.73L666.589 386.87L644.446 406.092C642.201 408.044 639.293 408.745 636.576 408.248C634.535 407.878 632.609 406.832 631.142 405.148L623.464 396.296C620.045 392.355 620.479 386.411 624.408 382.992L627.316 380.467L620.466 372.571C619.382 371.321 619.51 369.421 620.76 368.337L622.635 366.717C623.349 366.092 624.267 365.875 625.135 366.028C625.785 366.143 626.397 366.474 626.869 367.01L633.719 374.906L649.433 361.27L655.76 355.773L657.418 354.331C659.663 352.38 662.546 351.691 665.237 352.176C666.819 352.469 668.337 353.145 669.625 354.229L679.383 345.76L686.717 339.395L701.742 326.347L702.929 322.01L706.551 308.719L710.786 293.157L717.419 287.775L727.24 279.79L766.666 247.787L766.692 247.813Z" fill="#103155"/>
<path fill-rule="evenodd" clip-rule="evenodd" d="M873.178 472.956C873.178 666.568 716.225 823.521 522.614 823.521C329.003 823.521 172.062 666.568 172.062 472.956C172.062 279.345 329.003 122.392 522.614 122.392C622.602 122.392 712.807 164.242 776.66 231.398L762.234 243.107L722.896 275.046L713.049 283.031L706.723 288.172L705.103 289.485L704.554 291.488L701.468 302.827L697.909 315.876L696.021 322.789L682.781 334.282L675.396 340.685L668.738 346.463C667.972 346.195 667.182 345.991 666.391 345.838C661.646 344.983 656.824 346.297 653.189 349.46L651.646 350.8L645.281 356.323L634.35 365.813L631.735 362.802C630.332 361.182 628.393 360.073 626.276 359.69C623.444 359.18 620.574 359.958 618.406 361.846L616.531 363.466C612.589 366.884 612.168 372.866 615.587 376.808L618.342 379.984C616.237 382.509 614.975 385.634 614.732 388.989C614.426 393.224 615.791 397.318 618.572 400.52L626.263 409.372C628.623 412.101 631.875 413.951 635.421 414.589C640.192 415.443 645.013 414.129 648.674 410.953L669.669 392.739L675.447 387.726L681.684 382.318C686.136 378.453 687.947 372.535 686.786 367.024L691.212 363.185L698.304 357.037L716.583 341.169L718.764 339.282L720.243 337.993L720.754 336.093L722.348 330.238L729.236 304.919L730.715 303.733L740.448 295.901L780.512 263.669L794.874 252.125C843.829 312.406 873.166 389.257 873.166 472.956H873.178Z" fill="white"/>
<path fill-rule="evenodd" clip-rule="evenodd" d="M727.266 279.817L766.692 247.814C770.008 251.373 773.235 255.008 776.386 258.72L736.5 290.8L726.717 298.669L723.567 301.208L717.597 323.172L714.536 334.397L712.993 335.736L694.918 351.425L687.737 357.65L679.115 365.124C681.691 369.014 681.092 374.282 677.469 377.433L672.52 381.731L666.589 386.872L644.446 406.094C642.201 408.045 639.293 408.747 636.576 408.249C634.535 407.88 632.609 406.834 631.142 405.15L623.464 396.298C620.045 392.357 620.479 386.413 624.408 382.994L627.316 380.469L620.466 372.573C619.382 371.323 619.51 369.423 620.76 368.338L622.635 366.719C623.349 366.094 624.267 365.877 625.135 366.03C625.785 366.145 626.397 366.476 626.869 367.012L633.719 374.907L649.433 361.272L655.76 355.775L657.418 354.333C659.663 352.382 662.546 351.693 665.237 352.178C666.819 352.471 668.337 353.147 669.625 354.231L679.383 345.762L686.717 339.397L701.742 326.348L702.929 322.012L706.551 308.721L710.786 293.159L717.419 287.777L727.24 279.792L727.266 279.817Z" fill="url(#paint0_linear_2574_6742)"/>
<path fill-rule="evenodd" clip-rule="evenodd" d="M855.123 472.956C855.123 655.674 706.997 803.8 524.278 803.8C341.56 803.8 193.434 655.687 193.434 472.956C193.434 290.224 341.56 142.111 524.278 142.111C617.697 142.111 702.073 180.836 762.227 243.107L722.89 275.046L713.043 283.03L706.716 288.171L705.096 289.485L704.548 291.487L701.461 302.827L697.902 315.875L696.015 322.788L682.775 334.281L675.389 340.684L668.731 346.462C667.966 346.194 667.175 345.99 666.384 345.837C661.639 344.983 656.818 346.296 653.182 349.46L651.639 350.799L645.274 356.322L634.343 365.812L631.728 362.802C630.325 361.182 628.386 360.072 626.269 359.689C623.437 359.179 620.567 359.957 618.399 361.845L616.524 363.465C612.583 366.883 612.162 372.865 615.58 376.807L618.335 379.983C616.231 382.508 614.968 385.633 614.726 388.988C614.419 393.223 615.784 397.317 618.565 400.519L626.256 409.371C628.616 412.1 631.869 413.95 635.414 414.588C640.185 415.442 645.006 414.129 648.667 410.953L669.662 392.738L675.44 387.725L681.678 382.317C686.129 378.452 687.94 372.534 686.78 367.024L691.206 363.184L698.298 357.036L716.576 341.169L718.757 339.281L720.237 337.993L720.747 336.092L722.341 330.237L729.229 304.918L730.709 303.732L740.441 295.9L780.505 263.668C827.125 320.684 855.097 393.554 855.097 472.956H855.123Z" fill="url(#paint1_linear_2574_6742)"/>
<path d="M596.624 457.784C603.107 417.843 575.985 380.209 536.044 373.726C496.103 367.242 458.469 394.365 451.985 434.306C445.502 474.247 472.625 511.881 512.565 518.365C552.506 524.848 590.141 497.725 596.624 457.784Z" fill="#FCEFB6"/>
<path fill-rule="evenodd" clip-rule="evenodd" d="M366.423 181.231C194.023 258.732 153.793 516.387 261.689 667.83L176.867 650.19C120.349 487.344 174.112 256.181 339.853 169.165L366.41 181.231H366.423Z" fill="white"/>
<path fill-rule="evenodd" clip-rule="evenodd" d="M135.344 117.432C135.344 117.432 193.967 82.7509 250.09 114.766C306.213 146.782 290.945 147.713 290.945 147.713L236.276 112.802C207.334 97.0112 161.836 106.59 135.344 117.432Z" fill="white"/>
<path fill-rule="evenodd" clip-rule="evenodd" d="M145.146 119.74C145.146 119.74 191.893 95.4673 241.652 111.96L240.465 115.493C211.536 103.784 169.878 109.626 145.133 119.74H145.146Z" fill="white"/>
<path fill-rule="evenodd" clip-rule="evenodd" d="M154.762 121.959C181.152 111.053 220.783 107.469 249.903 117.112L248.717 120.645C221.433 109.599 181.28 114.191 154.762 121.959Z" fill="white"/>
<path fill-rule="evenodd" clip-rule="evenodd" d="M162.566 125.02C188.957 114.114 231.381 113.744 260.501 123.4L259.315 126.933C232.031 115.887 189.072 117.265 162.566 125.02Z" fill="white"/>
<path fill-rule="evenodd" clip-rule="evenodd" d="M169.883 128.401C196.12 117.955 238.251 118.465 267.154 128.771L265.968 132.304C238.889 120.633 196.235 121.131 169.883 128.401Z" fill="white"/>
<path fill-rule="evenodd" clip-rule="evenodd" d="M180.13 132.317C206.214 122.355 248.039 123.771 276.7 134.766L275.513 138.299C248.664 125.965 206.304 125.557 180.117 132.317H180.13Z" fill="white"/>
<path fill-rule="evenodd" clip-rule="evenodd" d="M217.847 150.48C235.807 143.821 264.072 145.033 289.085 152.278C262.873 142.087 228.753 140.786 207.758 145.888C227.12 138.337 258.396 139.536 284.761 147.648C258.141 137.074 222.261 136.283 200.475 141.997C219.684 134.14 250.59 134.574 276.878 141.844C250.22 130.339 215.36 132.482 192.758 138.413C215.539 129.089 251.687 128.005 280.144 139.599L290.935 146.615L297.912 152.457L297.516 154.995C301.024 156.245 304.417 157.623 307.682 159.115L307.134 162.597C280.361 148.439 241.062 145.327 217.847 150.48Z" fill="white"/>
<path fill-rule="evenodd" clip-rule="evenodd" d="M230.638 155.098C253.317 148.555 276.046 150.124 306.11 160.634L304.924 164.167C289.656 156.731 257.36 149.601 230.625 155.098H230.638Z" fill="white"/>
<path fill-rule="evenodd" clip-rule="evenodd" d="M241.812 160.748C262.68 154.153 284.632 155.709 314.76 166.22L314.084 169.766C298.509 162.317 266.698 155.199 241.812 160.748Z" fill="white"/>
<path fill-rule="evenodd" clip-rule="evenodd" d="M250.637 165.2C269.145 158.631 290.101 160.2 320.306 170.697L320.28 174.23C304.323 166.781 273.111 159.664 250.637 165.187V165.2Z" fill="white"/>
<path fill-rule="evenodd" clip-rule="evenodd" d="M263.27 167.917C280.374 163.555 300.005 165.787 327.071 175.2L327.046 178.733C312.785 172.075 284.941 165.302 263.27 167.917Z" fill="white"/>
<path fill-rule="evenodd" clip-rule="evenodd" d="M267.133 172.535C283.536 167.382 302.873 169.282 329.952 178.721L330.182 182.535C315.781 175.736 288.128 169.142 267.133 172.535Z" fill="white"/>
<path fill-rule="evenodd" clip-rule="evenodd" d="M327.206 180.366C318.673 161.552 302.691 137.623 287.602 123.108C300.803 139.435 311.224 155.787 317.78 173.134C318.074 173.759 321.352 177.369 321.62 177.943L327.206 180.379V180.366Z" fill="white"/>
<path fill-rule="evenodd" clip-rule="evenodd" d="M319.69 175.531C311.157 156.717 293.121 131.207 278.031 116.691C291.233 133.018 303.707 150.952 310.264 168.299C310.557 168.924 313.835 172.534 314.103 173.108L319.69 175.544V175.531Z" fill="white"/>
<path fill-rule="evenodd" clip-rule="evenodd" d="M312.925 171.22C304.391 152.406 286.993 127.227 266.598 111.181C284.072 127.775 299.174 150.492 302.555 163.311C302.848 163.936 306.126 167.546 306.394 168.12L312.925 171.22Z" fill="white"/>
<path fill-rule="evenodd" clip-rule="evenodd" d="M304.179 162.445C295.199 144.971 277.252 121.437 256.602 106.156C274.382 121.845 289.982 143.07 293.681 154.907C293.987 155.494 297.342 158.887 297.622 159.41L304.179 162.432V162.445Z" fill="white"/>
<path fill-rule="evenodd" clip-rule="evenodd" d="M298.517 156.17C288.274 139.409 268.644 117.253 246.922 103.542C265.812 117.878 282.93 137.904 287.496 149.435C287.841 149.996 291.438 153.134 291.756 153.644L298.517 156.182V156.17Z" fill="white"/>
<path fill-rule="evenodd" clip-rule="evenodd" d="M292.315 149.868C280.771 133.975 259.445 113.439 236.715 101.5C256.677 114.293 275.325 132.891 280.797 144.026C281.18 144.549 285.019 147.393 285.376 147.878L292.315 149.868Z" fill="white"/>
<path fill-rule="evenodd" clip-rule="evenodd" d="M282.383 139.83C269.13 125.327 245.648 107.317 221.719 97.98C242.982 108.452 263.607 124.855 270.291 135.302C270.737 135.786 274.857 138.184 275.278 138.618L282.395 139.817L282.383 139.83Z" fill="white"/>
<path fill-rule="evenodd" clip-rule="evenodd" d="M259.562 120.964C243.452 109.727 218.248 96.2703 196.258 96.9081C218.643 98.579 237.47 109.51 249.689 117.776C250.225 118.146 252.508 120.607 253.006 120.939L259.562 120.964Z" fill="white"/>
<path fill-rule="evenodd" clip-rule="evenodd" d="M121.859 307.368C121.859 307.368 137.472 227.941 210.253 203.502C283.034 179.063 271.784 193.336 271.784 193.336L197.587 214.204C160.699 227.38 133.199 275.301 121.859 307.368Z" fill="white"/>
<path fill-rule="evenodd" clip-rule="evenodd" d="M131.664 300.505C131.664 300.505 147.123 239.853 201.091 208.769L203.285 212.608C170.032 228.999 142.251 270.568 131.664 300.517V300.505Z" fill="white"/>
<path fill-rule="evenodd" clip-rule="evenodd" d="M141.234 293.746C152.433 261.705 180.597 223.733 212.192 205.544L214.386 209.383C183.008 224.843 155.329 264.09 141.234 293.746Z" fill="white"/>
<path fill-rule="evenodd" clip-rule="evenodd" d="M150.133 289.216C161.332 257.175 194.559 219.279 226.154 201.078L228.348 204.917C196.97 220.376 164.215 259.56 150.133 289.216Z" fill="white"/>
<path fill-rule="evenodd" clip-rule="evenodd" d="M158.915 285.428C170.408 253.897 204.171 216.933 236.173 199.458L238.367 203.297C206.594 218.068 173.303 256.308 158.902 285.428H158.915Z" fill="white"/>
<path fill-rule="evenodd" clip-rule="evenodd" d="M170.484 279.433C182.283 248.425 216.607 212.443 249.044 195.721L251.238 199.56C219.056 213.616 185.191 250.861 170.484 279.433Z" fill="white"/>
<path fill-rule="evenodd" clip-rule="evenodd" d="M216.431 260.352C224.734 239.153 248.153 215.045 274.365 198.591C244.594 213.77 216.456 243.005 204.377 265.658C212.987 242.507 238.79 215.734 266.852 198.757C236.418 213.999 207.336 245.186 195.18 269.051C203.395 245.798 228.229 218.732 255.474 201.168C224.186 215.721 198.509 248.324 185.895 273.056C195.64 245.479 223.267 212.558 256.061 196.487L270.819 192.456L281.52 190.9L283.459 193.26C287.337 191.142 291.253 189.203 295.156 187.494L297.809 190.734C264.084 203.272 230.232 235.671 216.443 260.339L216.431 260.352Z" fill="white"/>
<path fill-rule="evenodd" clip-rule="evenodd" d="M230.641 252.661C242.771 227.367 262.146 208.451 295.246 190.097L297.44 193.936C278.766 201.589 246.904 224.587 230.641 252.661Z" fill="white"/>
<path fill-rule="evenodd" clip-rule="evenodd" d="M244.492 247.215C255.156 223.49 273.893 205.263 307.044 186.857L309.646 190.263C290.73 198.184 259.25 220.774 244.492 247.228V247.215Z" fill="white"/>
<path fill-rule="evenodd" clip-rule="evenodd" d="M255.418 242.902C264.232 221.282 282.191 203.948 315.393 185.479L318.518 188.297C299.296 196.563 268.288 218.604 255.418 242.915V242.902Z" fill="white"/>
<path fill-rule="evenodd" clip-rule="evenodd" d="M267.828 233.873C277.497 215.251 294.997 199.613 324.755 183.057L327.88 185.876C310.698 193.261 282.662 212.585 267.841 233.873H267.828Z" fill="white"/>
<path fill-rule="evenodd" clip-rule="evenodd" d="M274.969 234.09C283.374 215.468 300.352 199.83 330.148 183.273L333.707 186.092C316.283 193.478 288.566 212.802 274.969 234.09Z" fill="white"/>
<path fill-rule="evenodd" clip-rule="evenodd" d="M329.422 186.997C305.978 179.688 272.125 174.931 247.316 176.831C272.227 178.03 294.97 181.729 315.544 189.638C316.322 189.88 322.126 189.816 322.84 190.033L329.422 187.01V186.997Z" fill="white"/>
<path fill-rule="evenodd" clip-rule="evenodd" d="M319.21 189.842C295.766 182.534 258.878 178.35 234.082 180.238C258.993 181.437 284.771 184.574 305.345 192.483C306.123 192.725 311.927 192.661 312.641 192.878L319.223 189.855L319.21 189.842Z" fill="white"/>
<path fill-rule="evenodd" clip-rule="evenodd" d="M310.015 192.444C286.571 185.136 250.499 180.646 220.129 186.041C248.662 183.669 280.754 188.248 294.798 195.391C295.576 195.633 301.38 195.569 302.094 195.786L310.002 192.457L310.015 192.444Z" fill="white"/>
<path fill-rule="evenodd" clip-rule="evenodd" d="M295.317 193.26C272.715 187.405 237.651 184.701 207.766 190.926C235.738 187.571 266.899 190.53 280.33 196.602C281.083 196.793 286.746 196.512 287.447 196.678L295.317 193.26Z" fill="white"/>
<path fill-rule="evenodd" clip-rule="evenodd" d="M285.288 193.311C262.316 189.14 227.149 189.025 197.812 197.431C225.466 192.023 256.754 192.673 270.607 197.75C271.372 197.877 276.997 197.189 277.711 197.303L285.301 193.311H285.288Z" fill="white"/>
<path fill-rule="evenodd" clip-rule="evenodd" d="M274.786 193.821C251.559 191.486 216.495 194.152 187.91 204.879C215.04 197.29 246.291 195.466 260.5 199.42C261.278 199.497 266.827 198.349 267.541 198.4L274.786 193.821Z" fill="white"/>
<path fill-rule="evenodd" clip-rule="evenodd" d="M258.028 194.688C234.685 194.969 200.132 201.55 172.938 215.39C199.047 204.816 229.902 199.497 244.456 201.844C245.234 201.831 250.63 200.071 251.344 200.045L258.04 194.688H258.028Z" fill="white"/>
<path fill-rule="evenodd" clip-rule="evenodd" d="M223.244 200.007C200.526 205.403 168.664 217.112 151.84 237.125C171.024 218.592 195.616 210.53 212.606 206.245C213.358 206.053 217.338 205.977 218.039 205.798L223.256 200.007H223.244Z" fill="white"/>
<path fill-rule="evenodd" clip-rule="evenodd" d="M258.512 12.1362C258.512 12.1362 317.071 32.8124 327.543 90.7721C338.015 148.745 328.436 138.617 328.436 138.617L320.834 79.9685C314.928 50.5039 281.599 24.3047 258.512 12.1362Z" fill="white"/>
<path fill-rule="evenodd" clip-rule="evenodd" d="M262.629 20.3369C262.629 20.3369 306.966 38.8065 324.568 83.2329L321.405 84.4701C312.655 57.4036 284.185 31.7018 262.629 20.3369Z" fill="white"/>
<path fill-rule="evenodd" clip-rule="evenodd" d="M266.703 28.3611C289.777 40.4275 315.479 66.0145 325.785 92.0224L322.622 93.2596C314.369 67.7237 287.647 42.3408 266.703 28.3611Z" fill="white"/>
<path fill-rule="evenodd" clip-rule="evenodd" d="M269.141 35.6184C292.215 47.6848 317.304 77.1111 327.611 103.119L324.447 104.356C316.195 78.8203 290.085 49.5981 269.141 35.6184Z" fill="white"/>
<path fill-rule="evenodd" clip-rule="evenodd" d="M271.06 42.6965C293.726 54.9288 318.037 84.6612 327.744 110.899L324.581 112.136C316.889 86.3831 291.557 56.8548 271.047 42.6965H271.06Z" fill="white"/>
<path fill-rule="evenodd" clip-rule="evenodd" d="M274.321 52.1497C296.554 64.5478 320.049 94.5991 329.143 121.079L325.98 122.316C318.888 96.321 294.36 66.4866 274.309 52.137L274.321 52.1497Z" fill="white"/>
<path fill-rule="evenodd" clip-rule="evenodd" d="M283.692 89.1531C298.858 97.8139 314.56 118.26 324.139 139.995C315.925 115.709 296.856 91.1046 281.001 79.4081C297.621 88.5153 315.083 111.079 324.854 134.268C316.665 109.472 296.205 83.9362 279.445 72.0483C296.18 80.875 313.973 102.725 324.28 125.365C316.703 99.995 294.815 76.8826 277.43 64.561C297.277 75.0203 319.203 99.6506 327.762 126.335L329.178 137.98V146.284L327.162 147.495C328.336 150.671 329.369 153.86 330.236 157.011L327.481 158.669C321.703 131.666 300.874 102.38 283.68 89.1658L283.692 89.1531Z" fill="white"/>
<path fill-rule="evenodd" clip-rule="evenodd" d="M287.97 100.797C305.827 112.826 318.034 129.624 328.289 156.793L325.126 158.03C321.388 143.004 307.473 116.257 287.957 100.797H287.97Z" fill="white"/>
<path fill-rule="evenodd" clip-rule="evenodd" d="M290.574 111.921C307.398 122.649 319.159 138.899 329.452 166.106L326.582 167.713C322.666 152.47 309.018 126.067 290.574 111.921Z" fill="white"/>
<path fill-rule="evenodd" clip-rule="evenodd" d="M292.625 120.683C308.059 129.778 319.232 145.339 329.564 172.597L327.077 174.651C322.931 159.14 309.64 133.158 292.625 120.683Z" fill="white"/>
<path fill-rule="evenodd" clip-rule="evenodd" d="M298.105 131.104C311.167 140.504 321.103 155.543 330.363 179.956L327.876 182.01C324.177 168.145 312.621 144.713 298.105 131.091V131.104Z" fill="white"/>
<path fill-rule="evenodd" clip-rule="evenodd" d="M297.138 136.5C310.339 144.957 320.327 159.574 329.587 184.039L327.049 186.424C323.375 172.38 311.781 149.191 297.125 136.5H297.138Z" fill="white"/>
<path fill-rule="evenodd" clip-rule="evenodd" d="M326.846 183.081C334.997 166.103 342.369 140.925 343.683 121.881C339.997 140.657 334.665 157.519 326.387 172.251C326.119 172.825 325.52 177.226 325.277 177.749L326.846 183.081Z" fill="white"/>
<path fill-rule="evenodd" clip-rule="evenodd" d="M325.827 175.007C333.977 158.03 341.248 130.478 342.574 111.448C338.888 130.223 333.658 149.445 325.368 164.19C325.1 164.764 324.5 169.165 324.258 169.688L325.827 175.019V175.007Z" fill="white"/>
<path fill-rule="evenodd" clip-rule="evenodd" d="M324.869 167.736C333.02 150.759 340.43 123.858 339.716 100.21C338.351 122.136 331.311 145.988 324.321 155.861C324.053 156.435 323.453 160.835 323.211 161.358L324.869 167.736Z" fill="white"/>
<path fill-rule="evenodd" clip-rule="evenodd" d="M325.87 156.487C332.822 139.982 338.779 113.655 337.363 90.2874C336.802 111.895 331.1 135.224 324.99 144.752C324.761 145.301 324.353 149.637 324.148 150.148L325.87 156.5V156.487Z" fill="white"/>
<path fill-rule="evenodd" clip-rule="evenodd" d="M326.958 148.859C332.673 131.882 336.678 105.198 333.54 81.9836C334.573 103.578 330.606 127.265 325.224 137.214C325.032 137.788 324.943 142.137 324.777 142.66L326.958 148.859Z" fill="white"/>
<path fill-rule="evenodd" clip-rule="evenodd" d="M327.74 140.837C332.09 123.465 333.952 96.5384 328.99 73.6555C331.733 95.097 329.654 119.026 325.075 129.37C324.934 129.957 325.189 134.294 325.075 134.83L327.74 140.837Z" fill="white"/>
<path fill-rule="evenodd" clip-rule="evenodd" d="M328.936 128.03C331.321 110.274 330.16 83.3097 322.66 61.1284C327.788 82.1235 328.4 106.142 325.007 116.932C324.931 117.519 325.67 121.818 325.607 122.353L328.936 128.03Z" fill="white"/>
<path fill-rule="evenodd" clip-rule="evenodd" d="M328.759 101.026C327.178 83.1816 321.833 57.6967 308.504 42.6965C320.443 59.3166 323.836 78.8831 325.2 92.2505C325.252 92.85 324.869 95.873 324.933 96.4215L328.746 101.026H328.759Z" fill="white"/>
<path fill-rule="evenodd" clip-rule="evenodd" d="M90.0859 209.828C90.0859 209.828 128.798 152.264 208.607 157.353C288.429 162.43 273.034 169.943 273.034 169.943L192.842 161.563C152.153 159.611 110.749 188.272 90.0859 209.828Z" fill="white"/>
<path fill-rule="evenodd" clip-rule="evenodd" d="M101.875 207.686C101.875 207.686 134.962 164.905 197.922 158.438L199.006 162.214C161.008 164.025 121.174 187.571 101.888 207.699L101.875 207.686Z" fill="white"/>
<path fill-rule="evenodd" clip-rule="evenodd" d="M113.398 205.542C133.909 183.973 173.093 163.386 209.943 159.598L211.027 163.373C175.185 165.082 136.115 186.817 113.411 205.542H113.398Z" fill="white"/>
<path fill-rule="evenodd" clip-rule="evenodd" d="M123.605 204.957C144.116 183.388 188.338 164.561 225.188 160.76L226.272 164.535C190.43 166.245 146.31 186.232 123.605 204.957Z" fill="white"/>
<path fill-rule="evenodd" clip-rule="evenodd" d="M133.477 204.905C154.127 183.82 198.617 165.925 235.671 162.838L236.756 166.613C200.722 167.647 156.334 186.703 133.489 204.905H133.477Z" fill="white"/>
<path fill-rule="evenodd" clip-rule="evenodd" d="M146.785 204.05C167.589 183.489 212.347 166.55 249.605 164.203L250.689 167.979C214.452 168.298 169.796 186.397 146.785 204.05Z" fill="white"/>
<path fill-rule="evenodd" clip-rule="evenodd" d="M198.221 204.37C212.686 190.403 243.081 179.191 274.064 174.969C239.905 176.985 203.298 190.658 184.637 204.523C199.969 189.115 233.54 176.589 266.5 172.571C231.665 174.421 193.54 189.332 174.445 204.115C189.42 188.49 222.099 175.416 254.421 170.671C218.936 171.678 183.795 188.847 164.012 204.179C181.767 185.645 218.948 168.885 256.385 167.176L272.303 168.936L283.452 171.296L284.702 173.821C289.191 173.451 293.656 173.235 298.056 173.183L299.765 176.64C262.418 175.25 219.191 189.51 198.234 204.395L198.221 204.37Z" fill="white"/>
<path fill-rule="evenodd" clip-rule="evenodd" d="M214.664 203.055C234.141 187.124 259.001 178.667 297.407 175.261L298.491 179.037C277.611 178.833 239.09 186.32 214.677 203.068L214.664 203.055Z" fill="white"/>
<path fill-rule="evenodd" clip-rule="evenodd" d="M230.082 203.388C247.633 188.209 271.651 180.071 310.121 176.64L311.741 180.199C290.529 180.122 252.518 187.418 230.082 203.388Z" fill="white"/>
<path fill-rule="evenodd" clip-rule="evenodd" d="M242.246 203.642C257.336 189.509 280.32 181.818 318.867 178.348L321.163 181.626C299.555 181.716 262.17 188.744 242.246 203.642Z" fill="white"/>
<path fill-rule="evenodd" clip-rule="evenodd" d="M257.27 200.657C272.346 189.177 294.387 182.672 328.916 179.56L331.211 182.838C311.9 182.914 278.277 188.794 257.27 200.657Z" fill="white"/>
<path fill-rule="evenodd" clip-rule="evenodd" d="M264.348 203.234C278.162 191.333 299.667 184.65 334.259 181.563L337.001 184.981C317.448 184.981 284.144 190.964 264.36 203.234H264.348Z" fill="white"/>
<path fill-rule="evenodd" clip-rule="evenodd" d="M332.447 184.267C311.159 170.619 278.722 155.517 253.391 148.693C277.932 158.004 299.577 168.553 317.817 181.703C318.531 182.15 324.335 184.05 324.998 184.458L332.447 184.267Z" fill="white"/>
<path fill-rule="evenodd" clip-rule="evenodd" d="M321.406 183.081C300.117 169.433 264.492 153.757 239.16 146.933C263.701 156.244 288.536 167.354 306.776 180.504C307.49 180.951 313.293 182.851 313.957 183.259L321.406 183.068V183.081Z" fill="white"/>
<path fill-rule="evenodd" clip-rule="evenodd" d="M311.476 182.06C290.188 168.412 255.455 152.774 223.555 146.855C252.751 154.547 283.479 168.935 295.43 179.292C296.145 179.738 301.948 181.639 302.612 182.047H311.489V182.06H311.476Z" fill="white"/>
<path fill-rule="evenodd" clip-rule="evenodd" d="M296.547 177.774C275.667 165.567 241.432 151.664 209.773 146.575C238.69 153.297 268.97 166.09 280.616 175.402C281.317 175.81 287.057 177.481 287.695 177.838L296.547 177.774Z" fill="white"/>
<path fill-rule="evenodd" clip-rule="evenodd" d="M286.503 174.446C264.768 163.438 229.678 151.563 197.918 148.374C227.115 153.374 258.186 164.382 270.533 173.03C271.26 173.387 277.09 174.726 277.753 175.058L286.49 174.446H286.503Z" fill="white"/>
<path fill-rule="evenodd" clip-rule="evenodd" d="M275.88 171.332C253.354 161.689 217.55 152.046 185.879 150.937C215.19 154.036 246.938 163.067 259.974 170.962C260.727 171.281 266.607 172.238 267.308 172.519L275.88 171.332Z" fill="white"/>
<path fill-rule="evenodd" clip-rule="evenodd" d="M258.904 166.396C235.498 158.782 199.082 152.404 167.883 154.228C197.041 154.623 229.414 160.771 243.266 167.493C244.044 167.748 249.95 168.157 250.664 168.386L258.904 166.396Z" fill="white"/>
<path fill-rule="evenodd" clip-rule="evenodd" d="M222.588 158.935C198.327 155.593 163.085 154.152 140.457 164.343C165.011 156.129 191.912 157.991 210.139 160.3C210.942 160.402 214.947 161.678 215.687 161.767L222.588 158.935Z" fill="white"/>
<path fill-rule="evenodd" clip-rule="evenodd" d="M385.237 12.6594C385.237 12.6594 415.123 63.5655 382.291 116.398C349.446 169.23 349.293 155.454 349.293 155.454L384.791 103.757C401.041 76.563 394.191 35.9632 385.237 12.6594Z" fill="white"/>
<path fill-rule="evenodd" clip-rule="evenodd" d="M382.601 21.6777C382.601 21.6777 403.239 62.4817 385.343 108.579L382.078 107.737C394.489 80.8109 390.969 43.4509 382.601 21.6905V21.6777Z" fill="white"/>
<path fill-rule="evenodd" clip-rule="evenodd" d="M380.047 30.5159C389.065 53.7304 390.558 89.3812 380.086 116.358L376.82 115.517C388.53 90.121 386.106 54.0492 380.06 30.5159H380.047Z" fill="white"/>
<path fill-rule="evenodd" clip-rule="evenodd" d="M376.794 37.7874C385.812 61.0018 384.141 99.395 373.656 126.36L370.391 125.518C382.1 100.122 382.852 61.308 376.794 37.7874Z" fill="white"/>
<path fill-rule="evenodd" clip-rule="evenodd" d="M373.24 44.6248C381.837 67.7244 379.35 105.901 368.265 132.725L365 131.883C377.296 106.628 378.839 68.0306 373.24 44.6248Z" fill="white"/>
<path fill-rule="evenodd" clip-rule="evenodd" d="M369.08 54.1394C377.218 77.1243 373.914 115.084 362.179 141.742L358.914 140.9C371.822 115.811 374.208 77.4304 369.08 54.1394Z" fill="white"/>
<path fill-rule="evenodd" clip-rule="evenodd" d="M350.163 89.4337C355.584 105.276 353.097 130.939 345.087 154.052C355.942 129.676 358.786 98.7067 354.985 80.0076C361.184 97.0613 358.556 125.454 349.666 149.855C360.903 125.085 363.352 92.546 358.99 73.1708C365.482 90.0715 363.607 118.082 355.495 142.342C367.6 117.47 367.255 86.0408 362.727 65.9641C370.431 86.0026 369.73 118.669 357.459 145.174L350.342 155.391L344.5 162.075L342.128 161.871C340.788 165.123 339.334 168.286 337.765 171.335L334.5 171.054C349.117 145.927 353.913 110.135 350.163 89.4465V89.4337Z" fill="white"/>
<path fill-rule="evenodd" clip-rule="evenodd" d="M345.207 101.308C350.296 121.436 347.733 142.112 336.406 169.995L333.141 169.153C340.883 154.855 349.136 125.173 345.22 101.308H345.207Z" fill="white"/>
<path fill-rule="evenodd" clip-rule="evenodd" d="M339.348 111.794C344.565 130.276 342.052 150.251 330.725 178.185L327.422 177.802C335.177 163.236 343.404 133.975 339.361 111.794H339.348Z" fill="white"/>
<path fill-rule="evenodd" clip-rule="evenodd" d="M334.742 120.058C340.048 136.41 337.586 155.479 326.247 183.49L322.918 183.694C330.686 168.77 338.888 140.071 334.755 120.058H334.742Z" fill="white"/>
<path fill-rule="evenodd" clip-rule="evenodd" d="M331.571 131.652C334.875 146.869 331.826 164.79 321.673 189.88L318.344 190.084C325.295 176.742 333.012 151.117 331.571 131.652Z" fill="white"/>
<path fill-rule="evenodd" clip-rule="evenodd" d="M327.037 135.453C331.106 149.981 328.402 167.609 318.21 192.724L314.613 193.17C321.705 179.701 329.231 154.241 327.037 135.453Z" fill="white"/>
<path fill-rule="evenodd" clip-rule="evenodd" d="M316.805 190.34C334.943 181.424 358.246 165.454 372.647 150.888C356.639 163.873 340.733 174.332 324.075 181.347C323.476 181.653 319.917 184.842 319.368 185.123L316.805 190.34Z" fill="white"/>
<path fill-rule="evenodd" clip-rule="evenodd" d="M321.719 183.235C339.857 174.319 364.755 156.386 379.155 141.819C363.148 154.791 345.648 167.215 328.989 174.243C328.39 174.549 324.831 177.738 324.283 178.018L321.719 183.235Z" fill="white"/>
<path fill-rule="evenodd" clip-rule="evenodd" d="M326.098 176.832C344.236 167.916 368.777 150.581 384.874 131.117C368.407 147.979 346.276 163.082 334.031 166.946C333.432 167.252 329.873 170.441 329.325 170.722L326.098 176.832Z" fill="white"/>
<path fill-rule="evenodd" clip-rule="evenodd" d="M334.773 168.362C351.661 159.127 374.697 141.41 390.08 121.742C374.455 138.821 353.702 154.28 342.376 158.387C341.814 158.694 338.447 161.946 337.937 162.239L334.773 168.362Z" fill="white"/>
<path fill-rule="evenodd" clip-rule="evenodd" d="M340.973 162.838C357.261 152.507 379.072 133.348 393.027 112.812C378.626 130.81 358.932 147.57 347.848 152.43C347.312 152.775 344.174 156.231 343.677 156.55L340.973 162.826V162.838Z" fill="white"/>
<path fill-rule="evenodd" clip-rule="evenodd" d="M347.195 156.832C362.731 145.377 383.088 124.778 395.423 103.438C382.412 122.316 363.994 140.377 353.254 146.028C352.744 146.411 349.874 150.059 349.402 150.416L347.195 156.819V156.832Z" fill="white"/>
<path fill-rule="evenodd" clip-rule="evenodd" d="M357.129 147.213C371.428 134.305 389.514 111.907 399.451 89.6489C388.57 109.573 372.129 129.267 361.963 135.976C361.491 136.41 359.029 140.3 358.596 140.695L357.129 147.213Z" fill="white"/>
<path fill-rule="evenodd" clip-rule="evenodd" d="M375.996 125.351C387.361 110.058 401.239 86.3841 401.672 66.5115C399.032 86.8815 387.846 104.624 379.478 116.206C379.108 116.716 376.685 118.935 376.34 119.407L375.996 125.351Z" fill="white"/>
<path fill-rule="evenodd" clip-rule="evenodd" d="M504.064 349.691C504.064 349.691 508.018 264.805 439.918 221.667C371.818 178.542 379.726 195.902 379.726 195.902L450.161 235.749C484.472 258.415 500.518 314.155 504.064 349.691Z" fill="white"/>
<path fill-rule="evenodd" clip-rule="evenodd" d="M495.799 340.24C495.799 340.24 495.213 274.525 447.967 229.333L444.766 232.701C474.575 257.739 492.496 307.064 495.799 340.253V340.24Z" fill="white"/>
<path fill-rule="evenodd" clip-rule="evenodd" d="M487.721 330.953C484.315 295.481 465.106 249.728 437.44 223.273L434.238 226.641C462.364 250.263 480.769 297.203 487.721 330.966V330.953Z" fill="white"/>
<path fill-rule="evenodd" clip-rule="evenodd" d="M479.778 324.117C476.373 288.645 451.972 241.693 424.319 215.238L421.117 218.606C449.242 242.228 472.827 290.367 479.778 324.13V324.117Z" fill="white"/>
<path fill-rule="evenodd" clip-rule="evenodd" d="M471.772 318.058C467.946 283.032 442.767 236.896 414.514 211.067L411.312 214.434C440.012 237.445 464.387 284.767 471.772 318.058Z" fill="white"/>
<path fill-rule="evenodd" clip-rule="evenodd" d="M461.484 309.053C457.211 274.486 431.216 229.218 402.338 204.052L399.137 207.419C428.435 229.805 453.64 276.246 461.484 309.065V309.053Z" fill="white"/>
<path fill-rule="evenodd" clip-rule="evenodd" d="M419.42 278.097C416.257 254.41 398.412 223.976 375.797 200.634C402.354 223.555 423.731 260.405 430.377 286.528C427.392 260.775 407.775 227.012 383.425 202.688C410.645 225.838 432.494 264.92 438.923 292.293C436.359 266.528 417.813 232.714 394.42 207.994C422.685 230.66 440.709 270.316 447.367 298.696C444.331 268.147 424.395 227.662 394.981 203.07L380.95 195.264L370.427 191.004L367.864 192.93C364.432 189.805 360.937 186.846 357.392 184.129L353.871 186.769C385.121 207.994 411.525 249.499 419.42 278.097Z" fill="white"/>
<path fill-rule="evenodd" clip-rule="evenodd" d="M406.837 266.706C400.791 237.879 385.778 213.746 356.62 186.756L353.418 190.123C370.548 202.611 397.283 234.027 406.837 266.706Z" fill="white"/>
<path fill-rule="evenodd" clip-rule="evenodd" d="M394.076 257.675C389.14 230.825 374.599 207.547 345.402 180.48L341.895 183.299C359.203 196.106 385.645 227.011 394.076 257.675Z" fill="white"/>
<path fill-rule="evenodd" clip-rule="evenodd" d="M384.028 250.558C380.444 226.31 366.477 204.142 337.242 176.999L333.352 179.09C350.89 192.33 376.987 222.56 384.028 250.558Z" fill="white"/>
<path fill-rule="evenodd" clip-rule="evenodd" d="M373.643 238.236C368.452 216.833 354.51 196.501 328.324 172.177L324.434 174.269C340.11 186.105 363.86 212.815 373.643 238.236Z" fill="white"/>
<path fill-rule="evenodd" clip-rule="evenodd" d="M366.293 236.667C362.377 215.57 348.984 195.378 322.747 171.054L318.41 173.031C334.316 184.919 357.747 211.565 366.293 236.667Z" fill="white"/>
<path fill-rule="evenodd" clip-rule="evenodd" d="M322.543 175.033C348.27 173.439 383.985 177.074 408.794 185.199C383.092 180.199 358.972 178.273 336.025 181.181C335.171 181.232 329.278 179.727 328.487 179.753L322.543 175.02V175.033Z" fill="white"/>
<path fill-rule="evenodd" clip-rule="evenodd" d="M332.266 180.48C357.993 178.886 396.654 183.848 421.463 191.986C395.761 186.985 368.695 183.72 345.748 186.628C344.893 186.679 339 185.174 338.21 185.2L332.266 180.468V180.48Z" fill="white"/>
<path fill-rule="evenodd" clip-rule="evenodd" d="M340.965 185.443C366.692 183.849 404.601 188.313 434.218 201.4C405.71 191.834 371.845 188.479 355.748 192.255C354.894 192.306 349.001 190.801 348.21 190.826L340.978 185.443H340.965Z" fill="white"/>
<path fill-rule="evenodd" clip-rule="evenodd" d="M355.758 189.944C380.261 189.638 416.702 195.645 445.606 209.472C417.927 199.051 385.401 194.268 370.197 197.1C369.38 197.1 363.679 195.39 362.926 195.39L355.758 189.931V189.944Z" fill="white"/>
<path fill-rule="evenodd" clip-rule="evenodd" d="M365.993 192.521C390.458 194.013 426.351 202.7 454.157 218.618C427.32 206.182 395.241 199.026 379.858 200.723C379.042 200.672 373.481 198.541 372.728 198.49L365.98 192.521H365.993Z" fill="white"/>
<path fill-rule="evenodd" clip-rule="evenodd" d="M376.566 195.659C400.84 199.09 435.916 210.583 462.383 228.67C436.618 214.141 405.215 204.46 389.743 204.945C388.939 204.83 383.556 202.266 382.816 202.152L376.566 195.672V195.659Z" fill="white"/>
<path fill-rule="evenodd" clip-rule="evenodd" d="M393.41 200.736C417.148 206.859 450.719 222.216 474.993 243.135C451.013 225.813 420.885 212.675 405.464 211.425C404.673 211.221 399.622 208.071 398.895 207.867L393.41 200.724V200.736Z" fill="white"/>
<path fill-rule="evenodd" clip-rule="evenodd" d="M427.562 214.869C449.374 226.055 478.928 245.966 491.083 270.583C476.16 246.897 453.111 232.522 436.861 223.899C436.134 223.517 432.103 222.445 431.44 222.088L427.575 214.881L427.562 214.869Z" fill="white"/>
<path fill-rule="evenodd" clip-rule="evenodd" d="M274.824 423.811C274.824 423.811 355.08 379.474 349.302 298.683C343.511 217.891 332.886 234.205 332.886 234.205L343.23 315.099C345.297 356.336 304.978 400.941 274.824 423.824V423.811Z" fill="white"/>
<path fill-rule="evenodd" clip-rule="evenodd" d="M277.977 411.63C277.977 411.63 337.684 374.282 347.633 309.652L342.429 308.874C339.329 347.688 306.127 390.265 277.977 411.63Z" fill="white"/>
<path fill-rule="evenodd" clip-rule="evenodd" d="M281.105 399.715C311.284 376.985 340.366 335.339 346.195 297.52L340.991 296.742C338.07 333.362 307.368 374.995 281.105 399.715Z" fill="white"/>
<path fill-rule="evenodd" clip-rule="evenodd" d="M282.078 389.282C312.257 366.553 338.992 319.932 344.821 282.1L339.617 281.322C336.696 317.942 308.341 364.563 282.078 389.27V389.282Z" fill="white"/>
<path fill-rule="evenodd" clip-rule="evenodd" d="M282.316 379.23C311.806 356.398 337.279 309.587 342.126 271.614L336.921 270.836C334.932 307.597 307.865 354.409 282.316 379.23Z" fill="white"/>
<path fill-rule="evenodd" clip-rule="evenodd" d="M283.707 365.623C312.483 342.689 336.616 295.673 340.455 257.548L335.251 256.77C334.23 293.67 308.503 340.673 283.707 365.61V365.623Z" fill="white"/>
<path fill-rule="evenodd" clip-rule="evenodd" d="M284.069 313.286C303.636 297.367 319.618 265.454 325.945 233.579C322.616 268.515 303.126 306.947 283.648 327.138C305.218 310.212 323.062 274.956 329.134 241.079C326.034 276.678 304.809 316.768 284.044 337.47C305.906 320.888 324.516 286.5 331.583 253.196C329.631 289.395 305.32 326.628 283.801 348.095C309.72 328.426 333.509 289.153 336.455 250.913L334.261 234.867L331.174 223.732L327.705 222.686C328.292 218.081 328.662 213.515 328.789 209.038L324.031 207.596C325.371 245.479 304.962 290.696 284.044 313.311L284.069 313.286Z" fill="white"/>
<path fill-rule="evenodd" clip-rule="evenodd" d="M286.145 296.45C308.492 275.251 320.584 249.23 325.903 209.855L320.698 209.077C320.66 230.314 309.691 270.161 286.145 296.437V296.45Z" fill="white"/>
<path fill-rule="evenodd" clip-rule="evenodd" d="M285.923 280.773C307.199 261.614 318.831 236.461 324.189 197.009L319.278 195.67C319.061 217.239 308.359 256.563 285.91 280.76L285.923 280.773Z" fill="white"/>
<path fill-rule="evenodd" clip-rule="evenodd" d="M285.758 268.427C305.554 251.845 316.549 227.802 321.957 188.273L317.467 186.22C317.008 208.222 306.689 246.871 285.758 268.427Z" fill="white"/>
<path fill-rule="evenodd" clip-rule="evenodd" d="M290.125 252.89C306.26 236.564 315.584 213.579 320.431 178.158L315.942 176.104C315.533 195.773 306.873 230.492 290.125 252.89Z" fill="white"/>
<path fill-rule="evenodd" clip-rule="evenodd" d="M286.668 245.901C303.352 230.812 312.931 208.362 317.752 172.89L313.059 170.403C312.752 190.301 303.951 224.715 286.668 245.901Z" fill="white"/>
<path fill-rule="evenodd" clip-rule="evenodd" d="M313.983 174.956C332.529 195.441 352.925 227.163 361.981 252.355C349.481 228.184 335.221 207.061 317.312 189.625C316.7 188.936 314.162 183.196 313.613 182.558L313.996 174.956H313.983Z" fill="white"/>
<path fill-rule="evenodd" clip-rule="evenodd" d="M315.448 186.091C333.994 206.576 355.13 241.487 364.173 266.679C351.673 242.508 336.685 218.183 318.777 200.747C318.165 200.058 315.627 194.318 315.078 193.681L315.461 186.079L315.448 186.091Z" fill="white"/>
<path fill-rule="evenodd" clip-rule="evenodd" d="M316.712 196.117C335.259 216.602 356.356 250.607 364.06 282.559C353.868 253.502 334.455 223.477 320.297 212.201C319.684 211.512 317.146 205.772 316.598 205.135L316.712 196.104V196.117Z" fill="white"/>
<path fill-rule="evenodd" clip-rule="evenodd" d="M322.417 210.926C338.986 231.118 357.685 264.766 364.229 296.552C355.377 267.7 338.144 237.993 325.453 226.934C324.904 226.258 322.672 220.557 322.188 219.932L322.417 210.914V210.926Z" fill="white"/>
<path fill-rule="evenodd" clip-rule="evenodd" d="M326.857 220.874C341.742 242.048 357.635 276.742 361.551 308.783C355.097 279.497 340.339 248.834 328.566 236.997C328.082 236.282 326.321 230.479 325.875 229.815L326.857 220.861V220.874Z" fill="white"/>
<path fill-rule="evenodd" clip-rule="evenodd" d="M330.997 231.424C343.981 253.516 356.762 289.129 357.808 321.259C353.982 291.693 341.966 260.162 331.252 247.572C330.831 246.833 329.594 240.927 329.211 240.251L330.997 231.424Z" fill="white"/>
<path fill-rule="evenodd" clip-rule="evenodd" d="M337.558 248.274C347.724 271.438 355.977 307.956 352.967 339.87C352.877 310.226 344.88 277.815 335.785 264.295C335.454 263.517 334.969 257.56 334.676 256.846L337.558 248.287V248.274Z" fill="white"/>
<path fill-rule="evenodd" clip-rule="evenodd" d="M347.306 284.588C351.553 308.989 352.995 344.729 338.543 368.632C350.291 342.93 348.135 315.711 345.227 297.369C345.086 296.552 343.39 292.598 343.275 291.846L347.306 284.588Z" fill="white"/>
<path fill-rule="evenodd" clip-rule="evenodd" d="M509.274 200.926C509.274 200.926 474.159 149.702 415.447 154.587C356.748 159.472 369.005 166.105 369.005 166.105L427.628 158.273C457.629 156.36 491.545 181.768 509.274 200.926Z" fill="white"/>
<path fill-rule="evenodd" clip-rule="evenodd" d="M500.277 199.063C500.277 199.063 470.966 161.015 423.504 155.504L423.121 158.872C451.54 160.326 483.721 181.168 500.277 199.063Z" fill="white"/>
<path fill-rule="evenodd" clip-rule="evenodd" d="M491.484 197.215C473.857 178.044 442.492 159.842 414.711 156.615L414.328 159.982C441.127 161.347 472.556 180.595 491.484 197.215Z" fill="white"/>
<path fill-rule="evenodd" clip-rule="evenodd" d="M483.832 196.729C466.204 177.558 431.281 160.938 403.5 157.711L403.117 161.078C429.916 162.443 464.891 180.109 483.832 196.716V196.729Z" fill="white"/>
<path fill-rule="evenodd" clip-rule="evenodd" d="M476.502 196.717C458.823 177.993 423.81 162.202 395.953 159.6L395.57 162.967C422.446 163.732 457.51 180.556 476.502 196.705V196.717Z" fill="white"/>
<path fill-rule="evenodd" clip-rule="evenodd" d="M466.528 196.015C448.798 177.75 413.695 162.826 385.762 160.887L385.379 164.255C412.318 164.382 447.484 180.352 466.528 196.015Z" fill="white"/>
<path fill-rule="evenodd" clip-rule="evenodd" d="M428.361 196.514C416.077 184.103 392.251 174.23 368.781 170.595C394.368 172.253 423.067 184.307 438.463 196.59C425.363 182.891 399.049 171.858 374.126 168.414C400.197 169.906 430.159 183.057 445.976 196.182C433.118 182.292 407.404 170.761 382.876 166.666C409.343 167.419 437.328 182.585 453.731 196.195C438.488 179.728 409.024 164.919 381.039 163.554L369.419 165.2L361.409 167.355L360.758 169.613C357.378 169.294 354.036 169.128 350.771 169.103L349.891 172.202C377.467 170.799 411.141 183.35 428.361 196.539V196.514Z" fill="white"/>
<path fill-rule="evenodd" clip-rule="evenodd" d="M416 195.416C399.763 181.27 380.375 173.834 351.484 170.951L351.102 174.319C366.586 174.051 396.013 180.569 416 195.416Z" fill="white"/>
<path fill-rule="evenodd" clip-rule="evenodd" d="M404.597 195.785C389.89 182.303 371.14 175.147 342.198 172.252L341.395 175.441C357.134 175.275 386.165 181.627 404.597 195.785Z" fill="white"/>
<path fill-rule="evenodd" clip-rule="evenodd" d="M395.593 196.066C382.813 183.515 364.904 176.742 335.886 173.809L334.547 176.742C350.606 176.742 379.139 182.839 395.593 196.066Z" fill="white"/>
<path fill-rule="evenodd" clip-rule="evenodd" d="M384.106 193.466C371.644 183.274 354.552 177.573 328.57 174.945L327.23 177.879C341.58 177.879 367.205 182.968 384.119 193.466H384.106Z" fill="white"/>
<path fill-rule="evenodd" clip-rule="evenodd" d="M379.142 195.786C367.56 185.224 350.851 179.344 324.83 176.742L323.172 179.803C337.687 179.727 363.083 184.918 379.142 195.786Z" fill="white"/>
<path fill-rule="evenodd" clip-rule="evenodd" d="M326.465 179.141C340.763 166.87 363.174 153.248 381.223 147.049C364.029 155.467 349.131 164.97 337.039 176.794C336.554 177.202 332.46 178.924 332.013 179.281L326.465 179.141Z" fill="white"/>
<path fill-rule="evenodd" clip-rule="evenodd" d="M334.516 178.044C348.814 165.774 373.534 151.628 391.582 145.429C374.388 153.848 357.182 163.873 345.09 175.685C344.605 176.093 340.511 177.815 340.064 178.172L334.516 178.032V178.044Z" fill="white"/>
<path fill-rule="evenodd" clip-rule="evenodd" d="M341.793 177.087C356.092 164.817 380.148 150.71 403.184 145.276C382.355 152.266 361.13 165.238 353.413 174.536C352.928 174.945 348.834 176.666 348.387 177.024L341.806 177.075L341.793 177.087Z" fill="white"/>
<path fill-rule="evenodd" clip-rule="evenodd" d="M352.395 173.197C366.54 162.214 390.431 149.65 413.377 144.969C392.65 151.092 371.591 162.648 363.964 171.003C363.492 171.36 359.41 172.89 358.976 173.209L352.395 173.184V173.197Z" fill="white"/>
<path fill-rule="evenodd" clip-rule="evenodd" d="M359.488 170.187C374.412 160.276 399.157 149.51 422.384 146.526C401.262 151.105 379.412 161.079 371.198 168.847C370.7 169.179 366.516 170.391 366.057 170.684L359.501 170.174L359.488 170.187Z" fill="white"/>
<path fill-rule="evenodd" clip-rule="evenodd" d="M367.031 167.355C382.695 158.656 408.205 149.893 431.598 148.758C410.182 151.653 387.605 159.855 378.792 166.947C378.269 167.227 374.008 168.107 373.524 168.375L367.031 167.355Z" fill="white"/>
<path fill-rule="evenodd" clip-rule="evenodd" d="M379.098 162.89C395.628 156.002 421.968 150.147 445.348 151.64C423.741 152.124 400.386 157.737 390.845 163.808C390.297 164.038 385.96 164.433 385.45 164.637L379.11 162.89H379.098Z" fill="white"/>
<path fill-rule="evenodd" clip-rule="evenodd" d="M405.223 156.066C422.863 152.979 448.871 151.551 466.805 160.543C447.659 153.311 427.889 155.097 414.61 157.227C414.024 157.329 411.192 158.477 410.656 158.566L405.223 156.066Z" fill="white"/>
<path fill-rule="evenodd" clip-rule="evenodd" d="M413.847 438.402C413.847 438.402 453.592 361.003 406.959 281.768C360.326 202.532 360.492 223.323 360.492 223.323L410.748 300.811C433.86 341.615 425.531 403.057 413.834 438.414L413.847 438.402Z" fill="white"/>
<path fill-rule="evenodd" clip-rule="evenodd" d="M409.961 424.831C409.961 424.831 437.257 362.841 411.364 293.529L406.887 294.868C424.693 335.328 420.866 391.82 409.961 424.831Z" fill="white"/>
<path fill-rule="evenodd" clip-rule="evenodd" d="M406.213 411.514C417.999 376.297 419.083 322.419 403.93 281.845L399.453 283.184C416.252 321.348 413.905 375.876 406.213 411.514Z" fill="white"/>
<path fill-rule="evenodd" clip-rule="evenodd" d="M401.531 400.584C413.317 365.367 409.962 307.407 394.809 266.846L390.332 268.185C407.131 306.349 409.223 364.959 401.531 400.597V400.584Z" fill="white"/>
<path fill-rule="evenodd" clip-rule="evenodd" d="M396.467 390.341C407.666 355.302 403.214 297.674 387.219 257.355L382.742 258.694C400.344 296.628 403.533 354.894 396.467 390.354V390.341Z" fill="white"/>
<path fill-rule="evenodd" clip-rule="evenodd" d="M390.477 376.029C401.051 341.169 395.464 283.885 378.602 243.821L374.125 245.161C392.556 282.839 396.906 340.774 390.477 376.029Z" fill="white"/>
<path fill-rule="evenodd" clip-rule="evenodd" d="M363.488 323.03C370.516 298.999 366.409 260.287 354.738 225.516C370.337 262.149 375.095 308.885 370.363 337.188C378.424 311.321 374.036 268.476 361.141 231.779C377.276 268.999 381.536 318.107 376.064 347.444C384.547 321.806 381.192 279.522 369.381 243.017C386.715 280.377 387.085 327.852 381.422 358.273C391.473 327.877 389.623 278.54 372.008 238.731L361.932 223.425L353.704 213.425L350.439 213.769C348.5 208.884 346.408 204.126 344.176 199.547L339.699 200.019C360.49 237.736 368.067 291.703 363.475 323.03H363.488Z" fill="white"/>
<path fill-rule="evenodd" clip-rule="evenodd" d="M356.347 305.174C362.802 274.676 358.72 243.49 342.368 201.563L337.891 202.903C348.924 224.37 361.092 269.064 356.347 305.174Z" fill="white"/>
<path fill-rule="evenodd" clip-rule="evenodd" d="M348.011 289.446C354.695 261.448 350.69 231.32 334.338 189.305L329.797 189.942C340.868 211.818 352.986 255.874 348.011 289.446Z" fill="white"/>
<path fill-rule="evenodd" clip-rule="evenodd" d="M341.428 277.037C348.291 252.254 344.375 223.491 328.01 181.373L323.418 181.118C334.515 203.529 346.581 246.744 341.428 277.025V277.037Z" fill="white"/>
<path fill-rule="evenodd" clip-rule="evenodd" d="M336.753 259.561C340.873 236.525 336.205 209.509 321.549 171.78L316.957 171.524C326.881 191.55 338.194 230.135 336.753 259.561Z" fill="white"/>
<path fill-rule="evenodd" clip-rule="evenodd" d="M330.412 253.911C335.616 231.895 331.42 205.326 316.713 167.545L311.738 166.933C321.866 187.15 332.912 225.48 330.412 253.911Z" fill="white"/>
<path fill-rule="evenodd" clip-rule="evenodd" d="M314.84 171.167C340.044 184.318 372.544 208.056 392.761 229.829C370.376 210.492 348.207 194.969 325.095 184.637C324.253 184.191 319.279 179.42 318.513 179.012L314.853 171.18L314.84 171.167Z" fill="white"/>
<path fill-rule="evenodd" clip-rule="evenodd" d="M321.789 181.819C346.993 194.969 381.739 221.641 401.943 243.401C379.557 224.064 355.144 205.607 332.031 195.276C331.19 194.829 326.215 190.059 325.45 189.651L321.789 181.819Z" fill="white"/>
<path fill-rule="evenodd" clip-rule="evenodd" d="M327.988 191.423C353.193 204.573 387.44 230.339 410.119 259.485C387.007 234.28 356.139 211.844 339.187 206.219C338.346 205.772 333.371 201.002 332.606 200.594L327.988 191.423Z" fill="white"/>
<path fill-rule="evenodd" clip-rule="evenodd" d="M340.172 204.076C363.667 217.737 395.848 244.128 417.545 273.554C395.581 248.018 366.601 225.02 350.899 219.013C350.121 218.553 345.402 213.706 344.687 213.273L340.172 204.076Z" fill="white"/>
<path fill-rule="evenodd" clip-rule="evenodd" d="M348.828 212.315C371.52 227.647 402.056 256.218 421.813 286.997C401.494 260.045 373.956 235.07 358.573 227.915C357.821 227.392 353.42 222.238 352.731 221.754L348.828 212.315Z" fill="white"/>
<path fill-rule="evenodd" clip-rule="evenodd" d="M357.582 221.282C379.266 238.323 407.838 269.089 425.401 301.117C406.996 272.813 381.154 245.849 366.205 237.494C365.49 236.92 361.447 231.461 360.784 230.925L357.582 221.282Z" fill="white"/>
<path fill-rule="evenodd" clip-rule="evenodd" d="M371.492 235.632C391.518 254.892 417.028 288.413 431.289 321.87C415.766 291.972 392.615 262.494 378.444 252.532C377.781 251.882 374.286 246.053 373.686 245.453L371.492 235.632Z" fill="white"/>
<path fill-rule="evenodd" clip-rule="evenodd" d="M398.07 268.338C414.116 291.259 433.861 326.77 435.009 356.77C430.826 326.042 414.945 299.435 403.109 282.088C402.573 281.323 399.18 278.019 398.708 277.305L398.083 268.338H398.07Z" fill="white"/>
<path d="M567.784 453.105C571.682 429.087 555.373 406.457 531.355 402.558C507.338 398.66 484.708 414.969 480.809 438.987C476.91 463.004 493.22 485.635 517.237 489.533C541.255 493.432 563.885 477.122 567.784 453.105Z" fill="#103155"/>
<g opacity="0.19">
<path d="M651.663 350.811L645.298 356.334C644.01 354.854 642.683 353.387 641.344 351.933C626.905 336.41 609.622 323.553 590.514 314.139C571.382 304.65 550.463 298.782 528.805 296.244C550.603 295.274 572.823 299.496 593.257 308.132C613.691 316.78 632.339 329.879 647.517 346.193C648.933 347.711 650.311 349.254 651.663 350.823V350.811Z" fill="white"/>
<path d="M672.517 381.73L666.585 386.871C661.624 377.853 655.884 369.281 649.43 361.284L655.756 355.786C662.159 363.873 667.784 372.572 672.517 381.717V381.73Z" fill="white"/>
<path d="M688.846 468.185C687.851 446.412 683.489 425.111 675.402 405.366C673.654 401.08 671.754 396.871 669.688 392.751L675.466 387.738C677.787 392.738 679.841 397.84 681.614 403.044C688.769 424.039 691.397 446.514 688.846 468.185Z" fill="white"/>
<path d="M682.795 334.281L675.409 340.684C672.284 336.781 669.006 333.006 665.601 329.345C648.203 310.659 627.373 295.161 604.325 283.834C581.301 272.431 556.072 265.403 530 262.406C556.25 261.296 582.972 266.423 607.539 276.832C632.118 287.253 654.529 303.005 672.795 322.636C676.277 326.386 679.619 330.263 682.782 334.268L682.795 334.281Z" fill="white"/>
<path d="M694.918 351.423L687.736 357.647C685.083 353.591 682.303 349.637 679.395 345.785L686.729 339.42C689.611 343.323 692.341 347.328 694.918 351.423Z" fill="white"/>
<path d="M722.661 469.397C721.526 443.173 716.309 417.509 706.59 393.721C702.291 383.121 697.151 372.891 691.207 363.172L698.299 357.024C704.587 367.828 709.804 379.231 713.835 391.017C722.457 416.259 725.659 443.287 722.661 469.397Z" fill="white"/>
<path d="M698.091 299.114C699.239 300.339 700.362 301.576 701.484 302.839L697.926 315.887C695.311 312.788 692.632 309.752 689.864 306.78C669.52 284.905 645.144 266.792 618.167 253.565C591.215 240.274 561.713 232.034 531.215 228.59C561.904 227.366 593.141 233.335 621.828 245.555C650.54 257.749 676.726 276.18 698.079 299.127L698.091 299.114Z" fill="white"/>
<path d="M717.589 323.171L714.528 334.395L712.985 335.735C709.796 331.054 706.441 326.487 702.934 322.036L706.556 308.745C710.434 313.4 714.107 318.222 717.577 323.171H717.589Z" fill="white"/>
<path d="M756.509 470.607C755.246 439.944 749.136 409.931 737.81 382.086C732.031 367.788 724.914 354.076 716.598 341.168L718.779 339.28L720.258 337.991L720.769 336.091L722.363 330.236C732.223 345.466 740.233 361.882 746.1 378.987C756.228 408.49 759.953 440.071 756.521 470.595L756.509 470.607Z" fill="white"/>
<path d="M722.901 275.046L713.054 283.03C689.967 258.502 662.429 238.145 632.02 223.247C616.587 215.657 600.413 209.497 583.742 204.752C567.071 199.943 549.89 196.792 532.453 194.752C567.581 193.399 603.308 200.262 636.153 214.241C668.794 228.119 698.577 249.025 722.914 275.046H722.901Z" fill="white"/>
<path d="M736.507 290.799L726.723 298.669C723.726 294.97 720.626 291.334 717.438 287.788L727.259 279.804C730.448 283.375 733.522 287.036 736.507 290.786V290.799Z" fill="white"/>
<path d="M790.324 471.821C789.533 454.27 787.62 436.91 784.01 419.946C780.464 402.981 775.477 386.4 769.01 370.468C759.341 346.54 746.42 324.065 730.719 303.733L740.451 295.901C756.727 317.445 769.597 341.54 778.321 366.986C789.916 400.736 794.214 436.872 790.324 471.821Z" fill="white"/>
</g>
<path d="M781.086 236.129L766.698 247.813L727.271 279.816L717.45 287.8L710.817 293.183L706.582 308.744L702.96 322.035L701.774 326.372L686.748 339.421L679.414 345.785L669.656 354.255C668.368 353.183 666.85 352.495 665.268 352.201C662.564 351.717 659.681 352.405 657.449 354.357L655.791 355.798L649.465 361.296L633.75 374.931L626.901 367.036C626.429 366.5 625.816 366.168 625.166 366.053C624.299 365.9 623.38 366.117 622.666 366.742L620.791 368.362C619.541 369.446 619.413 371.347 620.497 372.597L627.347 380.492L624.439 383.018C620.51 386.436 620.077 392.38 623.495 396.322L631.174 405.174C632.64 406.857 634.566 407.903 636.607 408.273C639.324 408.758 642.232 408.056 644.477 406.118L666.62 386.896L672.552 381.755L677.501 377.457C681.123 374.306 681.735 369.038 679.146 365.148L687.768 357.673L694.95 351.449L713.024 335.76L714.567 334.421L717.628 323.196L723.598 301.232L726.748 298.693L736.532 290.823L776.417 258.744L790.792 247.175C787.642 243.425 784.415 239.751 781.111 236.154L781.086 236.129Z" fill="white"/>
<path d="M388.117 974.822C373.653 974.822 361.267 970.74 350.974 962.577C340.68 954.413 335.527 944.592 335.527 933.087C335.527 926.594 337.377 921.212 341.089 916.951C344.8 912.691 349.992 910.548 356.675 910.548C362.237 910.548 367.058 912.411 371.14 916.11C369.839 919.451 369.188 923.061 369.188 926.964C369.188 934.388 371.28 940.179 375.451 944.35C379.622 948.521 384.865 950.612 391.178 950.612C399.342 950.612 406.204 947.551 411.765 941.429C417.327 935.306 420.107 927.423 420.107 917.781C420.107 911.288 418.895 904.655 416.485 897.882C414.074 891.109 411.102 884.719 407.582 878.686C404.061 872.665 400.528 866.581 397.007 860.459C393.487 854.336 390.515 847.614 388.104 840.28C385.694 832.958 384.482 825.675 384.482 818.443C384.482 803.047 389.814 789.603 400.477 778.098C411.14 766.593 423.895 760.84 438.73 760.84C450.605 760.84 459.878 764.361 466.549 771.414C473.233 778.468 476.562 787.18 476.562 797.575C476.562 807.218 473.921 815.994 468.628 823.864C463.347 831.747 457.085 835.688 449.852 835.688C446.702 835.688 443.641 834.489 440.669 832.065C437.697 829.655 435.286 826.415 433.436 822.333C438.258 818.991 442.059 814.731 444.84 809.54C447.62 804.348 449.01 799.246 449.01 794.233C449.01 789.973 448.041 786.721 446.09 784.501C444.138 782.282 441.587 781.159 438.436 781.159C432.492 781.159 426.931 784.591 421.74 791.453C416.548 798.315 413.946 806.479 413.946 815.943C413.946 822.435 415.337 828.979 418.117 835.56C420.898 842.142 424.24 848.316 428.13 854.068C432.021 859.821 435.924 865.714 439.814 871.734C443.704 877.767 446.995 884.528 449.687 892.041C452.378 899.553 453.717 907.206 453.717 915C453.717 926.875 450.324 937.5 443.564 946.862C436.791 956.237 428.487 963.24 418.666 967.87C408.832 972.5 398.627 974.822 388.053 974.822H388.117Z" fill="#103155"/>
<path d="M601.53 872.705C603.762 872.335 606.262 872.896 609.043 874.376C611.823 875.868 613.405 877.526 613.775 879.389L612.384 882.169C596.619 913.152 574.731 934.3 546.721 945.614C539.858 953.956 531.925 960.601 522.932 965.512C513.927 970.435 504.883 972.884 495.802 972.884C482.817 972.884 472.434 968.343 464.641 959.249C456.847 950.167 452.957 938.203 452.957 923.356C452.957 908.509 456.388 894.937 463.25 881.48C470.113 868.036 479.437 856.99 491.21 848.368C502.983 839.745 515.458 835.434 528.634 835.434C535.866 835.434 542.499 836.735 548.532 839.324C554.552 841.926 559.284 845.498 562.728 850.039C566.16 854.592 567.881 859.541 567.881 864.924C567.881 871.238 565.471 876.238 560.649 879.95C563.251 884.593 564.54 890.154 564.54 896.646C564.54 905.18 563.047 913.713 560.088 922.246C575.675 912.603 589.119 896.748 600.433 874.669L601.542 872.718L601.53 872.705ZM499.411 943.101C503.672 943.101 508.034 940.269 512.486 934.619C516.937 928.968 520.598 922.144 523.481 914.172C526.35 906.2 527.792 898.866 527.792 892.195C527.792 886.264 526.58 881.34 524.169 877.45C528.621 873.738 533.162 871.327 537.805 870.217C535.203 866.327 531.771 864.376 527.511 864.376C521.019 864.376 514.756 867.896 508.736 874.95C502.702 882.003 498.021 890.307 494.679 899.848C491.337 909.402 489.667 918.164 489.667 926.136C489.667 931.519 490.547 935.69 492.307 938.662C494.067 941.634 496.427 943.114 499.399 943.114L499.411 943.101Z" fill="#103155"/>
<path d="M614.877 971.213C607.083 972.144 600.412 972.284 594.838 971.634C589.277 970.983 584.966 969.083 581.904 965.932C578.843 962.782 577.312 958.241 577.312 952.297C577.312 947.284 578.473 940.702 580.795 932.539C583.116 924.376 587.006 912.462 592.478 896.786C597.95 881.11 602.351 867.615 605.693 856.301C617.198 821.62 624.52 791.096 627.67 764.757C654.558 764.578 668.015 771.16 668.015 784.515C668.015 789.336 665.885 798.29 661.612 811.365C657.339 824.439 651.548 841.046 644.226 861.174C636.892 881.301 631.752 895.638 628.78 904.159C622.096 924.937 617.466 947.284 614.864 971.213H614.877ZM671.357 972.042C664.673 972.042 658.512 969.44 652.849 964.249C647.186 959.057 642.313 951.544 638.244 941.71C634.162 931.876 631.101 920.192 629.06 906.646C658.372 883.457 676.829 857.577 684.431 829.018C706.319 831.62 717.263 838.112 717.263 848.495C717.263 855.549 711.842 865.791 700.987 879.248C690.132 892.705 678.589 903.138 666.344 910.549C671.535 929.465 678.117 938.929 686.102 938.929C690.732 938.929 696.344 935.409 702.939 928.355C709.52 921.302 715.553 913.33 721.025 904.427C726.497 895.523 732.02 885.6 737.582 874.656L738.691 872.704C740.924 872.334 743.424 872.896 746.204 874.375C748.985 875.868 750.567 877.526 750.936 879.388L749.546 882.169C749.176 882.73 748.806 883.47 748.436 884.388C745.095 890.881 742.454 895.983 740.503 899.694C738.551 903.406 735.592 908.738 731.6 915.689C727.607 922.641 724.125 928.304 721.166 932.667C718.194 937.029 714.533 941.94 710.171 947.412C705.809 952.884 701.689 957.246 697.785 960.486C693.895 963.738 689.622 966.468 684.992 968.7C680.349 970.932 675.808 972.042 671.357 972.042Z" fill="#103155"/>
<path d="M871.42 872.705C873.653 872.335 876.153 872.896 878.933 874.376C881.714 875.868 883.295 877.526 883.665 879.389L882.275 882.169C866.51 913.152 844.622 934.3 816.611 945.614C809.749 953.956 801.815 960.601 792.823 965.512C783.818 970.435 774.774 972.884 765.692 972.884C752.708 972.884 742.325 968.343 734.531 959.249C726.738 950.167 722.848 938.203 722.848 923.356C722.848 908.509 726.279 894.937 733.141 881.48C740.003 868.036 749.328 856.99 761.101 848.368C772.874 839.745 785.348 835.434 798.524 835.434C805.757 835.434 812.389 836.735 818.422 839.324C824.443 841.926 829.175 845.498 832.619 850.039C836.05 854.592 837.772 859.541 837.772 864.924C837.772 871.238 835.361 876.238 830.54 879.95C833.142 884.593 834.43 890.154 834.43 896.646C834.43 905.18 832.938 913.713 829.979 922.246C845.566 912.603 859.01 896.748 870.323 874.669L871.433 872.718L871.42 872.705ZM769.302 943.101C773.562 943.101 777.925 940.269 782.376 934.619C786.828 928.968 790.489 922.144 793.371 914.172C796.241 906.2 797.683 898.866 797.683 892.195C797.683 886.264 796.471 881.34 794.06 877.45C798.512 873.738 803.052 871.327 807.695 870.217C805.093 866.327 801.662 864.376 797.402 864.376C790.91 864.376 784.647 867.896 778.626 874.95C772.593 882.003 767.912 890.307 764.57 899.848C761.228 909.402 759.557 918.164 759.557 926.136C759.557 931.519 760.437 935.69 762.197 938.662C763.958 941.634 766.317 943.114 769.289 943.114L769.302 943.101Z" fill="#103155"/>
<path d="M187.296 744.45C171.53 744.45 158.698 739.106 148.775 728.43C138.864 717.754 133.902 702.919 133.902 683.939C133.902 673.608 135.433 663.008 138.481 652.153C141.53 641.311 145.637 631.018 150.816 621.26C155.982 611.515 162.168 602.281 169.375 593.543C176.581 584.819 184.209 577.268 192.257 570.915C200.306 564.563 208.865 559.563 217.934 555.915C227.003 552.267 235.855 550.443 244.503 550.443C251.786 550.443 258.189 551.885 263.699 554.767C269.21 557.65 273.444 561.719 276.416 566.974C279.376 572.229 280.868 578.326 280.868 585.278C280.868 597.485 277.347 609.143 270.319 620.24C263.278 631.337 255.281 636.898 246.289 636.898C243.75 636.898 241.327 636.311 239.044 635.112C236.76 633.926 234.72 632.23 232.947 630.023C231.161 627.817 229.771 625.112 228.75 621.885C235.191 617.306 240.612 611.592 245.026 604.73C249.426 597.867 251.633 591.719 251.633 586.298C251.633 580.533 249.005 577.65 243.75 577.65C237.475 577.65 230.408 580.788 222.526 587.064C214.643 593.339 207.309 601.26 200.536 610.839C193.75 620.418 188.074 631.681 183.507 644.653C178.928 657.625 176.645 670.126 176.645 682.154C176.645 694.182 179.183 702.83 184.273 708.595C189.362 714.361 196.135 717.243 204.617 717.243C218.342 717.243 233.01 710.802 248.597 697.919C264.184 685.036 276.059 670.802 284.197 655.202L285.217 653.416C287.246 653.085 289.49 653.582 291.952 654.947C294.401 656.312 295.894 657.829 296.404 659.526L294.873 662.064C283.177 685.291 267.322 704.82 247.334 720.662C227.334 736.516 207.334 744.437 187.334 744.437L187.296 744.45Z" fill="#103155"/>
<path d="M422.46 653.443C424.667 653.111 426.988 653.608 429.45 654.973C431.899 656.338 433.392 657.856 433.902 659.552L432.371 662.091C427.792 671.07 423.761 678.698 420.292 684.973C416.81 691.249 412.409 698.405 407.078 706.453C401.733 714.502 396.606 720.994 391.695 725.905C386.771 730.828 381.223 735.063 375.036 738.622C368.85 742.181 362.613 743.966 356.35 743.966C349.743 743.966 344.233 741.721 339.819 737.231C335.406 732.742 333.212 726.173 333.212 717.525C333.212 710.573 334.743 702.435 337.791 693.111C340.84 683.787 343.888 675.356 346.949 667.818C349.998 660.279 351.529 655.152 351.529 652.435C351.529 649.042 349.921 647.346 346.694 647.346C341.949 647.346 336.822 650.522 331.312 656.874C325.801 663.226 321.056 670.394 317.077 678.353C313.097 686.325 309.743 694.208 307.038 702.002C303.48 713.188 300.763 727.423 298.901 744.719C293.135 745.561 287.625 745.816 282.37 745.484C277.115 745.14 272.625 743.494 268.9 740.522C265.176 737.563 263.301 733.367 263.301 727.933C263.301 724.719 264.449 719.157 266.732 711.275C269.015 703.392 272.701 691.313 277.791 675.05C282.88 658.774 287.115 644.884 290.508 633.353C299.998 599.96 305.929 573.697 308.301 554.539C312.37 554.539 316.388 554.832 320.38 555.431C324.36 556.031 328.391 556.911 332.46 558.097C336.528 559.284 339.794 561.069 342.243 563.442C344.692 565.814 345.929 568.786 345.929 572.345C345.929 573.876 345.585 576.12 344.909 579.08C344.233 582.052 343.085 586.069 341.477 591.159C339.87 596.248 338.25 601.159 336.643 605.904C335.036 610.649 332.791 617.256 329.909 625.738C327.026 634.22 324.488 641.593 322.281 647.856C336.86 630.062 352.281 621.159 368.557 621.159C375.164 621.159 380.585 623.021 384.832 626.759C389.067 630.483 391.185 635.738 391.185 642.524C391.185 649.31 387.919 660.955 381.401 677.486C374.871 694.017 371.618 704.82 371.618 709.897C371.618 714.132 373.187 716.249 376.325 716.249C379.463 716.249 382.932 714.514 386.746 711.032C390.56 707.563 394.628 702.474 398.952 695.777C403.276 689.081 407.039 682.767 410.266 676.836C413.481 670.904 417.294 663.698 421.708 655.228L422.473 653.443H422.46Z" fill="#103155"/>
<path d="M550.082 653.442C552.289 653.11 554.611 653.608 557.072 654.973C559.521 656.337 560.924 657.855 561.269 659.552L559.993 662.09C559.317 663.621 558.208 665.904 556.69 668.952C553.973 674.207 551.855 678.276 550.338 681.159C548.807 684.042 546.562 688.2 543.603 693.621C540.631 699.042 538.093 703.327 535.975 706.465C533.858 709.603 531.269 713.379 528.22 717.779C525.172 722.192 522.251 725.7 519.444 728.328C516.651 730.955 513.641 733.583 510.414 736.21C507.187 738.838 503.883 740.751 500.503 741.925C497.11 743.111 493.717 743.711 490.337 743.711C484.24 743.711 479.023 741.682 474.699 737.614C470.375 733.545 467.875 727.958 467.199 720.828C455.668 736.083 443.972 743.711 432.11 743.711C423.972 743.711 417.53 740.114 412.785 732.907C408.04 725.7 405.668 716.682 405.668 705.827C405.668 693.965 408.334 681.503 413.678 668.455C419.023 655.406 426.433 644.296 435.923 635.151C445.413 625.993 455.413 621.426 465.924 621.426C472.021 621.426 477.276 623.161 481.689 626.643C486.09 630.113 488.972 634.743 490.337 640.495C496.268 630.164 502.799 624.985 509.916 624.985C518.054 624.985 524.317 628.544 528.73 635.661C511.103 673.633 502.289 698.123 502.289 709.131C502.289 713.71 503.641 715.993 506.358 715.993C508.22 715.993 510.261 715.19 512.455 713.583C514.661 711.976 516.944 709.552 519.317 706.338C521.689 703.123 523.934 699.986 526.052 696.937C528.169 693.889 530.58 689.986 533.297 685.241C536.001 680.496 538.08 676.771 539.521 674.054C540.963 671.35 542.863 667.702 545.235 663.123C547.608 658.544 548.96 655.916 549.304 655.24L550.07 653.455L550.082 653.442ZM449.15 715.981C452.709 715.981 456.561 713.149 460.719 707.46C464.865 701.784 468.73 694.539 472.288 685.725C477.033 674.029 479.24 664.373 478.896 656.745C478.551 650.648 476.268 647.587 472.033 647.587C467.799 647.587 462.964 651.018 458.054 657.881C453.13 664.743 449.24 672.664 446.357 681.656C443.474 690.636 442.199 698.264 442.543 704.539C442.875 712.167 445.082 715.981 449.15 715.981Z" fill="#103155"/>
<path d="M758.041 653.441C759.393 653.275 760.923 653.479 762.62 654.079C764.316 654.678 765.758 655.482 766.944 656.49C768.13 657.51 768.895 658.518 769.227 659.538L767.952 662.076C765.413 667 763.207 671.145 761.344 674.538C759.482 677.931 757.02 682.293 753.972 687.638C750.923 692.982 748.079 697.6 745.451 701.49C742.824 705.393 739.775 709.666 736.293 714.335C732.811 719.003 729.38 722.944 726 726.159C722.607 729.386 719.01 732.383 715.196 735.189C711.382 737.983 707.479 740.113 703.5 741.541C699.52 742.983 695.489 743.697 691.42 743.697C684.813 743.697 679.43 741.669 675.272 737.6C671.114 733.531 669.048 727.523 669.048 719.551C669.048 712.944 670.489 704.896 673.372 695.393C676.254 685.903 679.175 677.179 682.147 669.207C685.107 661.247 686.599 655.737 686.599 652.676C686.599 649.117 685.068 647.331 682.02 647.331C676.254 647.331 669.392 653.263 661.42 665.125C653.448 676.987 647.262 688.939 642.861 700.967V701.222C639.137 711.567 636.165 724.87 633.958 741.133C611.751 743.672 600.654 737.319 600.654 722.064C600.654 714.947 603.613 702.664 609.557 685.202C615.489 667.752 618.461 657.064 618.461 653.173C618.461 649.283 616.93 647.331 613.881 647.331C608.116 647.331 601.215 652.931 593.167 664.117C585.118 675.304 578.549 687.6 573.46 700.98V701.235C569.557 711.911 566.088 726.324 563.039 744.45C551.508 745.636 542.911 744.781 537.235 741.911C531.559 739.029 528.715 733.697 528.715 725.891C528.715 723.008 529.187 719.5 530.118 715.342C531.049 711.197 532.018 707.511 533.039 704.283C534.059 701.069 535.615 696.273 537.746 689.921C539.863 683.569 541.432 678.696 542.452 675.304C549.059 655.814 553.473 638.186 555.667 622.42C578.384 621.91 589.812 627.165 589.991 638.186C589.991 641.413 588.881 646.413 586.687 653.186C601.266 631.834 616.522 621.158 632.453 621.158C639.226 621.158 644.57 623.275 648.474 627.51C652.377 631.745 654.315 637.765 654.315 645.558C654.315 649.462 653.805 653.607 652.785 658.02C669.226 633.441 686.089 621.158 703.385 621.158C709.648 621.158 714.737 622.943 718.64 626.502C722.543 630.061 724.482 635.239 724.482 642.012C724.482 649.474 721.344 661.426 715.081 677.855C708.806 694.296 705.668 704.972 705.668 709.883C705.668 713.952 707.364 715.98 710.757 715.98C720.757 715.98 736.178 695.725 757.033 655.214L758.054 653.428L758.041 653.441Z" fill="#103155"/>
<path d="M885.418 653.442C887.625 653.11 889.947 653.608 892.408 654.973C894.857 656.337 896.26 657.855 896.605 659.552L895.329 662.09C894.653 663.621 893.544 665.904 892.026 668.952C889.309 674.207 887.191 678.276 885.674 681.159C884.143 684.042 881.898 688.2 878.939 693.621C875.967 699.042 873.428 703.327 871.311 706.465C869.194 709.603 866.605 713.379 863.556 717.779C860.508 722.192 857.587 725.7 854.78 728.328C851.987 730.955 848.977 733.583 845.75 736.21C842.523 738.838 839.219 740.751 835.839 741.925C832.446 743.111 829.053 743.711 825.673 743.711C819.576 743.711 814.359 741.682 810.035 737.614C805.711 733.545 803.211 727.958 802.535 720.828C791.004 736.083 779.308 743.711 767.445 743.711C759.308 743.711 752.866 740.114 748.121 732.907C743.376 725.7 741.004 716.682 741.004 705.827C741.004 693.965 743.67 681.503 749.014 668.455C754.359 655.406 761.769 644.296 771.259 635.151C780.749 625.993 790.749 621.426 801.26 621.426C807.357 621.426 812.612 623.161 817.025 626.643C821.425 630.113 824.308 634.743 825.673 640.495C831.604 630.164 838.135 624.985 845.252 624.985C853.39 624.985 859.653 628.544 864.066 635.661C846.438 673.633 837.625 698.123 837.625 709.131C837.625 713.71 838.977 715.993 841.694 715.993C843.556 715.993 845.597 715.19 847.791 713.583C849.997 711.976 852.28 709.552 854.653 706.338C857.025 703.123 859.27 699.986 861.388 696.937C863.505 693.889 865.916 689.986 868.633 685.241C871.337 680.496 873.416 676.771 874.857 674.054C876.298 671.35 878.199 667.702 880.571 663.123C882.944 658.544 884.296 655.916 884.64 655.24L885.406 653.455L885.418 653.442ZM784.486 715.981C788.045 715.981 791.897 713.149 796.055 707.46C800.201 701.784 804.066 694.539 807.624 685.725C812.369 674.029 814.576 664.373 814.232 656.745C813.887 650.648 811.604 647.587 807.369 647.587C803.135 647.587 798.3 651.018 793.39 657.881C788.466 664.743 784.576 672.664 781.693 681.656C778.81 690.636 777.535 698.264 777.879 704.539C778.211 712.167 780.418 715.981 784.486 715.981Z" fill="#103155"/>
<path d="M932.277 652.346C930.848 645.241 926.039 631.988 910.032 623.123C910.006 623.123 909.993 623.098 909.968 623.085C905.414 620.572 900.656 618.825 895.809 617.843C895.554 617.384 895.286 616.924 895.006 616.478C884.024 598.735 865.886 588.57 845.248 588.57C839.635 588.57 834.125 589.488 828.845 591.286C820.439 587.154 811.089 585.011 801.268 585.011C788.079 585.011 768.615 588.761 749.137 606.044C747.16 603.531 745.132 601.389 743.181 599.603C732.53 589.883 718.78 584.756 703.397 584.756C690.451 584.756 677.899 588.123 665.948 594.794C656.432 588.263 644.902 584.756 632.465 584.756C620.029 584.756 608.817 587.689 597.771 593.493C583.383 586.452 567.082 585.763 554.863 586.031C546.916 586.21 539.544 588.952 533.6 593.493C526.329 590.279 518.344 588.57 509.926 588.57C504.314 588.57 498.803 589.488 493.523 591.286C485.117 587.154 475.768 585.011 465.946 585.011C452.948 585.011 433.841 588.646 414.632 605.317C412.884 603.225 410.958 601.248 408.879 599.412C400.907 592.409 391.328 587.817 380.703 585.853C381.813 580.674 382.336 576.35 382.336 572.345C382.336 558.952 377.093 546.503 367.565 537.294C367.552 537.281 367.54 537.268 367.527 537.255C360.792 530.763 352.437 526.031 342.641 523.161C337.029 521.528 331.366 520.278 325.741 519.436C320.001 518.582 314.133 518.148 308.317 518.148C299.975 518.148 292.233 520.98 286.047 525.776C284.274 524.64 282.462 523.543 280.562 522.549C269.822 516.936 257.692 514.079 244.503 514.079C231.314 514.079 217.73 516.796 204.362 522.179C192.104 527.115 180.433 533.913 169.706 542.383C159.668 550.304 150.114 559.73 141.3 570.406C132.576 580.98 124.948 592.371 118.66 604.22C112.308 616.197 107.18 629.016 103.443 642.32C99.5015 656.325 97.5117 670.33 97.5117 683.953C97.5117 712.333 105.79 735.637 122.104 753.214C138.902 771.301 161.441 780.867 187.296 780.867C206.301 780.867 225.077 776.046 243.38 766.543C244.299 767.385 245.243 768.214 246.238 769.005C255.727 776.569 267.411 780.995 280.052 781.811C282.309 781.951 284.592 782.028 286.914 782.028C292.552 782.028 298.343 781.594 304.197 780.74C311.863 779.617 318.725 776.135 324.044 771.058C333.394 777.117 344.249 780.293 356.022 780.357C350.817 792.207 348.126 805.038 348.126 818.469C348.126 829.554 349.963 840.727 353.56 851.671C356.213 859.733 359.453 867.411 363.228 874.529C361.085 874.299 358.904 874.184 356.698 874.184C339.542 874.184 324.261 880.906 313.649 893.1C304.159 904.006 299.146 917.845 299.146 933.126C299.146 944.797 301.837 955.856 307.156 966.009C312.093 975.435 319.236 983.892 328.368 991.137C345.205 1004.49 365.307 1011.26 388.126 1011.26C404.045 1011.26 419.568 1007.76 434.249 1000.83C438.931 998.624 443.382 996.073 447.63 993.19C460.959 1003.76 477.362 1009.31 495.806 1009.31C511.023 1009.31 526.023 1005.33 540.385 997.489C545.003 994.963 549.429 992.106 553.676 988.956C554.391 989.785 555.105 990.576 555.794 991.303C562.006 997.706 573.103 1005.78 590.628 1007.82C599.123 1008.82 608.473 1008.68 619.213 1007.4C626.547 1006.52 633.192 1003.5 638.511 998.956C648.537 1005.23 659.711 1008.5 671.382 1008.5C681.305 1008.5 691.19 1006.16 700.769 1001.57C706.254 998.93 711.471 995.805 716.331 992.247C729.877 1003.46 746.701 1009.33 765.706 1009.33C780.923 1009.33 795.923 1005.35 810.286 997.502C820.681 991.826 830.146 984.542 838.513 975.792C870.848 960.499 896.46 934.618 914.725 898.725C914.764 898.649 914.802 898.572 914.84 898.496L916.231 895.715C919.866 888.457 920.963 880.192 919.356 872.246C917.876 864.924 912.889 851.314 896.065 842.322C884.508 836.161 874.164 835.727 867.072 836.633C865.516 833.699 863.705 830.868 861.651 828.151C854.393 818.546 844.699 811.084 832.811 805.957C822.237 801.403 810.707 799.094 798.525 799.094C778.589 799.094 759.711 805.153 742.377 817.105C738.41 812.296 733.461 808.061 727.632 804.605C720.897 800.612 712.9 797.577 703.435 795.421C704.099 791.39 704.417 787.832 704.417 784.566C704.417 782.691 704.315 780.829 704.124 778.992C708.091 778.265 712.02 777.219 715.872 775.816C721.254 773.865 726.522 771.275 731.586 768.074C741.688 775.931 753.933 780.14 767.441 780.14C777.696 780.14 787.671 777.742 797.199 772.984C805.77 777.691 815.413 780.14 825.669 780.14C833.143 780.14 840.618 778.852 847.85 776.326C855.235 773.75 862.276 769.745 868.768 764.451C872.659 761.275 876.345 758.061 879.7 754.91C884.419 750.471 888.934 745.127 893.475 738.545C896.511 734.158 899.202 730.229 901.473 726.887C904.253 722.767 907.327 717.614 910.873 711.134C914.088 705.254 916.307 701.147 917.838 698.252C919.394 695.331 921.524 691.224 924.368 685.713C924.445 685.573 924.509 685.433 924.585 685.292C926.129 682.206 927.328 679.731 928.208 677.792L929.152 675.892C932.787 668.634 933.884 660.369 932.277 652.409V652.346Z" fill="white"/>
<path d="M898.308 644.59C896.676 643.697 895.107 643.161 893.589 643.008C892.288 642.881 891.063 643.646 890.553 644.845C890.209 645.521 888.857 648.149 886.484 652.728C884.112 657.307 882.198 660.955 880.77 663.659C879.328 666.376 877.249 670.1 874.545 674.845C871.828 679.59 869.418 683.493 867.3 686.542C865.183 689.59 862.938 692.728 860.566 695.942C858.193 699.17 855.897 701.58 853.703 703.187C851.497 704.795 849.469 705.598 847.606 705.598C844.889 705.598 843.537 703.315 843.537 698.736C843.537 688.812 850.68 667.97 864.979 636.21C869.469 626.235 862.351 614.679 851.42 614.59C851.344 614.59 851.254 614.59 851.178 614.59C844.06 614.59 837.53 619.756 831.599 630.1C830.234 624.335 827.364 619.717 822.95 616.248C818.537 612.778 813.295 611.031 807.185 611.031C796.675 611.031 786.675 615.61 777.185 624.756C767.695 633.914 760.284 645.011 754.94 658.059L754.914 658.111C752.988 662.83 750.718 667.422 748.09 671.797C734.608 694.323 724.123 705.585 716.674 705.585C713.281 705.585 711.585 703.557 711.585 699.488C711.585 694.578 714.722 683.902 720.998 667.46C727.261 651.019 730.399 639.067 730.399 631.618C730.399 624.845 728.447 619.666 724.557 616.108C720.654 612.549 715.577 610.763 709.302 610.763C692.018 610.763 675.143 623.059 658.702 647.626C659.722 643.225 660.232 639.067 660.232 635.164C660.232 627.37 658.281 621.35 654.39 617.115C650.487 612.881 645.156 610.763 638.37 610.763C622.438 610.763 607.183 621.439 592.604 642.791C594.811 636.018 595.908 631.018 595.908 627.791C595.831 622.677 593.318 618.799 588.382 616.171C576.214 609.692 561.201 617.102 558.165 630.546C553.216 649.462 546.877 660.929 545.448 663.646C544.007 666.363 541.928 670.088 539.223 674.833C536.507 679.578 534.096 683.481 531.979 686.529C529.861 689.578 527.616 692.715 525.244 695.93C522.871 699.157 520.575 701.568 518.381 703.175C516.175 704.782 514.147 705.585 512.284 705.585C509.568 705.585 508.216 703.302 508.216 698.723C508.216 688.8 515.358 667.958 529.657 636.197C534.147 626.222 527.03 614.679 516.098 614.577C516.022 614.577 515.932 614.577 515.856 614.577C508.739 614.577 502.208 619.743 496.277 630.087C494.912 624.322 492.042 619.705 487.629 616.235C483.215 612.766 477.973 611.018 471.863 611.018C461.353 611.018 451.353 615.597 441.863 624.743C432.373 633.901 424.962 644.998 419.618 658.047C418.967 659.641 412.934 673.685 404.873 685.381C400.549 692.078 396.48 697.167 392.666 700.636C388.852 704.119 385.383 705.853 382.245 705.853C379.107 705.853 377.538 703.736 377.538 699.501C377.538 694.412 380.804 683.608 387.322 667.09C393.84 650.559 397.105 638.914 397.105 632.128C397.105 625.342 394.988 620.1 390.753 616.363C386.518 612.638 381.097 610.763 374.477 610.763C358.202 610.763 342.78 619.666 328.201 637.46C330.408 631.197 332.946 623.825 335.829 615.342C338.712 606.873 340.956 600.253 342.564 595.508C344.171 590.763 345.778 585.852 347.398 580.763C349.005 575.674 350.153 571.656 350.829 568.684C351.505 565.724 351.849 563.467 351.849 561.949C351.849 558.39 350.612 555.431 348.163 553.046C345.701 550.673 342.449 548.9 338.38 547.701C334.311 546.515 330.28 545.622 326.301 545.036H326.186C319.745 544.066 313.724 548.441 312.653 554.857C309.668 572.714 304.26 595.419 296.428 622.957C296.313 623.353 296.198 623.748 296.084 624.143C288.826 648.723 274.642 670.776 254.935 687.154C254.782 687.282 254.629 687.409 254.476 687.537C238.876 700.42 224.221 706.861 210.496 706.861C202.014 706.861 195.241 703.978 190.152 698.213C185.062 692.448 182.524 683.634 182.524 671.771C182.524 659.909 184.807 647.243 189.386 634.271C193.965 621.299 199.641 610.036 206.414 600.457C213.188 590.878 220.522 582.957 228.404 576.681C236.287 570.418 243.366 567.268 249.629 567.268C254.884 567.268 257.512 570.151 257.512 575.916C257.512 581.337 255.305 587.485 250.905 594.347C246.491 601.21 241.07 606.937 234.629 611.503C235.649 614.73 237.04 617.434 238.825 619.641C240.611 621.847 242.639 623.544 244.922 624.73C247.206 625.916 249.629 626.516 252.167 626.516C261.147 626.516 269.157 620.967 276.198 609.858C283.226 598.76 286.747 587.102 286.747 574.896C286.747 567.944 285.267 561.847 282.295 556.592C279.323 551.337 275.089 547.268 269.578 544.385C264.068 541.502 257.665 540.061 250.382 540.061C241.734 540.061 232.882 541.885 223.813 545.533C214.744 549.181 206.185 554.181 198.136 560.533C190.088 566.885 182.46 574.436 175.253 583.161C168.047 591.898 161.861 601.133 156.695 610.878C151.516 620.623 147.409 630.929 144.36 641.771C141.312 652.626 139.781 663.213 139.781 673.557C139.781 692.537 144.743 707.371 154.654 718.047C164.565 728.723 177.409 734.068 193.175 734.068C213.175 734.068 233.175 726.147 253.175 710.292C261.696 703.545 269.451 696.121 276.453 688.034C274.91 693.136 273.622 697.409 272.614 700.879C270.331 708.761 269.183 714.31 269.183 717.537C269.183 722.958 271.045 727.155 274.782 730.126C278.507 733.098 282.997 734.744 288.252 735.088C288.354 735.088 288.456 735.101 288.571 735.114C297.499 735.649 305.255 729.106 306.581 720.254C308.265 709.144 310.369 699.603 312.908 691.618C315.612 683.825 318.966 675.942 322.946 667.97C326.926 660.011 331.671 652.843 337.181 646.49C342.691 640.138 347.819 636.962 352.564 636.962C355.778 636.962 357.398 638.659 357.398 642.052C357.398 644.769 355.867 649.896 352.819 657.434C349.77 664.973 346.722 673.417 343.661 682.728C340.612 692.052 339.081 700.19 339.081 707.142C339.081 715.79 341.288 722.359 345.689 726.848C350.089 731.338 355.599 733.583 362.219 733.583C368.482 733.583 374.72 731.81 380.906 728.239C387.092 724.68 392.641 720.445 397.564 715.522C402.067 711.019 406.761 705.177 411.62 698.034C411.978 707.728 414.312 715.892 418.661 722.512C423.406 729.718 429.848 733.315 437.985 733.315C449.848 733.315 461.544 725.688 473.075 710.432C473.751 717.55 476.251 723.149 480.575 727.218C484.899 731.287 490.103 733.315 496.213 733.315C499.606 733.315 502.986 732.729 506.379 731.53C509.772 730.343 513.075 728.443 516.29 725.815C519.504 723.188 522.514 720.56 525.32 717.932C528.114 715.305 531.035 711.797 534.096 707.384C534.797 706.376 535.473 705.394 536.124 704.45C536.086 704.629 536.047 704.795 536.009 704.96C535.078 709.119 534.606 712.626 534.606 715.509C534.606 723.302 537.451 728.647 543.127 731.53C543.484 731.708 543.854 731.887 544.224 732.04C555.971 737.142 569.453 729.718 572.119 717.193C574.339 706.746 576.749 697.971 579.351 690.84V690.585C584.441 677.192 590.997 664.909 599.058 653.723C607.107 642.536 614.02 636.937 619.773 636.937C622.821 636.937 624.352 638.888 624.352 642.779C624.352 646.669 621.38 657.358 615.449 674.807C609.517 692.269 606.546 704.552 606.546 711.67C606.546 719.297 609.326 724.705 614.875 727.882C626.01 734.259 640.041 727.18 642.477 714.591C644.25 705.432 646.342 697.511 648.753 690.828V690.573C653.153 678.544 659.339 666.593 667.311 654.73C675.271 642.868 682.146 636.937 687.911 636.937C690.959 636.937 692.49 638.723 692.49 642.281C692.49 645.33 691.01 650.84 688.039 658.812C685.067 666.784 682.146 675.509 679.263 684.999C676.38 694.488 674.939 702.537 674.939 709.157C674.939 717.129 677.018 723.137 681.164 727.205C685.309 731.274 690.692 733.303 697.312 733.303C701.38 733.303 705.398 732.588 709.391 731.147C713.37 729.706 717.273 727.588 721.087 724.795C724.901 722.001 728.498 718.991 731.891 715.764C735.284 712.55 738.715 708.608 742.184 703.94C743.868 701.682 745.45 699.501 746.942 697.422C747.223 707.371 749.557 715.751 754.008 722.499C758.753 729.706 765.195 733.303 773.333 733.303C785.195 733.303 796.891 725.675 808.422 710.42C809.098 717.537 811.598 723.137 815.922 727.205C820.246 731.274 825.45 733.303 831.56 733.303C834.953 733.303 838.333 732.716 841.726 731.517C845.119 730.331 848.423 728.43 851.637 725.802C854.851 723.175 857.861 720.547 860.668 717.92C863.461 715.292 866.382 711.784 869.443 707.371C872.492 702.971 875.081 699.195 877.198 696.057C879.316 692.919 881.854 688.646 884.826 683.213C887.785 677.792 890.043 673.634 891.561 670.751C893.091 667.868 895.209 663.799 897.913 658.544C899.443 655.496 900.54 653.2 901.216 651.682C902.326 649.475 901.637 646.797 899.609 645.381C899.214 645.1 898.767 644.832 898.295 644.564L898.308 644.59ZM478.177 675.356C474.618 684.169 470.766 691.414 466.608 697.09C462.45 702.767 458.598 705.611 455.039 705.611C450.97 705.611 448.764 701.797 448.432 694.17C448.087 687.907 449.363 680.279 452.246 671.287C455.128 662.307 459.019 654.373 463.942 647.511C468.853 640.649 473.521 637.217 477.922 637.217C482.322 637.217 484.44 640.266 484.784 646.376C485.116 654.003 482.922 663.659 478.177 675.356ZM813.512 675.356C809.953 684.169 806.101 691.414 801.943 697.09C797.784 702.767 793.932 705.611 790.374 705.611C786.305 705.611 784.098 701.797 783.766 694.17C783.422 687.907 784.698 680.279 787.58 671.287C790.463 662.307 794.353 654.373 799.277 647.511C804.188 640.649 808.856 637.217 813.256 637.217C817.657 637.217 819.774 640.266 820.119 646.376C820.45 654.003 818.257 663.659 813.512 675.356Z" fill="#103155"/>
<path d="M878.941 860.815C877.333 859.961 875.816 859.412 874.4 859.17C872.767 858.902 871.134 859.655 870.318 861.096C859.004 883.175 845.56 899.03 829.973 908.673C832.933 900.14 834.425 891.607 834.425 883.073C834.425 876.581 833.124 871.02 830.535 866.377C835.356 862.665 837.767 857.665 837.767 851.351C837.767 845.968 836.045 841.007 832.614 836.466C829.183 831.925 824.45 828.353 818.417 825.751C812.384 823.162 805.751 821.861 798.519 821.861C785.343 821.861 772.868 826.172 761.095 834.795C752.014 841.453 744.399 849.553 738.238 859.068C729.207 871.402 723.939 881.951 718.467 890.854C712.995 899.757 706.962 907.742 700.38 914.783C693.799 921.836 688.186 925.357 683.544 925.357C675.572 925.357 668.977 915.892 663.786 896.976C676.031 889.566 687.574 879.119 698.429 865.675C709.284 852.231 714.704 841.976 714.704 834.922C714.704 830.471 712.689 826.734 708.659 823.711C696.656 814.705 681.732 819.323 675.661 833.035C655.214 875.216 628.977 890.752 628.76 890.612C631.719 882.091 636.872 867.741 644.219 847.575C651.541 827.448 657.344 810.84 661.605 797.766C665.865 784.692 668.008 775.738 668.008 770.917C668.008 765.075 665.431 760.521 660.278 757.281C646.081 748.314 627.28 757.09 624.155 773.582C620.201 794.412 614.04 817.46 605.673 842.716C605.175 844.425 604.64 846.185 604.091 847.984C599.346 863.494 591.719 878.06 581.119 890.331C574.588 897.882 567.573 903.992 560.048 908.647C563.007 900.114 564.499 891.581 564.499 883.048C564.499 876.555 563.198 870.994 560.609 866.351C565.43 862.639 567.841 857.639 567.841 851.326C567.841 845.943 566.119 840.981 562.688 836.44C559.257 831.899 554.525 828.328 548.491 825.726C542.458 823.136 535.825 821.835 528.593 821.835C515.417 821.835 502.942 826.147 491.169 834.769C479.384 843.392 470.072 854.438 463.21 867.882C458.197 877.716 455.021 887.818 453.669 898.188C453.35 891.504 452.036 884.923 449.715 878.456C447.024 870.943 443.733 864.17 439.842 858.15C435.952 852.129 432.049 846.236 428.159 840.484C424.268 834.731 420.926 828.57 418.146 821.976C415.365 815.394 413.975 808.851 413.975 802.358C413.975 792.894 416.577 784.743 421.768 777.868C426.96 771.006 432.521 767.575 438.465 767.575C441.615 767.575 444.166 768.685 446.118 770.917C448.069 773.149 449.039 776.389 449.039 780.649C449.039 785.662 447.649 790.764 444.868 795.955C443.388 798.723 441.615 801.21 439.562 803.455C435.48 807.894 435.927 814.616 440.608 818.417L440.697 818.494C443.656 820.904 446.717 822.116 449.881 822.116C457.113 822.116 463.376 818.175 468.656 810.292C473.937 802.409 476.59 793.646 476.59 784.004C476.59 773.621 473.248 764.896 466.577 757.843C459.894 750.789 450.621 747.269 438.758 747.269C423.911 747.269 411.169 753.021 400.505 764.526C389.842 776.032 384.51 789.476 384.51 804.871C384.51 812.103 385.709 819.386 388.133 826.708C390.543 834.042 393.515 840.764 397.036 846.887C400.556 853.009 404.089 859.081 407.61 865.114C411.13 871.147 414.102 877.55 416.513 884.311C418.924 891.084 420.136 897.716 420.136 904.209C420.136 913.852 417.355 921.734 411.794 927.857C406.232 933.979 399.37 937.041 391.207 937.041C384.893 937.041 379.663 934.949 375.48 930.778C371.309 926.607 369.217 920.803 369.217 913.392C369.217 912.5 369.255 911.632 369.319 910.778C369.893 903.469 364.204 897.027 356.87 896.976C356.806 896.976 356.755 896.976 356.691 896.976C350.007 896.976 344.816 899.107 341.104 903.38C337.392 907.653 335.543 913.023 335.543 919.515C335.543 931.02 340.696 940.854 350.99 949.005C361.283 957.168 373.668 961.25 388.133 961.25C398.707 961.25 408.911 958.929 418.745 954.298C428.58 949.668 436.87 942.666 443.643 933.291C448.503 926.556 451.615 919.183 452.98 911.148C453.21 925.357 457.1 936.862 464.639 945.663C472.432 954.758 482.815 959.298 495.8 959.298C504.881 959.298 513.925 956.837 522.93 951.926C531.922 947.015 539.856 940.382 546.718 932.028C560.787 926.352 573.3 918.176 584.282 907.538C582.879 911.926 581.719 915.727 580.8 918.954C578.479 927.117 577.318 933.699 577.318 938.712C577.318 944.655 578.849 949.196 581.91 952.347C584.971 955.497 589.282 957.398 594.844 958.048C594.895 958.048 594.959 958.061 595.01 958.074C605.673 959.286 615.405 951.696 617.038 941.084C619.436 925.433 622.778 910.51 627.038 896.288C629.066 908.469 631.949 919.094 635.699 928.137C639.78 937.972 644.64 945.485 650.303 950.676C655.954 955.867 662.128 958.469 668.811 958.469C673.263 958.469 677.804 957.36 682.447 955.127C687.077 952.908 691.35 950.166 695.24 946.913C699.13 943.673 703.263 939.311 707.625 933.839C711.988 928.367 715.648 923.456 718.62 919.094C719.934 917.155 721.363 914.949 722.881 912.5C723.327 926.084 727.217 937.143 734.526 945.676C742.32 954.77 752.702 959.311 765.687 959.311C774.769 959.311 783.812 956.849 792.817 951.939C801.81 947.028 809.744 940.395 816.606 932.041C844.616 920.727 866.504 899.579 882.27 868.596C883.43 866.275 882.818 863.392 880.701 861.887C880.178 861.517 879.591 861.16 878.941 860.803V860.815ZM527.802 878.622C527.802 885.305 526.361 892.627 523.491 900.599C520.608 908.571 516.948 915.395 512.496 921.046C508.045 926.709 503.682 929.528 499.422 929.528C496.45 929.528 494.09 928.048 492.33 925.076C490.57 922.117 489.69 917.933 489.69 912.551C489.69 904.579 491.361 895.816 494.703 886.262C498.044 876.708 502.726 868.405 508.759 861.364C514.779 854.31 521.042 850.79 527.534 850.79C531.795 850.79 535.226 852.741 537.828 856.632C533.185 857.741 528.644 860.152 524.193 863.864C526.603 867.754 527.815 872.678 527.815 878.609L527.802 878.622ZM797.703 878.622C797.703 885.305 796.261 892.627 793.391 900.599C790.509 908.571 786.848 915.395 782.396 921.046C777.945 926.709 773.583 929.528 769.322 929.528C766.35 929.528 763.991 928.048 762.23 925.076C760.47 922.117 759.59 917.933 759.59 912.551C759.59 904.579 761.261 895.816 764.603 886.262C767.945 876.708 772.626 868.405 778.659 861.364C784.68 854.31 790.942 850.79 797.435 850.79C801.695 850.79 805.126 852.741 807.728 856.632C803.085 857.741 798.545 860.152 794.093 863.864C796.504 867.754 797.715 872.678 797.715 878.609L797.703 878.622Z" fill="#103155"/>
<defs>
<linearGradient id="paint0_linear_2574_6742" x1="897.573" y1="172.048" x2="614.484" y2="400.443" gradientUnits="userSpaceOnUse">
<stop offset="0.16" stop-color="#FFE610"/>
<stop offset="0.5" stop-color="#FFC073"/>
<stop offset="1" stop-color="#FE45D7"/>
</linearGradient>
<linearGradient id="paint1_linear_2574_6742" x1="1154.69" y1="-35.6585" x2="242.72" y2="700.113" gradientUnits="userSpaceOnUse">
<stop offset="0.16" stop-color="#FFE610"/>
<stop offset="0.5" stop-color="#FFC073"/>
<stop offset="1" stop-color="#FE45D7"/>
</linearGradient>
</defs>
</svg>
