<svg width="110" height="130" viewBox="0 0 110 130" fill="none" xmlns="http://www.w3.org/2000/svg">
<path fill-rule="evenodd" clip-rule="evenodd" d="M88.0431 30.6645L89.9153 29.1443C90.3452 29.614 90.7668 30.0919 91.1751 30.5782L89.3045 32.0835L84.1144 36.2574L82.8414 37.2814L82.4314 37.6117L81.6546 40.4695L81.2563 41.93L81.0554 42.1043L78.7035 44.1456L77.7691 44.9555L76.6471 45.928C76.9823 46.4342 76.9043 47.1196 76.433 47.5296L75.789 48.0888L75.0172 48.7577L72.1358 51.2587C71.8437 51.5126 71.4652 51.6039 71.1117 51.5392C70.8462 51.4911 70.5955 51.355 70.4046 51.1359L69.4055 49.9841C68.9606 49.4713 69.0171 48.6979 69.5283 48.2531L69.9067 47.9245L69.0154 46.8972C68.8743 46.7346 68.8909 46.4873 69.0536 46.3462L69.2976 46.1355C69.3905 46.0541 69.51 46.0259 69.6229 46.0459C69.7075 46.0608 69.7872 46.1039 69.8486 46.1736L70.7399 47.2009L72.7848 45.4268L73.608 44.7115L73.8238 44.524C74.1159 44.2701 74.491 44.1804 74.8412 44.2435C75.047 44.2817 75.2446 44.3696 75.4122 44.5107L76.6819 43.4087L77.6363 42.5806L79.5915 40.8828L79.7459 40.3185L80.2172 38.5892L80.7683 36.5644L81.6314 35.8641L82.9094 34.8252L88.0398 30.6612L88.0431 30.6645Z" fill="#103155"/>
<path fill-rule="evenodd" clip-rule="evenodd" d="M101.899 59.9594C101.899 85.1508 81.4752 105.572 56.2814 105.572C31.0877 105.572 10.6658 85.1508 10.6658 59.9594C10.6658 34.7681 31.0877 14.3464 56.2814 14.3464C69.2924 14.3464 81.0303 19.7916 89.3392 28.5295L87.462 30.0531L82.3432 34.2088L81.0619 35.2477L80.2386 35.9165L80.0278 36.0874L79.9565 36.348L79.5548 37.8234L79.0917 39.5212L78.8461 40.4207L77.1232 41.916L76.1622 42.7492L75.2958 43.501C75.1962 43.4661 75.0933 43.4396 74.9904 43.4196C74.373 43.3085 73.7456 43.4794 73.2725 43.891L73.0717 44.0652L72.2435 44.7839L70.8211 46.0186L70.4808 45.6269C70.2982 45.4162 70.0459 45.2718 69.7704 45.222C69.4019 45.1556 69.0285 45.2568 68.7463 45.5025L68.5023 45.7132C67.9895 46.158 67.9347 46.9364 68.3795 47.4492L68.738 47.8625C68.4642 48.1911 68.2999 48.5977 68.2683 49.0341C68.2285 49.5851 68.4061 50.1179 68.7679 50.5344L69.7688 51.6862C70.0758 52.0414 70.4991 52.282 70.9605 52.365C71.5812 52.4762 72.2086 52.3053 72.685 51.892L75.417 49.5221L76.1689 48.8698L76.9805 48.1662C77.5597 47.6633 77.7954 46.8932 77.6444 46.1763L78.2203 45.6767L79.1432 44.8768L81.5216 42.8122L81.8055 42.5666L81.998 42.399L82.0644 42.1517L82.2718 41.3899L83.1681 38.0956L83.3607 37.9412L84.6271 36.9222L89.8404 32.7284L91.7093 31.2264C98.0796 39.0698 101.897 49.069 101.897 59.9594H101.899Z" fill="white"/>
<path fill-rule="evenodd" clip-rule="evenodd" d="M82.9127 34.829L88.0431 30.665C88.4746 31.1281 88.8946 31.6011 89.3045 32.084L84.1144 36.258L82.8414 37.2819L82.4314 37.6122L81.6546 40.4701L81.2563 41.9305L81.0554 42.1048L78.7035 44.1461L77.7691 44.956L76.6471 45.9286C76.9823 46.4347 76.9043 47.1202 76.433 47.5301L75.789 48.0894L75.0172 48.7582L72.1358 51.2593C71.8437 51.5132 71.4652 51.6045 71.1117 51.5397C70.8462 51.4916 70.5955 51.3555 70.4046 51.1364L69.4055 49.9847C68.9606 49.4718 69.0171 48.6985 69.5283 48.2537L69.9067 47.9251L69.0154 46.8978C68.8743 46.7351 68.8909 46.4879 69.0536 46.3468L69.2976 46.136C69.3905 46.0547 69.51 46.0265 69.6229 46.0464C69.7075 46.0613 69.7872 46.1045 69.8486 46.1742L70.7399 47.2015L72.7848 45.4274L73.608 44.7121L73.8238 44.5245C74.1159 44.2706 74.491 44.181 74.8412 44.244C75.047 44.2822 75.2446 44.3702 75.4122 44.5112L76.6819 43.4093L77.6363 42.5811L79.5915 40.8833L79.7459 40.319L80.2172 38.5897L80.7683 36.565L81.6314 35.8646L82.9094 34.8257L82.9127 34.829Z" fill="url(#paint0_linear_1_23156)"/>
<path fill-rule="evenodd" clip-rule="evenodd" d="M99.5501 59.9591C99.5501 83.7331 80.2751 103.006 56.4988 103.006C32.7225 103.006 13.4475 83.7348 13.4475 59.9591C13.4475 36.1834 32.7225 16.9119 56.4988 16.9119C68.655 16.9119 79.6344 21.9505 87.4619 30.0527L82.3432 34.2084L81.0618 35.2473L80.2386 35.9162L80.0278 36.0871L79.9564 36.3477L79.5548 37.8231L79.0917 39.5209L78.846 40.4204L77.1232 41.9157L76.1622 42.7488L75.2958 43.5006C75.1962 43.4658 75.0933 43.4392 74.9904 43.4193C74.3729 43.3081 73.7455 43.479 73.2725 43.8906L73.0717 44.0649L72.2434 44.7835L70.821 46.0183L70.4808 45.6266C70.2982 45.4158 70.0459 45.2714 69.7704 45.2217C69.4019 45.1553 69.0284 45.2565 68.7463 45.5021L68.5023 45.7129C67.9894 46.1577 67.9347 46.936 68.3795 47.4489L68.738 47.8621C68.4641 48.1907 68.2998 48.5973 68.2683 49.0338C68.2284 49.5848 68.406 50.1175 68.7679 50.5341L69.7687 51.6859C70.0758 52.041 70.499 52.2817 70.9604 52.3647C71.5812 52.4758 72.2086 52.3049 72.6849 51.8917L75.4169 49.5217L76.1688 48.8695L76.9804 48.1658C77.5597 47.663 77.7954 46.8929 77.6443 46.1759L78.2203 45.6764L79.1431 44.8764L81.5216 42.8119L81.8054 42.5663L81.9979 42.3986L82.0643 42.1514L82.2718 41.3896L83.1681 38.0952L83.3606 37.9409L84.627 36.9219L89.8404 32.728C95.9069 40.1465 99.5468 49.6279 99.5468 59.9591H99.5501Z" fill="url(#paint1_linear_1_23156)"/>
<path d="M65.9127 57.9855C66.7563 52.7886 63.227 47.8919 58.0297 47.0484C52.8323 46.2048 47.9352 49.7338 47.0915 54.9306C46.2479 60.1275 49.7772 65.0242 54.9745 65.8677C60.1719 66.7113 65.069 63.1823 65.9127 57.9855Z" fill="#FCEFB6"/>
<path fill-rule="evenodd" clip-rule="evenodd" d="M35.9566 22.0014C13.5231 32.0852 8.28812 65.6096 22.3282 85.3142L11.2907 83.019C3.93618 61.8306 10.9321 31.7533 32.4993 20.4314L35.9549 22.0014H35.9566Z" fill="white"/>
<path fill-rule="evenodd" clip-rule="evenodd" d="M5.88867 13.6998C5.88867 13.6998 13.517 9.18732 20.82 13.353C28.123 17.5186 26.1363 17.6398 26.1363 17.6398L19.0225 13.0974C15.2565 11.0428 9.33603 12.2891 5.88867 13.6998V13.6998Z" fill="white"/>
<path fill-rule="evenodd" clip-rule="evenodd" d="M7.16523 14.0006C7.16523 14.0006 13.2483 10.8423 19.7231 12.9882L19.5687 13.4479C15.8044 11.9244 10.3835 12.6845 7.16357 14.0006H7.16523Z" fill="white"/>
<path fill-rule="evenodd" clip-rule="evenodd" d="M8.41431 14.2893C11.8484 12.8703 17.0053 12.404 20.7946 13.6586L20.6402 14.1183C17.09 12.6811 11.865 13.2786 8.41431 14.2893Z" fill="white"/>
<path fill-rule="evenodd" clip-rule="evenodd" d="M9.43188 14.6876C12.866 13.2687 18.3864 13.2205 22.1756 14.4769L22.0213 14.9366C18.471 13.4993 12.8809 13.6786 9.43188 14.6876V14.6876Z" fill="white"/>
<path fill-rule="evenodd" clip-rule="evenodd" d="M10.3831 15.1271C13.7972 13.7679 19.2795 13.8343 23.0405 15.1753L22.8862 15.635C19.3624 14.1164 13.8122 14.1812 10.3831 15.1271V15.1271Z" fill="white"/>
<path fill-rule="evenodd" clip-rule="evenodd" d="M11.7155 15.6365C15.1098 14.3404 20.5522 14.5246 24.2817 15.9552L24.1273 16.4149C20.6335 14.81 15.1214 14.7569 11.7139 15.6365H11.7155Z" fill="white"/>
<path fill-rule="evenodd" clip-rule="evenodd" d="M16.6237 17.9998C18.9606 17.1335 22.6387 17.2912 25.8935 18.2338C22.4827 16.9078 18.0428 16.7385 15.3108 17.4024C17.8303 16.4199 21.9001 16.5759 25.3309 17.6314C21.8669 16.2556 17.198 16.1527 14.3631 16.8962C16.8627 15.8739 20.8843 15.9303 24.3051 16.8763C20.8362 15.3793 16.3 15.6581 13.3589 16.4298C16.3232 15.2166 21.0271 15.0756 24.73 16.5842L26.1342 17.497L27.0421 18.2571L26.9906 18.5873C27.4471 18.75 27.8886 18.9292 28.3135 19.1234L28.2421 19.5765C24.7582 17.7343 19.6445 17.3293 16.6237 17.9998V17.9998Z" fill="white"/>
<path fill-rule="evenodd" clip-rule="evenodd" d="M18.2885 18.601C21.2396 17.7496 24.1973 17.9537 28.1094 19.3212L27.9551 19.7809C25.9683 18.8134 21.7658 17.8857 18.2869 18.601H18.2885Z" fill="white"/>
<path fill-rule="evenodd" clip-rule="evenodd" d="M19.7427 19.3357C22.4581 18.4777 25.3145 18.6802 29.2349 20.0477L29.147 20.5091C27.1204 19.5398 22.9809 18.6138 19.7427 19.3357V19.3357Z" fill="white"/>
<path fill-rule="evenodd" clip-rule="evenodd" d="M20.8911 19.9154C23.2994 19.0607 26.0265 19.2648 29.9568 20.6307L29.9535 21.0904C27.8771 20.1212 23.8156 19.1951 20.8911 19.9138V19.9154Z" fill="white"/>
<path fill-rule="evenodd" clip-rule="evenodd" d="M22.5347 20.2694C24.7604 19.7018 27.3148 19.9922 30.8369 21.217L30.8336 21.6767C28.9779 20.8104 25.3546 19.9292 22.5347 20.2694V20.2694Z" fill="white"/>
<path fill-rule="evenodd" clip-rule="evenodd" d="M23.0376 20.8695C25.1721 20.199 27.6883 20.4463 31.212 21.6744L31.2419 22.1706C29.368 21.286 25.7696 20.428 23.0376 20.8695Z" fill="white"/>
<path fill-rule="evenodd" clip-rule="evenodd" d="M30.855 21.8883C29.7446 19.4403 27.6649 16.3269 25.7014 14.4382C27.4193 16.5625 28.7753 18.6902 29.6284 20.9473C29.6666 21.0286 30.0932 21.4983 30.128 21.5729L30.855 21.8899V21.8883Z" fill="white"/>
<path fill-rule="evenodd" clip-rule="evenodd" d="M29.8774 21.2598C28.767 18.8119 26.4201 15.4927 24.4565 13.604C26.1744 15.7283 27.7977 18.0617 28.6508 20.3188C28.689 20.4001 29.1155 20.8698 29.1504 20.9445L29.8774 21.2615V21.2598Z" fill="white"/>
<path fill-rule="evenodd" clip-rule="evenodd" d="M28.9961 20.6981C27.8857 18.2501 25.6218 14.974 22.9678 12.8862C25.2417 15.0454 27.2068 18.0012 27.6467 19.6691C27.6849 19.7504 28.1114 20.2201 28.1463 20.2948L28.9961 20.6981V20.6981Z" fill="white"/>
<path fill-rule="evenodd" clip-rule="evenodd" d="M27.857 19.5571C26.6885 17.2834 24.3532 14.2214 21.666 12.2332C23.9797 14.2745 26.0097 17.0361 26.491 18.5762C26.5308 18.6526 26.9673 19.094 27.0039 19.1621L27.857 19.5554V19.5571Z" fill="white"/>
<path fill-rule="evenodd" clip-rule="evenodd" d="M27.1203 18.7404C25.7875 16.5597 23.2331 13.6769 20.4065 11.8928C22.8646 13.7582 25.092 16.3638 25.6862 17.8641C25.7311 17.9372 26.1991 18.3454 26.2406 18.4118L27.1203 18.7421V18.7404Z" fill="white"/>
<path fill-rule="evenodd" clip-rule="evenodd" d="M26.3136 17.9207C24.8115 15.8528 22.0363 13.1808 19.0786 11.6274C21.6762 13.292 24.1028 15.7118 24.8148 17.1606C24.8646 17.2287 25.3642 17.5988 25.4107 17.6618L26.3136 17.9207Z" fill="white"/>
<path fill-rule="evenodd" clip-rule="evenodd" d="M25.0226 16.6144C23.2981 14.7274 20.2424 12.384 17.1287 11.1692C19.8955 12.5317 22.5794 14.666 23.4491 16.0252C23.5072 16.0883 24.0433 16.4003 24.0981 16.4567L25.0242 16.6127L25.0226 16.6144Z" fill="white"/>
<path fill-rule="evenodd" clip-rule="evenodd" d="M22.0509 14.1597C19.9546 12.6976 16.6749 10.9467 13.8135 11.0297C16.7264 11.2471 19.1762 12.6694 20.7663 13.7448C20.836 13.793 21.1331 14.1133 21.1978 14.1564L22.0509 14.1597Z" fill="white"/>
<path fill-rule="evenodd" clip-rule="evenodd" d="M4.13452 38.4124C4.13452 38.4124 6.16609 28.078 15.6368 24.8981C25.1075 21.7183 23.6435 23.5754 23.6435 23.5754L13.9886 26.2906C9.18854 28.0049 5.61006 34.2401 4.13452 38.4124V38.4124Z" fill="white"/>
<path fill-rule="evenodd" clip-rule="evenodd" d="M5.41113 37.52C5.41113 37.52 7.42278 29.6285 14.4453 25.584L14.7308 26.0835C10.4037 28.2161 6.78875 33.6248 5.41113 37.5216V37.52Z" fill="white"/>
<path fill-rule="evenodd" clip-rule="evenodd" d="M6.65552 36.6401C8.1128 32.4711 11.7776 27.5304 15.8889 25.1638L16.1743 25.6634C12.0913 27.6748 8.48957 32.7815 6.65552 36.6401V36.6401Z" fill="white"/>
<path fill-rule="evenodd" clip-rule="evenodd" d="M7.81396 36.0515C9.27125 31.8825 13.595 26.9518 17.7062 24.5835L17.9917 25.083C13.9087 27.0945 9.64636 32.1929 7.81396 36.0515V36.0515Z" fill="white"/>
<path fill-rule="evenodd" clip-rule="evenodd" d="M8.95576 35.5586C10.4512 31.4561 14.8446 26.6465 19.009 24.3728L19.2945 24.8723C15.16 26.7942 10.828 31.7697 8.9541 35.5586H8.95576Z" fill="white"/>
<path fill-rule="evenodd" clip-rule="evenodd" d="M10.4619 34.7788C11.9972 30.7443 16.4637 26.0625 20.6845 23.8867L20.97 24.3863C16.7823 26.2152 12.3756 31.0613 10.4619 34.7788Z" fill="white"/>
<path fill-rule="evenodd" clip-rule="evenodd" d="M16.4398 32.2954C17.5203 29.5371 20.5677 26.4005 23.9785 24.2595C20.1046 26.2345 16.4431 30.0383 14.8713 32.9858C15.9917 29.9736 19.3494 26.4901 23.0009 24.2811C19.0407 26.2644 15.2564 30.3221 13.6746 33.4273C14.7435 30.4018 17.9751 26.8801 21.5204 24.5948C17.449 26.4884 14.1078 30.7304 12.4663 33.9484C13.7344 30.3603 17.3295 26.0768 21.5967 23.9857L23.5171 23.4613L24.9097 23.2588L25.1619 23.5658C25.6665 23.2903 26.1761 23.0381 26.684 22.8157L27.0292 23.2372C22.6407 24.8686 18.2357 29.0841 16.4415 32.2938L16.4398 32.2954Z" fill="white"/>
<path fill-rule="evenodd" clip-rule="evenodd" d="M18.2896 31.2955C19.868 28.0044 22.3892 25.5432 26.6963 23.155L26.9818 23.6546C24.5519 24.6503 20.4058 27.6426 18.2896 31.2955V31.2955Z" fill="white"/>
<path fill-rule="evenodd" clip-rule="evenodd" d="M20.0928 30.5862C21.4803 27.4993 23.9186 25.1277 28.2323 22.7329L28.5709 23.176C26.1095 24.2067 22.0131 27.1458 20.0928 30.5879V30.5862Z" fill="white"/>
<path fill-rule="evenodd" clip-rule="evenodd" d="M21.5139 30.0246C22.6608 27.2115 24.9978 24.9561 29.3182 22.553L29.7248 22.9198C27.2235 23.9952 23.1886 26.863 21.5139 30.0262V30.0246Z" fill="white"/>
<path fill-rule="evenodd" clip-rule="evenodd" d="M23.1267 28.8504C24.3848 26.4274 26.662 24.3927 30.5343 22.2385L30.9409 22.6053C28.7052 23.5662 25.057 26.0805 23.1284 28.8504H23.1267Z" fill="white"/>
<path fill-rule="evenodd" clip-rule="evenodd" d="M24.0586 28.879C25.1524 26.456 27.3616 24.4213 31.2388 22.2671L31.7019 22.6339C29.4346 23.5948 25.8279 26.1091 24.0586 28.879Z" fill="white"/>
<path fill-rule="evenodd" clip-rule="evenodd" d="M31.1439 22.7513C28.0933 21.8004 23.6882 21.1813 20.46 21.4286C23.7015 21.5846 26.6609 22.0659 29.3381 23.0949C29.4394 23.1264 30.1945 23.1181 30.2875 23.1463L31.1439 22.753V22.7513Z" fill="white"/>
<path fill-rule="evenodd" clip-rule="evenodd" d="M29.8144 23.1215C26.7637 22.1705 21.9637 21.6262 18.7371 21.8718C21.9786 22.0278 25.333 22.4361 28.0102 23.465C28.1115 23.4966 28.8667 23.4883 28.9596 23.5165L29.8161 23.1231L29.8144 23.1215Z" fill="white"/>
<path fill-rule="evenodd" clip-rule="evenodd" d="M28.6193 23.4595C25.5686 22.5086 20.8748 21.9244 16.9229 22.6264C20.6358 22.3177 24.8118 22.9135 26.6392 23.8429C26.7404 23.8744 27.4956 23.8661 27.5886 23.8943L28.6176 23.4612L28.6193 23.4595Z" fill="white"/>
<path fill-rule="evenodd" clip-rule="evenodd" d="M26.7062 23.5664C23.7651 22.8046 19.2023 22.4528 15.3135 23.2627C18.9534 22.8262 23.0082 23.2112 24.7559 24.0012C24.8539 24.0261 25.5908 23.9896 25.6821 24.0111L26.7062 23.5664V23.5664Z" fill="white"/>
<path fill-rule="evenodd" clip-rule="evenodd" d="M25.3993 23.5722C22.4101 23.0295 17.8341 23.0145 14.0166 24.1082C17.615 23.4046 21.6864 23.4892 23.4889 24.1497C23.5885 24.1663 24.3205 24.0767 24.4134 24.0916L25.401 23.5722H25.3993Z" fill="white"/>
<path fill-rule="evenodd" clip-rule="evenodd" d="M24.0333 23.6386C21.0108 23.3349 16.4481 23.6818 12.7285 25.0775C16.2589 24.09 20.3253 23.8527 22.1743 24.3672C22.2756 24.3771 22.9976 24.2278 23.0905 24.2344L24.0333 23.6386V23.6386Z" fill="white"/>
<path fill-rule="evenodd" clip-rule="evenodd" d="M21.8534 23.7527C18.816 23.7892 14.3196 24.6456 10.781 26.4462C14.1786 25.0704 18.1936 24.3784 20.0874 24.6837C20.1886 24.6821 20.8907 24.453 20.9837 24.4497L21.855 23.7527H21.8534Z" fill="white"/>
<path fill-rule="evenodd" clip-rule="evenodd" d="M17.3263 24.4446C14.3703 25.1466 10.2242 26.6701 8.03491 29.2741C10.5312 26.8626 13.7313 25.8138 15.9421 25.2561C16.04 25.2312 16.5579 25.2213 16.6492 25.198L17.328 24.4446H17.3263Z" fill="white"/>
<path fill-rule="evenodd" clip-rule="evenodd" d="M21.9158 0C21.9158 0 29.5358 2.69024 30.8985 10.2316C32.2612 17.7745 31.0147 16.4568 31.0147 16.4568L30.0254 8.82586C29.257 4.99214 24.92 1.58328 21.9158 0V0Z" fill="white"/>
<path fill-rule="evenodd" clip-rule="evenodd" d="M22.4517 1.06641C22.4517 1.06641 28.221 3.46954 30.5115 9.24999L30.0999 9.41097C28.9613 5.88926 25.2567 2.54513 22.4517 1.06641V1.06641Z" fill="white"/>
<path fill-rule="evenodd" clip-rule="evenodd" d="M22.981 2.11084C25.9835 3.68084 29.3279 7.01004 30.669 10.394L30.2574 10.555C29.1835 7.23242 25.7063 3.92978 22.981 2.11084V2.11084Z" fill="white"/>
<path fill-rule="evenodd" clip-rule="evenodd" d="M23.3005 3.05518C26.3031 4.62518 29.5679 8.45392 30.909 11.8379L30.4973 11.9989C29.4235 8.67631 26.0259 4.87412 23.3005 3.05518V3.05518Z" fill="white"/>
<path fill-rule="evenodd" clip-rule="evenodd" d="M23.5471 3.97632C26.4965 5.56789 29.66 9.43647 30.9231 12.8503L30.5115 13.0113C29.5106 9.66051 26.2143 5.8185 23.5454 3.97632H23.5471Z" fill="white"/>
<path fill-rule="evenodd" clip-rule="evenodd" d="M23.9724 5.20601C26.8654 6.81916 29.9227 10.7292 31.1061 14.1746L30.6945 14.3356C29.7716 10.9533 26.5799 7.07142 23.9707 5.20435L23.9724 5.20601Z" fill="white"/>
<path fill-rule="evenodd" clip-rule="evenodd" d="M25.1934 10.0205C27.1668 11.1474 29.21 13.8078 30.4565 16.6358C29.3876 13.4759 26.9063 10.2745 24.8432 8.7526C27.0058 9.93757 29.2781 12.8734 30.5495 15.8906C29.4839 12.6643 26.8216 9.34176 24.6407 7.795C26.8183 8.94345 29.1337 11.7864 30.4748 14.7322C29.4889 11.4312 26.6407 8.42399 24.3784 6.8208C26.961 8.18169 29.8142 11.3864 30.9279 14.8583L31.1121 16.3736V17.454L30.8499 17.6116C31.0026 18.0249 31.137 18.4398 31.2499 18.8497L30.8914 19.0655C30.1395 15.5521 27.4291 11.7416 25.1917 10.0222L25.1934 10.0205Z" fill="white"/>
<path fill-rule="evenodd" clip-rule="evenodd" d="M25.747 11.5361C28.0707 13.1012 29.6591 15.2869 30.9936 18.8219L30.5819 18.9828C30.0956 17.0278 28.2848 13.5476 25.7454 11.5361H25.747Z" fill="white"/>
<path fill-rule="evenodd" clip-rule="evenodd" d="M26.0864 12.9824C28.2757 14.3782 29.806 16.4925 31.1454 20.0325L30.772 20.2416C30.2624 18.2584 28.4865 14.8229 26.0864 12.9824V12.9824Z" fill="white"/>
<path fill-rule="evenodd" clip-rule="evenodd" d="M26.353 14.1233C28.3614 15.3066 29.8153 17.3313 31.1597 20.8779L30.8361 21.1451C30.2967 19.127 28.5672 15.7464 26.353 14.1233V14.1233Z" fill="white"/>
<path fill-rule="evenodd" clip-rule="evenodd" d="M27.0676 15.4794C28.7672 16.7026 30.0602 18.6593 31.2652 21.8358L30.9415 22.103C30.4602 20.299 28.9565 17.2503 27.0676 15.4778V15.4794Z" fill="white"/>
<path fill-rule="evenodd" clip-rule="evenodd" d="M26.9416 16.1807C28.6595 17.281 29.9591 19.1829 31.1641 22.3661L30.8338 22.6764C30.3558 20.8492 28.847 17.832 26.9399 16.1807H26.9416Z" fill="white"/>
<path fill-rule="evenodd" clip-rule="evenodd" d="M30.8069 22.2419C31.8675 20.033 32.8269 16.7569 32.9978 14.2791C32.5182 16.722 31.8244 18.916 30.7472 20.8329C30.7123 20.9076 30.6343 21.4801 30.6028 21.5482L30.8069 22.2419V22.2419Z" fill="white"/>
<path fill-rule="evenodd" clip-rule="evenodd" d="M30.6736 21.191C31.7342 18.9821 32.6803 15.3973 32.8529 12.9211C32.3732 15.3641 31.6927 17.8651 30.6139 19.7837C30.579 19.8584 30.501 20.4309 30.4695 20.499L30.6736 21.1927V21.191Z" fill="white"/>
<path fill-rule="evenodd" clip-rule="evenodd" d="M30.5495 20.2448C31.6101 18.0358 32.5744 14.5357 32.4815 11.4587C32.3039 14.3116 31.3877 17.4151 30.4781 18.6997C30.4433 18.7743 30.3653 19.3469 30.3337 19.415L30.5495 20.2448V20.2448Z" fill="white"/>
<path fill-rule="evenodd" clip-rule="evenodd" d="M30.6809 18.7812C31.5854 16.6336 32.3606 13.2081 32.1763 10.1677C32.1033 12.9791 31.3614 16.0146 30.5663 17.2543C30.5365 17.3257 30.4833 17.8899 30.4568 17.9563L30.6809 18.7828V18.7812Z" fill="white"/>
<path fill-rule="evenodd" clip-rule="evenodd" d="M30.8217 17.789C31.5652 15.5801 32.0864 12.1082 31.6781 9.08765C31.8125 11.8974 31.2964 14.9793 30.5959 16.2738C30.571 16.3485 30.5594 16.9144 30.5378 16.9825L30.8217 17.789Z" fill="white"/>
<path fill-rule="evenodd" clip-rule="evenodd" d="M30.9228 16.7451C31.4888 14.4847 31.7312 10.9813 31.0855 8.00391C31.4424 10.7937 31.1718 13.9072 30.576 15.2531C30.5577 15.3295 30.5909 15.8937 30.576 15.9634L30.9228 16.7451V16.7451Z" fill="white"/>
<path fill-rule="evenodd" clip-rule="evenodd" d="M31.0798 15.0782C31.3902 12.768 31.2391 9.25961 30.2632 6.37354C30.9304 9.10527 31.0101 12.2303 30.5686 13.6344C30.5586 13.7107 30.6549 14.27 30.6466 14.3397L31.0798 15.0782V15.0782Z" fill="white"/>
<path fill-rule="evenodd" clip-rule="evenodd" d="M31.0561 11.5658C30.8503 9.24395 30.1549 5.92803 28.4204 3.97632C29.974 6.1388 30.4155 8.68466 30.5931 10.4239C30.5997 10.5019 30.5499 10.8953 30.5582 10.9666L31.0545 11.5658H31.0561Z" fill="white"/>
<path fill-rule="evenodd" clip-rule="evenodd" d="M0 25.7226C0 25.7226 5.03742 18.2328 15.4226 18.895C25.8095 19.5555 23.8062 20.533 23.8062 20.533L13.3712 19.4426C8.07647 19.1887 2.68884 22.9179 0 25.7226Z" fill="white"/>
<path fill-rule="evenodd" clip-rule="evenodd" d="M1.53369 25.4434C1.53369 25.4434 5.83915 19.8771 14.0318 19.0356L14.1729 19.5269C9.22842 19.7626 4.04493 22.8262 1.53535 25.4451L1.53369 25.4434Z" fill="white"/>
<path fill-rule="evenodd" clip-rule="evenodd" d="M3.03394 25.1642C5.70286 22.3578 10.8017 19.6792 15.5968 19.1863L15.7379 19.6775C11.0739 19.8999 5.99 22.7279 3.0356 25.1642H3.03394Z" fill="white"/>
<path fill-rule="evenodd" clip-rule="evenodd" d="M4.36108 25.0882C7.03 22.2818 12.7844 19.8322 17.5795 19.3376L17.7206 19.8289C13.0567 20.0513 7.31549 22.6519 4.36108 25.0882Z" fill="white"/>
<path fill-rule="evenodd" clip-rule="evenodd" d="M5.64624 25.0818C8.33342 22.3385 14.1227 20.01 18.9444 19.6084L19.0854 20.0996C14.3966 20.2341 8.62056 22.7135 5.6479 25.0818H5.64624Z" fill="white"/>
<path fill-rule="evenodd" clip-rule="evenodd" d="M7.3772 24.9703C10.0843 22.295 15.9084 20.091 20.7567 19.7856L20.8977 20.2769C16.1823 20.3184 10.3714 22.6734 7.3772 24.9703Z" fill="white"/>
<path fill-rule="evenodd" clip-rule="evenodd" d="M14.0716 25.0123C15.9538 23.195 19.9091 21.7362 23.9407 21.1869C19.4958 21.4491 14.7322 23.2282 12.304 25.0322C14.299 23.0274 18.6676 21.3976 22.9564 20.8749C18.4236 21.1155 13.4625 23.0556 10.9778 24.9791C12.9264 22.9461 17.1787 21.245 21.3846 20.6276C16.7671 20.7587 12.1944 22.9925 9.62012 24.9874C11.9305 22.576 16.7688 20.3952 21.6402 20.1729L23.7116 20.4019L25.1623 20.7089L25.3249 21.0375C25.9092 20.9894 26.4901 20.9612 27.0627 20.9545L27.2851 21.4043C22.4253 21.2234 16.8003 23.0788 14.0733 25.0156L14.0716 25.0123Z" fill="white"/>
<path fill-rule="evenodd" clip-rule="evenodd" d="M16.2114 24.8412C18.7459 22.7683 21.9808 21.668 26.9784 21.2249L27.1195 21.7161C24.4024 21.6895 19.3899 22.6637 16.2131 24.8428L16.2114 24.8412Z" fill="white"/>
<path fill-rule="evenodd" clip-rule="evenodd" d="M18.217 24.884C20.5009 22.9091 23.6263 21.8502 28.6321 21.4038L28.8429 21.8668C26.0827 21.8569 21.1366 22.8062 18.217 24.884Z" fill="white"/>
<path fill-rule="evenodd" clip-rule="evenodd" d="M19.7991 24.9168C21.7626 23.0779 24.7535 22.0771 29.7693 21.6257L30.0681 22.0523C27.2564 22.0639 22.3916 22.9783 19.7991 24.9168V24.9168Z" fill="white"/>
<path fill-rule="evenodd" clip-rule="evenodd" d="M21.7549 24.5294C23.7167 23.0358 26.5848 22.1894 31.0778 21.7844L31.3766 22.2109C28.8637 22.2209 24.4885 22.986 21.7549 24.5294V24.5294Z" fill="white"/>
<path fill-rule="evenodd" clip-rule="evenodd" d="M22.675 24.8639C24.4726 23.3155 27.271 22.4458 31.7723 22.0442L32.1291 22.489C29.5847 22.489 25.251 23.2673 22.6767 24.8639H22.675Z" fill="white"/>
<path fill-rule="evenodd" clip-rule="evenodd" d="M31.5371 22.3965C28.7669 20.6207 24.5461 18.6557 21.2498 17.7678C24.4432 18.9793 27.2598 20.3519 29.6333 22.0629C29.7262 22.121 30.4814 22.3683 30.5677 22.4214L31.5371 22.3965Z" fill="white"/>
<path fill-rule="evenodd" clip-rule="evenodd" d="M30.1017 22.2419C27.3315 20.4661 22.6957 18.4265 19.3994 17.5386C22.5928 18.7501 25.8244 20.1956 28.1979 21.9067C28.2908 21.9648 29.046 22.2121 29.1323 22.2652L30.1017 22.2403V22.2419Z" fill="white"/>
<path fill-rule="evenodd" clip-rule="evenodd" d="M28.8085 22.1089C26.0383 20.3331 21.5188 18.2984 17.3677 17.5283C21.1669 18.5291 25.1653 20.4011 26.7205 21.7487C26.8135 21.8068 27.5687 22.0541 27.655 22.1072H28.8102V22.1089H28.8085Z" fill="white"/>
<path fill-rule="evenodd" clip-rule="evenodd" d="M26.8671 21.5521C24.1501 19.9638 19.6952 18.1549 15.5757 17.4927C19.3384 18.3673 23.2787 20.0319 24.7941 21.2434C24.8854 21.2965 25.6323 21.5139 25.7153 21.5604L26.8671 21.5521V21.5521Z" fill="white"/>
<path fill-rule="evenodd" clip-rule="evenodd" d="M25.5584 21.1188C22.7301 19.6866 18.1641 18.1415 14.0312 17.7266C17.8305 18.3771 21.8737 19.8094 23.4804 20.9346C23.575 20.9811 24.3335 21.1553 24.4198 21.1985L25.5567 21.1188H25.5584Z" fill="white"/>
<path fill-rule="evenodd" clip-rule="evenodd" d="M24.1765 20.7138C21.2453 19.4591 16.5863 18.2044 12.4651 18.0601C16.2793 18.4633 20.4104 19.6384 22.1067 20.6657C22.2047 20.7072 22.9698 20.8316 23.0611 20.8681L24.1765 20.7138Z" fill="white"/>
<path fill-rule="evenodd" clip-rule="evenodd" d="M21.9672 20.0715C18.9215 19.0807 14.1829 18.2509 10.123 18.4882C13.9173 18.5396 18.1298 19.3396 19.9323 20.2142C20.0336 20.2474 20.802 20.3005 20.895 20.3304L21.9672 20.0715V20.0715Z" fill="white"/>
<path fill-rule="evenodd" clip-rule="evenodd" d="M17.2435 19.0998C14.0866 18.665 9.5006 18.4775 6.55615 19.8035C9.75122 18.7347 13.2517 18.977 15.6235 19.2774C15.7281 19.2907 16.2492 19.4566 16.3455 19.4683L17.2435 19.0998V19.0998Z" fill="white"/>
<path fill-rule="evenodd" clip-rule="evenodd" d="M38.4075 0.0683594C38.4075 0.0683594 42.2963 6.6919 38.0241 13.566C33.7501 20.4402 33.7302 18.6478 33.7302 18.6478L38.3494 11.9214C40.4639 8.38305 39.5726 3.10048 38.4075 0.0683594V0.0683594Z" fill="white"/>
<path fill-rule="evenodd" clip-rule="evenodd" d="M38.0637 1.24097C38.0637 1.24097 40.7492 6.55009 38.4205 12.548L37.9956 12.4384C39.6106 8.93496 39.1525 4.07394 38.0637 1.24263V1.24097Z" fill="white"/>
<path fill-rule="evenodd" clip-rule="evenodd" d="M37.7317 2.3916C38.9052 5.41211 39.0993 10.0507 37.7367 13.5608L37.3118 13.4513C38.8354 10.147 38.5201 5.4536 37.7333 2.3916H37.7317Z" fill="white"/>
<path fill-rule="evenodd" clip-rule="evenodd" d="M37.3086 3.33813C38.482 6.35864 38.2646 11.3541 36.9002 14.8625L36.4753 14.753C37.999 11.4487 38.0969 6.39847 37.3086 3.33813Z" fill="white"/>
<path fill-rule="evenodd" clip-rule="evenodd" d="M36.8466 4.22729C37.9653 7.23287 37.6417 12.2001 36.1993 15.6903L35.7744 15.5808C37.3744 12.2947 37.5753 7.2727 36.8466 4.22729Z" fill="white"/>
<path fill-rule="evenodd" clip-rule="evenodd" d="M36.304 5.46533C37.363 8.45597 36.9331 13.395 35.4061 16.8636L34.9812 16.7541C36.6609 13.4896 36.9713 8.4958 36.304 5.46533V5.46533Z" fill="white"/>
<path fill-rule="evenodd" clip-rule="evenodd" d="M33.8426 10.0566C34.5481 12.1179 34.2244 15.457 33.1821 18.4643C34.5945 15.2927 34.9647 11.2632 34.47 8.83017C35.2767 11.0491 34.9348 14.7434 33.7779 17.9182C35.2402 14.6953 35.5589 10.4616 34.9912 7.94061C35.836 10.1396 35.5921 13.7841 34.5364 16.9407C36.1116 13.7045 36.0668 9.61517 35.4775 7.00293C36.48 9.61019 36.3887 13.8605 34.792 17.3092L33.8659 18.6385L33.1057 19.5082L32.797 19.4816C32.6227 19.9048 32.4335 20.3164 32.2293 20.713L31.8044 20.6765C33.7065 17.4071 34.3306 12.7502 33.8426 10.0583V10.0566Z" fill="white"/>
<path fill-rule="evenodd" clip-rule="evenodd" d="M33.1973 11.6023C33.8596 14.2212 33.526 16.9114 32.0521 20.5393L31.6272 20.4298C32.6347 18.5694 33.7086 14.7074 33.199 11.6023H33.1973Z" fill="white"/>
<path fill-rule="evenodd" clip-rule="evenodd" d="M32.4349 12.967C33.1138 15.3718 32.7868 17.9708 31.3129 21.6054L30.8831 21.5556C31.8922 19.6603 32.9628 15.8531 32.4366 12.967H32.4349Z" fill="white"/>
<path fill-rule="evenodd" clip-rule="evenodd" d="M31.8362 14.042C32.5267 16.1696 32.2064 18.6508 30.7308 22.2953L30.2976 22.3218C31.3084 20.3801 32.3756 16.6459 31.8379 14.042H31.8362Z" fill="white"/>
<path fill-rule="evenodd" clip-rule="evenodd" d="M31.4248 15.5508C31.8547 17.5307 31.458 19.8625 30.1368 23.1269L29.7036 23.1535C30.6082 21.4175 31.6124 18.0834 31.4248 15.5508V15.5508Z" fill="white"/>
<path fill-rule="evenodd" clip-rule="evenodd" d="M30.8342 16.0452C31.3636 17.9355 31.0117 20.2291 29.6856 23.4969L29.2175 23.5549C30.1404 21.8024 31.1196 18.4898 30.8342 16.0452V16.0452Z" fill="white"/>
<path fill-rule="evenodd" clip-rule="evenodd" d="M29.5024 23.1867C31.8626 22.0266 34.8951 19.9488 36.7689 18.0535C34.6859 19.743 32.6162 21.1038 30.4485 22.0166C30.3705 22.0565 29.9074 22.4714 29.8361 22.5079L29.5024 23.1867Z" fill="white"/>
<path fill-rule="evenodd" clip-rule="evenodd" d="M30.1409 22.2628C32.5011 21.1027 35.741 18.7693 37.6148 16.874C35.5318 18.5619 33.2546 20.1783 31.0869 21.0928C31.0089 21.1326 30.5459 21.5475 30.4745 21.584L30.1409 22.2628V22.2628Z" fill="white"/>
<path fill-rule="evenodd" clip-rule="evenodd" d="M30.7107 21.4293C33.0709 20.2692 36.2643 18.0138 38.3589 15.4812C36.2162 17.6752 33.3365 19.6402 31.7431 20.1431C31.6651 20.1829 31.202 20.5978 31.1306 20.6343L30.7107 21.4293Z" fill="white"/>
<path fill-rule="evenodd" clip-rule="evenodd" d="M31.8408 20.3271C34.0384 19.1256 37.0359 16.8204 39.0376 14.2612C37.0044 16.4835 34.3039 18.4949 32.83 19.0293C32.757 19.0691 32.3188 19.4924 32.2524 19.5305L31.8408 20.3271Z" fill="white"/>
<path fill-rule="evenodd" clip-rule="evenodd" d="M32.6458 19.6081C34.7653 18.2639 37.6035 15.7711 39.4193 13.0991C37.5454 15.4408 34.9827 17.6216 33.5404 18.2539C33.4707 18.2987 33.0624 18.7485 32.9976 18.79L32.6458 19.6065V19.6081Z" fill="white"/>
<path fill-rule="evenodd" clip-rule="evenodd" d="M33.458 18.8266C35.4796 17.3362 38.1286 14.6559 39.7336 11.8794C38.0407 14.3356 35.6439 16.6857 34.2464 17.4209C34.18 17.4707 33.8066 17.9453 33.7451 17.9918L33.458 18.8249V18.8266Z" fill="white"/>
<path fill-rule="evenodd" clip-rule="evenodd" d="M34.7488 17.5753C36.6094 15.8958 38.963 12.9815 40.2559 10.0854C38.8401 12.6778 36.7007 15.2402 35.3778 16.1132C35.3164 16.1696 34.9961 16.6758 34.9397 16.7272L34.7488 17.5753V17.5753Z" fill="white"/>
<path fill-rule="evenodd" clip-rule="evenodd" d="M37.2036 14.7305C38.6825 12.7406 40.4883 9.66039 40.5447 7.07471C40.2012 9.72512 38.7455 12.0336 37.6567 13.5406C37.6086 13.607 37.2932 13.8957 37.2484 13.9571L37.2036 14.7305V14.7305Z" fill="white"/>
<path fill-rule="evenodd" clip-rule="evenodd" d="M53.8684 43.9205C53.8684 43.9205 54.3829 32.8758 45.5214 27.2629C36.6598 21.6518 37.6889 23.9105 37.6889 23.9105L46.8542 29.0952C51.319 32.0443 53.407 39.2968 53.8684 43.9205V43.9205Z" fill="white"/>
<path fill-rule="evenodd" clip-rule="evenodd" d="M52.7924 42.6904C52.7924 42.6904 52.716 34.14 46.5682 28.26L46.1516 28.6981C50.0305 31.956 52.3625 38.3737 52.7924 42.6921V42.6904Z" fill="white"/>
<path fill-rule="evenodd" clip-rule="evenodd" d="M51.7419 41.4819C51.2988 36.8665 48.7991 30.9135 45.1991 27.4714L44.7825 27.9096C48.4423 30.9832 50.8373 37.0906 51.7419 41.4836V41.4819Z" fill="white"/>
<path fill-rule="evenodd" clip-rule="evenodd" d="M50.7078 40.5918C50.2646 35.9764 47.0895 29.8673 43.4911 26.4253L43.0745 26.8634C46.7343 29.937 49.8032 36.2005 50.7078 40.5935V40.5918Z" fill="white"/>
<path fill-rule="evenodd" clip-rule="evenodd" d="M49.6664 39.8042C49.1685 35.2469 45.8921 29.244 42.2157 25.8833L41.7991 26.3214C45.5336 29.3154 48.7054 35.4726 49.6664 39.8042V39.8042Z" fill="white"/>
<path fill-rule="evenodd" clip-rule="evenodd" d="M48.3273 38.6322C47.7713 34.1346 44.3887 28.2446 40.631 24.9702L40.2144 25.4084C44.0269 28.321 47.3066 34.3637 48.3273 38.6339V38.6322Z" fill="white"/>
<path fill-rule="evenodd" clip-rule="evenodd" d="M42.8536 34.6041C42.4419 31.5222 40.1199 27.5623 37.1771 24.5252C40.6328 27.5076 43.4146 32.3022 44.2793 35.7011C43.8909 32.3503 41.3382 27.9573 38.1697 24.7924C41.7116 27.8046 44.5548 32.8897 45.3914 36.4513C45.0578 33.0988 42.6444 28.6992 39.6004 25.4828C43.2785 28.432 45.6237 33.5917 46.4901 37.2844C46.0951 33.3096 43.5009 28.042 39.6734 24.8422L37.8477 23.8265L36.4784 23.2722L36.1447 23.5228C35.6983 23.1162 35.2435 22.7312 34.7821 22.3777L34.324 22.7212C38.3904 25.4828 41.8262 30.8832 42.8536 34.6041V34.6041Z" fill="white"/>
<path fill-rule="evenodd" clip-rule="evenodd" d="M41.2173 33.1227C40.4305 29.372 38.477 26.232 34.6827 22.7202L34.2661 23.1584C36.4952 24.7831 39.9741 28.8708 41.2173 33.1227V33.1227Z" fill="white"/>
<path fill-rule="evenodd" clip-rule="evenodd" d="M39.5558 31.9473C38.9134 28.4538 37.0213 25.425 33.2221 21.9033L32.7656 22.2701C35.0179 23.9364 38.4587 27.9576 39.5558 31.9473Z" fill="white"/>
<path fill-rule="evenodd" clip-rule="evenodd" d="M38.2481 31.0215C37.7817 27.8665 35.9642 24.9821 32.16 21.4504L31.6538 21.7226C33.936 23.4453 37.3319 27.3786 38.2481 31.0215V31.0215Z" fill="white"/>
<path fill-rule="evenodd" clip-rule="evenodd" d="M36.8968 29.4177C36.2213 26.6328 34.4072 23.9874 30.9996 20.8225L30.4934 21.0947C32.5333 22.6348 35.6238 26.1101 36.8968 29.4177Z" fill="white"/>
<path fill-rule="evenodd" clip-rule="evenodd" d="M35.941 29.2143C35.4315 26.4693 33.6887 23.8421 30.2745 20.6772L29.7102 20.9345C31.7799 22.4813 34.829 25.9482 35.941 29.2143V29.2143Z" fill="white"/>
<path fill-rule="evenodd" clip-rule="evenodd" d="M30.2476 21.1943C33.5953 20.9868 38.2427 21.4598 41.471 22.517C38.1265 21.8664 34.9879 21.6158 32.0019 21.9942C31.8907 22.0008 31.1239 21.805 31.021 21.8083L30.2476 21.1926V21.1943Z" fill="white"/>
<path fill-rule="evenodd" clip-rule="evenodd" d="M31.5125 21.9039C34.8602 21.6965 39.891 22.342 43.1193 23.4009C39.7748 22.7503 36.2528 22.3254 33.2668 22.7038C33.1556 22.7105 32.3888 22.5146 32.2859 22.518L31.5125 21.9022V21.9039Z" fill="white"/>
<path fill-rule="evenodd" clip-rule="evenodd" d="M32.6462 22.5492C35.994 22.3418 40.9269 22.9227 44.7809 24.6254C41.0713 23.3807 36.6646 22.9442 34.5699 23.4355C34.4587 23.4421 33.6919 23.2463 33.589 23.2496L32.6479 22.5492H32.6462Z" fill="white"/>
<path fill-rule="evenodd" clip-rule="evenodd" d="M34.5696 23.1347C37.758 23.0949 42.5 23.8766 46.261 25.6756C42.6593 24.3197 38.4269 23.6973 36.4484 24.0658C36.3422 24.0658 35.6003 23.8434 35.5024 23.8434L34.5696 23.1331V23.1347Z" fill="white"/>
<path fill-rule="evenodd" clip-rule="evenodd" d="M35.9008 23.4697C39.0843 23.6639 43.7549 24.7941 47.3732 26.8653C43.881 25.2472 39.7067 24.3161 37.705 24.5369C37.5988 24.5302 36.8751 24.2531 36.7772 24.2464L35.8992 23.4697H35.9008Z" fill="white"/>
<path fill-rule="evenodd" clip-rule="evenodd" d="M37.2771 23.8784C40.4357 24.3249 45 25.8202 48.4441 28.1735C45.0913 26.2832 41.005 25.0236 38.9916 25.0866C38.8871 25.0717 38.1867 24.7381 38.0904 24.7232L37.2771 23.8801V23.8784Z" fill="white"/>
<path fill-rule="evenodd" clip-rule="evenodd" d="M39.4692 24.5378C42.5581 25.3344 46.9266 27.3326 50.0852 30.0544C46.9648 27.8006 43.0444 26.0912 41.0377 25.9286C40.9348 25.902 40.2775 25.4921 40.1829 25.4655L39.4692 24.5361V24.5378Z" fill="white"/>
<path fill-rule="evenodd" clip-rule="evenodd" d="M43.9124 26.3777C46.7506 27.8332 50.5963 30.4238 52.178 33.6269C50.2361 30.545 47.2369 28.6746 45.1223 27.5527C45.0277 27.5029 44.5032 27.3635 44.4169 27.317L43.914 26.3793L43.9124 26.3777Z" fill="white"/>
<path fill-rule="evenodd" clip-rule="evenodd" d="M24.0388 53.5639C24.0388 53.5639 34.4821 47.7951 33.7303 37.2831C32.9767 26.771 31.5941 28.8937 31.5941 28.8937L32.9402 39.419C33.2091 44.7845 27.9625 50.5882 24.0388 53.5656V53.5639Z" fill="white"/>
<path fill-rule="evenodd" clip-rule="evenodd" d="M24.449 51.9785C24.449 51.9785 32.2184 47.1192 33.513 38.7099L32.8358 38.6086C32.4325 43.6589 28.1121 49.1987 24.449 51.9785Z" fill="white"/>
<path fill-rule="evenodd" clip-rule="evenodd" d="M24.8552 50.4284C28.7823 47.4709 32.5665 42.0523 33.3251 37.1315L32.6479 37.0303C32.2678 41.795 28.2727 47.212 24.8552 50.4284Z" fill="white"/>
<path fill-rule="evenodd" clip-rule="evenodd" d="M24.9827 49.0707C28.9097 46.1133 32.3886 40.0473 33.1471 35.1249L32.4699 35.0237C32.0898 39.7884 28.4001 45.8544 24.9827 49.069V49.0707Z" fill="white"/>
<path fill-rule="evenodd" clip-rule="evenodd" d="M25.0129 47.7636C28.8503 44.7929 32.1649 38.7021 32.7956 33.7614L32.1184 33.6602C31.8595 38.4432 28.3375 44.534 25.0129 47.7636V47.7636Z" fill="white"/>
<path fill-rule="evenodd" clip-rule="evenodd" d="M25.1938 45.9921C28.9383 43.0081 32.0786 36.8907 32.5782 31.9301L31.901 31.8289C31.7682 36.6301 28.4205 42.7458 25.1938 45.9904V45.9921Z" fill="white"/>
<path fill-rule="evenodd" clip-rule="evenodd" d="M25.242 39.1832C27.7881 37.112 29.8678 32.9597 30.6911 28.8123C30.2579 33.358 27.7217 38.3584 25.1873 40.9856C27.9939 38.7833 30.316 34.1961 31.106 29.7881C30.7027 34.4201 27.9408 39.6363 25.2387 42.3299C28.0836 40.1724 30.5052 35.698 31.4247 31.3648C31.1708 36.0748 28.0072 40.9192 25.2072 43.7124C28.5798 41.1532 31.6753 36.0432 32.0587 31.0677L31.7732 28.9799L31.3716 27.5311L30.9201 27.395C30.9965 26.7958 31.0446 26.2017 31.0612 25.6192L30.4421 25.4316C30.6164 30.3607 27.9607 36.2441 25.2387 39.1866L25.242 39.1832Z" fill="white"/>
<path fill-rule="evenodd" clip-rule="evenodd" d="M25.5107 36.9919C28.4187 34.2336 29.9921 30.848 30.6843 25.7248L30.0071 25.6235C30.0021 28.3868 28.5747 33.5715 25.5107 36.9903V36.9919Z" fill="white"/>
<path fill-rule="evenodd" clip-rule="evenodd" d="M25.4826 34.9526C28.2511 32.4599 29.7648 29.1871 30.4619 24.0539L29.8229 23.8796C29.7947 26.6861 28.4022 31.8027 25.481 34.951L25.4826 34.9526Z" fill="white"/>
<path fill-rule="evenodd" clip-rule="evenodd" d="M25.4607 33.3459C28.0367 31.1884 29.4674 28.06 30.1711 22.9169L29.5869 22.6497C29.5271 25.5125 28.1844 30.5411 25.4607 33.3459V33.3459Z" fill="white"/>
<path fill-rule="evenodd" clip-rule="evenodd" d="M26.0298 31.3251C28.1294 29.2008 29.3427 26.2102 29.9734 21.6014L29.3892 21.3342C29.3361 23.8934 28.2091 28.4108 26.0298 31.3251V31.3251Z" fill="white"/>
<path fill-rule="evenodd" clip-rule="evenodd" d="M25.5808 30.4151C27.7518 28.4518 28.9983 25.5308 29.6257 20.9154L29.0149 20.5918C28.9751 23.1808 27.8298 27.6585 25.5808 30.4151V30.4151Z" fill="white"/>
<path fill-rule="evenodd" clip-rule="evenodd" d="M29.1355 21.1846C31.5488 23.8499 34.2028 27.9774 35.3813 31.2551C33.7547 28.1102 31.8991 25.3618 29.5687 23.0931C29.4891 23.0035 29.1588 22.2567 29.0874 22.1737L29.1372 21.1846H29.1355Z" fill="white"/>
<path fill-rule="evenodd" clip-rule="evenodd" d="M29.3247 22.634C31.7381 25.2993 34.4883 29.8417 35.6651 33.1195C34.0385 29.9745 32.0883 26.8096 29.7579 24.5409C29.6783 24.4513 29.348 23.7044 29.2766 23.6215L29.3264 22.6323L29.3247 22.634Z" fill="white"/>
<path fill-rule="evenodd" clip-rule="evenodd" d="M29.4893 23.9375C31.9026 26.6028 34.6479 31.0273 35.6504 35.1847C34.3242 31.4041 31.7981 27.4973 29.9557 26.0302C29.876 25.9406 29.5457 25.1938 29.4744 25.1108L29.4893 23.9358V23.9375Z" fill="white"/>
<path fill-rule="evenodd" clip-rule="evenodd" d="M30.2313 25.8647C32.3873 28.4919 34.8206 32.8699 35.672 37.0057C34.5202 33.2517 32.2778 29.3864 30.6263 27.9475C30.5549 27.8596 30.2645 27.1177 30.2014 27.0364L30.2313 25.863V25.8647Z" fill="white"/>
<path fill-rule="evenodd" clip-rule="evenodd" d="M30.8087 27.1594C32.7457 29.9143 34.8138 34.4285 35.3233 38.5975C34.4835 34.787 32.5631 30.7973 31.0311 29.2571C30.968 29.1642 30.739 28.4091 30.6809 28.3228L30.8087 27.1577V27.1594Z" fill="white"/>
<path fill-rule="evenodd" clip-rule="evenodd" d="M31.3478 28.5315C33.0375 31.406 34.7006 36.0396 34.8367 40.2202C34.3388 36.3732 32.7753 32.2706 31.381 30.6326C31.3263 30.5363 31.1653 29.7679 31.1155 29.68L31.3478 28.5315V28.5315Z" fill="white"/>
<path fill-rule="evenodd" clip-rule="evenodd" d="M32.2008 30.7244C33.5236 33.7382 34.5975 38.4897 34.2058 42.6421C34.1942 38.7851 33.1535 34.568 31.9701 32.8088C31.9269 32.7076 31.8639 31.9326 31.8257 31.8396L32.2008 30.726V30.7244Z" fill="white"/>
<path fill-rule="evenodd" clip-rule="evenodd" d="M33.4713 35.4482C34.024 38.6231 34.2116 43.2733 32.3311 46.3835C33.8597 43.0393 33.5792 39.4977 33.2008 37.1112C33.1825 37.005 32.9618 36.4905 32.9468 36.3926L33.4713 35.4482Z" fill="white"/>
<path fill-rule="evenodd" clip-rule="evenodd" d="M54.5465 24.5641C54.5465 24.5641 49.9772 17.899 42.3372 18.5347C34.6989 19.1703 36.294 20.0333 36.294 20.0333L43.9223 19.0143C47.8261 18.7654 52.2394 22.0713 54.5465 24.5641Z" fill="white"/>
<path fill-rule="evenodd" clip-rule="evenodd" d="M53.3764 24.3217C53.3764 24.3217 49.5622 19.371 43.3862 18.6541L43.3364 19.0922C47.0344 19.2814 51.222 21.9932 53.3764 24.3217Z" fill="white"/>
<path fill-rule="evenodd" clip-rule="evenodd" d="M52.2314 24.0807C49.9376 21.5863 45.8562 19.218 42.2412 18.7981L42.1914 19.2362C45.6786 19.4138 49.7683 21.9182 52.2314 24.0807Z" fill="white"/>
<path fill-rule="evenodd" clip-rule="evenodd" d="M51.2374 24.0182C48.9436 21.5238 44.3992 19.3613 40.7842 18.9414L40.7344 19.3795C44.2216 19.5571 48.7727 21.8557 51.2374 24.0165V24.0182Z" fill="white"/>
<path fill-rule="evenodd" clip-rule="evenodd" d="M50.2832 24.0158C47.9828 21.5795 43.4267 19.5248 39.8017 19.1863L39.752 19.6244C43.2491 19.724 47.8118 21.913 50.2832 24.0141V24.0158Z" fill="white"/>
<path fill-rule="evenodd" clip-rule="evenodd" d="M48.985 23.9251C46.6779 21.5485 42.1102 19.6068 38.4753 19.3545L38.4255 19.7926C41.931 19.8092 46.507 21.8871 48.985 23.9251Z" fill="white"/>
<path fill-rule="evenodd" clip-rule="evenodd" d="M44.0186 23.9896C42.4202 22.3748 39.3197 21.0903 36.2657 20.6173C39.5953 20.833 43.3298 22.4014 45.3331 23.9996C43.6285 22.2172 40.2044 20.7816 36.9612 20.3335C40.3538 20.5277 44.2526 22.2387 46.3107 23.9465C44.6377 22.1392 41.2915 20.6389 38.0998 20.1061C41.5438 20.204 45.1854 22.1773 47.3199 23.9481C45.3364 21.8056 41.5023 19.8788 37.8608 19.7012L36.3487 19.9153L35.3064 20.1957L35.2217 20.4895C34.7819 20.448 34.347 20.4264 33.9221 20.4231L33.8076 20.8264C37.3961 20.6438 41.7779 22.2769 44.0186 23.9929V23.9896Z" fill="white"/>
<path fill-rule="evenodd" clip-rule="evenodd" d="M42.4103 23.847C40.2974 22.0065 37.7745 21.0389 34.0151 20.6638L33.9653 21.102C35.9803 21.0671 39.8094 21.9152 42.4103 23.847V23.847Z" fill="white"/>
<path fill-rule="evenodd" clip-rule="evenodd" d="M40.9249 23.8945C39.0112 22.1403 36.5713 21.2093 32.8052 20.8325L32.7007 21.2474C34.7488 21.2258 38.5265 22.0523 40.9249 23.8945V23.8945Z" fill="white"/>
<path fill-rule="evenodd" clip-rule="evenodd" d="M39.7547 23.9319C38.0916 22.2989 35.7613 21.4176 31.9853 21.0359L31.811 21.4176C33.9007 21.4176 37.6136 22.2109 39.7547 23.9319V23.9319Z" fill="white"/>
<path fill-rule="evenodd" clip-rule="evenodd" d="M38.2596 23.5929C36.638 22.2668 34.4139 21.525 31.0329 21.1831L30.8586 21.5648C32.7259 21.5648 36.0604 22.227 38.2612 23.5929H38.2596Z" fill="white"/>
<path fill-rule="evenodd" clip-rule="evenodd" d="M37.6142 23.8946C36.1071 22.5204 33.9328 21.7553 30.5468 21.4167L30.3311 21.8151C32.2199 21.8051 35.5245 22.4806 37.6142 23.8946Z" fill="white"/>
<path fill-rule="evenodd" clip-rule="evenodd" d="M30.7593 21.7291C32.6199 20.1325 35.5361 18.36 37.8847 17.5535C35.6473 18.6488 33.7087 19.8852 32.1352 21.4237C32.0722 21.4768 31.5394 21.7009 31.4813 21.7473L30.7593 21.7291V21.7291Z" fill="white"/>
<path fill-rule="evenodd" clip-rule="evenodd" d="M31.8076 21.5859C33.6682 19.9894 36.8849 18.1489 39.2335 17.3423C36.9961 18.4376 34.757 19.7421 33.1836 21.2789C33.1205 21.332 32.5877 21.5561 32.5296 21.6025L31.8076 21.5843V21.5859Z" fill="white"/>
<path fill-rule="evenodd" clip-rule="evenodd" d="M32.7542 21.4616C34.6148 19.865 37.7451 18.0295 40.7427 17.3225C38.0322 18.232 35.2704 19.9198 34.2662 21.1297C34.2031 21.1828 33.6703 21.4068 33.6123 21.4533L32.7558 21.4599L32.7542 21.4616Z" fill="white"/>
<path fill-rule="evenodd" clip-rule="evenodd" d="M34.1328 20.9559C35.9735 19.527 39.0823 17.8923 42.0682 17.2832C39.3711 18.0798 36.6308 19.5834 35.6382 20.6705C35.5768 20.717 35.0457 20.9161 34.9893 20.9576L34.1328 20.9543V20.9559Z" fill="white"/>
<path fill-rule="evenodd" clip-rule="evenodd" d="M35.0557 20.5637C36.9976 19.2742 40.2176 17.8735 43.24 17.4851C40.4914 18.0809 37.6482 19.3787 36.5793 20.3894C36.5146 20.4326 35.9702 20.5903 35.9104 20.6284L35.0573 20.562L35.0557 20.5637Z" fill="white"/>
<path fill-rule="evenodd" clip-rule="evenodd" d="M36.0388 20.1961C38.077 19.0642 41.3966 17.9241 44.4406 17.7764C41.6538 18.1531 38.716 19.2202 37.5691 20.143C37.5011 20.1795 36.9467 20.294 36.8836 20.3289L36.0388 20.1961V20.1961Z" fill="white"/>
<path fill-rule="evenodd" clip-rule="evenodd" d="M37.6086 19.6146C39.7597 18.7185 43.1872 17.9567 46.2295 18.1509C43.4179 18.2139 40.3788 18.9442 39.1373 19.7341C39.0659 19.764 38.5016 19.8155 38.4352 19.842L37.6103 19.6146H37.6086Z" fill="white"/>
<path fill-rule="evenodd" clip-rule="evenodd" d="M41.0078 18.7267C43.3033 18.3251 46.6876 18.1392 49.0212 19.3093C46.5299 18.3683 43.9572 18.6006 42.2294 18.8778C42.1531 18.8911 41.7846 19.0404 41.7149 19.052L41.0078 18.7267V18.7267Z" fill="white"/>
<path fill-rule="evenodd" clip-rule="evenodd" d="M42.1281 55.4624C42.1281 55.4624 47.3 45.3918 41.2319 35.0823C35.1637 24.7727 35.1853 27.4779 35.1853 27.4779L41.7248 37.5601C44.7323 42.8692 43.6485 50.8636 42.1265 55.4641L42.1281 55.4624Z" fill="white"/>
<path fill-rule="evenodd" clip-rule="evenodd" d="M41.6239 53.6962C41.6239 53.6962 45.1758 45.6304 41.8065 36.6121L41.2239 36.7863C43.5409 42.0506 43.043 49.4011 41.6239 53.6962Z" fill="white"/>
<path fill-rule="evenodd" clip-rule="evenodd" d="M41.1341 51.964C42.6677 47.3818 42.8088 40.3715 40.837 35.0923L40.2544 35.2665C42.4403 40.2321 42.1349 47.327 41.1341 51.964V51.964Z" fill="white"/>
<path fill-rule="evenodd" clip-rule="evenodd" d="M40.5261 50.5412C42.0598 45.959 41.6232 38.4177 39.6514 33.1401L39.0688 33.3144C41.2548 38.28 41.527 45.9059 40.5261 50.5429V50.5412Z" fill="white"/>
<path fill-rule="evenodd" clip-rule="evenodd" d="M39.867 49.2097C41.3243 44.6507 40.745 37.1526 38.6636 31.9065L38.0811 32.0808C40.3715 37.0165 40.7865 44.5976 39.867 49.2113V49.2097Z" fill="white"/>
<path fill-rule="evenodd" clip-rule="evenodd" d="M39.0876 47.3462C40.4635 42.8105 39.7365 35.3572 37.5423 30.1443L36.9597 30.3185C39.3581 35.2211 39.9241 42.7591 39.0876 47.3462Z" fill="white"/>
<path fill-rule="evenodd" clip-rule="evenodd" d="M35.5755 40.4511C36.49 37.3243 35.9556 32.2874 34.4369 27.7633C36.4668 32.5297 37.0859 38.6105 36.4701 42.2932C37.5191 38.9275 36.9481 33.3529 35.2701 28.5781C37.3697 33.4209 37.924 39.8104 37.212 43.6276C38.3158 40.2917 37.8792 34.7901 36.3423 30.0403C38.5979 34.9013 38.646 41.0784 37.9091 45.0366C39.217 41.0817 38.9763 34.6623 36.6842 29.4826L35.373 27.4911L34.3024 26.1899L33.8775 26.2348C33.6252 25.5991 33.353 24.9801 33.0626 24.3843L32.48 24.4457C35.1854 29.3532 36.1713 36.375 35.5738 40.4511H35.5755Z" fill="white"/>
<path fill-rule="evenodd" clip-rule="evenodd" d="M34.6461 38.1273C35.4859 34.1592 34.9548 30.1014 32.827 24.6462L32.2444 24.8205C33.6801 27.6136 35.2635 33.4289 34.6461 38.1273Z" fill="white"/>
<path fill-rule="evenodd" clip-rule="evenodd" d="M33.5603 36.0827C34.4301 32.4398 33.9089 28.5198 31.7811 23.053L31.1902 23.136C32.6309 25.9822 34.2077 31.7145 33.5603 36.0827V36.0827Z" fill="white"/>
<path fill-rule="evenodd" clip-rule="evenodd" d="M32.7059 34.4662C33.5989 31.2415 33.0893 27.4991 30.9598 22.019L30.3623 21.9858C31.8063 24.9018 33.3765 30.5246 32.7059 34.4645V34.4662Z" fill="white"/>
<path fill-rule="evenodd" clip-rule="evenodd" d="M32.097 32.1935C32.6331 29.1962 32.0256 25.6811 30.1185 20.772L29.521 20.7388C30.8123 23.3444 32.2845 28.3647 32.097 32.1935V32.1935Z" fill="white"/>
<path fill-rule="evenodd" clip-rule="evenodd" d="M31.2717 31.4576C31.9489 28.5931 31.4028 25.1361 29.4891 20.2203L28.8418 20.1406C30.1597 22.7711 31.597 27.7583 31.2717 31.4576V31.4576Z" fill="white"/>
<path fill-rule="evenodd" clip-rule="evenodd" d="M29.2454 20.6917C32.5251 22.4027 36.7542 25.4913 39.3849 28.3242C36.472 25.8083 33.5873 23.7885 30.5798 22.4442C30.4703 22.3861 29.823 21.7654 29.7234 21.7123L29.247 20.6933L29.2454 20.6917Z" fill="white"/>
<path fill-rule="evenodd" clip-rule="evenodd" d="M30.1504 22.0779C33.4301 23.7889 37.9513 27.2592 40.5804 30.0905C37.6675 27.5745 34.4907 25.1731 31.4832 23.8288C31.3736 23.7707 30.7263 23.15 30.6267 23.0969L30.1504 22.0779V22.0779Z" fill="white"/>
<path fill-rule="evenodd" clip-rule="evenodd" d="M30.9563 23.3269C34.236 25.038 38.6925 28.3904 41.6436 32.1826C38.6361 28.9032 34.6194 25.984 32.4136 25.2521C32.304 25.194 31.6567 24.5733 31.5571 24.5202L30.9563 23.3269V23.3269Z" fill="white"/>
<path fill-rule="evenodd" clip-rule="evenodd" d="M32.5408 24.9736C35.5981 26.7511 39.7857 30.1848 42.609 34.0136C39.7508 30.691 35.9798 27.6987 33.9366 26.917C33.8354 26.8573 33.2213 26.2266 33.1283 26.1702L32.5408 24.9736V24.9736Z" fill="white"/>
<path fill-rule="evenodd" clip-rule="evenodd" d="M33.6685 26.0459C36.6212 28.0408 40.5947 31.7583 43.1657 35.763C40.5217 32.2562 36.9382 29.0067 34.9365 28.0756C34.8386 28.0076 34.266 27.3371 34.1763 27.274L33.6685 26.0459Z" fill="white"/>
<path fill-rule="evenodd" clip-rule="evenodd" d="M34.8066 27.2124C37.6283 29.4297 41.3462 33.4327 43.6317 37.6C41.2366 33.9173 37.8739 30.4088 35.9286 29.3218C35.8357 29.2471 35.3096 28.5368 35.2232 28.4671L34.8066 27.2124Z" fill="white"/>
<path fill-rule="evenodd" clip-rule="evenodd" d="M36.6182 29.0793C39.224 31.5854 42.5436 35.9469 44.3992 40.3C42.3792 36.4099 39.3668 32.5745 37.5227 31.2783C37.4364 31.1937 36.9817 30.4353 36.9036 30.3573L36.6182 29.0793V29.0793Z" fill="white"/>
<path fill-rule="evenodd" clip-rule="evenodd" d="M40.0754 33.335C42.1634 36.3173 44.7328 40.9377 44.8822 44.8411C44.3377 40.8431 42.2713 37.3811 40.7311 35.124C40.6613 35.0245 40.2198 34.5946 40.1584 34.5017L40.0771 33.335H40.0754Z" fill="white"/>
<path d="M62.16 57.3759C62.6673 54.251 60.545 51.3065 57.4197 50.7992C54.2945 50.2919 51.3497 52.414 50.8424 55.539C50.3351 58.664 52.4574 61.6085 55.5826 62.1157C58.7079 62.623 61.6527 60.5009 62.16 57.3759Z" fill="#103155"/>
<g opacity="0.19">
<path d="M73.0746 44.0671L72.2464 44.7857C72.0787 44.5932 71.9061 44.4023 71.7319 44.2131C69.853 42.1933 67.604 40.5205 65.1176 39.2957C62.628 38.0609 59.9059 37.2975 57.0876 36.9672C59.9242 36.8411 62.8155 37.3904 65.4745 38.514C68.1335 39.6392 70.56 41.3436 72.5352 43.4663C72.7194 43.6638 72.8987 43.8646 73.0746 44.0687V44.0671Z" fill="white"/>
<path d="M75.7889 48.0893L75.0171 48.7581C74.3714 47.5848 73.6245 46.4695 72.7847 45.4289L73.6079 44.7136C74.4411 45.7658 75.1731 46.8977 75.7889 48.0876V48.0893Z" fill="white"/>
<path d="M77.9127 59.3378C77.7832 56.5049 77.2156 53.7333 76.1633 51.1642C75.9359 50.6066 75.6886 50.0589 75.4197 49.5228L76.1716 48.8706C76.4736 49.5212 76.7409 50.185 76.9716 50.8621C77.9027 53.5939 78.2446 56.5181 77.9127 59.3378V59.3378Z" fill="white"/>
<path d="M77.1266 41.915L76.1656 42.7481C75.7589 42.2403 75.3324 41.749 74.8892 41.2727C72.6253 38.8414 69.9149 36.825 66.9157 35.3512C63.9198 33.8675 60.6367 32.9531 57.2441 32.5631C60.66 32.4187 64.1372 33.0858 67.3339 34.4401C70.5323 35.796 73.4485 37.8456 75.8253 40.3998C76.2785 40.8877 76.7133 41.3922 77.1249 41.9134L77.1266 41.915Z" fill="white"/>
<path d="M78.7033 44.1452L77.7688 44.9551C77.4236 44.4273 77.0618 43.9128 76.6833 43.4116L77.6377 42.5835C78.0128 43.0913 78.368 43.6125 78.7033 44.1452Z" fill="white"/>
<path d="M82.3154 59.4953C82.1677 56.0831 81.4889 52.7439 80.2241 49.6487C79.6648 48.2696 78.9959 46.9386 78.2224 45.674L79.1452 44.874C79.9635 46.2797 80.6424 47.7634 81.1669 49.2969C82.2889 52.5813 82.7055 56.098 82.3154 59.4953Z" fill="white"/>
<path d="M79.1162 37.3403C79.2656 37.4996 79.4117 37.6606 79.5577 37.8249L79.0946 39.5227C78.7544 39.1194 78.4058 38.7244 78.0457 38.3377C75.3983 35.4914 72.2265 33.1348 68.7161 31.4137C65.209 29.6844 61.3699 28.6123 57.4014 28.1642C61.3948 28.0049 65.4596 28.7816 69.1924 30.3715C72.9286 31.9581 76.3361 34.3563 79.1146 37.3419L79.1162 37.3403Z" fill="white"/>
<path d="M81.6532 40.4698L81.2548 41.9303L81.054 42.1045C80.6391 41.4954 80.2025 40.9013 79.7461 40.3221L80.2175 38.5928C80.722 39.1985 81.2001 39.8259 81.6515 40.4698H81.6532Z" fill="white"/>
<path d="M86.7161 59.6538C86.5518 55.664 85.7568 51.759 84.2829 48.136C83.531 46.2756 82.6049 44.4915 81.5227 42.8119L81.8065 42.5663L81.9991 42.3987L82.0655 42.1514L82.2729 41.3896C83.5559 43.3712 84.5983 45.5072 85.3618 47.7327C86.6796 51.5714 87.1643 55.6806 86.7178 59.6521L86.7161 59.6538Z" fill="white"/>
<path d="M82.3444 34.2084L81.063 35.2473C78.0588 32.0558 74.4754 29.4071 70.5185 27.4686C68.5101 26.4812 66.4055 25.6796 64.2362 25.0622C62.0669 24.4365 59.8312 24.0266 57.5623 23.7611C62.1333 23.5851 66.7823 24.478 71.0562 26.297C75.3036 28.1026 79.1792 30.8227 82.346 34.2084H82.3444Z" fill="white"/>
<path d="M84.1142 36.2577L82.8411 37.2817C82.4511 36.8004 82.0478 36.3274 81.6328 35.8661L82.9108 34.8271C83.3258 35.2918 83.7258 35.7682 84.1142 36.2561V36.2577Z" fill="white"/>
<path d="M91.1177 59.8111C91.0148 57.5275 90.7658 55.2687 90.2961 53.0614C89.8347 50.8541 89.1857 48.6966 88.3442 46.6238C87.0861 43.5103 85.4048 40.5861 83.3616 37.9406L84.628 36.9216C86.7459 39.7247 88.4206 42.8598 89.5559 46.1707C91.0646 50.562 91.6239 55.2637 91.1177 59.8111Z" fill="white"/>
</g>
<path d="M89.9144 29.1443L88.0422 30.6645L82.9119 34.8285L81.6338 35.8674L80.7707 36.5678L80.2197 38.5925L79.7483 40.3218L79.594 40.8861L77.6387 42.5839L76.6844 43.412L75.4146 44.514C75.247 44.3746 75.0495 44.285 74.8437 44.2468C74.4918 44.1838 74.1167 44.2734 73.8262 44.5273L73.6105 44.7148L72.7872 45.4301L70.7424 47.2043L69.8511 46.177C69.7897 46.1073 69.71 46.0641 69.6253 46.0492C69.5125 46.0293 69.393 46.0575 69.3 46.1388L69.056 46.3496C68.8934 46.4906 68.8768 46.7379 69.0179 46.9006L69.9092 47.9279L69.5307 48.2565C69.0195 48.7012 68.9631 49.4746 69.4079 49.9874L70.4071 51.1392C70.598 51.3583 70.8486 51.4944 71.1142 51.5425C71.4677 51.6056 71.8461 51.5143 72.1382 51.262L75.0196 48.761L75.7914 48.0922L76.4354 47.5329C76.9068 47.1229 76.9864 46.4375 76.6495 45.9313L77.7715 44.9588L78.706 44.1489L81.0579 42.1076L81.2587 41.9333L81.6571 40.4728L82.4338 37.615L82.8438 37.2847L84.1168 36.2607L89.307 32.0868L91.1775 30.5815C90.7676 30.0936 90.3476 29.6156 89.9178 29.1476L89.9144 29.1443Z" fill="white"/>
<path d="M38.7808 125.258C36.8986 125.258 35.2869 124.727 33.9475 123.665C32.608 122.603 31.9375 121.325 31.9375 119.828C31.9375 118.983 32.1782 118.283 32.6612 117.728C33.1442 117.174 33.8197 116.895 34.6894 116.895C35.4131 116.895 36.0405 117.138 36.5716 117.619C36.4023 118.054 36.3176 118.523 36.3176 119.031C36.3176 119.997 36.5899 120.751 37.1326 121.293C37.6753 121.836 38.3575 122.108 39.1791 122.108C40.2414 122.108 41.1343 121.71 41.858 120.913C42.5816 120.117 42.9435 119.091 42.9435 117.836C42.9435 116.991 42.7858 116.128 42.4721 115.247C42.1584 114.366 41.7717 113.534 41.3136 112.749C40.8555 111.966 40.3957 111.175 39.9376 110.378C39.4795 109.581 39.0928 108.707 38.7791 107.752C38.4654 106.8 38.3077 105.852 38.3077 104.911C38.3077 102.908 39.0015 101.159 40.3891 99.6617C41.7767 98.1648 43.4364 97.4163 45.3667 97.4163C46.912 97.4163 48.1187 97.8743 48.9867 98.7921C49.8564 99.7099 50.2896 100.843 50.2896 102.196C50.2896 103.451 49.9461 104.592 49.2573 105.616C48.5701 106.642 47.7552 107.155 46.8141 107.155C46.4041 107.155 46.0058 106.999 45.619 106.684C45.2323 106.37 44.9186 105.948 44.6779 105.417C45.3053 104.982 45.8 104.428 46.1618 103.753C46.5236 103.077 46.7045 102.413 46.7045 101.761C46.7045 101.207 46.5784 100.784 46.3244 100.495C46.0705 100.206 45.7385 100.06 45.3286 100.06C44.5551 100.06 43.8315 100.506 43.1559 101.399C42.4804 102.292 42.1418 103.354 42.1418 104.586C42.1418 105.431 42.3227 106.282 42.6846 107.138C43.0464 107.995 43.4812 108.798 43.9875 109.546C44.4937 110.295 45.0016 111.062 45.5078 111.845C46.0141 112.63 46.4423 113.51 46.7925 114.487C47.1427 115.465 47.317 116.46 47.317 117.474C47.317 119.02 46.8755 120.402 45.9958 121.62C45.1145 122.84 44.034 123.751 42.7559 124.354C41.4762 124.956 40.1484 125.258 38.7725 125.258H38.7808Z" fill="#103155"/>
<path d="M66.5501 111.971C66.8406 111.923 67.1659 111.996 67.5277 112.189C67.8896 112.383 68.0954 112.599 68.1435 112.841L67.9626 113.203C65.9111 117.234 63.0629 119.986 59.4181 121.458C58.5251 122.543 57.4927 123.408 56.3226 124.047C55.1508 124.687 53.974 125.006 52.7922 125.006C51.1026 125.006 49.7515 124.415 48.7374 123.232C47.7233 122.05 47.217 120.493 47.217 118.562C47.217 116.63 47.6635 114.864 48.5565 113.113C49.4494 111.364 50.6627 109.927 52.1947 108.805C53.7267 107.683 55.3499 107.122 57.0645 107.122C58.0056 107.122 58.8687 107.291 59.6537 107.628C60.4372 107.967 61.0529 108.431 61.5011 109.022C61.9476 109.615 62.1716 110.259 62.1716 110.959C62.1716 111.78 61.8579 112.431 61.2305 112.914C61.5691 113.518 61.7368 114.242 61.7368 115.086C61.7368 116.197 61.5426 117.307 61.1575 118.417C63.1857 117.163 64.9352 115.1 66.4074 112.227L66.5518 111.973L66.5501 111.971ZM53.2619 121.131C53.8163 121.131 54.384 120.762 54.9632 120.027C55.5425 119.292 56.0188 118.404 56.3939 117.367C56.7674 116.329 56.9549 115.375 56.9549 114.507C56.9549 113.735 56.7973 113.095 56.4836 112.589C57.0628 112.106 57.6537 111.792 58.2579 111.648C57.9193 111.141 57.4728 110.888 56.9184 110.888C56.0736 110.888 55.2587 111.346 54.4752 112.263C53.6902 113.181 53.081 114.262 52.6462 115.503C52.2113 116.746 51.9939 117.886 51.9939 118.923C51.9939 119.624 52.1084 120.166 52.3374 120.553C52.5665 120.94 52.8736 121.132 53.2603 121.132L53.2619 121.131Z" fill="#103155"/>
<path d="M68.2884 124.789C67.2743 124.91 66.4062 124.928 65.6809 124.844C64.9573 124.759 64.3963 124.512 63.9979 124.102C63.5996 123.692 63.4004 123.101 63.4004 122.328C63.4004 121.675 63.5514 120.819 63.8535 119.757C64.1556 118.695 64.6618 117.145 65.3739 115.105C66.0859 113.065 66.6585 111.309 67.0934 109.837C68.5905 105.325 69.5432 101.353 69.9532 97.9262C73.452 97.903 75.2031 98.7594 75.2031 100.497C75.2031 101.124 74.9259 102.289 74.3699 103.99C73.8138 105.692 73.0603 107.852 72.1076 110.471C71.1532 113.09 70.4843 114.956 70.0976 116.064C69.2279 118.768 68.6254 121.675 68.2868 124.789H68.2884ZM75.6379 124.897C74.7682 124.897 73.9665 124.558 73.2296 123.883C72.4926 123.207 71.8586 122.23 71.3291 120.95C70.798 119.671 70.3997 118.15 70.1341 116.388C73.9483 113.371 76.35 110.003 77.3392 106.287C80.1874 106.626 81.6115 107.471 81.6115 108.822C81.6115 109.739 80.9061 111.072 79.4936 112.823C78.0811 114.574 76.579 115.931 74.9856 116.896C75.6612 119.357 76.5176 120.588 77.5566 120.588C78.1591 120.588 78.8894 120.13 79.7475 119.213C80.604 118.295 81.389 117.257 82.1011 116.099C82.8131 114.941 83.5318 113.649 84.2555 112.226L84.3999 111.972C84.6903 111.923 85.0157 111.996 85.3775 112.189C85.7393 112.383 85.9451 112.599 85.9933 112.841L85.8124 113.203C85.7642 113.276 85.7161 113.372 85.668 113.492C85.2331 114.337 84.8895 115 84.6356 115.483C84.3816 115.966 83.9966 116.66 83.477 117.565C82.9575 118.469 82.5044 119.206 82.1193 119.773C81.7326 120.341 81.2563 120.98 80.6886 121.692C80.121 122.404 79.5849 122.972 79.077 123.393C78.5707 123.816 78.0147 124.171 77.4122 124.462C76.8081 124.752 76.2172 124.897 75.6379 124.897V124.897Z" fill="#103155"/>
<path d="M101.671 111.971C101.962 111.923 102.287 111.996 102.649 112.189C103.011 112.383 103.216 112.599 103.265 112.841L103.084 113.203C101.032 117.234 98.184 119.986 94.5392 121.458C93.6462 122.543 92.6138 123.408 91.4437 124.047C90.2719 124.687 89.0951 125.006 87.9133 125.006C86.2237 125.006 84.8726 124.415 83.8585 123.232C82.8444 122.05 82.3381 120.493 82.3381 118.562C82.3381 116.63 82.7846 114.864 83.6776 113.113C84.5705 111.364 85.7838 109.927 87.3158 108.805C88.8478 107.683 90.471 107.122 92.1856 107.122C93.1267 107.122 93.9898 107.291 94.7748 107.628C95.5583 107.967 96.174 108.431 96.6222 109.022C97.0687 109.615 97.2927 110.259 97.2927 110.959C97.2927 111.78 96.979 112.431 96.3516 112.914C96.6902 113.518 96.8579 114.242 96.8579 115.086C96.8579 116.197 96.6637 117.307 96.2786 118.417C98.3068 117.163 100.056 115.1 101.528 112.227L101.673 111.973L101.671 111.971ZM88.383 121.131C88.9374 121.131 89.5051 120.762 90.0843 120.027C90.6636 119.292 91.1399 118.404 91.515 117.367C91.8885 116.329 92.076 115.375 92.076 114.507C92.076 113.735 91.9184 113.095 91.6047 112.589C92.1839 112.106 92.7748 111.792 93.379 111.648C93.0404 111.141 92.5939 110.888 92.0395 110.888C91.1947 110.888 90.3798 111.346 89.5963 112.263C88.8113 113.181 88.2021 114.262 87.7673 115.503C87.3324 116.746 87.115 117.886 87.115 118.923C87.115 119.624 87.2295 120.166 87.4585 120.553C87.6876 120.94 87.9947 121.132 88.3814 121.132L88.383 121.131Z" fill="#103155"/>
<path d="M12.647 95.2846C10.5956 95.2846 8.92582 94.5892 7.63452 93.2001C6.34487 91.811 5.69922 89.8808 5.69922 87.4113C5.69922 86.067 5.89839 84.6879 6.29508 83.2756C6.69177 81.8649 7.22621 80.5256 7.90008 79.256C8.57229 77.988 9.37728 76.7864 10.3151 75.6496C11.2528 74.5144 12.2454 73.5319 13.2927 72.7054C14.34 71.8789 15.4537 71.2284 16.6338 70.7537C17.8139 70.2791 18.9658 70.0417 20.0911 70.0417C21.0389 70.0417 21.8721 70.2293 22.5891 70.6044C23.3061 70.9794 23.8572 71.5089 24.2439 72.1926C24.629 72.8764 24.8232 73.6697 24.8232 74.5742C24.8232 76.1624 24.3651 77.6793 23.4505 79.1232C22.5343 80.5671 21.4937 81.2906 20.3235 81.2906C19.9932 81.2906 19.6779 81.2143 19.3808 81.0583C19.0837 80.904 18.8181 80.6832 18.5874 80.3961C18.355 80.109 18.1741 79.7572 18.0413 79.3373C18.8795 78.7415 19.5849 77.998 20.1592 77.1051C20.7318 76.2122 21.019 75.4123 21.019 74.7069C21.019 73.9568 20.677 73.5817 19.9932 73.5817C19.1766 73.5817 18.2571 73.99 17.2313 74.8065C16.2056 75.623 15.2512 76.6537 14.3699 77.9C13.4869 79.1464 12.7483 80.6119 12.1541 82.2997C11.5582 83.9875 11.2611 85.614 11.2611 87.179C11.2611 88.744 11.5914 89.8692 12.2537 90.6194C12.9159 91.3695 13.7973 91.7446 14.901 91.7446C16.6869 91.7446 18.5957 90.9065 20.6239 89.2303C22.6522 87.5541 24.1974 85.7019 25.2564 83.6722L25.3891 83.4399C25.6531 83.3967 25.9452 83.4614 26.2655 83.639C26.5842 83.8166 26.7784 84.0141 26.8448 84.2348L26.6456 84.5651C25.1236 87.5872 23.0605 90.1281 20.4596 92.1894C17.8571 94.2523 15.2546 95.2829 12.652 95.2829L12.647 95.2846Z" fill="#103155"/>
<path d="M43.249 83.4422C43.5362 83.399 43.8382 83.4638 44.1586 83.6413C44.4773 83.8189 44.6715 84.0164 44.7378 84.2371L44.5387 84.5674C43.9428 85.7358 43.4183 86.7282 42.9669 87.5448C42.5137 88.3613 41.9411 89.2923 41.2473 90.3396C40.5519 91.3868 39.8847 92.2315 39.2456 92.8705C38.605 93.5111 37.883 94.0621 37.078 94.5251C36.273 94.9882 35.4614 95.2205 34.6464 95.2205C33.7866 95.2205 33.0696 94.9284 32.4953 94.3442C31.921 93.76 31.6356 92.9053 31.6356 91.7801C31.6356 90.8756 31.8347 89.8168 32.2314 88.6036C32.6281 87.3904 33.0248 86.2934 33.4231 85.3126C33.8198 84.3317 34.019 83.6646 34.019 83.3111C34.019 82.8696 33.8099 82.6489 33.3899 82.6489C32.7725 82.6489 32.1053 83.0621 31.3883 83.8886C30.6712 84.7151 30.0538 85.6478 29.5359 86.6834C29.0181 87.7207 28.5816 88.7463 28.2297 89.7603C27.7666 91.2158 27.4131 93.068 27.1708 95.3184C26.4205 95.428 25.7035 95.4611 25.0197 95.418C24.3359 95.3732 23.7516 95.1591 23.267 94.7724C22.7823 94.3874 22.5383 93.8414 22.5383 93.1344C22.5383 92.7161 22.6877 91.9925 22.9848 90.9669C23.2819 89.9412 23.7616 88.3696 24.4238 86.2536C25.0861 84.1359 25.6371 82.3286 26.0786 80.8283C27.3135 76.4834 28.0853 73.0662 28.394 70.5735C28.9235 70.5735 29.4463 70.6117 29.9658 70.6897C30.4837 70.7677 31.0082 70.8822 31.5376 71.0365C32.0671 71.1909 32.492 71.4232 32.8107 71.7319C33.1294 72.0406 33.2904 72.4273 33.2904 72.8903C33.2904 73.0895 33.2455 73.3816 33.1576 73.7666C33.0696 74.1533 32.9202 74.6761 32.7111 75.3383C32.502 76.0004 32.2912 76.6394 32.082 77.2568C31.8729 77.8742 31.5808 78.7338 31.2057 79.8375C30.8306 80.9411 30.5003 81.9004 30.2131 82.7153C32.1103 80.4001 34.1169 79.2417 36.2348 79.2417C37.0946 79.2417 37.8 79.484 38.3527 79.9703C38.9037 80.4549 39.1793 81.1386 39.1793 82.0215C39.1793 82.9045 38.7543 84.4197 37.9062 86.5706C37.0564 88.7214 36.6332 90.1271 36.6332 90.7877C36.6332 91.3386 36.8373 91.6141 37.2456 91.6141C37.6539 91.6141 38.1054 91.3884 38.6016 90.9354C39.0979 90.4839 39.6274 89.8218 40.1901 88.9505C40.7527 88.0792 41.2424 87.2576 41.6623 86.4859C42.0805 85.7142 42.5768 84.7765 43.1511 83.6745L43.2507 83.4422H43.249Z" fill="#103155"/>
<path d="M59.8557 83.4423C60.1429 83.3991 60.4449 83.4638 60.7653 83.6414C61.0839 83.819 61.2665 84.0165 61.3113 84.2372L61.1454 84.5675C61.0574 84.7666 60.913 85.0637 60.7155 85.4604C60.3619 86.1441 60.0864 86.6735 59.8889 87.0486C59.6897 87.4237 59.3976 87.9647 59.0125 88.6701C58.6258 89.3754 58.2955 89.933 58.02 90.3413C57.7445 90.7496 57.4075 91.2408 57.0109 91.8134C56.6142 92.3876 56.2341 92.844 55.8689 93.1859C55.5054 93.5278 55.1137 93.8696 54.6938 94.2115C54.2739 94.5534 53.844 94.8024 53.4042 94.955C52.9627 95.1094 52.5212 95.1874 52.0813 95.1874C51.2879 95.1874 50.6091 94.9235 50.0464 94.3941C49.4838 93.8647 49.1584 93.1378 49.0705 92.21C47.57 94.1949 46.048 95.1874 44.5044 95.1874C43.4455 95.1874 42.6073 94.7194 41.9899 93.7817C41.3724 92.844 41.0637 91.6706 41.0637 90.2583C41.0637 88.7149 41.4106 87.0934 42.1061 85.3956C42.8015 83.6978 43.7658 82.2523 45.0007 81.0624C46.2356 79.8708 47.5368 79.2766 48.9045 79.2766C49.6979 79.2766 50.3817 79.5023 50.956 79.9554C51.5286 80.4068 51.9037 81.0093 52.0813 81.7577C52.8531 80.4135 53.7029 79.7396 54.6291 79.7396C55.688 79.7396 56.503 80.2027 57.0772 81.1287C54.7834 86.0694 53.6365 89.2559 53.6365 90.6882C53.6365 91.284 53.8125 91.581 54.166 91.581C54.4083 91.581 54.6739 91.4765 54.9594 91.2674C55.2465 91.0582 55.5436 90.7429 55.8523 90.3247C56.161 89.9065 56.4532 89.4982 56.7287 89.1016C57.0042 88.7049 57.3179 88.1971 57.6714 87.5797C58.0233 86.9623 58.2939 86.4777 58.4814 86.1242C58.669 85.7724 58.9163 85.2977 59.225 84.7019C59.5337 84.1061 59.7096 83.7642 59.7545 83.6763L59.854 83.4439L59.8557 83.4423ZM46.7219 91.5794C47.185 91.5794 47.6862 91.2109 48.2273 90.4707C48.7667 89.7322 49.2697 88.7896 49.7327 87.6428C50.3502 86.1209 50.6373 84.8646 50.5925 83.8721C50.5477 83.0788 50.2506 82.6805 49.6995 82.6805C49.1485 82.6805 48.5194 83.1269 47.8804 84.0198C47.2398 84.9127 46.7335 85.9433 46.3584 87.1133C45.9833 88.2817 45.8173 89.2742 45.8621 90.0907C45.9053 91.0831 46.1924 91.5794 46.7219 91.5794V91.5794Z" fill="#103155"/>
<path d="M86.918 83.4427C87.094 83.4211 87.2931 83.4477 87.5139 83.5257C87.7346 83.6037 87.9222 83.7082 88.0766 83.8393C88.2309 83.9721 88.3305 84.1032 88.3736 84.236L88.2077 84.5662C87.8774 85.2069 87.5902 85.7462 87.3479 86.1877C87.1056 86.6292 86.7852 87.1967 86.3886 87.8921C85.9919 88.5875 85.6217 89.1883 85.2798 89.6945C84.9379 90.2023 84.5412 90.7583 84.0881 91.3657C83.635 91.9731 83.1885 92.4859 82.7487 92.9042C82.3072 93.3241 81.8391 93.7141 81.3428 94.0792C80.8466 94.4426 80.3387 94.7198 79.8208 94.9057C79.303 95.0932 78.7785 95.1861 78.249 95.1861C77.3892 95.1861 76.6888 94.9223 76.1477 94.3929C75.6066 93.8634 75.3378 93.0818 75.3378 92.0445C75.3378 91.1848 75.5253 90.1376 75.9004 88.9012C76.2755 87.6664 76.6556 86.5312 77.0424 85.494C77.4274 84.4584 77.6216 83.7414 77.6216 83.3431C77.6216 82.8801 77.4224 82.6477 77.0258 82.6477C76.2755 82.6477 75.3826 83.4194 74.3452 84.9629C73.3079 86.5063 72.5029 88.0614 71.9302 89.6264V89.6596C71.4456 91.0056 71.0589 92.7366 70.7717 94.8526C67.8821 95.1828 66.438 94.3563 66.438 92.3714C66.438 91.4454 66.8231 89.8472 67.5966 87.5751C68.3684 85.3048 68.7551 83.914 68.7551 83.4078C68.7551 82.9016 68.5559 82.6477 68.1592 82.6477C67.409 82.6477 66.5111 83.3763 65.4638 84.8318C64.4164 86.2873 63.5616 87.8871 62.8994 89.6281V89.6613C62.3915 91.0504 61.94 92.9258 61.5434 95.2841C60.0429 95.4384 58.9242 95.3272 58.1856 94.9538C57.447 94.5787 57.0769 93.885 57.0769 92.8693C57.0769 92.4943 57.1383 92.0379 57.2595 91.4968C57.3806 90.9574 57.5068 90.4778 57.6396 90.0579C57.7723 89.6397 57.9748 89.0157 58.252 88.1892C58.5275 87.3627 58.7317 86.7287 58.8645 86.2873C59.7242 83.7514 60.2985 81.4578 60.584 79.4065C63.5401 79.3401 65.0272 80.0239 65.0505 81.4578C65.0505 81.8777 64.9061 82.5282 64.6206 83.4095C66.5177 80.6313 68.5028 79.2422 70.5759 79.2422C71.4572 79.2422 72.1527 79.5177 72.6605 80.0687C73.1684 80.6197 73.4207 81.403 73.4207 82.417C73.4207 82.9249 73.3543 83.4643 73.2215 84.0385C75.361 80.8404 77.5552 79.2422 79.8059 79.2422C80.6208 79.2422 81.2831 79.4745 81.791 79.9376C82.2989 80.4006 82.5511 81.0744 82.5511 81.9557C82.5511 82.9265 82.1428 84.4816 81.3279 86.6192C80.5113 88.7584 80.103 90.1476 80.103 90.7865C80.103 91.3159 80.3237 91.5798 80.7652 91.5798C82.0665 91.5798 84.0732 88.9443 86.7869 83.6734L86.9197 83.441L86.918 83.4427Z" fill="#103155"/>
<path d="M103.492 83.4423C103.779 83.3991 104.081 83.4638 104.402 83.6414C104.72 83.819 104.903 84.0165 104.948 84.2372L104.782 84.5675C104.694 84.7666 104.549 85.0637 104.352 85.4604C103.998 86.1441 103.723 86.6735 103.525 87.0486C103.326 87.4237 103.034 87.9647 102.649 88.6701C102.262 89.3754 101.932 89.933 101.656 90.3413C101.381 90.7496 101.044 91.2408 100.647 91.8134C100.251 92.3876 99.8706 92.844 99.5054 93.1859C99.1419 93.5278 98.7502 93.8696 98.3303 94.2115C97.9104 94.5534 97.4805 94.8024 97.0406 94.955C96.5991 95.1094 96.1576 95.1874 95.7178 95.1874C94.9244 95.1874 94.2456 94.9235 93.6829 94.3941C93.1202 93.8647 92.7949 93.1378 92.707 92.21C91.2065 94.1949 89.6845 95.1874 88.1409 95.1874C87.082 95.1874 86.2438 94.7194 85.6264 93.7817C85.0089 92.844 84.7002 91.6706 84.7002 90.2583C84.7002 88.7149 85.0471 87.0934 85.7425 85.3956C86.438 83.6978 87.4023 82.2523 88.6372 81.0624C89.8721 79.8708 91.1733 79.2766 92.541 79.2766C93.3344 79.2766 94.0182 79.5023 94.5925 79.9554C95.1651 80.4068 95.5402 81.0093 95.7178 81.7577C96.4896 80.4135 97.3394 79.7396 98.2655 79.7396C99.3245 79.7396 100.139 80.2027 100.714 81.1287C98.4199 86.0694 97.273 89.2559 97.273 90.6882C97.273 91.284 97.4489 91.581 97.8025 91.581C98.0448 91.581 98.3104 91.4765 98.5959 91.2674C98.883 91.0582 99.1801 90.7429 99.4888 90.3247C99.7975 89.9065 100.09 89.4982 100.365 89.1016C100.641 88.7049 100.954 88.1971 101.308 87.5797C101.66 86.9623 101.93 86.4777 102.118 86.1242C102.305 85.7724 102.553 85.2977 102.861 84.7019C103.17 84.1061 103.346 83.7642 103.391 83.6763L103.491 83.4439L103.492 83.4423ZM90.3584 91.5794C90.8215 91.5794 91.3227 91.2109 91.8638 90.4707C92.4032 89.7322 92.9061 88.7896 93.3692 87.6428C93.9866 86.1209 94.2738 84.8646 94.229 83.8721C94.1842 83.0788 93.8871 82.6805 93.336 82.6805C92.785 82.6805 92.1559 83.1269 91.5169 84.0198C90.8762 84.9127 90.37 85.9433 89.9949 87.1133C89.6198 88.2817 89.4538 89.2742 89.4986 90.0907C89.5418 91.0831 89.8289 91.5794 90.3584 91.5794V91.5794Z" fill="#103155"/>
<path d="M109.59 83.3001C109.404 82.3757 108.779 80.6513 106.695 79.4979C106.692 79.4979 106.691 79.4946 106.687 79.4929C106.095 79.166 105.476 78.9386 104.845 78.8108C104.812 78.7511 104.777 78.6913 104.74 78.6332C103.311 76.3247 100.951 75.002 98.2655 75.002C97.5352 75.002 96.8182 75.1215 96.131 75.3555C95.0372 74.8178 93.8206 74.539 92.5426 74.539C90.8264 74.539 88.2935 75.0269 85.7591 77.2757C85.5018 76.9487 85.2379 76.6699 84.9839 76.4376C83.598 75.1729 81.8088 74.5058 79.8071 74.5058C78.1224 74.5058 76.4892 74.9439 74.934 75.8119C73.6958 74.9622 72.1954 74.5058 70.5771 74.5058C68.9588 74.5058 67.4999 74.8875 66.0625 75.6426C64.1903 74.7265 62.0691 74.6369 60.479 74.6717C59.445 74.695 58.4856 75.0518 57.7122 75.6426C56.7661 75.2244 55.7271 75.002 54.6316 75.002C53.9013 75.002 53.1843 75.1215 52.4971 75.3555C51.4034 74.8178 50.1867 74.539 48.9087 74.539C47.2174 74.539 44.731 75.0119 42.2314 77.1811C42.004 76.9089 41.7534 76.6517 41.4829 76.4127C40.4455 75.5015 39.199 74.9041 37.8164 74.6485C37.9608 73.9747 38.0289 73.4121 38.0289 72.891C38.0289 71.1484 37.3467 69.5286 36.1068 68.3303C36.1052 68.3287 36.1035 68.327 36.1019 68.3253C35.2255 67.4806 34.1384 66.8649 32.8636 66.4915C32.1333 66.279 31.3964 66.1164 30.6644 66.0069C29.9175 65.8957 29.154 65.8392 28.3972 65.8392C27.3117 65.8392 26.3042 66.2077 25.4992 66.8317C25.2685 66.684 25.0328 66.5413 24.7855 66.4118C23.388 65.6816 21.8095 65.3098 20.0933 65.3098C18.3771 65.3098 16.6095 65.6633 14.87 66.3637C13.275 67.0059 11.7563 67.8905 10.3604 68.9925C9.05415 70.0231 7.81098 71.2496 6.66408 72.6387C5.52879 74.0145 4.53624 75.4966 3.71797 77.0383C2.89141 78.5967 2.22418 80.2646 1.73786 81.9956C1.22499 83.8179 0.966064 85.6402 0.966064 87.4126C0.966064 91.1053 2.04326 94.1374 4.16611 96.4244C6.35204 98.7777 9.28486 100.022 12.6492 100.022C15.1223 100.022 17.5655 99.3951 19.9473 98.1587C20.0668 98.2682 20.1896 98.3761 20.3191 98.479C21.5539 99.4631 23.0743 100.039 24.7191 100.145C25.0129 100.163 25.31 100.173 25.6121 100.173C26.3457 100.173 27.0992 100.117 27.8611 100.006C28.8586 99.8598 29.7516 99.4067 30.4437 98.7462C31.6603 99.5345 33.0728 99.9477 34.6048 99.956C33.9276 101.498 33.5774 103.167 33.5774 104.915C33.5774 106.357 33.8164 107.811 34.2844 109.235C34.6296 110.284 35.0512 111.283 35.5425 112.209C35.2637 112.179 34.9799 112.164 34.6927 112.164C32.4603 112.164 30.4719 113.039 29.091 114.625C27.8561 116.044 27.2038 117.845 27.2038 119.833C27.2038 121.352 27.554 122.791 28.2461 124.112C28.8885 125.338 29.818 126.439 31.0064 127.381C33.1973 129.119 35.8131 130 38.7824 130C40.8538 130 42.8738 129.544 44.7842 128.643C45.3933 128.355 45.9726 128.024 46.5253 127.648C48.2597 129.024 50.3942 129.746 52.7942 129.746C54.7744 129.746 56.7263 129.228 58.5952 128.208C59.196 127.879 59.7719 127.507 60.3246 127.097C60.4176 127.205 60.5105 127.308 60.6002 127.403C61.4085 128.236 62.8525 129.286 65.133 129.552C66.2384 129.681 67.455 129.663 68.8526 129.497C69.8069 129.383 70.6717 128.989 71.3638 128.399C72.6684 129.215 74.1224 129.64 75.6411 129.64C76.9324 129.64 78.2187 129.336 79.4652 128.739C80.1789 128.395 80.8577 127.989 81.4901 127.526C83.2528 128.984 85.442 129.748 87.9151 129.748C89.8952 129.748 91.8471 129.23 93.716 128.209C95.0687 127.471 96.3003 126.523 97.3891 125.385C101.597 123.395 104.929 120.027 107.306 115.357C107.311 115.347 107.316 115.337 107.321 115.327L107.502 114.966C107.975 114.021 108.118 112.946 107.909 111.912C107.716 110.959 107.067 109.188 104.878 108.018C103.374 107.217 102.028 107.16 101.105 107.278C100.903 106.897 100.667 106.528 100.4 106.175C99.4555 104.925 98.1941 103.954 96.6472 103.287C95.2712 102.694 93.7708 102.394 92.1857 102.394C89.5915 102.394 87.135 103.182 84.8794 104.737C84.3632 104.112 83.7192 103.561 82.9607 103.111C82.0843 102.592 81.0436 102.197 79.8121 101.916C79.8984 101.392 79.9399 100.929 79.9399 100.504C79.9399 100.26 79.9266 100.017 79.9017 99.7785C80.4179 99.6839 80.9291 99.5478 81.4304 99.3652C82.1308 99.1113 82.8163 98.7744 83.4752 98.3578C84.7898 99.3801 86.3831 99.9278 88.1408 99.9278C89.4753 99.9278 90.7732 99.6158 92.0131 98.9968C93.1285 99.6092 94.3833 99.9278 95.7177 99.9278C96.6903 99.9278 97.663 99.7602 98.6041 99.4316C99.5651 99.0963 100.481 98.5752 101.326 97.8865C101.832 97.4732 102.312 97.055 102.749 96.6451C103.363 96.0675 103.95 95.3722 104.541 94.5158C104.936 93.9449 105.286 93.4337 105.582 92.9989C105.944 92.4628 106.344 91.7924 106.805 90.9493C107.223 90.1842 107.512 89.6498 107.711 89.2731C107.914 88.893 108.191 88.3586 108.561 87.6417C108.571 87.6234 108.579 87.6051 108.589 87.5869C108.79 87.1853 108.946 86.8633 109.061 86.611L109.183 86.3638C109.657 85.4194 109.799 84.344 109.59 83.3084V83.3001Z" fill="white"/>
<path d="M105.168 82.2903C104.955 82.1741 104.751 82.1044 104.554 82.0845C104.385 82.0679 104.225 82.1675 104.159 82.3235C104.114 82.4114 103.938 82.7533 103.629 83.3491C103.321 83.9449 103.072 84.4196 102.886 84.7714C102.698 85.1249 102.428 85.6095 102.076 86.2269C101.722 86.8443 101.409 87.3521 101.133 87.7488C100.857 88.1454 100.565 88.5537 100.257 88.9719C99.9479 89.3918 99.6492 89.7055 99.3637 89.9146C99.0765 90.1237 98.8126 90.2282 98.5703 90.2282C98.2168 90.2282 98.0408 89.9312 98.0408 89.3354C98.0408 88.0442 98.9703 85.3324 100.831 81.1999C101.415 79.9021 100.489 78.3985 99.0666 78.3869C99.0566 78.3869 99.045 78.3869 99.0351 78.3869C98.1089 78.3869 97.2591 79.059 96.4873 80.405C96.3097 79.6548 95.9363 79.054 95.362 78.6026C94.7877 78.1512 94.1055 77.9238 93.3105 77.9238C91.9428 77.9238 90.6416 78.5196 89.4067 79.7096C88.1718 80.9012 87.2075 82.345 86.512 84.0428L86.5087 84.0495C86.2581 84.6635 85.9627 85.261 85.6207 85.8302C83.8664 88.7611 82.502 90.2266 81.5327 90.2266C81.0912 90.2266 80.8705 89.9627 80.8705 89.4333C80.8705 88.7943 81.2788 87.4052 82.0954 85.266C82.9103 83.1267 83.3186 81.5717 83.3186 80.6024C83.3186 79.7212 83.0647 79.0474 82.5585 78.5843C82.0506 78.1213 81.39 77.889 80.5734 77.889C78.3244 77.889 76.1285 79.4888 73.989 82.6853C74.1218 82.1127 74.1882 81.5717 74.1882 81.0638C74.1882 80.0498 73.9343 79.2664 73.428 78.7155C72.9201 78.1645 72.2263 77.889 71.3433 77.889C69.2703 77.889 67.2852 79.2781 65.3881 82.0563C65.6752 81.175 65.818 80.5244 65.818 80.1046C65.808 79.4391 65.481 78.9345 64.8387 78.5926C63.2553 77.7496 61.3017 78.7138 60.9067 80.463C60.2627 82.9242 59.4378 84.4162 59.2519 84.7697C59.0643 85.1232 58.7938 85.6079 58.4419 86.2252C58.0884 86.8426 57.7747 87.3505 57.4992 87.7471C57.2236 88.1437 56.9315 88.552 56.6228 88.9702C56.3141 89.3901 56.0153 89.7038 55.7298 89.9129C55.4427 90.122 55.1788 90.2266 54.9365 90.2266C54.5829 90.2266 54.407 89.9295 54.407 89.3337C54.407 88.0425 55.3365 85.3307 57.1971 81.1982C57.7813 79.9004 56.8552 78.3985 55.4327 78.3852C55.4228 78.3852 55.4112 78.3852 55.4012 78.3852C54.475 78.3852 53.6252 79.0573 52.8534 80.4033C52.6758 79.6531 52.3024 79.0524 51.7281 78.6009C51.1538 78.1495 50.4717 77.9222 49.6766 77.9222C48.309 77.9222 47.0077 78.518 45.7728 79.7079C44.538 80.8995 43.5736 82.3434 42.8782 84.0412C42.7935 84.2486 42.0085 86.0759 40.9595 87.5977C40.3968 88.469 39.8674 89.1312 39.3711 89.5826C38.8748 90.0357 38.4233 90.2614 38.015 90.2614C37.6067 90.2614 37.4026 89.9859 37.4026 89.4349C37.4026 88.7728 37.8275 87.367 38.6756 85.2178C39.5238 83.067 39.9487 81.5517 39.9487 80.6688C39.9487 79.7859 39.6732 79.1038 39.1221 78.6175C38.5711 78.1329 37.8657 77.889 37.0042 77.889C34.8864 77.889 32.8797 79.0474 30.9826 81.3625C31.2697 80.5477 31.6 79.5884 31.9751 78.4848C32.3502 77.3828 32.6423 76.5214 32.8515 75.9041C33.0606 75.2867 33.2697 74.6477 33.4805 73.9855C33.6897 73.3234 33.839 72.8006 33.927 72.4139C34.015 72.0288 34.0598 71.7351 34.0598 71.5376C34.0598 71.0746 33.8988 70.6895 33.5801 70.3792C33.2598 70.0705 32.8365 69.8398 32.3071 69.6838C31.7776 69.5295 31.2531 69.4133 30.7353 69.3369H30.7203C29.8821 69.2108 29.0987 69.7801 28.9593 70.6149C28.5709 72.9383 27.8672 75.8924 26.8481 79.4756C26.8331 79.527 26.8182 79.5785 26.8033 79.6299C25.8588 82.828 24.0132 85.6975 21.4488 87.8284C21.4289 87.845 21.409 87.8616 21.3891 87.8782C19.3592 89.5544 17.4521 90.3925 15.6662 90.3925C14.5624 90.3925 13.6811 90.0175 13.0188 89.2673C12.3566 88.5172 12.0263 87.3704 12.0263 85.8269C12.0263 84.2835 12.3234 82.6355 12.9192 80.9476C13.5151 79.2598 14.2537 77.7944 15.135 76.548C16.0164 75.3016 16.9707 74.271 17.9965 73.4545C19.0222 72.6396 19.9434 72.2297 20.7583 72.2297C21.4422 72.2297 21.7841 72.6047 21.7841 73.3549C21.7841 74.0602 21.4969 74.8602 20.9243 75.753C20.35 76.6459 19.6446 77.3911 18.8065 77.9852C18.9392 78.4051 19.1201 78.7569 19.3525 79.0441C19.5849 79.3312 19.8488 79.5519 20.1459 79.7062C20.443 79.8606 20.7583 79.9386 21.0886 79.9386C22.2571 79.9386 23.2995 79.2167 24.2157 77.7711C25.1302 76.3273 25.5883 74.8104 25.5883 73.2221C25.5883 72.3176 25.3958 71.5243 25.009 70.8406C24.6223 70.1568 24.0713 69.6274 23.3542 69.2523C22.6372 68.8772 21.804 68.6897 20.8563 68.6897C19.7309 68.6897 18.5791 68.927 17.399 69.4017C16.2189 69.8763 15.1052 70.5269 14.0578 71.3534C13.0105 72.1799 12.018 73.1624 11.0802 74.2975C10.1424 75.4344 9.33743 76.636 8.66522 77.9039C7.99135 79.1719 7.4569 80.5128 7.06022 81.9235C6.66353 83.3358 6.46436 84.7133 6.46436 86.0593C6.46436 88.5288 7.11001 90.4589 8.39965 91.848C9.6893 93.2371 11.3607 93.9325 13.4122 93.9325C16.0147 93.9325 18.6172 92.9019 21.2198 90.839C22.3285 89.961 23.3376 88.9951 24.2489 87.9429C24.048 88.6068 23.8804 89.1628 23.7493 89.6142C23.4522 90.6398 23.3028 91.3618 23.3028 91.7816C23.3028 92.487 23.5451 93.033 24.0314 93.4197C24.5161 93.8064 25.1003 94.0205 25.7842 94.0653C25.7974 94.0653 25.8107 94.0669 25.8256 94.0686C26.9875 94.1383 27.9966 93.2869 28.1693 92.1351C28.3883 90.6896 28.6622 89.4482 28.9925 88.4093C29.3444 87.3953 29.7809 86.3696 30.2987 85.3324C30.8166 84.2968 31.434 83.364 32.1511 82.5376C32.8681 81.7111 33.5353 81.2978 34.1527 81.2978C34.571 81.2978 34.7818 81.5186 34.7818 81.96C34.7818 82.3135 34.5826 82.9807 34.1859 83.9615C33.7893 84.9423 33.3926 86.041 32.9942 87.2525C32.5975 88.4657 32.3984 89.5246 32.3984 90.4291C32.3984 91.5543 32.6855 92.409 33.2581 92.9932C33.8307 93.5774 34.5478 93.8694 35.4092 93.8694C36.2241 93.8694 37.0358 93.6388 37.8408 93.1741C38.6458 92.711 39.3678 92.16 40.0084 91.5194C40.5943 90.9336 41.2051 90.1735 41.8375 89.2441C41.884 90.5054 42.1877 91.5675 42.7537 92.4289C43.3711 93.3666 44.2093 93.8346 45.2683 93.8346C46.8119 93.8346 48.3339 92.8421 49.8343 90.8572C49.9223 91.7833 50.2476 92.5119 50.8103 93.0413C51.3729 93.5707 52.0501 93.8346 52.8451 93.8346C53.2866 93.8346 53.7265 93.7582 54.168 93.6022C54.6095 93.4479 55.0394 93.2006 55.4576 92.8587C55.8759 92.5169 56.2676 92.175 56.6327 91.8331C56.9962 91.4912 57.3763 91.0348 57.7747 90.4606C57.866 90.3295 57.9539 90.2017 58.0386 90.0789C58.0336 90.1021 58.0286 90.1237 58.0236 90.1453C57.9025 90.6863 57.8411 91.1427 57.8411 91.5178C57.8411 92.5318 58.2112 93.2272 58.9498 93.6022C58.9963 93.6255 59.0444 93.6487 59.0925 93.6686C60.6212 94.3325 62.3756 93.3666 62.7225 91.7368C63.0113 90.3776 63.325 89.2358 63.6636 88.3081V88.2749C64.3258 86.5323 65.1789 84.9341 66.2279 83.4786C67.2752 82.0231 68.1748 81.2945 68.9234 81.2945C69.3201 81.2945 69.5193 81.5484 69.5193 82.0546C69.5193 82.5608 69.1325 83.9516 68.3607 86.2219C67.5889 88.4939 67.2022 90.0921 67.2022 91.0182C67.2022 92.0107 67.564 92.7143 68.286 93.1276C69.735 93.9574 71.5608 93.0363 71.8778 91.3983C72.1085 90.2067 72.3807 89.176 72.6944 88.3064V88.2732C73.267 86.7082 74.072 85.1531 75.1094 83.6097C76.1451 82.0662 77.0397 81.2945 77.7899 81.2945C78.1866 81.2945 78.3858 81.5269 78.3858 81.9899C78.3858 82.3865 78.1932 83.1035 77.8065 84.1408C77.4198 85.178 77.0397 86.3132 76.6646 87.548C76.2895 88.7827 76.1019 89.8299 76.1019 90.6913C76.1019 91.7285 76.3725 92.5102 76.9119 93.0396C77.4513 93.569 78.1517 93.8329 79.0132 93.8329C79.5426 93.8329 80.0655 93.74 80.585 93.5525C81.1028 93.3649 81.6107 93.0894 82.107 92.726C82.6033 92.3625 83.0713 91.9708 83.5128 91.551C83.9543 91.1327 84.4008 90.6199 84.8523 90.0125C85.0714 89.7187 85.2772 89.4349 85.4714 89.1644C85.5079 90.4589 85.8116 91.5493 86.3909 92.4272C87.0083 93.3649 87.8465 93.8329 88.9054 93.8329C90.449 93.8329 91.971 92.8405 93.4715 90.8556C93.5594 91.7816 93.8848 92.5102 94.4474 93.0396C95.0101 93.569 95.6873 93.8329 96.4823 93.8329C96.9238 93.8329 97.3637 93.7566 97.8052 93.6006C98.2467 93.4462 98.6765 93.199 99.0948 92.8571C99.5131 92.5152 99.9048 92.1733 100.27 91.8314C100.633 91.4896 101.014 91.0332 101.412 90.4589C101.809 89.8864 102.145 89.3951 102.421 88.9868C102.697 88.5786 103.027 88.0226 103.414 87.3156C103.799 86.6103 104.092 86.0692 104.29 85.6942C104.489 85.3191 104.765 84.7897 105.116 84.1059C105.316 83.7093 105.458 83.4105 105.546 83.213C105.691 82.9259 105.601 82.5774 105.337 82.3932C105.286 82.3567 105.228 82.3218 105.166 82.287L105.168 82.2903ZM50.4982 86.2933C50.0351 87.4401 49.5339 88.3827 48.9928 89.1213C48.4517 89.8598 47.9505 90.2299 47.4874 90.2299C46.9579 90.2299 46.6708 89.7337 46.6276 88.7412C46.5828 87.9263 46.7488 86.9339 47.1239 85.7639C47.499 84.5955 48.0052 83.5632 48.6459 82.6703C49.2849 81.7775 49.8924 81.331 50.465 81.331C51.0376 81.331 51.3132 81.7277 51.358 82.5226C51.4011 83.5151 51.1157 84.7714 50.4982 86.2933V86.2933ZM94.1337 86.2933C93.6707 87.4401 93.1694 88.3827 92.6283 89.1213C92.0872 89.8598 91.586 90.2299 91.1229 90.2299C90.5934 90.2299 90.3063 89.7337 90.2631 88.7412C90.2183 87.9263 90.3843 86.9339 90.7594 85.7639C91.1345 84.5955 91.6408 83.5632 92.2814 82.6703C92.9204 81.7775 93.5279 81.331 94.1005 81.331C94.6732 81.331 94.9487 81.7277 94.9935 82.5226C95.0367 83.5151 94.7512 84.7714 94.1337 86.2933V86.2933Z" fill="#103155"/>
<path d="M102.649 110.425C102.439 110.313 102.242 110.242 102.058 110.21C101.845 110.176 101.633 110.274 101.527 110.461C100.054 113.334 98.3049 115.397 96.2766 116.651C96.6617 115.541 96.8559 114.431 96.8559 113.321C96.8559 112.476 96.6866 111.752 96.3497 111.148C96.9771 110.665 97.2908 110.015 97.2908 109.193C97.2908 108.493 97.0667 107.847 96.6202 107.256C96.1737 106.666 95.558 106.201 94.7729 105.862C93.9878 105.525 93.1247 105.356 92.1836 105.356C90.4691 105.356 88.8458 105.917 87.3138 107.039C86.1321 107.905 85.1412 108.959 84.3395 110.197C83.1644 111.802 82.4789 113.175 81.7669 114.333C81.0548 115.491 80.2698 116.53 79.4133 117.446C78.5569 118.364 77.8266 118.822 77.2224 118.822C76.185 118.822 75.3269 117.591 74.6514 115.13C76.2448 114.165 77.7469 112.806 79.1594 111.057C80.5718 109.308 81.2772 107.973 81.2772 107.056C81.2772 106.476 81.015 105.99 80.4905 105.597C78.9287 104.425 76.9867 105.026 76.1967 106.81C73.536 112.298 70.1219 114.32 70.0937 114.301C70.4787 113.193 71.1493 111.326 72.1053 108.702C73.058 106.083 73.8132 103.922 74.3676 102.221C74.922 100.52 75.2008 99.3549 75.2008 98.7276C75.2008 97.9675 74.8655 97.375 74.195 96.9534C72.3476 95.7867 69.9011 96.9285 69.4945 99.0744C68.98 101.785 68.1783 104.784 67.0895 108.07C67.0247 108.292 66.955 108.521 66.8837 108.755C66.2662 110.773 65.2737 112.668 63.8944 114.265C63.0446 115.247 62.1317 116.042 61.1524 116.648C61.5375 115.538 61.7317 114.428 61.7317 113.317C61.7317 112.473 61.5624 111.749 61.2255 111.145C61.8529 110.662 62.1666 110.011 62.1666 109.19C62.1666 108.489 61.9425 107.844 61.496 107.253C61.0495 106.662 60.4338 106.198 59.6487 105.859C58.8636 105.522 58.0005 105.353 57.0594 105.353C55.3449 105.353 53.7216 105.914 52.1897 107.036C50.656 108.158 49.4444 109.595 48.5514 111.344C47.8991 112.624 47.4858 113.938 47.3099 115.287C47.2684 114.418 47.0975 113.561 46.7954 112.72C46.4452 111.742 46.0169 110.861 45.5107 110.078C45.0045 109.294 44.4966 108.528 43.9904 107.779C43.4841 107.031 43.0493 106.229 42.6874 105.371C42.3256 104.515 42.1447 103.663 42.1447 102.819C42.1447 101.587 42.4833 100.527 43.1588 99.6321C43.8343 98.7392 44.558 98.2927 45.3315 98.2927C45.7414 98.2927 46.0734 98.4371 46.3273 98.7276C46.5813 99.018 46.7074 99.4395 46.7074 99.9939C46.7074 100.646 46.5265 101.31 46.1647 101.985C45.9721 102.346 45.7414 102.669 45.4742 102.961C44.9431 103.539 45.0012 104.413 45.6103 104.908L45.6219 104.918C46.007 105.232 46.4053 105.389 46.817 105.389C47.7581 105.389 48.573 104.876 49.2602 103.851C49.9473 102.825 50.2925 101.685 50.2925 100.43C50.2925 99.0794 49.8577 97.9442 48.9896 97.0265C48.1199 96.1087 46.9132 95.6506 45.3696 95.6506C43.4377 95.6506 41.7795 96.3991 40.392 97.8961C39.0044 99.3931 38.3106 101.142 38.3106 103.145C38.3106 104.086 38.4666 105.034 38.782 105.987C39.0957 106.941 39.4824 107.816 39.9405 108.612C40.3986 109.409 40.8584 110.199 41.3165 110.984C41.7746 111.769 42.1613 112.602 42.475 113.482C42.7887 114.363 42.9464 115.226 42.9464 116.071C42.9464 117.325 42.5845 118.351 41.8609 119.148C41.1372 119.944 40.2442 120.342 39.182 120.342C38.3604 120.342 37.6799 120.07 37.1355 119.528C36.5927 118.985 36.3205 118.23 36.3205 117.266C36.3205 117.149 36.3255 117.036 36.3338 116.925C36.4085 115.974 35.6682 115.136 34.7139 115.13C34.7056 115.13 34.6989 115.13 34.6906 115.13C33.8209 115.13 33.1454 115.407 32.6624 115.963C32.1794 116.519 31.9387 117.217 31.9387 118.062C31.9387 119.559 32.6093 120.839 33.9487 121.899C35.2881 122.961 36.8998 123.492 38.782 123.492C40.1579 123.492 41.4858 123.19 42.7654 122.588C44.0451 121.985 45.124 121.074 46.0053 119.855C46.6377 118.978 47.0427 118.019 47.2203 116.973C47.2502 118.822 47.7564 120.319 48.7373 121.464C49.7514 122.648 51.1025 123.238 52.7922 123.238C53.9739 123.238 55.1507 122.918 56.3225 122.279C57.4926 121.64 58.525 120.777 59.418 119.69C61.2487 118.952 62.877 117.888 64.306 116.504C64.1234 117.075 63.9724 117.569 63.8529 117.989C63.5508 119.051 63.3998 119.908 63.3998 120.56C63.3998 121.333 63.599 121.924 63.9973 122.334C64.3956 122.744 64.9567 122.991 65.6803 123.076C65.687 123.076 65.6953 123.077 65.7019 123.079C67.0895 123.237 68.3559 122.249 68.5683 120.869C68.8804 118.832 69.3152 116.89 69.8696 115.04C70.1335 116.625 70.5086 118.007 70.9966 119.184C71.5277 120.464 72.1601 121.441 72.897 122.117C73.6323 122.792 74.4356 123.131 75.3054 123.131C75.8846 123.131 76.4755 122.986 77.0797 122.696C77.6822 122.407 78.2382 122.05 78.7444 121.627C79.2506 121.205 79.7884 120.638 80.3561 119.926C80.9237 119.214 81.4001 118.575 81.7868 118.007C81.9577 117.755 82.1436 117.468 82.3412 117.149C82.3992 118.917 82.9055 120.356 83.8565 121.466C84.8707 122.649 86.2217 123.24 87.9114 123.24C89.0931 123.24 90.2699 122.92 91.4417 122.281C92.6118 121.642 93.6442 120.779 94.5372 119.692C98.1821 118.22 101.03 115.468 103.082 111.437C103.233 111.135 103.153 110.76 102.878 110.564C102.81 110.516 102.733 110.469 102.649 110.423V110.425ZM56.9565 112.741C56.9565 113.611 56.769 114.564 56.3955 115.601C56.0204 116.638 55.5441 117.526 54.9648 118.261C54.3855 118.998 53.8179 119.365 53.2635 119.365C52.8768 119.365 52.5697 119.172 52.3407 118.786C52.1116 118.401 51.9971 117.856 51.9971 117.156C51.9971 116.119 52.2145 114.979 52.6494 113.736C53.0843 112.492 53.6934 111.412 54.4785 110.496C55.2619 109.578 56.0769 109.12 56.9217 109.12C57.476 109.12 57.9225 109.374 58.2611 109.88C57.657 110.025 57.0661 110.338 56.4868 110.821C56.8005 111.327 56.9582 111.968 56.9582 112.74L56.9565 112.741ZM92.0774 112.741C92.0774 113.611 91.8898 114.564 91.5164 115.601C91.1413 116.638 90.6649 117.526 90.0857 118.261C89.5064 118.998 88.9388 119.365 88.3844 119.365C87.9977 119.365 87.6906 119.172 87.4616 118.786C87.2325 118.401 87.118 117.856 87.118 117.156C87.118 116.119 87.3354 114.979 87.7703 113.736C88.2051 112.492 88.8143 111.412 89.5994 110.496C90.3828 109.578 91.1977 109.12 92.0425 109.12C92.5969 109.12 93.0434 109.374 93.382 109.88C92.7778 110.025 92.1869 110.338 91.6077 110.821C91.9214 111.327 92.0791 111.968 92.0791 112.74L92.0774 112.741Z" fill="#103155"/>
<defs>
<linearGradient id="paint0_linear_1_23156" x1="105.074" y1="20.8069" x2="68.2397" y2="50.5274" gradientUnits="userSpaceOnUse">
<stop offset="0.16" stop-color="#FFE610"/>
<stop offset="0.5" stop-color="#FFC073"/>
<stop offset="1" stop-color="#FE45D7"/>
</linearGradient>
<linearGradient id="paint1_linear_1_23156" x1="138.532" y1="-6.21824" x2="19.8698" y2="89.5262" gradientUnits="userSpaceOnUse">
<stop offset="0.16" stop-color="#FFE610"/>
<stop offset="0.5" stop-color="#FFC073"/>
<stop offset="1" stop-color="#FE45D7"/>
</linearGradient>
</defs>
</svg>
