<svg width="97" height="17" viewBox="0 0 97 17" fill="none" xmlns="http://www.w3.org/2000/svg">
<g opacity="0.12" clip-path="url(#clip0_1_23415)">
<path d="M110.8 16.63C105.24 16.63 102.51 12.83 100.11 9.48C97.67 6.08 96.01 4 92.67 4C89.33 4 87.67 6.08 85.23 9.48C82.82 12.83 80.1 16.63 74.54 16.63C68.98 16.63 66.25 12.83 63.85 9.48C61.41 6.08 59.75 4 56.41 4C53.07 4 51.41 6.08 48.97 9.48C46.56 12.83 43.84 16.63 38.28 16.63C32.72 16.63 29.99 12.83 27.59 9.48C25.15 6.08 23.49 4 20.15 4C16.81 4 15.15 6.08 12.71 9.48C10.3 12.83 7.58002 16.63 2.02002 16.63C0.91002 16.63 0.0200195 15.73 0.0200195 14.63C0.0200195 13.53 0.92002 12.63 2.02002 12.63C5.36002 12.63 7.02002 10.55 9.46002 7.15C11.85 3.8 14.57 0 20.13 0C25.69 0 28.42 3.8 30.82 7.15C33.26 10.55 34.92 12.63 38.26 12.63C41.6 12.63 43.26 10.55 45.7 7.15C48.11 3.8 50.83 0 56.39 0C61.95 0 64.68 3.8 67.08 7.15C69.52 10.55 71.18 12.63 74.52 12.63C77.86 12.63 79.52 10.55 81.96 7.15C84.37 3.8 87.09 0 92.65 0C98.21 0 100.94 3.8 103.34 7.15C105.78 10.55 107.44 12.63 110.78 12.63C114.12 12.63 115.78 10.55 118.22 7.15C120.63 3.8 123.35 0 128.91 0C130.02 0 130.91 0.9 130.91 2C130.91 3.1 130.01 4 128.91 4C125.57 4 123.91 6.08 121.47 9.48C119.06 12.83 116.34 16.63 110.78 16.63H110.8Z" fill="#FEC933"/>
</g>
<defs>
<clipPath id="clip0_1_23415">
<rect width="130.94" height="16.63" fill="white"/>
</clipPath>
</defs>
</svg>
