<svg width="72" height="75" viewBox="0 0 72 75" fill="none" xmlns="http://www.w3.org/2000/svg">
<path d="M3.03 0C1.36 0 0 1.36 0 3.03C0 4.7 1.36 6.06 3.03 6.06C4.7 6.06 6.06 4.7 6.06 3.03C6.06 1.36 4.69 0 3.03 0Z" fill="#F85373"/>
<path d="M35.9199 0C34.2499 0 32.8899 1.36 32.8899 3.03C32.8899 4.7 34.2499 6.06 35.9199 6.06C37.5899 6.06 38.9499 4.7 38.9499 3.03C38.9499 1.36 37.5899 0 35.9199 0Z" fill="#F85373"/>
<path d="M68.82 6.04999C70.49 6.04999 71.85 4.68999 71.85 3.01999C71.85 1.34999 70.49 -0.0100098 68.82 -0.0100098C67.15 -0.0100098 65.79 1.34999 65.79 3.01999C65.79 4.68999 67.15 6.04999 68.82 6.04999Z" fill="#F85373"/>
<path d="M3.03 22.75C1.36 22.75 0 24.11 0 25.78C0 27.45 1.36 28.81 3.03 28.81C4.7 28.81 6.06 27.45 6.06 25.78C6.06 24.11 4.7 22.75 3.03 22.75Z" fill="#F85373"/>
<path d="M35.9199 22.75C34.2499 22.75 32.8899 24.11 32.8899 25.78C32.8899 27.45 34.2499 28.81 35.9199 28.81C37.5899 28.81 38.9499 27.45 38.9499 25.78C38.9499 24.11 37.5899 22.75 35.9199 22.75Z" fill="#F85373"/>
<path d="M68.82 22.75C67.15 22.75 65.79 24.11 65.79 25.78C65.79 27.45 67.15 28.81 68.82 28.81C70.49 28.81 71.85 27.45 71.85 25.78C71.85 24.11 70.49 22.75 68.82 22.75Z" fill="#F85373"/>
<path d="M3.03 45.5C1.36 45.5 0 46.86 0 48.53C0 50.2 1.36 51.56 3.03 51.56C4.7 51.56 6.06 50.2 6.06 48.53C6.06 46.86 4.7 45.5 3.03 45.5Z" fill="#F85373"/>
<path d="M35.9199 45.5C34.2499 45.5 32.8899 46.86 32.8899 48.53C32.8899 50.2 34.2499 51.56 35.9199 51.56C37.5899 51.56 38.9499 50.2 38.9499 48.53C38.9499 46.86 37.5899 45.5 35.9199 45.5Z" fill="#F85373"/>
<path d="M68.82 45.5C67.15 45.5 65.79 46.86 65.79 48.53C65.79 50.2 67.15 51.56 68.82 51.56C70.49 51.56 71.85 50.2 71.85 48.53C71.85 46.86 70.49 45.5 68.82 45.5Z" fill="#F85373"/>
<path d="M3.03 68.25C1.36 68.25 0 69.61 0 71.28C0 72.95 1.36 74.31 3.03 74.31C4.7 74.31 6.06 72.95 6.06 71.28C6.06 69.61 4.7 68.25 3.03 68.25Z" fill="#F85373"/>
<path d="M35.9199 68.25C34.2499 68.25 32.8899 69.61 32.8899 71.28C32.8899 72.95 34.2499 74.31 35.9199 74.31C37.5899 74.31 38.9499 72.95 38.9499 71.28C38.9499 69.61 37.5899 68.25 35.9199 68.25Z" fill="#F85373"/>
<path d="M68.82 68.25C67.15 68.25 65.79 69.61 65.79 71.28C65.79 72.95 67.15 74.31 68.82 74.31C70.49 74.31 71.85 72.95 71.85 71.28C71.85 69.61 70.49 68.25 68.82 68.25Z" fill="#F85373"/>
</svg>
