<svg width="21" height="20" viewBox="0 0 21 20" fill="none" xmlns="http://www.w3.org/2000/svg">
<path d="M0.666289 19.125H3.33371C3.70171 19.125 4 18.8265 4 18.4583V6.79171C4 6.42344 3.70171 6.125 3.33371 6.125H0.666289C0.298253 6.125 0 6.42344 0 6.79171V18.4583C0 18.8264 0.298253 19.125 0.666289 19.125Z" fill="url(#paint0_linear_2628_54183)"/>
<path d="M0.666289 4.125H3.33371C3.70171 4.125 4 3.80263 4 3.40493V0.845067C4 0.447365 3.70171 0.125 3.33371 0.125H0.666289C0.298253 0.125 0 0.447365 0 0.845067V3.40493C0 3.80263 0.298253 4.125 0.666289 4.125Z" fill="url(#paint1_linear_2628_54183)"/>
<path d="M19.9804 6.90368C19.5995 6.38563 19.038 5.9596 18.2955 5.62567C17.553 5.29197 16.7334 5.125 15.8367 5.125C14.0164 5.125 12.4739 5.84295 11.2094 7.27912C10.9578 7.56488 10.7748 7.50241 10.7748 7.11597V6.18335C10.7748 5.79692 10.4717 5.48376 10.0978 5.48376H7.67695C7.30302 5.48376 7 5.79692 7 6.18335V18.4254C7 18.8118 7.30306 19.125 7.67695 19.125H10.387C10.761 19.125 11.064 18.8118 11.064 18.4254V14.1679C11.064 12.3943 11.1676 11.1785 11.3749 10.5209C11.5821 9.86329 11.9655 9.33522 12.5247 8.93663C13.084 8.53804 13.7154 8.33864 14.4194 8.33864C14.9689 8.33864 15.439 8.47817 15.8296 8.75727C16.2201 9.03633 16.5022 9.42724 16.6757 9.93056C16.8493 10.4338 16.9361 11.5423 16.9361 13.2563V18.4253C16.9361 18.8117 17.2391 19.125 17.613 19.125H20.3231C20.697 19.125 21 18.8117 21 18.4253V11.4925C21 10.2669 20.9253 9.32521 20.7759 8.66759C20.6266 8.00997 20.3614 7.422 19.9804 6.90368Z" fill="url(#paint2_linear_2628_54183)"/>
<defs>
<linearGradient id="paint0_linear_2628_54183" x1="-0.755435" y1="6.125" x2="6.95109" y2="6.125" gradientUnits="userSpaceOnUse">
<stop stop-color="#FE45D7"/>
<stop offset="1" stop-color="#FFE610"/>
</linearGradient>
<linearGradient id="paint1_linear_2628_54183" x1="-0.755435" y1="0.125" x2="6.95109" y2="0.125" gradientUnits="userSpaceOnUse">
<stop stop-color="#FE45D7"/>
<stop offset="1" stop-color="#FFE610"/>
</linearGradient>
<linearGradient id="paint2_linear_2628_54183" x1="4.35598" y1="5.125" x2="31.3288" y2="5.125" gradientUnits="userSpaceOnUse">
<stop stop-color="#FE45D7"/>
<stop offset="1" stop-color="#FFE610"/>
</linearGradient>
</defs>
</svg>
