<svg width="21" height="21" viewBox="0 0 21 21" fill="none" xmlns="http://www.w3.org/2000/svg">
<path fill-rule="evenodd" clip-rule="evenodd" d="M20.4584 3.62644C20.7169 4.29115 20.8974 5.05826 20.9466 6.17408C20.9958 7.29406 21 7.65093 21 10.5021C21 13.3532 20.9877 13.7101 20.9385 14.8301C20.8892 15.9459 20.7086 16.709 20.4502 17.3777C19.9045 18.7889 18.7885 19.9047 17.3769 20.4503C16.7122 20.7088 15.9449 20.8893 14.8289 20.9385C13.7087 20.9878 13.3518 21 10.5001 21C7.64838 21 7.29128 20.9878 6.17125 20.9385C5.05506 20.8893 4.29197 20.7088 3.62312 20.4503C2.92558 20.1879 2.28959 19.7735 1.76436 19.2401C1.23095 18.715 0.816625 18.0833 0.549919 17.3777C0.291388 16.713 0.110753 15.9459 0.0615474 14.8301C0.0123415 13.7101 0 13.3532 0 10.5021C0 7.65093 0.0123415 7.29406 0.0657146 6.16991C0.11492 5.0541 0.295395 4.29115 0.553926 3.62243C0.816625 2.92503 1.23095 2.28916 1.76436 1.76402C2.28959 1.22655 2.92142 0.816309 3.62729 0.549654C4.29197 0.291333 5.05923 0.110732 6.17525 0.0615356C7.29545 0.0123392 7.65239 0 10.5041 0C13.3558 0 13.7127 0.0123392 14.8371 0.0657021C15.9531 0.114899 16.7164 0.295339 17.3851 0.553821C18.0826 0.816309 18.7186 1.23071 19.2438 1.76402C19.7814 2.28916 20.1917 2.92086 20.4584 3.62644ZM18.6941 16.6967C18.8377 16.3275 19.01 15.7736 19.0552 14.748C19.1044 13.6404 19.1167 13.3122 19.1167 10.5103C19.1167 7.7083 19.1044 7.3761 19.0552 6.26846C19.01 5.24687 18.8377 4.68905 18.6941 4.31983C18.5258 3.86441 18.2591 3.45417 17.9103 3.11364C17.5739 2.76494 17.1594 2.49828 16.704 2.33018C16.3347 2.1866 15.7808 2.01433 14.755 1.96914C13.6512 1.91994 13.3189 1.9076 10.5123 1.9076C7.70993 1.9076 7.37751 1.91994 6.26966 1.96914C5.24804 2.01433 4.68994 2.1866 4.32066 2.33018C3.86514 2.49828 3.45483 2.76494 3.11439 3.11364C2.76146 3.45016 2.49475 3.86441 2.32646 4.31983C2.18285 4.68905 2.01055 5.24287 1.96551 6.26846C1.91614 7.37194 1.90396 7.7083 1.90396 10.5103C1.90396 13.3122 1.91614 13.6446 1.96551 14.7522C2.01055 15.7736 2.18285 16.3316 2.32646 16.7008C2.49475 17.1561 2.76146 17.5663 3.11023 17.9069C3.44665 18.2556 3.86114 18.5222 4.31649 18.6905C4.68578 18.8341 5.2397 19.0063 6.26549 19.0514C7.36934 19.1007 7.70576 19.1129 10.5083 19.1129C13.3107 19.1129 13.643 19.1007 14.7509 19.0514C15.7726 19.0063 16.3306 18.8341 16.6999 18.6905C17.6149 18.3376 18.3411 17.6115 18.6941 16.6967Z" fill="url(#paint0_linear_1_23387)"/>
<path fill-rule="evenodd" clip-rule="evenodd" d="M5 10.5C5 7.46343 7.4636 5 10.5 5C13.5366 5 16 7.46343 16 10.5C16 13.5366 13.5366 16 10.5 16C7.4636 16 5 13.5366 5 10.5ZM6.93229 10.5C6.93229 12.47 8.53014 14.0677 10.5 14.0677C12.47 14.0677 14.0677 12.47 14.0677 10.5C14.0677 8.52997 12.47 6.93229 10.5 6.93229C8.53014 6.93229 6.93229 8.52997 6.93229 10.5Z" fill="url(#paint1_linear_1_23387)"/>
<path d="M18 4.5C18 5.32835 17.3284 6 16.4999 6C15.6716 6 15 5.32835 15 4.5C15 3.67146 15.6716 3 16.4999 3C17.3284 3 18 3.67146 18 4.5Z" fill="url(#paint2_linear_1_23387)"/>
<defs>
<linearGradient id="paint0_linear_1_23387" x1="-3.96603" y1="0" x2="36.4932" y2="-5.95481e-08" gradientUnits="userSpaceOnUse">
<stop stop-color="#FE45D7"/>
<stop offset="1" stop-color="#FFE610"/>
</linearGradient>
<linearGradient id="paint1_linear_1_23387" x1="2.92255" y1="5" x2="24.1155" y2="5" gradientUnits="userSpaceOnUse">
<stop stop-color="#FE45D7"/>
<stop offset="1" stop-color="#FFE610"/>
</linearGradient>
<linearGradient id="paint2_linear_1_23387" x1="14.4334" y1="3" x2="20.2133" y2="3" gradientUnits="userSpaceOnUse">
<stop stop-color="#FE45D7"/>
<stop offset="1" stop-color="#FFE610"/>
</linearGradient>
</defs>
</svg>
