<svg width="21" height="19" viewBox="0 0 21 19" fill="none" xmlns="http://www.w3.org/2000/svg">
<path d="M6.60433 18.2499C14.5292 18.2499 18.863 11.3254 18.863 5.32094C18.863 5.12427 18.8592 4.92842 18.8508 4.73364C19.692 4.09218 20.4231 3.29169 21 2.38055C20.228 2.7426 19.3971 2.98599 18.5258 3.09611C19.4152 2.53334 20.0982 1.64346 20.4203 0.582654C19.5879 1.10317 18.6659 1.48133 17.6845 1.68558C16.8983 0.802346 15.7788 0.25 14.5394 0.25C12.1602 0.25 10.2306 2.28493 10.2306 4.79338C10.2306 5.15014 10.2685 5.49688 10.3424 5.82953C6.76152 5.6395 3.58611 3.83144 1.46134 1.0819C1.09147 1.75331 0.878034 2.53347 0.878034 3.36592C0.878034 4.94223 1.63869 6.3342 2.79527 7.14823C2.08843 7.12534 1.42448 6.92068 0.844002 6.58004C0.84336 6.59913 0.84336 6.61769 0.84336 6.63801C0.84336 8.83872 2.32845 10.6762 4.30015 11.0925C3.93799 11.1964 3.55696 11.2524 3.16398 11.2524C2.88684 11.2524 2.61664 11.2236 2.35414 11.1704C2.90264 12.9759 4.49329 14.2897 6.37907 14.3266C4.90438 15.5456 3.04673 16.2717 1.02778 16.2717C0.680518 16.2717 0.337241 16.2507 0 16.2087C1.90684 17.4977 4.17108 18.25 6.60445 18.25" fill="url(#paint0_linear_2628_54190)"/>
<defs>
<linearGradient id="paint0_linear_2628_54190" x1="-3.96603" y1="0.25" x2="36.4932" y2="0.25" gradientUnits="userSpaceOnUse">
<stop stop-color="#FE45D7"/>
<stop offset="1" stop-color="#FFE610"/>
</linearGradient>
</defs>
</svg>
