<svg width="85" height="100" viewBox="0 0 85 100" fill="none" xmlns="http://www.w3.org/2000/svg">
<path fill-rule="evenodd" clip-rule="evenodd" d="M67.719 23.5883L69.159 22.4189C69.4897 22.7802 69.8139 23.1479 70.128 23.522L68.6892 24.6799L64.6972 27.8906L63.718 28.6783L63.4027 28.9323L62.8052 31.1307L62.4988 32.2541L62.3444 32.3882L60.5354 33.9584L59.8166 34.5814L58.9536 35.3295C59.2115 35.7189 59.1515 36.2462 58.7889 36.5615L58.2936 36.9917L57.7 37.5062L55.4837 39.4301C55.259 39.6254 54.968 39.6956 54.696 39.6458C54.4918 39.6088 54.299 39.5041 54.1522 39.3356L53.3837 38.4496C53.0415 38.0552 53.0849 37.4602 53.4781 37.1181L53.7692 36.8653L53.0836 36.0751C52.9751 35.95 52.9879 35.7598 53.113 35.6513L53.3007 35.4891C53.3722 35.4266 53.4641 35.4049 53.5509 35.4202C53.616 35.4317 53.6773 35.4649 53.7245 35.5185L54.4101 36.3087L55.9829 34.944L56.6161 34.3938L56.7821 34.2495C57.0067 34.0542 57.2953 33.9852 57.5646 34.0338C57.7229 34.0631 57.8749 34.1308 58.0038 34.2393L58.9804 33.3916L59.7145 32.7546L61.2184 31.4486L61.3371 31.0145L61.6996 29.6843L62.1235 28.1268L62.7873 27.588L63.7703 26.7889L67.7164 23.5858L67.719 23.5883Z" fill="#103155"/>
<path fill-rule="evenodd" clip-rule="evenodd" d="M78.3763 46.1222C78.3763 65.5002 62.6674 81.2092 43.2893 81.2092C23.9113 81.2092 8.20361 65.5002 8.20361 46.1222C8.20361 26.7441 23.9113 11.0352 43.2893 11.0352C53.2969 11.0352 62.3252 15.2238 68.7161 21.9453L67.2722 23.1172L63.335 26.3139L62.3495 27.1131L61.7163 27.6276L61.5541 27.7591L61.4992 27.9595L61.1903 29.0944L60.8341 30.4004L60.6452 31.0923L59.32 32.2426L58.5809 32.8835L57.9145 33.4618C57.8379 33.435 57.7587 33.4145 57.6796 33.3992C57.2047 33.3137 56.7221 33.4452 56.3582 33.7618L56.2038 33.8958L55.5667 34.4486L54.4727 35.3984L54.2109 35.0972C54.0705 34.935 53.8765 34.824 53.6645 34.7857C53.3811 34.7346 53.0939 34.8125 52.8769 35.0014L52.6892 35.1635C52.2947 35.5057 52.2526 36.1044 52.5947 36.4989L52.8705 36.8168C52.6598 37.0695 52.5334 37.3823 52.5092 37.7181C52.4786 38.1419 52.6152 38.5517 52.8935 38.8722L53.6633 39.7581C53.8994 40.0313 54.225 40.2164 54.5799 40.2803C55.0574 40.3658 55.5399 40.2343 55.9063 39.9164L58.0077 38.0934L58.586 37.5917L59.2102 37.0504C59.6558 36.6636 59.8371 36.0712 59.7209 35.5197L60.1639 35.1354L60.8737 34.5201L62.7031 32.932L62.9214 32.743L63.0695 32.6141L63.1206 32.4239L63.2802 31.8379L63.9695 29.3038L64.1176 29.1851L65.0917 28.4012L69.1016 25.1752L70.5391 24.0198C75.4388 30.0532 78.3751 37.7449 78.3751 46.1222H78.3763Z" fill="white"/>
<path fill-rule="evenodd" clip-rule="evenodd" d="M63.7729 26.7915L67.719 23.5884C68.0509 23.9446 68.3739 24.3084 68.6892 24.6799L64.6972 27.8906L63.718 28.6783L63.4027 28.9324L62.8052 31.1307L62.4988 32.2542L62.3444 32.3882L60.5354 33.9585L59.8166 34.5815L58.9536 35.3296C59.2115 35.7189 59.1515 36.2462 58.7889 36.5615L58.2936 36.9918L57.7 37.5062L55.4837 39.4301C55.259 39.6254 54.968 39.6957 54.696 39.6459C54.4918 39.6089 54.299 39.5042 54.1522 39.3357L53.3837 38.4497C53.0415 38.0552 53.0849 37.4603 53.4781 37.1181L53.7692 36.8654L53.0836 36.0751C52.9751 35.95 52.9879 35.7598 53.113 35.6513L53.3007 35.4892C53.3722 35.4266 53.4641 35.4049 53.5509 35.4202C53.616 35.4317 53.6773 35.4649 53.7245 35.5185L54.4101 36.3088L55.9829 34.944L56.6161 34.3938L56.7821 34.2495C57.0067 34.0542 57.2953 33.9853 57.5646 34.0338C57.7229 34.0632 57.8749 34.1308 58.0038 34.2393L58.9804 33.3916L59.7145 32.7546L61.2184 31.4486L61.3371 31.0146L61.6996 29.6843L62.1235 28.1268L62.7873 27.5881L63.7703 26.7889L63.7729 26.7915Z" fill="url(#paint0_linear_1_9453)"/>
<path fill-rule="evenodd" clip-rule="evenodd" d="M76.5699 46.1221C76.5699 64.4099 61.7444 79.2354 43.4566 79.2354C25.1688 79.2354 10.3433 64.4112 10.3433 46.1221C10.3433 27.8331 25.1688 13.0088 43.4566 13.0088C52.8067 13.0088 61.2516 16.8846 67.2722 23.1172L63.3351 26.3139L62.3495 27.113L61.7163 27.6275L61.5541 27.759L61.4993 27.9594L61.1903 29.0944L60.8341 30.4004L60.6452 31.0923L59.32 32.2426L58.5809 32.8834L57.9145 33.4617C57.8379 33.4349 57.7587 33.4145 57.6796 33.3992C57.2047 33.3136 56.7221 33.4451 56.3582 33.7617L56.2038 33.8958L55.5667 34.4486L54.4727 35.3984L54.211 35.0971C54.0705 34.935 53.8765 34.8239 53.6646 34.7856C53.3811 34.7345 53.0939 34.8124 52.8769 35.0014L52.6892 35.1635C52.2947 35.5056 52.2526 36.1044 52.5947 36.4988L52.8705 36.8167C52.6598 37.0695 52.5335 37.3823 52.5092 37.718C52.4786 38.1419 52.6152 38.5517 52.8935 38.8721L53.6633 39.7581C53.8995 40.0313 54.225 40.2164 54.5799 40.2802C55.0574 40.3658 55.5399 40.2343 55.9063 39.9164L58.0077 38.0934L58.586 37.5916L59.2102 37.0504C59.6558 36.6635 59.8371 36.0712 59.7209 35.5197L60.1639 35.1354L60.8737 34.5201L62.7031 32.9319L62.9214 32.743L63.0695 32.6141L63.1206 32.4238L63.2802 31.8379L63.9695 29.3037L64.1176 29.185L65.0917 28.4012L69.1016 25.1751C73.7677 30.8817 76.5674 38.1751 76.5674 46.1221H76.5699Z" fill="url(#paint1_linear_1_9453)"/>
<path d="M50.6968 44.6038C51.3457 40.6062 48.6311 36.8395 44.6335 36.1906C40.6359 35.5417 36.8692 38.2564 36.2203 42.2539C35.5714 46.2515 38.2861 50.0182 42.2837 50.6671C46.2812 51.316 50.0479 48.6014 50.6968 44.6038Z" fill="#FCEFB6"/>
<path fill-rule="evenodd" clip-rule="evenodd" d="M27.6569 16.9242C10.4019 24.6811 6.37543 50.4691 17.1745 65.6266L8.68486 63.861C3.0281 47.5622 8.40911 24.4257 24.9977 15.7166L27.6556 16.9242H27.6569Z" fill="white"/>
<path fill-rule="evenodd" clip-rule="evenodd" d="M4.52954 10.5388C4.52954 10.5388 10.397 7.06759 16.0141 10.2719C21.6313 13.4763 20.1032 13.5695 20.1032 13.5695L14.6315 10.0753C11.7349 8.49487 7.18111 9.45362 4.52954 10.5388V10.5388Z" fill="white"/>
<path fill-rule="evenodd" clip-rule="evenodd" d="M5.51129 10.7698C5.51129 10.7698 10.1901 8.34037 15.1703 9.99106L15.0516 10.3447C12.1562 9.17274 7.98668 9.75743 5.51001 10.7698H5.51129Z" fill="white"/>
<path fill-rule="evenodd" clip-rule="evenodd" d="M6.47266 10.9919C9.11401 9.90042 13.0805 9.54169 15.9951 10.5068L15.8763 10.8605C13.1456 9.75489 9.12678 10.2145 6.47266 10.9919Z" fill="white"/>
<path fill-rule="evenodd" clip-rule="evenodd" d="M7.25513 11.2982C9.89648 10.2067 14.1426 10.1697 17.0571 11.1361L16.9384 11.4897C14.2077 10.3841 9.90797 10.522 7.25513 11.2982V11.2982Z" fill="white"/>
<path fill-rule="evenodd" clip-rule="evenodd" d="M7.98657 11.6365C10.6126 10.5909 14.8293 10.642 17.7222 11.6735L17.6035 12.0271C14.8932 10.859 10.6241 10.9088 7.98657 11.6365V11.6365Z" fill="white"/>
<path fill-rule="evenodd" clip-rule="evenodd" d="M9.01177 12.0286C11.6225 11.0315 15.8086 11.1732 18.6772 12.2737L18.5584 12.6273C15.8711 11.3928 11.6314 11.352 9.0105 12.0286H9.01177Z" fill="white"/>
<path fill-rule="evenodd" clip-rule="evenodd" d="M12.7868 13.8466C14.5843 13.1801 17.4133 13.3014 19.9168 14.0266C17.2933 13.0065 13.8783 12.8763 11.777 13.387C13.7149 12.6312 16.8452 12.7512 19.484 13.5631C16.8197 12.5048 13.2285 12.4257 11.048 12.9976C12.9706 12.2112 16.0639 12.2546 18.695 12.9823C16.0269 11.8307 12.5378 12.0452 10.2756 12.6389C12.5557 11.7056 16.1737 11.5971 19.0219 12.7576L20.1019 13.4597L20.8002 14.0444L20.7606 14.2985C21.1117 14.4236 21.4513 14.5615 21.7781 14.7108L21.7232 15.0594C19.0436 13.6423 15.1102 13.3308 12.7868 13.8466V13.8466Z" fill="white"/>
<path fill-rule="evenodd" clip-rule="evenodd" d="M14.0672 14.3086C16.337 13.6537 18.612 13.8107 21.621 14.8627L21.5023 15.2163C19.9742 14.472 16.7417 13.7584 14.0659 14.3086H14.0672Z" fill="white"/>
<path fill-rule="evenodd" clip-rule="evenodd" d="M15.1855 14.8741C17.2741 14.2141 19.4712 14.3698 22.4866 15.4218L22.419 15.7767C20.8602 15.0311 17.6763 14.3188 15.1855 14.8741V14.8741Z" fill="white"/>
<path fill-rule="evenodd" clip-rule="evenodd" d="M16.0691 15.3197C17.9215 14.6623 20.019 14.8193 23.0421 15.87L23.0395 16.2236C21.4424 15.478 18.3185 14.7657 16.0691 15.3185V15.3197Z" fill="white"/>
<path fill-rule="evenodd" clip-rule="evenodd" d="M17.333 15.5917C19.045 15.1551 21.0097 15.3785 23.7187 16.3207L23.7162 16.6743C22.2889 16.0079 19.502 15.33 17.333 15.5917V15.5917Z" fill="white"/>
<path fill-rule="evenodd" clip-rule="evenodd" d="M17.7197 16.0537C19.3615 15.538 21.2969 15.7282 24.0071 16.6729L24.0301 17.0546C22.5888 16.3741 19.8211 15.7141 17.7197 16.0537Z" fill="white"/>
<path fill-rule="evenodd" clip-rule="evenodd" d="M23.7327 16.8375C22.8787 14.9545 21.2791 12.5595 19.7688 11.1067C21.0901 12.7408 22.1331 14.3774 22.7893 16.1136C22.8187 16.1762 23.1468 16.5375 23.1736 16.5949L23.7327 16.8388V16.8375Z" fill="white"/>
<path fill-rule="evenodd" clip-rule="evenodd" d="M22.9808 16.3537C22.1267 14.4707 20.3215 11.9174 18.8113 10.4646C20.1326 12.0987 21.3811 13.8936 22.0373 15.6299C22.0667 15.6924 22.3948 16.0537 22.4216 16.1112L22.9808 16.355V16.3537Z" fill="white"/>
<path fill-rule="evenodd" clip-rule="evenodd" d="M22.3027 15.9222C21.4487 14.0392 19.7074 11.5191 17.666 9.91309C19.415 11.574 20.9265 13.8477 21.2648 15.1307C21.2942 15.1932 21.6223 15.5545 21.6491 15.612L22.3027 15.9222V15.9222Z" fill="white"/>
<path fill-rule="evenodd" clip-rule="evenodd" d="M21.4271 15.0439C20.5284 13.295 18.7322 10.9396 16.6653 9.41016C18.4449 10.9804 20.0062 13.1047 20.3765 14.2895C20.4071 14.3482 20.7429 14.6878 20.7709 14.7401L21.4271 15.0427V15.0439Z" fill="white"/>
<path fill-rule="evenodd" clip-rule="evenodd" d="M20.8603 14.4158C19.8351 12.7383 17.8704 10.5208 15.6963 9.14844C17.587 10.5834 19.3002 12.5877 19.7573 13.7418C19.7917 13.7979 20.1517 14.112 20.1837 14.1631L20.8603 14.4171V14.4158Z" fill="white"/>
<path fill-rule="evenodd" clip-rule="evenodd" d="M20.2399 13.7851C19.0845 12.1944 16.95 10.139 14.675 8.94409C16.673 10.2246 18.5394 12.0859 19.0871 13.2004C19.1254 13.2527 19.5097 13.5374 19.5454 13.5859L20.2399 13.7851Z" fill="white"/>
<path fill-rule="evenodd" clip-rule="evenodd" d="M19.2465 12.7804C17.9201 11.3289 15.5698 9.52629 13.1748 8.5918C15.303 9.63991 17.3673 11.2817 18.0362 12.3272C18.0809 12.3757 18.4933 12.6157 18.5354 12.6592L19.2478 12.7792L19.2465 12.7804Z" fill="white"/>
<path fill-rule="evenodd" clip-rule="evenodd" d="M16.9614 10.8923C15.349 9.76762 12.8264 8.42078 10.6255 8.48461C12.866 8.65185 14.7503 9.74592 15.9733 10.5732C16.0269 10.6102 16.2554 10.8566 16.3052 10.8898L16.9614 10.8923Z" fill="white"/>
<path fill-rule="evenodd" clip-rule="evenodd" d="M3.18018 29.5489C3.18018 29.5489 4.74278 21.5994 12.0272 19.1533C19.3117 16.7073 18.1857 18.1358 18.1857 18.1358L10.7596 20.2244C7.06753 21.5432 4.3151 26.3395 3.18018 29.5489V29.5489Z" fill="white"/>
<path fill-rule="evenodd" clip-rule="evenodd" d="M4.16187 28.8622C4.16187 28.8622 5.70915 22.7918 11.1106 19.6807L11.3302 20.0649C8.00198 21.7054 5.22147 25.866 4.16187 28.8635V28.8622Z" fill="white"/>
<path fill-rule="evenodd" clip-rule="evenodd" d="M5.11938 28.1856C6.24027 24.9787 9.05908 21.1781 12.2213 19.3577L12.4409 19.7419C9.30036 21.2892 6.53007 25.2174 5.11938 28.1856V28.1856Z" fill="white"/>
<path fill-rule="evenodd" clip-rule="evenodd" d="M6.0105 27.7322C7.13138 24.5253 10.457 20.7324 13.6192 18.9106L13.8388 19.2949C10.6983 20.8422 7.4199 24.764 6.0105 27.7322V27.7322Z" fill="white"/>
<path fill-rule="evenodd" clip-rule="evenodd" d="M6.88873 27.353C8.03897 24.1972 11.4182 20.4975 14.6213 18.7485L14.8409 19.1328C11.6608 20.6111 8.32877 24.4385 6.88745 27.353H6.88873Z" fill="white"/>
<path fill-rule="evenodd" clip-rule="evenodd" d="M8.04663 26.7531C9.22752 23.6496 12.6629 20.0482 15.9094 18.3745L16.129 18.7588C12.9081 20.1656 9.51859 23.8934 8.04663 26.7531Z" fill="white"/>
<path fill-rule="evenodd" clip-rule="evenodd" d="M12.6451 24.8434C13.4762 22.7216 15.8201 20.3088 18.4436 18.6619C15.4639 20.1811 12.6477 23.1072 11.4387 25.3745C12.3004 23.0574 14.8831 20.3777 17.6917 18.6785C14.6456 20.2041 11.7349 23.3255 10.5183 25.7141C11.3404 23.3868 13.826 20.6777 16.5529 18.9198C13.4213 20.3765 10.8515 23.6395 9.58887 26.1149C10.5642 23.3548 13.3294 20.0599 16.6116 18.4513L18.0887 18.0479L19.1598 17.8921L19.3538 18.1283C19.7419 17.9164 20.1339 17.7223 20.5245 17.5513L20.7901 17.8755C17.4146 19.1305 14.0264 22.3731 12.6464 24.8421L12.6451 24.8434Z" fill="white"/>
<path fill-rule="evenodd" clip-rule="evenodd" d="M14.0674 24.0734C15.2815 21.5418 17.2207 19.6486 20.5335 17.8115L20.7531 18.1958C18.8841 18.9618 15.6951 21.2635 14.0674 24.0734V24.0734Z" fill="white"/>
<path fill-rule="evenodd" clip-rule="evenodd" d="M15.4551 23.5283C16.5223 21.1538 18.3977 19.3295 21.7157 17.4873L21.9761 17.8282C20.0829 18.621 16.9321 20.8819 15.4551 23.5296V23.5283Z" fill="white"/>
<path fill-rule="evenodd" clip-rule="evenodd" d="M16.5479 23.0968C17.43 20.9329 19.2275 19.1979 22.5506 17.3494L22.8634 17.6315C20.9395 18.4588 17.836 20.6648 16.5479 23.098V23.0968Z" fill="white"/>
<path fill-rule="evenodd" clip-rule="evenodd" d="M17.7886 22.193C18.7563 20.3292 20.5078 18.764 23.4862 17.1069L23.799 17.3891C22.0793 18.1282 19.2733 20.0623 17.7899 22.193H17.7886Z" fill="white"/>
<path fill-rule="evenodd" clip-rule="evenodd" d="M18.5049 22.2148C19.3462 20.3509 21.0454 18.7857 24.0276 17.1287L24.3838 17.4108C22.6399 18.15 19.8658 20.0841 18.5049 22.2148Z" fill="white"/>
<path fill-rule="evenodd" clip-rule="evenodd" d="M23.9548 17.5014C21.6083 16.7699 18.2201 16.2937 15.7371 16.4839C18.2303 16.6039 20.5066 16.9741 22.5658 17.7656C22.6436 17.7899 23.2245 17.7835 23.296 17.8052L23.9548 17.5027V17.5014Z" fill="white"/>
<path fill-rule="evenodd" clip-rule="evenodd" d="M22.9321 17.7861C20.5857 17.0546 16.8936 16.6358 14.4119 16.8248C16.9051 16.9448 19.4852 17.2588 21.5444 18.0503C21.6223 18.0746 22.2032 18.0682 22.2747 18.0899L22.9334 17.7874L22.9321 17.7861Z" fill="white"/>
<path fill-rule="evenodd" clip-rule="evenodd" d="M22.013 18.0464C19.6666 17.3149 16.0563 16.8655 13.0166 17.4056C15.8724 17.1681 19.0844 17.6264 20.49 18.3413C20.5679 18.3656 21.1488 18.3592 21.2203 18.3809L22.0118 18.0477L22.013 18.0464Z" fill="white"/>
<path fill-rule="evenodd" clip-rule="evenodd" d="M20.5411 18.1281C18.2789 17.5421 14.7695 17.2715 11.7783 17.8945C14.578 17.5587 17.6968 17.8549 19.0411 18.4626C19.1164 18.4817 19.6832 18.4536 19.7535 18.4702L20.5411 18.1281V18.1281Z" fill="white"/>
<path fill-rule="evenodd" clip-rule="evenodd" d="M19.5364 18.1333C17.2372 17.7158 13.7175 17.7043 10.7812 18.5456C13.549 18.0043 16.6806 18.0695 18.067 18.5776C18.1436 18.5903 18.7066 18.5214 18.7781 18.5329L19.5377 18.1333H19.5364Z" fill="white"/>
<path fill-rule="evenodd" clip-rule="evenodd" d="M18.4857 18.1842C16.1609 17.9506 12.6515 18.2174 9.79053 19.2911C12.5059 18.5315 15.6337 18.3489 17.0559 18.7447C17.1337 18.7523 17.6891 18.6374 17.7606 18.6425L18.4857 18.1842V18.1842Z" fill="white"/>
<path fill-rule="evenodd" clip-rule="evenodd" d="M16.8094 18.2712C14.4732 18.2993 11.0148 18.9581 8.29297 20.3432C10.9062 19.2849 13.9944 18.7525 15.4511 18.9874C15.5289 18.9862 16.0689 18.81 16.1404 18.8074L16.8107 18.2712H16.8094Z" fill="white"/>
<path fill-rule="evenodd" clip-rule="evenodd" d="M13.3268 18.8035C11.0531 19.3435 7.86406 20.5154 6.18018 22.5185C8.10023 20.6635 10.5616 19.8567 12.2621 19.4277C12.3374 19.4086 12.7357 19.4009 12.8059 19.3831L13.328 18.8035H13.3268Z" fill="white"/>
<path fill-rule="evenodd" clip-rule="evenodd" d="M16.8567 0C16.8567 0 22.7177 2.06942 23.7658 7.87045C24.8139 13.6727 23.8552 12.6591 23.8552 12.6591L23.0943 6.78914C22.5032 3.84011 19.1674 1.21791 16.8567 0V0Z" fill="white"/>
<path fill-rule="evenodd" clip-rule="evenodd" d="M17.269 0.820801C17.269 0.820801 21.7066 2.66937 23.4684 7.11588L23.1518 7.23972C22.276 4.5307 19.4266 1.95828 17.269 0.820801V0.820801Z" fill="white"/>
<path fill-rule="evenodd" clip-rule="evenodd" d="M17.6763 1.62378C19.9857 2.83147 22.5581 5.3924 23.5896 7.99546L23.273 8.11929C22.447 5.56347 19.7725 3.02297 17.6763 1.62378V1.62378Z" fill="white"/>
<path fill-rule="evenodd" clip-rule="evenodd" d="M17.9214 2.35034C20.2308 3.55804 22.742 6.50323 23.7735 9.10629L23.4569 9.23012C22.6309 6.6743 20.0176 3.74953 17.9214 2.35034V2.35034Z" fill="white"/>
<path fill-rule="evenodd" clip-rule="evenodd" d="M18.1116 3.05884C20.3802 4.28313 22.8135 7.25896 23.785 9.885L23.4684 10.0088C22.6986 7.43131 20.1632 4.4759 18.1104 3.05884H18.1116Z" fill="white"/>
<path fill-rule="evenodd" clip-rule="evenodd" d="M18.4385 4.00469C20.6637 5.24558 23.0153 8.25333 23.9255 10.9036L23.6089 11.0275C22.8991 8.42568 20.4441 5.43963 18.4373 4.00342L18.4385 4.00469Z" fill="white"/>
<path fill-rule="evenodd" clip-rule="evenodd" d="M19.378 7.70842C20.896 8.57526 22.4675 10.6217 23.4263 12.7971C22.6041 10.3664 20.6955 7.90375 19.1087 6.73307C20.7721 7.64459 22.5198 9.90295 23.4977 12.2239C22.6781 9.7421 20.6304 7.18628 18.9529 5.99645C20.6279 6.87989 22.4088 9.06676 23.4403 11.3328C22.682 8.79356 20.4913 6.4803 18.7512 5.24707C20.7377 6.29391 22.9322 8.75909 23.7888 11.4298L23.9305 12.5954V13.4265L23.7288 13.5477C23.8463 13.8656 23.9497 14.1848 24.0365 14.5001L23.7607 14.6661C23.1824 11.9634 21.0977 9.03229 19.3768 7.7097L19.378 7.70842Z" fill="white"/>
<path fill-rule="evenodd" clip-rule="evenodd" d="M19.8045 8.87378C21.5918 10.0776 22.8135 11.759 23.8399 14.4782L23.5233 14.602C23.1493 13.0982 21.7565 10.4211 19.8032 8.87378H19.8045Z" fill="white"/>
<path fill-rule="evenodd" clip-rule="evenodd" d="M20.0649 9.98706C21.7488 11.0607 22.9259 12.6871 23.9561 15.4102L23.6689 15.5711C23.277 14.0455 21.911 11.4028 20.0649 9.98706V9.98706Z" fill="white"/>
<path fill-rule="evenodd" clip-rule="evenodd" d="M20.2705 10.8643C21.8152 11.7745 22.9336 13.332 23.9676 16.0602L23.7187 16.2657C23.3038 14.7133 21.9735 12.1128 20.2705 10.8643V10.8643Z" fill="white"/>
<path fill-rule="evenodd" clip-rule="evenodd" d="M20.8193 11.907C22.1266 12.8479 23.1211 14.3531 24.0479 16.7965L23.799 17.0021C23.4288 15.6144 22.2721 13.2692 20.8193 11.9058V11.907Z" fill="white"/>
<path fill-rule="evenodd" clip-rule="evenodd" d="M20.7222 12.4473C22.0435 13.2937 23.0431 14.7567 23.97 17.2053L23.7159 17.444C23.3483 16.0384 22.1878 13.7175 20.7209 12.4473H20.7222Z" fill="white"/>
<path fill-rule="evenodd" clip-rule="evenodd" d="M23.6956 17.1094C24.5114 15.4102 25.2493 12.8901 25.3808 10.9841C25.0118 12.8633 24.4782 14.551 23.6496 16.0256C23.6228 16.083 23.5628 16.5234 23.5386 16.5758L23.6956 17.1094V17.1094Z" fill="white"/>
<path fill-rule="evenodd" clip-rule="evenodd" d="M23.5935 16.3014C24.4093 14.6022 25.137 11.8447 25.2698 9.93994C24.9008 11.8191 24.3774 13.743 23.5476 15.2188C23.5208 15.2763 23.4608 15.7167 23.4365 15.7691L23.5935 16.3027V16.3014Z" fill="white"/>
<path fill-rule="evenodd" clip-rule="evenodd" d="M23.4977 15.5737C24.3135 13.8745 25.0552 11.1821 24.9838 8.81519C24.8472 11.0097 24.1425 13.397 23.4429 14.3851C23.416 14.4426 23.356 14.883 23.3318 14.9354L23.4977 15.5737V15.5737Z" fill="white"/>
<path fill-rule="evenodd" clip-rule="evenodd" d="M23.5986 14.4478C24.2944 12.7958 24.8906 10.1608 24.7489 7.82202C24.6927 9.98464 24.122 12.3196 23.5105 13.2732C23.4875 13.3281 23.4467 13.7622 23.4263 13.8133L23.5986 14.449V14.4478Z" fill="white"/>
<path fill-rule="evenodd" clip-rule="evenodd" d="M23.7071 13.6841C24.279 11.9849 24.6799 9.3142 24.3658 6.99072C24.4692 9.15206 24.0722 11.5228 23.5335 12.5185C23.5143 12.576 23.5054 13.0113 23.4888 13.0637L23.7071 13.6841Z" fill="white"/>
<path fill-rule="evenodd" clip-rule="evenodd" d="M23.7851 12.8813C24.2204 11.1425 24.4068 8.44751 23.9102 6.15723C24.1847 8.30325 23.9766 10.6982 23.5183 11.7336C23.5042 11.7923 23.5297 12.2263 23.5183 12.28L23.7851 12.8813V12.8813Z" fill="white"/>
<path fill-rule="evenodd" clip-rule="evenodd" d="M23.905 11.5995C24.1437 9.82243 24.0275 7.12363 23.2769 4.90356C23.7901 7.0049 23.8513 9.40881 23.5118 10.4888C23.5041 10.5476 23.5781 10.9778 23.5718 11.0314L23.905 11.5995V11.5995Z" fill="white"/>
<path fill-rule="evenodd" clip-rule="evenodd" d="M23.8872 8.89688C23.7289 7.11087 23.1939 4.56016 21.8599 3.05884C23.0548 4.72229 23.3944 6.68065 23.531 8.01856C23.5361 8.07856 23.4978 8.38112 23.5042 8.43602L23.8859 8.89688H23.8872Z" fill="white"/>
<path fill-rule="evenodd" clip-rule="evenodd" d="M0 19.7866C0 19.7866 3.87458 14.0252 11.8625 14.5346C19.8517 15.0427 18.3108 15.7946 18.3108 15.7946L10.2846 14.9559C6.2121 14.7605 2.06815 17.6291 0 19.7866Z" fill="white"/>
<path fill-rule="evenodd" clip-rule="evenodd" d="M1.17969 19.5721C1.17969 19.5721 4.49128 15.2903 10.7927 14.6431L10.9013 15.021C7.09816 15.2022 3.11123 17.5589 1.18096 19.5734L1.17969 19.5721Z" fill="white"/>
<path fill-rule="evenodd" clip-rule="evenodd" d="M2.33374 19.3577C4.38657 17.1989 8.30839 15.1384 11.9966 14.7593L12.1051 15.1372C8.51775 15.3082 4.60742 17.4836 2.33502 19.3577H2.33374Z" fill="white"/>
<path fill-rule="evenodd" clip-rule="evenodd" d="M3.35498 19.299C5.40781 17.1402 9.8339 15.2559 13.5221 14.8755L13.6306 15.2534C10.0433 15.4244 5.62739 17.4249 3.35498 19.299Z" fill="white"/>
<path fill-rule="evenodd" clip-rule="evenodd" d="M4.34302 19.2938C6.40989 17.1836 10.8628 15.3924 14.5714 15.0835L14.6799 15.4614C11.0734 15.5648 6.63075 17.4721 4.34429 19.2938H4.34302Z" fill="white"/>
<path fill-rule="evenodd" clip-rule="evenodd" d="M5.67456 19.2084C7.75675 17.1505 12.2365 15.4551 15.9655 15.2202L16.074 15.5981C12.4471 15.63 7.97761 17.4416 5.67456 19.2084Z" fill="white"/>
<path fill-rule="evenodd" clip-rule="evenodd" d="M10.8233 19.2402C12.271 17.8423 15.3133 16.7202 18.4142 16.2976C14.9954 16.4993 11.3314 17.8679 9.46373 19.2556C10.9982 17.7134 14.3583 16.4597 17.6572 16.0576C14.1707 16.2427 10.3548 17.7351 8.4437 19.2147C9.94247 17.6508 13.2132 16.3423 16.4482 15.8674C12.8966 15.9682 9.37947 17.6866 7.39941 19.2211C9.17649 17.3661 12.8979 15.6886 16.6448 15.5176L18.238 15.6938L19.3538 15.9299L19.4789 16.1827C19.9283 16.1457 20.3751 16.124 20.8156 16.1189L20.9866 16.4648C17.2486 16.3257 12.9221 17.753 10.8246 19.2428L10.8233 19.2402Z" fill="white"/>
<path fill-rule="evenodd" clip-rule="evenodd" d="M12.4688 19.1087C14.4182 17.5142 16.9063 16.6678 20.7503 16.3269L20.8588 16.7048C18.7689 16.6844 14.9135 17.4337 12.47 19.11L12.4688 19.1087Z" fill="white"/>
<path fill-rule="evenodd" clip-rule="evenodd" d="M14.0122 19.1419C15.7689 17.6228 18.1728 16.8083 22.0231 16.4648L22.1852 16.821C20.0622 16.8134 16.2578 17.5436 14.0122 19.1419Z" fill="white"/>
<path fill-rule="evenodd" clip-rule="evenodd" d="M15.229 19.1676C16.7393 17.753 19.0398 16.9832 22.8977 16.636L23.1275 16.9641C20.9649 16.973 17.2231 17.6764 15.229 19.1676V19.1676Z" fill="white"/>
<path fill-rule="evenodd" clip-rule="evenodd" d="M16.7329 18.8686C18.2419 17.7197 20.4479 17.0686 23.9038 16.7571L24.1336 17.0852C22.2007 17.0928 18.8355 17.6814 16.7329 18.8686V18.8686Z" fill="white"/>
<path fill-rule="evenodd" clip-rule="evenodd" d="M17.4414 19.1265C18.824 17.9354 20.9764 17.2665 24.4386 16.9575L24.7131 17.2997C22.756 17.2997 19.4227 17.8984 17.4427 19.1265H17.4414Z" fill="white"/>
<path fill-rule="evenodd" clip-rule="evenodd" d="M24.2573 17.2283C22.1266 15.8623 18.8801 14.3507 16.3447 13.6677C18.801 14.5997 20.9674 15.6554 22.793 16.9717C22.8645 17.0163 23.4454 17.2066 23.5117 17.2474L24.2573 17.2283Z" fill="white"/>
<path fill-rule="evenodd" clip-rule="evenodd" d="M23.1531 17.1094C21.0224 15.7434 17.4568 14.1745 14.9214 13.4915C17.3776 14.4234 19.8632 15.5353 21.6888 16.8516C21.7603 16.8962 22.3412 17.0865 22.4076 17.1273L23.1531 17.1082V17.1094Z" fill="white"/>
<path fill-rule="evenodd" clip-rule="evenodd" d="M22.1585 17.0074C20.0278 15.6414 16.5515 14.0762 13.3586 13.4839C16.2809 14.2537 19.3563 15.6937 20.5525 16.7304C20.624 16.775 21.2048 16.9653 21.2712 17.0061H22.1598V17.0074H22.1585Z" fill="white"/>
<path fill-rule="evenodd" clip-rule="evenodd" d="M20.6649 16.5785C18.5751 15.3567 15.1486 13.9652 11.98 13.4558C14.8741 14.1286 17.9048 15.4091 19.0704 16.341C19.1406 16.3819 19.7151 16.5491 19.7789 16.5848L20.6649 16.5785V16.5785Z" fill="white"/>
<path fill-rule="evenodd" clip-rule="evenodd" d="M19.6589 16.2452C17.4836 15.1434 13.9715 13.9549 10.7927 13.6357C13.7149 14.1362 16.8248 15.2379 18.0606 16.1035C18.1334 16.1392 18.7168 16.2733 18.7832 16.3065L19.6577 16.2452H19.6589Z" fill="white"/>
<path fill-rule="evenodd" clip-rule="evenodd" d="M18.5953 15.9337C16.3408 14.9685 12.7573 14.0034 9.5874 13.8923C12.5211 14.2026 15.6986 15.1064 17.0034 15.8966C17.0787 15.9286 17.6672 16.0243 17.7374 16.0524L18.5953 15.9337Z" fill="white"/>
<path fill-rule="evenodd" clip-rule="evenodd" d="M16.8962 15.4396C14.5536 14.6774 10.9088 14.0391 7.78613 14.2217C10.7045 14.2612 13.9446 14.8766 15.331 15.5494C15.4089 15.5749 16 15.6158 16.0715 15.6387L16.8962 15.4396V15.4396Z" fill="white"/>
<path fill-rule="evenodd" clip-rule="evenodd" d="M13.263 14.693C10.8348 14.3585 7.30747 14.2142 5.04272 15.2343C7.50024 14.4121 10.1927 14.5985 12.017 14.8296C12.0974 14.8398 12.4983 14.9674 12.5723 14.9764L13.263 14.693V14.693Z" fill="white"/>
<path fill-rule="evenodd" clip-rule="evenodd" d="M29.5414 0.0522461C29.5414 0.0522461 32.5326 5.14729 29.2465 10.4351C25.9592 15.7229 25.9438 14.3442 25.9438 14.3442L29.4967 9.16996C31.1232 6.44818 30.4376 2.38466 29.5414 0.0522461V0.0522461Z" fill="white"/>
<path fill-rule="evenodd" clip-rule="evenodd" d="M29.2772 0.954834C29.2772 0.954834 31.3428 5.03879 29.5517 9.65254L29.2249 9.56828C30.467 6.87331 30.1147 3.13405 29.2772 0.956111V0.954834Z" fill="white"/>
<path fill-rule="evenodd" clip-rule="evenodd" d="M29.0217 1.8396C29.9243 4.16307 30.0737 7.73126 29.0255 10.4313L28.6987 10.3471C29.8707 7.80531 29.6281 4.19499 29.023 1.8396H29.0217Z" fill="white"/>
<path fill-rule="evenodd" clip-rule="evenodd" d="M28.6963 2.56714C29.5989 4.89061 29.4316 8.73328 28.3822 11.4321L28.0554 11.3478C29.2274 8.80605 29.3027 4.92125 28.6963 2.56714Z" fill="white"/>
<path fill-rule="evenodd" clip-rule="evenodd" d="M28.3413 3.25146C29.2018 5.56345 28.9528 9.38441 27.8434 12.0692L27.5166 11.9849C28.7473 9.45718 28.9018 5.59409 28.3413 3.25146Z" fill="white"/>
<path fill-rule="evenodd" clip-rule="evenodd" d="M27.924 4.20386C28.7385 6.50435 28.4078 10.3036 27.2333 12.9718L26.9065 12.8875C28.1984 10.3764 28.4372 6.53499 27.924 4.20386V4.20386Z" fill="white"/>
<path fill-rule="evenodd" clip-rule="evenodd" d="M26.0306 7.73621C26.5732 9.32179 26.3242 11.8904 25.5225 14.2036C26.6089 11.764 26.8936 8.66433 26.5132 6.79278C27.1336 8.49964 26.8706 11.3414 25.9808 13.7836C27.1055 11.3044 27.3506 8.04771 26.914 6.1085C27.5638 7.80004 27.3762 10.6035 26.5642 13.0317C27.7758 10.5423 27.7413 7.39663 27.2881 5.38721C28.0592 7.3928 27.989 10.6623 26.7608 13.3151L26.0485 14.3377L25.4638 15.0066L25.2263 14.9862C25.0923 15.3118 24.9467 15.6284 24.7897 15.9335L24.4629 15.9054C25.9259 13.3904 26.4059 9.80819 26.0306 7.73749V7.73621Z" fill="white"/>
<path fill-rule="evenodd" clip-rule="evenodd" d="M25.5341 8.9248C26.0435 10.9393 25.7869 13.0088 24.6532 15.7995L24.3264 15.7152C25.1013 14.2841 25.9273 11.3134 25.5354 8.9248H25.5341Z" fill="white"/>
<path fill-rule="evenodd" clip-rule="evenodd" d="M24.948 9.97437C25.4702 11.8242 25.2187 13.8234 24.085 16.6192L23.7544 16.5809C24.5306 15.123 25.354 12.1944 24.9493 9.97437H24.948Z" fill="white"/>
<path fill-rule="evenodd" clip-rule="evenodd" d="M24.4872 10.8015C25.0182 12.4382 24.7718 14.3467 23.6369 17.1502L23.3037 17.1706C24.0812 15.677 24.9021 12.8046 24.4884 10.8015H24.4872Z" fill="white"/>
<path fill-rule="evenodd" clip-rule="evenodd" d="M24.1705 11.9619C24.5012 13.4849 24.1961 15.2786 23.1799 17.7897L22.8467 17.8102C23.5424 16.4748 24.3148 13.9101 24.1705 11.9619V11.9619Z" fill="white"/>
<path fill-rule="evenodd" clip-rule="evenodd" d="M23.7161 12.3425C24.1233 13.7966 23.8527 15.5609 22.8327 18.0746L22.4727 18.1193C23.1825 16.7712 23.9357 14.223 23.7161 12.3425V12.3425Z" fill="white"/>
<path fill-rule="evenodd" clip-rule="evenodd" d="M22.6921 17.8358C24.5075 16.9435 26.8399 15.3451 28.2812 13.8872C26.6791 15.1868 25.0871 16.2337 23.4198 16.9358C23.3598 16.9664 23.0036 17.2856 22.9487 17.3137L22.6921 17.8358Z" fill="white"/>
<path fill-rule="evenodd" clip-rule="evenodd" d="M23.1838 17.1247C24.9992 16.2324 27.4912 14.4374 28.9325 12.9795C27.3303 14.2778 25.5788 15.5213 23.9115 16.2247C23.8515 16.2553 23.4953 16.5745 23.4404 16.6026L23.1838 17.1247V17.1247Z" fill="white"/>
<path fill-rule="evenodd" clip-rule="evenodd" d="M23.6216 16.4839C25.437 15.5915 27.8932 13.8566 29.5043 11.9084C27.8562 13.5962 25.6412 15.1077 24.4156 15.4945C24.3556 15.5252 23.9995 15.8443 23.9446 15.8724L23.6216 16.4839Z" fill="white"/>
<path fill-rule="evenodd" clip-rule="evenodd" d="M24.491 15.6361C26.1812 14.7118 28.4868 12.9385 30.0265 10.97C28.4626 12.6794 26.3855 14.2267 25.2518 14.6377C25.1957 14.6684 24.8586 14.9939 24.8076 15.0233L24.491 15.6361Z" fill="white"/>
<path fill-rule="evenodd" clip-rule="evenodd" d="M25.1101 15.0834C26.7404 14.0493 28.9234 12.1318 30.32 10.0764C28.8787 11.8777 26.9076 13.5552 25.7982 14.0416C25.7446 14.0761 25.4305 14.4221 25.3808 14.454L25.1101 15.0821V15.0834Z" fill="white"/>
<path fill-rule="evenodd" clip-rule="evenodd" d="M25.7344 14.4822C27.2893 13.3358 29.3268 11.274 30.5613 9.13818C29.2592 11.0276 27.4157 12.8353 26.3408 13.4009C26.2897 13.4392 26.0025 13.8043 25.9552 13.84L25.7344 14.4809V14.4822Z" fill="white"/>
<path fill-rule="evenodd" clip-rule="evenodd" d="M26.7278 13.5195C28.1589 12.2276 29.9692 9.98578 30.9637 7.75806C29.8747 9.75216 28.2291 11.7233 27.2116 12.3948C27.1644 12.4382 26.918 12.8276 26.8746 12.8671L26.7278 13.5195V13.5195Z" fill="white"/>
<path fill-rule="evenodd" clip-rule="evenodd" d="M28.6157 11.3313C29.7532 9.80057 31.1422 7.43113 31.1856 5.44214C30.9213 7.48092 29.8017 9.25672 28.9642 10.4159C28.9272 10.467 28.6847 10.6891 28.6502 10.7363L28.6157 11.3313V11.3313Z" fill="white"/>
<path fill-rule="evenodd" clip-rule="evenodd" d="M41.4332 33.7849C41.4332 33.7849 41.829 25.2889 35.013 20.9713C28.1971 16.655 28.9886 18.3925 28.9886 18.3925L36.0381 22.3807C39.4723 24.6493 41.0783 30.2282 41.4332 33.7849V33.7849Z" fill="white"/>
<path fill-rule="evenodd" clip-rule="evenodd" d="M40.6059 32.8389C40.6059 32.8389 40.5471 26.2616 35.8185 21.7385L35.498 22.0756C38.4815 24.5816 40.2752 29.5183 40.6059 32.8401V32.8389Z" fill="white"/>
<path fill-rule="evenodd" clip-rule="evenodd" d="M39.7977 31.9094C39.4569 28.3591 37.5343 23.7798 34.7653 21.1321L34.4448 21.4691C37.2598 23.8334 39.102 28.5315 39.7977 31.9107V31.9094Z" fill="white"/>
<path fill-rule="evenodd" clip-rule="evenodd" d="M39.0026 31.2252C38.6617 27.6749 36.2195 22.9756 33.4518 20.3279L33.1313 20.6649C35.9463 23.0292 38.3068 27.8473 39.0026 31.2265V31.2252Z" fill="white"/>
<path fill-rule="evenodd" clip-rule="evenodd" d="M38.2021 30.6188C37.8191 27.1132 35.2991 22.4956 32.4713 19.9104L32.1509 20.2474C35.0233 22.5505 37.463 27.2868 38.2021 30.6188V30.6188Z" fill="white"/>
<path fill-rule="evenodd" clip-rule="evenodd" d="M37.1718 29.7175C36.7442 26.2578 34.1424 21.727 31.2521 19.2083L30.9316 19.5453C33.8641 21.7858 36.3867 26.434 37.1718 29.7188V29.7175Z" fill="white"/>
<path fill-rule="evenodd" clip-rule="evenodd" d="M32.9615 26.6191C32.6449 24.2484 30.8589 21.2023 28.5954 18.8661C31.2534 21.1602 33.393 24.8484 34.0581 27.4629C33.7594 24.8854 31.7959 21.5062 29.3588 19.0716C32.0832 21.3887 34.27 25.3003 34.9135 28.04C34.6569 25.4612 32.8006 22.0768 30.4593 19.6027C33.2883 21.8713 35.0922 25.8403 35.7586 28.6808C35.4548 25.6233 33.4594 21.5713 30.5155 19.1099L29.1112 18.3286L28.0579 17.9022L27.8013 18.095C27.4579 17.7822 27.1081 17.486 26.7532 17.2141L26.4009 17.4784C29.5286 19.6027 32.1713 23.7569 32.9615 26.6191V26.6191Z" fill="white"/>
<path fill-rule="evenodd" clip-rule="evenodd" d="M31.7027 25.479C31.0976 22.5938 29.595 20.1784 26.6766 17.4771L26.3562 17.8141C28.0707 19.0639 30.7465 22.2083 31.7027 25.479V25.479Z" fill="white"/>
<path fill-rule="evenodd" clip-rule="evenodd" d="M30.4249 24.5751C29.9308 21.8878 28.4754 19.5579 25.5532 16.8489L25.2021 17.131C26.9345 18.4128 29.581 21.506 30.4249 24.5751Z" fill="white"/>
<path fill-rule="evenodd" clip-rule="evenodd" d="M29.4187 23.8628C29.06 21.436 27.6621 19.2172 24.7361 16.5005L24.3467 16.7099C26.1021 18.035 28.714 21.0606 29.4187 23.8628V23.8628Z" fill="white"/>
<path fill-rule="evenodd" clip-rule="evenodd" d="M28.3796 22.6295C27.86 20.4873 26.4646 18.4524 23.8437 16.0178L23.4543 16.2272C25.0233 17.4119 27.4004 20.0852 28.3796 22.6295Z" fill="white"/>
<path fill-rule="evenodd" clip-rule="evenodd" d="M27.6443 22.4725C27.2524 20.361 25.9119 18.3401 23.2859 15.9055L22.8518 16.1034C24.4438 17.2932 26.7889 19.9601 27.6443 22.4725V22.4725Z" fill="white"/>
<path fill-rule="evenodd" clip-rule="evenodd" d="M23.2654 16.3038C25.8404 16.1443 29.4149 16.5081 31.898 17.3213C29.3256 16.8209 26.9114 16.6281 24.6148 16.9192C24.5292 16.9243 23.9394 16.7736 23.8603 16.7762L23.2654 16.3026V16.3038Z" fill="white"/>
<path fill-rule="evenodd" clip-rule="evenodd" d="M24.2383 16.8488C26.8133 16.6893 30.6827 17.1859 33.1658 18.0004C30.5934 17.4999 27.8843 17.1731 25.5877 17.4642C25.5021 17.4693 24.9123 17.3186 24.8332 17.3212L24.2383 16.8476V16.8488Z" fill="white"/>
<path fill-rule="evenodd" clip-rule="evenodd" d="M25.1101 17.3456C27.6851 17.1861 31.4792 17.6329 34.4436 18.9427C31.5903 17.9852 28.2008 17.6495 26.5897 18.0274C26.5042 18.0325 25.9144 17.8818 25.8352 17.8844L25.1114 17.3456H25.1101Z" fill="white"/>
<path fill-rule="evenodd" clip-rule="evenodd" d="M26.5898 17.7962C29.0423 17.7656 32.6896 18.3669 35.5825 19.7507C32.8122 18.7077 29.5567 18.229 28.035 18.5124C27.9533 18.5124 27.3826 18.3413 27.3073 18.3413L26.5898 17.7949V17.7962Z" fill="white"/>
<path fill-rule="evenodd" clip-rule="evenodd" d="M27.6136 18.0542C30.0622 18.2036 33.6546 19.073 36.4377 20.6662C33.7516 19.4215 30.5409 18.7053 29.0013 18.8751C28.9196 18.87 28.363 18.6568 28.2876 18.6517L27.6123 18.0542H27.6136Z" fill="white"/>
<path fill-rule="evenodd" clip-rule="evenodd" d="M28.6719 18.3682C31.1013 18.7116 34.6121 19.8618 37.2611 21.6721C34.6823 20.218 31.5392 19.249 29.9906 19.2976C29.9102 19.2861 29.3715 19.0295 29.2974 19.018L28.6719 18.3694V18.3682Z" fill="white"/>
<path fill-rule="evenodd" clip-rule="evenodd" d="M30.3584 18.8763C32.7342 19.4891 36.0943 21.0261 38.5237 23.1198C36.1237 21.3861 33.1083 20.0712 31.5648 19.9461C31.4857 19.9257 30.9801 19.6103 30.9074 19.5899L30.3584 18.875V18.8763Z" fill="white"/>
<path fill-rule="evenodd" clip-rule="evenodd" d="M33.7759 20.2908C35.9589 21.4104 38.9169 23.4032 40.1335 25.8671C38.6399 23.4964 36.333 22.0576 34.7065 21.1946C34.6338 21.1563 34.2304 21.0491 34.164 21.0133L33.7772 20.292L33.7759 20.2908Z" fill="white"/>
<path fill-rule="evenodd" clip-rule="evenodd" d="M18.4895 41.2034C18.4895 41.2034 26.5221 36.7658 25.9438 28.6796C25.3642 20.5934 24.3007 22.2262 24.3007 22.2262L25.3361 30.3226C25.5429 34.45 21.5075 38.9143 18.4895 41.2046V41.2034Z" fill="white"/>
<path fill-rule="evenodd" clip-rule="evenodd" d="M18.8047 39.9843C18.8047 39.9843 24.7806 36.2463 25.7764 29.7776L25.2555 29.6997C24.9453 33.5845 21.6222 37.8459 18.8047 39.9843Z" fill="white"/>
<path fill-rule="evenodd" clip-rule="evenodd" d="M19.1177 38.7919C22.1382 36.5169 25.0489 32.3487 25.6323 28.5635L25.1115 28.4856C24.8191 32.1508 21.7463 36.3177 19.1177 38.7919Z" fill="white"/>
<path fill-rule="evenodd" clip-rule="evenodd" d="M19.2158 37.7476C22.2363 35.4726 24.9122 30.8065 25.4956 27.02L24.9747 26.9421C24.6824 30.6074 21.8444 35.2735 19.2158 37.7463V37.7476Z" fill="white"/>
<path fill-rule="evenodd" clip-rule="evenodd" d="M19.2388 36.7417C22.1903 34.4565 24.7398 29.7712 25.2249 25.9707L24.704 25.8928C24.5049 29.5721 21.7959 34.2573 19.2388 36.7417V36.7417Z" fill="white"/>
<path fill-rule="evenodd" clip-rule="evenodd" d="M19.3779 35.3794C22.258 33.084 24.6734 28.3784 25.0577 24.5625L24.5368 24.4846C24.4347 28.1779 21.8597 32.8823 19.3779 35.3781V35.3794Z" fill="white"/>
<path fill-rule="evenodd" clip-rule="evenodd" d="M19.4152 30.1414C21.3735 28.5482 22.9732 25.354 23.6064 22.1637C23.2732 25.6604 21.3225 29.5069 19.373 31.5278C21.5318 29.8338 23.3178 26.3051 23.9255 22.9144C23.6153 26.4775 21.491 30.4899 19.4126 32.5619C21.6008 30.9023 23.4634 27.4605 24.1706 24.1272C23.9753 27.7503 21.542 31.4768 19.3884 33.6254C21.9825 31.6568 24.3634 27.726 24.6583 23.8987L24.4387 22.2927L24.1298 21.1782L23.7825 21.0735C23.8413 20.6126 23.8783 20.1556 23.8911 19.7075L23.4149 19.5632C23.5489 23.3548 21.5063 27.8805 19.4126 30.144L19.4152 30.1414Z" fill="white"/>
<path fill-rule="evenodd" clip-rule="evenodd" d="M19.6218 28.4564C21.8585 26.3346 23.0687 23.7303 23.6011 19.7893L23.0802 19.7114C23.0764 21.837 21.9785 25.8252 19.6218 28.4551V28.4564Z" fill="white"/>
<path fill-rule="evenodd" clip-rule="evenodd" d="M19.6002 26.8873C21.7296 24.9698 22.8939 22.4523 23.4301 18.5037L22.9385 18.3696C22.9168 20.5284 21.8458 24.4643 19.5989 26.8861L19.6002 26.8873Z" fill="white"/>
<path fill-rule="evenodd" clip-rule="evenodd" d="M19.5835 25.6515C21.5648 23.9919 22.6653 21.5854 23.2066 17.6291L22.7572 17.4236C22.7112 19.6258 21.6785 23.494 19.5835 25.6515V25.6515Z" fill="white"/>
<path fill-rule="evenodd" clip-rule="evenodd" d="M20.0215 24.0965C21.6364 22.4624 22.5696 20.1619 23.0548 16.6167L22.6054 16.4111C22.5645 18.3797 21.6977 21.8547 20.0215 24.0965V24.0965Z" fill="white"/>
<path fill-rule="evenodd" clip-rule="evenodd" d="M19.6755 23.397C21.3454 21.8867 22.3041 19.6398 22.7867 16.0895L22.3169 15.8406C22.2863 17.8321 21.4054 21.2765 19.6755 23.397V23.397Z" fill="white"/>
<path fill-rule="evenodd" clip-rule="evenodd" d="M22.4101 16.2964C24.2663 18.3467 26.3076 21.5216 27.214 24.043C25.9629 21.6238 24.5357 19.5097 22.7433 17.7645C22.682 17.6956 22.4279 17.1211 22.373 17.0573L22.4113 16.2964H22.4101Z" fill="white"/>
<path fill-rule="evenodd" clip-rule="evenodd" d="M22.5556 17.4107C24.4118 19.461 26.5272 22.9551 27.4323 25.4765C26.1812 23.0573 24.6812 20.6227 22.8888 18.8776C22.8275 18.8086 22.5734 18.2341 22.5186 18.1703L22.5569 17.4094L22.5556 17.4107Z" fill="white"/>
<path fill-rule="evenodd" clip-rule="evenodd" d="M22.6819 18.4144C24.5381 20.4646 26.6497 23.8681 27.4208 27.0661C26.4007 24.1579 24.4577 21.1527 23.0406 20.0242C22.9794 19.9553 22.7253 19.3808 22.6704 19.3169L22.6819 18.4131V18.4144Z" fill="white"/>
<path fill-rule="evenodd" clip-rule="evenodd" d="M23.2527 19.8963C24.9111 21.9172 26.7826 25.285 27.4375 28.4663C26.5515 25.5786 24.8268 22.6053 23.5566 21.4985C23.5017 21.4308 23.2782 20.8602 23.2297 20.7976L23.2527 19.895V19.8963Z" fill="white"/>
<path fill-rule="evenodd" clip-rule="evenodd" d="M23.6969 20.8921C25.1868 23.0114 26.7775 26.4838 27.1694 29.6907C26.5234 26.7596 25.0463 23.6905 23.868 22.5058C23.8195 22.4343 23.6433 21.8535 23.5986 21.7871L23.6969 20.8909V20.8921Z" fill="white"/>
<path fill-rule="evenodd" clip-rule="evenodd" d="M24.1118 21.948C25.4114 24.1591 26.6906 27.7235 26.7953 30.9393C26.4123 27.9801 25.2097 24.8243 24.1374 23.5642C24.0952 23.4902 23.9714 22.8991 23.9331 22.8314L24.1118 21.948V21.948Z" fill="white"/>
<path fill-rule="evenodd" clip-rule="evenodd" d="M24.768 23.6345C25.7855 25.9529 26.6115 29.6079 26.3102 32.802C26.3012 29.8351 25.5008 26.5912 24.5906 25.238C24.5574 25.1601 24.5089 24.5639 24.4795 24.4924L24.768 23.6358V23.6345Z" fill="white"/>
<path fill-rule="evenodd" clip-rule="evenodd" d="M25.7447 27.269C26.1698 29.7112 26.3141 33.2884 24.8677 35.6808C26.0435 33.1084 25.8277 30.384 25.5366 28.5482C25.5226 28.4665 25.3528 28.0708 25.3413 27.9954L25.7447 27.269Z" fill="white"/>
<path fill-rule="evenodd" clip-rule="evenodd" d="M41.9552 18.8955C41.9552 18.8955 38.4406 13.7685 32.5643 14.2575C26.6892 14.7464 27.9161 15.4103 27.9161 15.4103L33.7835 14.6264C36.7861 14.4349 40.1807 16.978 41.9552 18.8955Z" fill="white"/>
<path fill-rule="evenodd" clip-rule="evenodd" d="M41.0551 18.7091C41.0551 18.7091 38.1214 14.9009 33.3711 14.3494L33.3328 14.6864C36.1771 14.8319 39.398 16.918 41.0551 18.7091Z" fill="white"/>
<path fill-rule="evenodd" clip-rule="evenodd" d="M40.1743 18.524C38.41 16.6052 35.2707 14.7834 32.4902 14.4604L32.4519 14.7975C35.1341 14.9341 38.2797 16.8605 40.1743 18.524Z" fill="white"/>
<path fill-rule="evenodd" clip-rule="evenodd" d="M39.4096 18.4755C37.6453 16.5568 34.1499 14.8933 31.3694 14.5703L31.3311 14.9073C34.0133 15.0439 37.5138 16.8121 39.4096 18.4743V18.4755Z" fill="white"/>
<path fill-rule="evenodd" clip-rule="evenodd" d="M38.6754 18.4743C36.906 16.6002 33.4017 15.0197 30.6135 14.7593L30.5752 15.0963C33.2651 15.1729 36.7745 16.8568 38.6754 18.473V18.4743Z" fill="white"/>
<path fill-rule="evenodd" clip-rule="evenodd" d="M37.6771 18.404C35.9026 16.5759 32.3893 15.0822 29.5935 14.8882L29.5552 15.2252C32.2514 15.238 35.7711 16.8363 37.6771 18.404Z" fill="white"/>
<path fill-rule="evenodd" clip-rule="evenodd" d="M33.8575 18.4539C32.6281 17.2117 30.2434 16.2236 27.8944 15.8597C30.4553 16.0257 33.3277 17.2321 34.8686 18.4615C33.5575 17.0904 30.9238 15.9861 28.4293 15.6414C31.0387 15.7908 34.0375 17.107 35.6205 18.4207C34.3337 17.0304 31.76 15.8763 29.305 15.4665C31.9541 15.5418 34.755 17.0598 36.3967 18.4219C34.8712 16.7738 31.9221 15.2916 29.1212 15.155L27.9582 15.3197L27.1565 15.5355L27.0914 15.7614C26.753 15.7295 26.4186 15.7129 26.0918 15.7104L26.0037 16.0206C28.7637 15.8802 32.1341 17.1364 33.8575 18.4564V18.4539Z" fill="white"/>
<path fill-rule="evenodd" clip-rule="evenodd" d="M32.6205 18.3441C30.9954 16.9283 29.0549 16.184 26.1633 15.8955L26.125 16.2325C27.6748 16.2057 30.62 16.8581 32.6205 18.3441V18.3441Z" fill="white"/>
<path fill-rule="evenodd" clip-rule="evenodd" d="M31.4778 18.381C30.0059 17.0316 28.1292 16.3154 25.2325 16.0256L25.1521 16.3448C26.7275 16.3282 29.6331 16.964 31.4778 18.381V18.381Z" fill="white"/>
<path fill-rule="evenodd" clip-rule="evenodd" d="M30.5777 18.4091C29.2986 17.1529 27.5062 16.475 24.6018 16.1814L24.4678 16.475C26.0751 16.475 28.9309 17.0853 30.5777 18.4091V18.4091Z" fill="white"/>
<path fill-rule="evenodd" clip-rule="evenodd" d="M29.4276 18.1486C28.1803 17.1286 26.4697 16.5579 23.8692 16.2949L23.7351 16.5885C25.1713 16.5885 27.7361 17.0979 29.4289 18.1486H29.4276Z" fill="white"/>
<path fill-rule="evenodd" clip-rule="evenodd" d="M28.931 18.3811C27.7718 17.3241 26.0994 16.7355 23.4951 16.4751L23.3291 16.7815C24.7819 16.7738 27.3237 17.2934 28.931 18.3811Z" fill="white"/>
<path fill-rule="evenodd" clip-rule="evenodd" d="M23.6584 16.7149C25.0896 15.4868 27.3326 14.1234 29.139 13.5029C27.4181 14.3455 25.927 15.2966 24.7168 16.48C24.6683 16.5209 24.2585 16.6932 24.2138 16.729L23.6584 16.7149V16.7149Z" fill="white"/>
<path fill-rule="evenodd" clip-rule="evenodd" d="M24.4653 16.6052C25.8964 15.3771 28.3706 13.9613 30.177 13.3408C28.4561 14.1834 26.7339 15.1868 25.5237 16.369C25.4751 16.4098 25.0654 16.5822 25.0207 16.6179L24.4653 16.6039V16.6052Z" fill="white"/>
<path fill-rule="evenodd" clip-rule="evenodd" d="M25.1931 16.5096C26.6242 15.2815 29.032 13.8695 31.3376 13.3257C29.2528 14.0253 27.1285 15.3236 26.3561 16.2543C26.3076 16.2951 25.8978 16.4675 25.8531 16.5032L25.1944 16.5083L25.1931 16.5096Z" fill="white"/>
<path fill-rule="evenodd" clip-rule="evenodd" d="M26.2539 16.1201C27.6697 15.0209 30.0608 13.7634 32.3575 13.2949C30.283 13.9077 28.1752 15.0643 27.4118 15.9005C27.3646 15.9363 26.9561 16.0895 26.9126 16.1214L26.2539 16.1188V16.1201Z" fill="white"/>
<path fill-rule="evenodd" clip-rule="evenodd" d="M26.9636 15.8188C28.4573 14.8269 30.934 13.7494 33.2587 13.4507C31.1446 13.909 28.9577 14.9073 28.1356 15.6848C28.0858 15.718 27.667 15.8393 27.6211 15.8686L26.9649 15.8176L26.9636 15.8188Z" fill="white"/>
<path fill-rule="evenodd" clip-rule="evenodd" d="M27.7195 15.5354C29.2872 14.6647 31.8405 13.7877 34.1818 13.6741C32.0383 13.9639 29.7787 14.7847 28.8965 15.4946C28.8442 15.5226 28.4178 15.6107 28.3693 15.6375L27.7195 15.5354V15.5354Z" fill="white"/>
<path fill-rule="evenodd" clip-rule="evenodd" d="M28.9272 15.0887C30.5818 14.3993 33.218 13.8133 35.5581 13.9627C33.3955 14.0112 31.0579 14.5729 30.103 15.1806C30.0481 15.2036 29.6141 15.2431 29.563 15.2636L28.9285 15.0887H28.9272Z" fill="white"/>
<path fill-rule="evenodd" clip-rule="evenodd" d="M31.5417 14.4057C33.3073 14.0968 35.9104 13.9538 37.7053 14.8538C35.7891 14.13 33.8103 14.3087 32.4813 14.5219C32.4226 14.5321 32.1392 14.647 32.0856 14.6559L31.5417 14.4057V14.4057Z" fill="white"/>
<path fill-rule="evenodd" clip-rule="evenodd" d="M32.4036 42.6637C32.4036 42.6637 36.3816 34.9171 31.7143 26.9867C27.0469 19.0562 27.0635 21.1371 27.0635 21.1371L32.0934 28.8927C34.4067 32.9766 33.573 39.1262 32.4024 42.665L32.4036 42.6637Z" fill="white"/>
<path fill-rule="evenodd" clip-rule="evenodd" d="M32.0154 41.3055C32.0154 41.3055 34.7474 35.101 32.1559 28.1638L31.7078 28.2979C33.4899 32.3473 33.107 38.0016 32.0154 41.3055Z" fill="white"/>
<path fill-rule="evenodd" clip-rule="evenodd" d="M31.6388 39.9726C32.8184 36.4479 32.9269 31.0554 31.4103 26.9944L30.9622 27.1284C32.6435 30.9481 32.4086 36.4057 31.6388 39.9726V39.9726Z" fill="white"/>
<path fill-rule="evenodd" clip-rule="evenodd" d="M31.1717 38.8784C32.3513 35.3536 32.0155 29.5526 30.4989 25.4929L30.0508 25.627C31.7321 29.4467 31.9415 35.3128 31.1717 38.8797V38.8784Z" fill="white"/>
<path fill-rule="evenodd" clip-rule="evenodd" d="M30.6647 37.8534C31.7856 34.3465 31.34 28.5787 29.7391 24.5432L29.291 24.6773C31.0528 28.474 31.3719 34.3056 30.6647 37.8547V37.8534Z" fill="white"/>
<path fill-rule="evenodd" clip-rule="evenodd" d="M30.0646 36.421C31.123 32.932 30.5638 27.1986 28.8761 23.1887L28.428 23.3228C30.2727 27.0939 30.708 32.8924 30.0646 36.421Z" fill="white"/>
<path fill-rule="evenodd" clip-rule="evenodd" d="M27.3633 31.1167C28.0668 28.7115 27.6557 24.8369 26.4876 21.3568C28.0489 25.0233 28.5251 29.7009 28.0514 32.5337C28.8583 29.9447 28.4191 25.6565 27.1284 21.9836C28.7434 25.7088 29.1698 30.6239 28.6221 33.5601C29.4711 30.9941 29.1353 26.7621 27.9531 23.1083C29.6881 26.8476 29.7251 31.5992 29.1583 34.644C30.1643 31.6018 29.9792 26.6638 28.2161 22.6794L27.2076 21.1474L26.3842 20.1465L26.0573 20.181C25.8633 19.6921 25.6539 19.2159 25.4305 18.7576L24.9824 18.8048C27.0633 22.5798 27.8217 27.9812 27.3621 31.1167H27.3633Z" fill="white"/>
<path fill-rule="evenodd" clip-rule="evenodd" d="M26.6486 29.3293C27.2945 26.2769 26.886 23.1555 25.2494 18.9592L24.8013 19.0933C25.9056 21.2419 27.1235 25.7152 26.6486 29.3293Z" fill="white"/>
<path fill-rule="evenodd" clip-rule="evenodd" d="M25.8135 27.7553C26.4825 24.9531 26.0816 21.9377 24.445 17.7324L23.9905 17.7963C25.0986 19.9857 26.3114 24.3952 25.8135 27.7553V27.7553Z" fill="white"/>
<path fill-rule="evenodd" clip-rule="evenodd" d="M25.1561 26.5131C25.843 24.0326 25.451 21.1538 23.8131 16.9384L23.3535 16.9128C24.4642 19.1559 25.6719 23.4811 25.1561 26.5119V26.5131Z" fill="white"/>
<path fill-rule="evenodd" clip-rule="evenodd" d="M24.6876 24.764C25.1 22.4584 24.6327 19.7545 23.1659 15.9782L22.7063 15.9526C23.6995 17.957 24.8319 21.8188 24.6876 24.764V24.764Z" fill="white"/>
<path fill-rule="evenodd" clip-rule="evenodd" d="M24.0531 24.1985C24.5739 21.9951 24.1539 19.3358 22.682 15.5544L22.1841 15.4932C23.1977 17.5166 24.3033 21.3529 24.0531 24.1985V24.1985Z" fill="white"/>
<path fill-rule="evenodd" clip-rule="evenodd" d="M22.4944 15.917C25.017 17.2332 28.2699 19.609 30.2933 21.7882C28.0528 19.8529 25.8341 18.2992 23.5208 17.2651C23.4365 17.2204 22.9387 16.743 22.8621 16.7021L22.4957 15.9183L22.4944 15.917Z" fill="white"/>
<path fill-rule="evenodd" clip-rule="evenodd" d="M23.1902 16.9829C25.7128 18.2991 29.1904 20.9686 31.2126 23.1465C28.9721 21.2111 26.5286 19.3638 24.2153 18.3298C24.1311 18.2851 23.6332 17.8076 23.5566 17.7668L23.1902 16.9829V16.9829Z" fill="white"/>
<path fill-rule="evenodd" clip-rule="evenodd" d="M23.8105 17.9443C26.3332 19.2605 29.7609 21.8393 32.0308 24.7565C29.7175 22.2338 26.6281 19.9882 24.9314 19.4252C24.8472 19.3805 24.3493 18.9031 24.2727 18.8622L23.8105 17.9443V17.9443Z" fill="white"/>
<path fill-rule="evenodd" clip-rule="evenodd" d="M25.0298 19.2107C27.3813 20.578 30.6023 23.2193 32.7738 26.1645C30.5755 23.6087 27.675 21.3069 26.1034 20.7056C26.0256 20.6597 25.5532 20.1746 25.4817 20.1311L25.0298 19.2107V19.2107Z" fill="white"/>
<path fill-rule="evenodd" clip-rule="evenodd" d="M25.8965 20.0354C28.1676 21.5699 31.2239 24.4296 33.2014 27.5101C31.1677 24.8126 28.4115 22.3129 26.8718 21.5967C26.7965 21.5444 26.3561 21.0286 26.2871 20.9801L25.8965 20.0354Z" fill="white"/>
<path fill-rule="evenodd" clip-rule="evenodd" d="M26.7722 20.9329C28.9425 22.6384 31.8022 25.7177 33.5601 28.9233C31.7179 26.0905 29.1314 23.3917 27.6352 22.5555C27.5637 22.498 27.159 21.9516 27.0927 21.898L26.7722 20.9329Z" fill="white"/>
<path fill-rule="evenodd" clip-rule="evenodd" d="M28.165 22.3691C30.1694 24.2969 32.7226 27.6519 34.1499 31.0005C32.5962 28.008 30.2791 25.0577 28.8608 24.0607C28.7944 23.9956 28.4446 23.4122 28.3846 23.3521L28.165 22.3691V22.3691Z" fill="white"/>
<path fill-rule="evenodd" clip-rule="evenodd" d="M30.8242 25.6423C32.4302 27.9364 34.4065 31.4906 34.5214 34.4932C34.1026 31.4178 32.5132 28.7548 31.3285 27.0185C31.2749 26.9419 30.9353 26.6113 30.8881 26.5398L30.8255 25.6423H30.8242Z" fill="white"/>
<path d="M47.8112 44.1352C48.2014 41.7314 46.569 39.4664 44.1652 39.0762C41.7614 38.686 39.4964 40.3183 39.1062 42.7222C38.716 45.126 40.3484 47.391 42.7522 47.7812C45.156 48.1714 47.421 46.539 47.8112 44.1352Z" fill="#103155"/>
<g opacity="0.19">
<path d="M56.2064 33.8972L55.5694 34.45C55.4405 34.3019 55.3077 34.1551 55.1736 34.0096C53.7285 32.4559 51.9987 31.169 50.0863 30.2269C48.1713 29.2771 46.0776 28.6898 43.9099 28.4358C46.0917 28.3387 48.3156 28.7613 50.3607 29.6256C52.4059 30.4912 54.2723 31.8023 55.7915 33.4351C55.9332 33.587 56.0711 33.7415 56.2064 33.8985V33.8972Z" fill="white"/>
<path d="M58.2936 36.9917L57.7 37.5062C57.2034 36.6036 56.6289 35.7457 55.9829 34.9452L56.6161 34.395C57.257 35.2044 57.82 36.0751 58.2936 36.9904V36.9917Z" fill="white"/>
<path d="M59.9278 45.6447C59.8282 43.4655 59.3916 41.3336 58.5822 39.3573C58.4073 38.9284 58.2171 38.5071 58.0103 38.0947L58.5886 37.593C58.8209 38.0935 59.0265 38.6041 59.2039 39.125C59.9201 41.2263 60.1831 43.4757 59.9278 45.6447V45.6447Z" fill="white"/>
<path d="M59.3228 32.2427L58.5837 32.8835C58.2709 32.4929 57.9428 32.115 57.6019 31.7486C55.8606 29.8783 53.7758 28.3272 51.469 27.1936C49.1646 26.0523 46.6395 25.3488 44.03 25.0488C46.6573 24.9378 49.3319 25.451 51.7907 26.4927C54.2508 27.5357 56.4938 29.1123 58.3219 31.0771C58.6705 31.4524 59.0049 31.8405 59.3215 32.2414L59.3228 32.2427Z" fill="white"/>
<path d="M60.5356 33.9584L59.8168 34.5814C59.5513 34.1754 59.273 33.7797 58.9819 33.3941L59.716 32.7571C60.0045 33.1477 60.2777 33.5486 60.5356 33.9584Z" fill="white"/>
<path d="M63.3135 45.7659C63.1998 43.1412 62.6777 40.5726 61.7049 38.1917C61.2747 37.1308 60.7602 36.1069 60.1653 35.1341L60.8751 34.5188C61.5045 35.6001 62.0266 36.7414 62.43 37.921C63.293 40.4475 63.6135 43.1527 63.3135 45.7659Z" fill="white"/>
<path d="M60.8533 28.7229C60.9682 28.8455 61.0806 28.9693 61.1929 29.0957L60.8367 30.4017C60.575 30.0914 60.3069 29.7876 60.0299 29.4902C57.9937 27.3007 55.554 25.4879 52.8539 24.164C50.1564 22.8338 47.2036 22.0091 44.1511 21.6644C47.2227 21.5418 50.3492 22.1393 53.2203 23.3623C56.094 24.5828 58.715 26.4275 60.852 28.7242L60.8533 28.7229Z" fill="white"/>
<path d="M62.804 31.1306L62.4976 32.2541L62.3431 32.3881C62.024 31.9196 61.6882 31.4626 61.3372 31.017L61.6997 29.6868C62.0878 30.1527 62.4555 30.6353 62.8027 31.1306H62.804Z" fill="white"/>
<path d="M66.6992 45.8872C66.5728 42.8182 65.9613 39.8143 64.8276 37.0274C64.2493 35.5963 63.537 34.2239 62.7046 32.932L62.9229 32.743L63.071 32.6141L63.122 32.4239L63.2816 31.8379C64.2685 33.3622 65.0702 35.0052 65.6574 36.7172C66.6711 39.67 67.0439 42.831 66.7004 45.886L66.6992 45.8872Z" fill="white"/>
<path d="M63.3363 26.3139L62.3508 27.1131C60.0401 24.6581 57.2838 22.6206 54.2403 21.1295C52.6956 20.3699 51.0768 19.7533 49.4082 19.2784C47.7397 18.7971 46.0201 18.4818 44.2749 18.2775C47.7908 18.1422 51.3666 18.829 54.6539 20.2282C57.9208 21.6172 60.9018 23.7096 63.3376 26.3139H63.3363Z" fill="white"/>
<path d="M64.6974 27.8905L63.7182 28.6782C63.4182 28.308 63.108 27.9441 62.7888 27.5892L63.7718 26.79C64.091 27.1475 64.3987 27.5139 64.6974 27.8892V27.8905Z" fill="white"/>
<path d="M70.0846 46.0085C70.0055 44.2518 69.814 42.5143 69.4527 40.8164C69.0978 39.1185 68.5986 37.4588 67.9514 35.8643C66.9837 33.4694 65.6904 31.2199 64.1189 29.185L65.093 28.4011C66.722 30.5574 68.0101 32.9689 68.8833 35.5158C70.0438 38.8938 70.474 42.5105 70.0846 46.0085Z" fill="white"/>
</g>
<path d="M69.1592 22.4189L67.7191 23.5883L63.773 26.7914L62.79 27.5906L62.1262 28.1293L61.7023 29.6868L61.3398 31.0171L61.221 31.4511L59.7172 32.7571L58.9831 33.3942L58.0065 34.2419C57.8775 34.1346 57.7256 34.0657 57.5673 34.0363C57.2967 33.9878 57.0082 34.0567 56.7847 34.2521L56.6188 34.3963L55.9856 34.9466L54.4128 36.3113L53.7272 35.521C53.68 35.4674 53.6187 35.4342 53.5536 35.4227C53.4668 35.4074 53.3749 35.4291 53.3034 35.4917L53.1157 35.6538C52.9906 35.7623 52.9778 35.9525 53.0863 36.0777L53.7719 36.8679L53.4808 37.1207C53.0876 37.4628 53.0442 38.0577 53.3863 38.4522L54.1549 39.3382C54.3017 39.5067 54.4945 39.6114 54.6987 39.6484C54.9706 39.6969 55.2617 39.6267 55.4864 39.4326L57.7026 37.5088L58.2963 36.9943L58.7916 36.564C59.1542 36.2487 59.2155 35.7215 58.9563 35.3321L59.8193 34.584L60.538 33.961L62.347 32.3907L62.5015 32.2567L62.8079 31.1332L63.4054 28.9349L63.7207 28.6808L64.6999 27.8932L68.6919 24.6824L70.1307 23.5245C69.8153 23.1492 69.4924 22.7815 69.1617 22.4215L69.1592 22.4189Z" fill="white"/>
<path d="M29.8285 96.3526C28.3808 96.3526 27.1412 95.9441 26.1109 95.127C25.0807 94.31 24.5649 93.327 24.5649 92.1755C24.5649 91.5257 24.7501 90.9869 25.1216 90.5605C25.4931 90.1341 26.0126 89.9196 26.6816 89.9196C27.2382 89.9196 27.7208 90.106 28.1293 90.4763C27.9991 90.8107 27.934 91.172 27.934 91.5627C27.934 92.3057 28.1433 92.8853 28.5608 93.3027C28.9783 93.7202 29.503 93.9296 30.1349 93.9296C30.9519 93.9296 31.6388 93.6232 32.1954 93.0104C32.752 92.3976 33.0303 91.6086 33.0303 90.6435C33.0303 89.9937 32.909 89.3298 32.6677 88.6519C32.4265 87.9741 32.129 87.3345 31.7766 86.7306C31.4243 86.128 31.0707 85.5191 30.7183 84.9063C30.366 84.2935 30.0685 83.6207 29.8272 82.8867C29.5859 82.1539 29.4647 81.4249 29.4647 80.7011C29.4647 79.1602 29.9983 77.8146 31.0656 76.6631C32.1328 75.5116 33.4095 74.9358 34.8942 74.9358C36.0827 74.9358 37.0108 75.2881 37.6785 75.9941C38.3475 76.7001 38.6807 77.572 38.6807 78.6125C38.6807 79.5776 38.4164 80.456 37.8866 81.2436C37.3581 82.0326 36.7313 82.4271 36.0074 82.4271C35.6921 82.4271 35.3857 82.3071 35.0882 82.0645C34.7908 81.8232 34.5495 81.499 34.3644 81.0904C34.8469 80.756 35.2274 80.3296 35.5057 79.81C35.784 79.2904 35.9232 78.7797 35.9232 78.278C35.9232 77.8516 35.8261 77.5261 35.6308 77.304C35.4355 77.0818 35.1802 76.9695 34.8648 76.9695C34.2699 76.9695 33.7133 77.3129 33.1937 77.9997C32.6741 78.6865 32.4137 79.5036 32.4137 80.4509C32.4137 81.1007 32.5528 81.7556 32.8311 82.4143C33.1095 83.0731 33.4439 83.6909 33.8333 84.2667C34.2227 84.8425 34.6133 85.4323 35.0027 86.0348C35.3921 86.6387 35.7214 87.3153 35.9908 88.0673C36.2602 88.8192 36.3942 89.5852 36.3942 90.3652C36.3942 91.5537 36.0546 92.6172 35.378 93.5542C34.7001 94.4925 33.869 95.1934 32.886 95.6568C31.9018 96.1203 30.8804 96.3526 29.8221 96.3526H29.8285Z" fill="#103155"/>
<path d="M51.1879 86.1319C51.4113 86.0949 51.6615 86.1511 51.9398 86.2992C52.2181 86.4485 52.3764 86.6145 52.4134 86.8009L52.2743 87.0792C50.6964 90.1801 48.5056 92.2968 45.7022 93.4292C45.0153 94.2641 44.2213 94.9292 43.3212 95.4207C42.4199 95.9135 41.5148 96.1586 40.6058 96.1586C39.3062 96.1586 38.267 95.7041 37.487 94.7939C36.707 93.8849 36.3176 92.6874 36.3176 91.2014C36.3176 89.7154 36.661 88.3571 37.3479 87.0103C38.0347 85.6647 38.9679 84.5591 40.1463 83.6961C41.3246 82.8331 42.5731 82.4016 43.8919 82.4016C44.6157 82.4016 45.2796 82.5318 45.8834 82.791C46.486 83.0514 46.9596 83.4089 47.3043 83.8634C47.6478 84.3191 47.8201 84.8144 47.8201 85.3532C47.8201 85.9851 47.5788 86.4856 47.0962 86.8571C47.3567 87.3218 47.4856 87.8784 47.4856 88.5282C47.4856 89.3822 47.3363 90.2363 47.0401 91.0904C48.6001 90.1252 49.9457 88.5384 51.0781 86.3285L51.1891 86.1332L51.1879 86.1319ZM40.9671 93.1777C41.3935 93.1777 41.8301 92.8943 42.2757 92.3287C42.7212 91.7632 43.0876 91.0802 43.3761 90.2823C43.6634 89.4844 43.8076 88.7503 43.8076 88.0826C43.8076 87.489 43.6864 86.9962 43.4451 86.6068C43.8906 86.2353 44.3451 85.9941 44.8098 85.883C44.5494 85.4936 44.2059 85.2983 43.7795 85.2983C43.1297 85.2983 42.5029 85.6506 41.9003 86.3566C41.2965 87.0626 40.828 87.8937 40.4935 88.8486C40.159 89.8048 39.9918 90.6819 39.9918 91.4798C39.9918 92.0185 40.0799 92.436 40.256 92.7334C40.4322 93.0309 40.6684 93.179 40.9659 93.179L40.9671 93.1777Z" fill="#103155"/>
<path d="M52.5246 95.9913C51.7446 96.0845 51.0769 96.0986 50.519 96.0335C49.9624 95.9684 49.5309 95.7781 49.2245 95.4628C48.9181 95.1475 48.7649 94.693 48.7649 94.0981C48.7649 93.5964 48.8811 92.9376 49.1134 92.1206C49.3458 91.3035 49.7351 90.1112 50.2828 88.5422C50.8305 86.9732 51.2709 85.6225 51.6054 84.4901C52.7569 81.019 53.4897 77.964 53.805 75.3277C56.4962 75.3099 57.843 75.9686 57.843 77.3053C57.843 77.7878 57.6298 78.684 57.2022 79.9926C56.7745 81.3011 56.1949 82.9633 55.4621 84.9778C54.728 86.9924 54.2136 88.4273 53.9161 89.2801C53.2472 91.3597 52.7837 93.5964 52.5233 95.9913H52.5246ZM58.1775 96.0743C57.5086 96.0743 56.8919 95.8139 56.3251 95.2943C55.7583 94.7747 55.2706 94.0228 54.8634 93.0385C54.4548 92.0542 54.1485 90.8848 53.9442 89.529C56.8779 87.2081 58.7252 84.6178 59.4861 81.7594C61.6768 82.0199 62.7721 82.6697 62.7721 83.7089C62.7721 84.4148 62.2295 85.44 61.1431 86.7868C60.0567 88.1337 58.9014 89.1779 57.6758 89.9197C58.1954 91.8129 58.8541 92.7602 59.6533 92.7602C60.1167 92.7602 60.6784 92.4078 61.3385 91.7019C61.9972 90.9959 62.601 90.198 63.1487 89.3069C63.6964 88.4158 64.2492 87.4226 64.8058 86.3272L64.9169 86.1319C65.1403 86.0949 65.3905 86.151 65.6688 86.2991C65.9471 86.4485 66.1054 86.6145 66.1424 86.8009L66.0033 87.0792C65.9663 87.1353 65.9292 87.2094 65.8922 87.3013C65.5577 87.9511 65.2935 88.4618 65.0981 88.8333C64.9028 89.2048 64.6066 89.7384 64.2071 90.4342C63.8075 91.1299 63.4589 91.6967 63.1628 92.1334C62.8653 92.57 62.4989 93.0615 62.0623 93.6091C61.6257 94.1568 61.2133 94.5934 60.8227 94.9177C60.4333 95.2432 60.0057 95.5164 59.5422 95.7398C59.0775 95.9633 58.6231 96.0743 58.1775 96.0743V96.0743Z" fill="#103155"/>
<path d="M78.2015 86.1319C78.4249 86.0949 78.6752 86.1511 78.9535 86.2992C79.2318 86.4485 79.3901 86.6145 79.4271 86.8009L79.2879 87.0792C77.71 90.1801 75.5193 92.2968 72.7158 93.4292C72.029 94.2641 71.2349 94.9292 70.3349 95.4207C69.4336 95.9135 68.5285 96.1586 67.6195 96.1586C66.3199 96.1586 65.2807 95.7041 64.5007 94.7939C63.7207 93.8849 63.3313 92.6874 63.3313 91.2014C63.3313 89.7154 63.6747 88.3571 64.3615 87.0103C65.0484 85.6647 65.9816 84.5591 67.1599 83.6961C68.3383 82.8331 69.5868 82.4016 70.9056 82.4016C71.6294 82.4016 72.2933 82.5318 72.8971 82.791C73.4997 83.0514 73.9733 83.4089 74.318 83.8634C74.6614 84.3191 74.8338 84.8144 74.8338 85.3532C74.8338 85.9851 74.5925 86.4856 74.1099 86.8571C74.3704 87.3218 74.4993 87.8784 74.4993 88.5282C74.4993 89.3822 74.3499 90.2363 74.0537 91.0904C75.6138 90.1252 76.9594 88.5384 78.0917 86.3285L78.2028 86.1332L78.2015 86.1319ZM67.9808 93.1777C68.4072 93.1777 68.8438 92.8943 69.2894 92.3287C69.7349 91.7632 70.1013 91.0802 70.3898 90.2823C70.6771 89.4844 70.8213 88.7503 70.8213 88.0826C70.8213 87.489 70.7 86.9962 70.4587 86.6068C70.9043 86.2353 71.3588 85.9941 71.8235 85.883C71.563 85.4936 71.2196 85.2983 70.7932 85.2983C70.1434 85.2983 69.5166 85.6506 68.914 86.3566C68.3102 87.0626 67.8416 87.8937 67.5072 88.8486C67.1727 89.8048 67.0055 90.6819 67.0055 91.4798C67.0055 92.0185 67.0935 92.436 67.2697 92.7334C67.4459 93.0309 67.6821 93.179 67.9795 93.179L67.9808 93.1777Z" fill="#103155"/>
<path d="M9.72802 73.2953C8.1501 73.2953 6.86581 72.7604 5.87259 71.6918C4.88064 70.6233 4.38403 69.1386 4.38403 67.2389C4.38403 66.2049 4.53723 65.144 4.84234 64.0576C5.14746 62.9724 5.55854 61.9422 6.07685 60.9656C6.59389 59.9902 7.21305 59.0659 7.93435 58.1914C8.65565 57.3182 9.41908 56.5624 10.2246 55.9267C11.0302 55.2909 11.8868 54.7905 12.7945 54.4254C13.7022 54.0602 14.5882 53.8777 15.4537 53.8777C16.1827 53.8777 16.8236 54.0219 17.3751 54.3105C17.9266 54.599 18.3504 55.0062 18.6479 55.5322C18.944 56.0582 19.0934 56.6684 19.0934 57.3642C19.0934 58.5859 18.7411 59.7528 18.0376 60.8634C17.3329 61.9741 16.5325 62.5307 15.6325 62.5307C15.3784 62.5307 15.1358 62.472 14.9073 62.352C14.6788 62.2333 14.4745 62.0635 14.2971 61.8426C14.1184 61.6217 13.9792 61.3511 13.8771 61.0281C14.5218 60.5698 15.0644 59.9979 15.5061 59.311C15.9465 58.6242 16.1674 58.0089 16.1674 57.4663C16.1674 56.8893 15.9044 56.6007 15.3784 56.6007C14.7503 56.6007 14.043 56.9148 13.2541 57.5429C12.4651 58.171 11.7311 58.9638 11.0532 59.9225C10.374 60.8813 9.8059 62.0086 9.34886 63.3069C8.89055 64.6052 8.66203 65.8563 8.66203 67.0602C8.66203 68.2641 8.91608 69.1296 9.42546 69.7067C9.93484 70.2837 10.6127 70.5722 11.4617 70.5722C12.8353 70.5722 14.3035 69.9275 15.8635 68.6381C17.4236 67.3487 18.6121 65.924 19.4266 64.3627L19.5287 64.184C19.7317 64.1508 19.9564 64.2005 20.2028 64.3371C20.4479 64.4737 20.5973 64.6257 20.6484 64.7955L20.4952 65.0495C19.3245 67.3743 17.7376 69.3288 15.7371 70.9144C13.7354 72.5012 11.7336 73.294 9.73185 73.294L9.72802 73.2953Z" fill="#103155"/>
<path d="M33.2653 64.1866C33.4861 64.1534 33.7185 64.2032 33.9649 64.3398C34.21 64.4764 34.3594 64.6283 34.4104 64.7981L34.2572 65.0522C33.7989 65.9509 33.3955 66.7144 33.0483 67.3425C32.6997 67.9706 32.2593 68.6868 31.7257 69.4923C31.1908 70.2979 30.6775 70.9477 30.186 71.4392C29.6933 71.932 29.1379 72.3558 28.5188 72.712C27.8996 73.0682 27.2753 73.2469 26.6485 73.2469C25.9872 73.2469 25.4357 73.0222 24.994 72.5728C24.5523 72.1234 24.3327 71.466 24.3327 70.6004C24.3327 69.9047 24.4859 69.0902 24.791 68.1569C25.0961 67.2237 25.4012 66.3799 25.7076 65.6254C26.0127 64.8709 26.1659 64.3577 26.1659 64.0858C26.1659 63.7462 26.0051 63.5764 25.6821 63.5764C25.2072 63.5764 24.694 63.8943 24.1425 64.53C23.591 65.1658 23.116 65.8833 22.7177 66.6799C22.3194 67.4778 21.9837 68.2667 21.713 69.0468C21.3568 70.1664 21.0849 71.5911 20.8985 73.3222C20.3215 73.4065 19.77 73.432 19.244 73.3988C18.718 73.3643 18.2687 73.1996 17.8959 72.9022C17.5231 72.606 17.3354 72.186 17.3354 71.6422C17.3354 71.3204 17.4503 70.7638 17.6789 69.9749C17.9074 69.1859 18.2763 67.9769 18.7857 66.3492C19.2951 64.7202 19.7189 63.33 20.0585 62.1759C21.0083 58.8337 21.602 56.2051 21.8394 54.2876C22.2467 54.2876 22.6488 54.317 23.0484 54.377C23.4467 54.437 23.8501 54.5251 24.2574 54.6438C24.6646 54.7625 24.9914 54.9412 25.2365 55.1787C25.4816 55.4161 25.6055 55.7136 25.6055 56.0698C25.6055 56.223 25.571 56.4477 25.5034 56.7438C25.4357 57.0413 25.3208 57.4434 25.1599 57.9528C24.9991 58.4622 24.8369 58.9537 24.6761 59.4286C24.5152 59.9035 24.2905 60.5648 24.002 61.4138C23.7135 62.2627 23.4595 63.0006 23.2386 63.6274C24.6978 61.8465 26.2412 60.9555 27.8702 60.9555C28.5315 60.9555 29.0741 61.1418 29.4992 61.5159C29.9231 61.8887 30.135 62.4146 30.135 63.0938C30.135 63.773 29.8082 64.9386 29.1558 66.5931C28.5022 68.2476 28.1766 69.3289 28.1766 69.837C28.1766 70.2608 28.3336 70.4728 28.6477 70.4728C28.9618 70.4728 29.309 70.2991 29.6907 69.9506C30.0724 69.6034 30.4797 69.094 30.9124 68.4238C31.3452 67.7535 31.7218 67.1216 32.0448 66.528C32.3665 65.9343 32.7483 65.213 33.19 64.3653L33.2666 64.1866H33.2653Z" fill="#103155"/>
<path d="M46.0393 64.1865C46.2601 64.1533 46.4925 64.2031 46.7388 64.3397C46.984 64.4763 47.1244 64.6282 47.1589 64.798L47.0312 65.0521C46.9635 65.2053 46.8525 65.4338 46.7005 65.7389C46.4286 66.2649 46.2167 66.6721 46.0648 66.9607C45.9116 67.2492 45.6869 67.6654 45.3907 68.2079C45.0933 68.7505 44.8392 69.1794 44.6273 69.4935C44.4154 69.8075 44.1562 70.1854 43.8511 70.6259C43.546 71.0676 43.2536 71.4187 42.9728 71.6816C42.6932 71.9446 42.3919 72.2076 42.0689 72.4706C41.7459 72.7336 41.4153 72.9251 41.077 73.0425C40.7374 73.1613 40.3978 73.2213 40.0595 73.2213C39.4493 73.2213 38.9271 73.0183 38.4943 72.611C38.0616 72.2038 37.8113 71.6446 37.7437 70.931C36.5896 72.4578 35.4189 73.2213 34.2317 73.2213C33.4172 73.2213 32.7725 72.8613 32.2976 72.14C31.8227 71.4187 31.5852 70.5161 31.5852 69.4297C31.5852 68.2424 31.852 66.9951 32.3869 65.6891C32.9218 64.3831 33.6636 63.2712 34.6134 62.3558C35.5632 61.4392 36.5641 60.9822 37.616 60.9822C38.2263 60.9822 38.7522 61.1558 39.1939 61.5043C39.6344 61.8516 39.9229 62.315 40.0595 62.8907C40.6531 61.8567 41.3068 61.3384 42.0191 61.3384C42.8336 61.3384 43.4605 61.6945 43.9022 62.4069C42.1379 66.2074 41.2557 68.6586 41.2557 69.7603C41.2557 70.2186 41.391 70.4471 41.663 70.4471C41.8493 70.4471 42.0536 70.3667 42.2732 70.2059C42.494 70.045 42.7226 69.8024 42.96 69.4807C43.1975 69.159 43.4222 68.845 43.6341 68.5399C43.846 68.2347 44.0873 67.8441 44.3592 67.3692C44.6298 66.8943 44.8379 66.5215 44.9822 66.2496C45.1265 65.9789 45.3167 65.6138 45.5541 65.1555C45.7916 64.6972 45.9269 64.4342 45.9614 64.3665L46.038 64.1878L46.0393 64.1865ZM35.9372 70.4459C36.2934 70.4459 36.679 70.1625 37.0952 69.5931C37.5101 69.025 37.8969 68.2998 38.2531 67.4177C38.728 66.247 38.9488 65.2806 38.9144 64.5172C38.8799 63.9069 38.6514 63.6006 38.2275 63.6006C37.8037 63.6006 37.3198 63.944 36.8283 64.6308C36.3356 65.3176 35.9462 66.1104 35.6577 67.0104C35.3691 67.9092 35.2415 68.6726 35.276 69.3007C35.3091 70.0642 35.53 70.4459 35.9372 70.4459V70.4459Z" fill="#103155"/>
<path d="M66.8535 64.1865C66.9888 64.1699 67.142 64.1903 67.3118 64.2503C67.4816 64.3103 67.6258 64.3907 67.7446 64.4916C67.8633 64.5937 67.9399 64.6946 67.9731 64.7967L67.8454 65.0508C67.5914 65.5435 67.3705 65.9585 67.1841 66.298C66.9977 66.6376 66.7513 67.0742 66.4462 67.6091C66.1411 68.1441 65.8564 68.6062 65.5934 68.9956C65.3305 69.3862 65.0253 69.8139 64.6768 70.2811C64.3283 70.7484 63.9849 71.1429 63.6466 71.4646C63.307 71.7876 62.947 72.0876 62.5653 72.3684C62.1835 72.648 61.7929 72.8612 61.3946 73.0042C60.9963 73.1484 60.5929 73.2199 60.1856 73.2199C59.5243 73.2199 58.9856 73.017 58.5694 72.6097C58.1532 72.2025 57.9464 71.6012 57.9464 70.8033C57.9464 70.142 58.0907 69.3364 58.3792 68.3853C58.6677 67.4355 58.9601 66.5623 59.2575 65.7644C59.5537 64.9678 59.7031 64.4163 59.7031 64.1099C59.7031 63.7537 59.5499 63.575 59.2447 63.575C58.6677 63.575 57.9809 64.1686 57.183 65.3559C56.3851 66.5431 55.7659 67.7394 55.3255 68.9432V68.9688C54.9527 70.0041 54.6552 71.3356 54.4344 72.9633C52.2118 73.2174 51.1011 72.5816 51.1011 71.0548C51.1011 70.3424 51.3973 69.113 51.9922 67.3653C52.5858 65.6189 52.8833 64.549 52.8833 64.1597C52.8833 63.7703 52.7301 63.575 52.425 63.575C51.8479 63.575 51.1573 64.1354 50.3517 65.255C49.5462 66.3746 48.8887 67.6053 48.3793 68.9445V68.97C47.9887 70.0386 47.6414 71.4812 47.3363 73.2953C46.1822 73.414 45.3218 73.3285 44.7537 73.0412C44.1856 72.7527 43.9009 72.2191 43.9009 71.4378C43.9009 71.1492 43.9481 70.7982 44.0413 70.382C44.1345 69.9671 44.2315 69.5981 44.3337 69.2751C44.4358 68.9534 44.5915 68.4734 44.8047 67.8377C45.0167 67.2019 45.1737 66.7142 45.2758 66.3746C45.9371 64.4239 46.3788 62.6596 46.5984 61.0817C48.8721 61.0306 50.016 61.5566 50.0338 62.6596C50.0338 62.9826 49.9228 63.4831 49.7032 64.1609C51.1624 62.0239 52.6892 60.9553 54.2837 60.9553C54.9616 60.9553 55.4965 61.1672 55.8872 61.5911C56.2778 62.0149 56.4719 62.6175 56.4719 63.3975C56.4719 63.7882 56.4208 64.2031 56.3187 64.6448C57.9643 62.1847 59.652 60.9553 61.3831 60.9553C62.0099 60.9553 62.5193 61.1341 62.91 61.4902C63.3006 61.8464 63.4947 62.3647 63.4947 63.0426C63.4947 63.7895 63.1806 64.9857 62.5538 66.63C61.9257 68.2755 61.6116 69.3441 61.6116 69.8356C61.6116 70.2428 61.7814 70.4458 62.121 70.4458C63.1219 70.4458 64.6653 68.4185 66.7526 64.3639L66.8548 64.1852L66.8535 64.1865Z" fill="#103155"/>
<path d="M79.602 64.1865C79.8229 64.1533 80.0552 64.2031 80.3016 64.3397C80.5467 64.4763 80.6871 64.6282 80.7216 64.798L80.5939 65.0521C80.5263 65.2053 80.4152 65.4338 80.2633 65.7389C79.9914 66.2649 79.7794 66.6721 79.6275 66.9607C79.4743 67.2492 79.2496 67.6654 78.9535 68.2079C78.656 68.7505 78.402 69.1794 78.19 69.4935C77.9781 69.8075 77.719 70.1854 77.4138 70.6259C77.1087 71.0676 76.8164 71.4187 76.5355 71.6816C76.2559 71.9446 75.9547 72.2076 75.6317 72.4706C75.3087 72.7336 74.978 72.9251 74.6397 73.0425C74.3001 73.1613 73.9606 73.2213 73.6222 73.2213C73.012 73.2213 72.4899 73.0183 72.0571 72.611C71.6243 72.2038 71.3741 71.6446 71.3064 70.931C70.1524 72.4578 68.9817 73.2213 67.7944 73.2213C66.9799 73.2213 66.3352 72.8613 65.8603 72.14C65.3854 71.4187 65.1479 70.5161 65.1479 69.4297C65.1479 68.2424 65.4148 66.9951 65.9497 65.6891C66.4846 64.3831 67.2263 63.2712 68.1761 62.3558C69.1259 61.4392 70.1268 60.9822 71.1788 60.9822C71.789 60.9822 72.315 61.1558 72.7567 61.5043C73.1971 61.8516 73.4856 62.315 73.6222 62.8907C74.2159 61.8567 74.8695 61.3384 75.5819 61.3384C76.3964 61.3384 77.0232 61.6945 77.4649 62.4069C75.7006 66.2074 74.8184 68.6586 74.8184 69.7603C74.8184 70.2186 74.9538 70.4471 75.2257 70.4471C75.4121 70.4471 75.6163 70.3667 75.8359 70.2059C76.0568 70.045 76.2853 69.8024 76.5228 69.4807C76.7602 69.159 76.9849 68.845 77.1968 68.5399C77.4087 68.2347 77.65 67.8441 77.9219 67.3692C78.1926 66.8943 78.4007 66.5215 78.5449 66.2496C78.6892 65.9789 78.8794 65.6138 79.1169 65.1555C79.3543 64.6972 79.4896 64.4342 79.5241 64.3665L79.6007 64.1878L79.602 64.1865ZM69.5 70.4459C69.8562 70.4459 70.2417 70.1625 70.6579 69.5931C71.0728 69.025 71.4596 68.2998 71.8158 67.4177C72.2907 66.247 72.5116 65.2806 72.4771 64.5172C72.4426 63.9069 72.2141 63.6006 71.7903 63.6006C71.3664 63.6006 70.8826 63.944 70.3911 64.6308C69.8983 65.3176 69.5089 66.1104 69.2204 67.0104C68.9319 67.9092 68.8042 68.6726 68.8387 69.3007C68.8719 70.0642 69.0928 70.4459 69.5 70.4459V70.4459Z" fill="#103155"/>
<path d="M84.2922 64.0767C84.1492 63.3657 83.6679 62.0392 82.0658 61.152C82.0632 61.152 82.0619 61.1494 82.0594 61.1482C81.6036 60.8967 81.1274 60.7218 80.6423 60.6235C80.6168 60.5775 80.59 60.5315 80.5619 60.4869C79.4627 58.7111 77.6473 57.6936 75.5817 57.6936C75.02 57.6936 74.4685 57.7855 73.94 57.9655C73.0987 57.5519 72.1629 57.3374 71.1799 57.3374C69.8599 57.3374 67.9117 57.7127 65.9623 59.4426C65.7644 59.1911 65.5614 58.9766 65.3661 58.7979C64.3001 57.8251 62.9239 57.3119 61.3843 57.3119C60.0885 57.3119 58.8323 57.6489 57.6361 58.3166C56.6837 57.6629 55.5297 57.3119 54.2849 57.3119C53.0402 57.3119 51.9181 57.6055 50.8125 58.1864C49.3725 57.4817 47.7409 57.4127 46.5179 57.4395C45.7226 57.4574 44.9847 57.7319 44.3897 58.1864C43.6621 57.8646 42.8629 57.6936 42.0203 57.6936C41.4586 57.6936 40.9071 57.7855 40.3786 57.9655C39.5373 57.5519 38.6015 57.3374 37.6185 57.3374C36.3176 57.3374 34.4052 57.7012 32.4826 59.3698C32.3077 59.1604 32.1149 58.9626 31.9068 58.7787C31.1089 58.0778 30.1502 57.6183 29.0867 57.4217C29.1978 56.9033 29.2501 56.4706 29.2501 56.0697C29.2501 54.7292 28.7255 53.4832 27.7718 52.5615C27.7705 52.5602 27.7693 52.559 27.768 52.5577C27.0939 51.9079 26.2577 51.4342 25.2773 51.147C24.7155 50.9836 24.1487 50.8585 23.5857 50.7742C23.0112 50.6887 22.424 50.6453 21.8418 50.6453C21.0069 50.6453 20.232 50.9287 19.6128 51.4087C19.4354 51.2951 19.2541 51.1853 19.0639 51.0857C17.989 50.524 16.7749 50.238 15.4548 50.238C14.1348 50.238 12.7752 50.51 11.4373 51.0487C10.2104 51.5428 9.04232 52.2232 7.96867 53.0709C6.96396 53.8637 6.00776 54.8071 5.1256 55.8757C4.25239 56.934 3.48896 58.074 2.85958 59.26C2.22382 60.4588 1.71061 61.7418 1.33655 63.0733C0.942075 64.4751 0.74292 65.8768 0.74292 67.2402C0.74292 70.0808 1.57146 72.4132 3.20427 74.1724C4.8856 75.9826 7.14141 76.9401 9.72914 76.9401C11.6313 76.9401 13.5105 76.4575 15.3425 75.5065C15.4344 75.5907 15.5289 75.6737 15.6285 75.7528C16.5783 76.5099 17.7477 76.9529 19.0128 77.0346C19.2388 77.0486 19.4673 77.0563 19.6997 77.0563C20.2639 77.0563 20.8435 77.0129 21.4295 76.9273C22.1967 76.815 22.8836 76.4665 23.4159 75.9584C24.3517 76.5648 25.4381 76.8827 26.6165 76.889C26.0956 78.075 25.8262 79.3593 25.8262 80.7036C25.8262 81.813 26.0101 82.9314 26.3701 84.0267C26.6356 84.8335 26.9599 85.6021 27.3378 86.3144C27.1233 86.2915 26.905 86.28 26.6841 86.28C24.967 86.28 23.4376 86.9527 22.3755 88.1732C21.4257 89.2647 20.9239 90.6499 20.9239 92.1793C20.9239 93.3474 21.1933 94.4543 21.7257 95.4705C22.2197 96.4139 22.9346 97.2603 23.8487 97.9854C25.5339 99.3221 27.5458 99.9999 29.8297 99.9999C31.423 99.9999 32.9766 99.6489 34.4461 98.9557C34.9146 98.7348 35.3601 98.4795 35.7852 98.191C37.1193 99.2493 38.7611 99.8046 40.6071 99.8046C42.1301 99.8046 43.6314 99.4063 45.0689 98.6212C45.5311 98.3684 45.9741 98.0824 46.3992 97.7671C46.4707 97.8501 46.5422 97.9292 46.6111 98.002C47.2328 98.6429 48.3435 99.451 50.0976 99.6553C50.9478 99.7548 51.8836 99.7408 52.9585 99.6131C53.6926 99.525 54.3577 99.2225 54.8901 98.768C55.8935 99.3961 57.0118 99.7229 58.1799 99.7229C59.1732 99.7229 60.1626 99.4893 61.1213 99.0297C61.6703 98.7654 62.1924 98.4527 62.6788 98.0965C64.0346 99.2186 65.7185 99.8059 67.6207 99.8059C69.1437 99.8059 70.645 99.4076 72.0825 98.6225C73.1229 98.0544 74.0702 97.3254 74.9077 96.4496C78.1439 94.9189 80.7074 92.3287 82.5356 88.7362C82.5394 88.7285 82.5432 88.7209 82.5471 88.7132L82.6862 88.4349C83.05 87.7085 83.1598 86.8813 82.999 86.0859C82.8509 85.3531 82.3517 83.991 80.6679 83.0909C79.5112 82.4743 78.4759 82.4309 77.7661 82.5216C77.6103 82.2279 77.429 81.9445 77.2235 81.6726C76.4971 80.7113 75.5268 79.9645 74.337 79.4512C73.2787 78.9955 72.1246 78.7644 70.9054 78.7644C68.9101 78.7644 67.0206 79.3708 65.2857 80.567C64.8887 80.0857 64.3933 79.6619 63.8099 79.3159C63.1358 78.9163 62.3354 78.6125 61.3881 78.3968C61.4545 77.9933 61.4864 77.6372 61.4864 77.3103C61.4864 77.1227 61.4762 76.9363 61.4571 76.7524C61.8541 76.6797 62.2473 76.575 62.6328 76.4346C63.1716 76.2392 63.6988 75.9801 64.2057 75.6596C65.2168 76.4461 66.4423 76.8673 67.7943 76.8673C68.8207 76.8673 69.819 76.6273 70.7727 76.1512C71.6306 76.6222 72.5957 76.8673 73.6221 76.8673C74.3702 76.8673 75.1183 76.7384 75.8422 76.4856C76.5813 76.2277 77.286 75.8269 77.9359 75.2971C78.3252 74.9792 78.6942 74.6575 79.0299 74.3422C79.5023 73.8979 79.9542 73.363 80.4087 72.7042C80.7125 72.2651 80.9819 71.8719 81.2091 71.5374C81.4874 71.125 81.7951 70.6093 82.15 69.9608C82.4717 69.3722 82.6939 68.9611 82.8471 68.6713C83.0028 68.379 83.216 67.9679 83.5007 67.4164C83.5084 67.4024 83.5147 67.3883 83.5224 67.3743C83.6769 67.0653 83.7969 66.8177 83.885 66.6236L83.9794 66.4334C84.3433 65.707 84.4531 64.8798 84.2922 64.0831V64.0767Z" fill="white"/>
<path d="M80.8913 63.3006C80.7279 63.2113 80.5708 63.1577 80.4189 63.1423C80.2887 63.1296 80.1661 63.2062 80.1151 63.3262C80.0806 63.3938 79.9453 63.6568 79.7078 64.1151C79.4704 64.5734 79.2789 64.9386 79.1359 65.2092C78.9916 65.4811 78.7835 65.8539 78.5129 66.3288C78.241 66.8037 77.9997 67.1944 77.7878 67.4995C77.5758 67.8046 77.3512 68.1186 77.1137 68.4404C76.8762 68.7633 76.6465 69.0046 76.4269 69.1655C76.206 69.3263 76.003 69.4068 75.8166 69.4068C75.5447 69.4068 75.4094 69.1783 75.4094 68.7199C75.4094 67.7267 76.1243 65.6407 77.5554 62.4619C78.0048 61.4636 77.2924 60.3069 76.1984 60.298C76.1907 60.298 76.1818 60.298 76.1741 60.298C75.4617 60.298 74.8081 60.815 74.2145 61.8504C74.0779 61.2733 73.7906 60.8112 73.3489 60.464C72.9072 60.1167 72.3825 59.9418 71.771 59.9418C70.719 59.9418 69.7182 60.4001 68.7683 61.3155C67.8185 62.2321 67.0768 63.3428 66.5419 64.6488L66.5394 64.6539C66.3466 65.1262 66.1193 65.5858 65.8563 66.0237C64.5069 68.2782 63.4576 69.4055 62.712 69.4055C62.3724 69.4055 62.2026 69.2025 62.2026 68.7953C62.2026 68.3038 62.5167 67.2352 63.1448 65.5896C63.7716 63.9441 64.0857 62.7479 64.0857 62.0023C64.0857 61.3244 63.8903 60.8061 63.501 60.4499C63.1103 60.0937 62.6022 59.915 61.9741 59.915C60.2443 59.915 58.5553 61.1457 56.9097 63.6045C57.0118 63.164 57.0629 62.7479 57.0629 62.3572C57.0629 61.5772 56.8676 60.9746 56.4782 60.5508C56.0875 60.1269 55.5539 59.915 54.8747 59.915C53.2802 59.915 51.7534 60.9835 50.2942 63.1206C50.515 62.4427 50.6248 61.9423 50.6248 61.6193C50.6172 61.1074 50.3657 60.7193 49.8716 60.4563C48.6537 59.8078 47.1511 60.5495 46.8473 61.8951C46.3519 63.7883 45.7175 64.936 45.5745 65.2079C45.4302 65.4798 45.2221 65.8526 44.9515 66.3275C44.6795 66.8024 44.4383 67.1931 44.2263 67.4982C44.0144 67.8033 43.7897 68.1174 43.5523 68.4391C43.3148 68.7621 43.085 69.0034 42.8655 69.1642C42.6446 69.3251 42.4416 69.4055 42.2552 69.4055C41.9833 69.4055 41.848 69.177 41.848 68.7187C41.848 67.7255 42.5629 65.6394 43.994 62.4606C44.4434 61.4623 43.731 60.3069 42.6369 60.2967C42.6293 60.2967 42.6203 60.2967 42.6127 60.2967C41.9003 60.2967 41.2467 60.8138 40.653 61.8491C40.5164 61.2721 40.2292 60.8099 39.7875 60.4627C39.3458 60.1154 38.8211 59.9405 38.2096 59.9405C37.1576 59.9405 36.1567 60.3988 35.2069 61.3142C34.2571 62.2308 33.5154 63.3415 32.9805 64.6475C32.9154 64.8071 32.3115 66.2126 31.5047 67.3833C31.0719 68.0535 30.6647 68.5629 30.283 68.9102C29.9012 69.2587 29.554 69.4323 29.2399 69.4323C28.9259 69.4323 28.7689 69.2204 28.7689 68.7965C28.7689 68.2872 29.0957 67.2059 29.748 65.5526C30.4004 63.8981 30.7272 62.7325 30.7272 62.0534C30.7272 61.3742 30.5153 60.8495 30.0915 60.4754C29.6676 60.1027 29.125 59.915 28.4625 59.915C26.8335 59.915 25.29 60.8061 23.8308 62.587C24.0517 61.9602 24.3058 61.2223 24.5943 60.3733C24.8828 59.5256 25.1075 58.8631 25.2683 58.3881C25.4292 57.9132 25.59 57.4217 25.7522 56.9124C25.913 56.403 26.0279 56.0008 26.0956 55.7034C26.1633 55.4072 26.1977 55.1812 26.1977 55.0293C26.1977 54.6731 26.0739 54.377 25.8288 54.1382C25.5824 53.9008 25.2568 53.7233 24.8496 53.6033C24.4424 53.4846 24.0389 53.3952 23.6406 53.3365H23.6291C22.9844 53.2395 22.3819 53.6774 22.2746 54.3195C21.9759 56.1068 21.4346 58.3792 20.6508 61.1355C20.6393 61.175 20.6278 61.2146 20.6163 61.2542C19.8899 63.7143 18.4703 65.9216 16.4979 67.5608C16.4825 67.5735 16.4672 67.5863 16.4519 67.5991C14.8906 68.8885 13.4237 69.5332 12.0501 69.5332C11.2011 69.5332 10.5232 69.2446 10.0138 68.6676C9.50446 68.0906 9.25041 67.2084 9.25041 66.0211C9.25041 64.8339 9.47893 63.5662 9.93724 62.2678C10.3956 60.9695 10.9637 59.8422 11.6415 58.8835C12.3194 57.9247 13.0535 57.1319 13.8425 56.5038C14.6314 55.877 15.34 55.5617 15.9668 55.5617C16.4928 55.5617 16.7557 55.8502 16.7557 56.4272C16.7557 56.9698 16.5349 57.5851 16.0944 58.272C15.6527 58.9588 15.1102 59.532 14.4655 59.989C14.5676 60.312 14.7067 60.5827 14.8855 60.8035C15.0642 61.0244 15.2672 61.1942 15.4957 61.3129C15.7242 61.4316 15.9668 61.4916 16.2208 61.4916C17.1196 61.4916 17.9213 60.9363 18.626 59.8244C19.3294 58.7137 19.6818 57.5468 19.6818 56.3251C19.6818 55.6293 19.5337 55.0191 19.2362 54.4931C18.9388 53.9672 18.5149 53.5599 17.9634 53.2714C17.4119 52.9829 16.7711 52.8386 16.0421 52.8386C15.1765 52.8386 14.2906 53.0212 13.3829 53.3863C12.4752 53.7514 11.6186 54.2519 10.813 54.8876C10.0075 55.5234 9.24403 56.2791 8.52273 57.1524C7.80143 58.0269 7.18226 58.9511 6.66523 59.9265C6.14691 60.9018 5.73584 61.9334 5.43072 63.0185C5.12561 64.1049 4.97241 65.1645 4.97241 66.1999C4.97241 68.0995 5.46902 69.5842 6.46097 70.6528C7.45291 71.7213 8.73848 72.2562 10.3164 72.2562C12.3182 72.2562 14.3199 71.4634 16.3217 69.8766C17.1745 69.2012 17.9507 68.4582 18.6515 67.6489C18.4971 68.1595 18.3681 68.5872 18.2673 68.9344C18.0388 69.7234 17.9239 70.2787 17.9239 70.6017C17.9239 71.1443 18.1102 71.5643 18.4843 71.8617C18.8571 72.1592 19.3065 72.3239 19.8324 72.3583C19.8426 72.3583 19.8529 72.3596 19.8643 72.3609C20.758 72.4145 21.5342 71.7596 21.667 70.8736C21.8355 69.7617 22.0461 68.8068 22.3002 68.0076C22.5708 67.2276 22.9066 66.4386 23.3049 65.6407C23.7032 64.8441 24.1781 64.1266 24.7296 63.4909C25.2811 62.8551 25.7943 62.5372 26.2692 62.5372C26.5909 62.5372 26.7531 62.707 26.7531 63.0466C26.7531 63.3185 26.5999 63.8317 26.2947 64.5862C25.9896 65.3407 25.6845 66.1858 25.3781 67.1178C25.073 68.051 24.9198 68.8655 24.9198 69.5612C24.9198 70.4268 25.1407 71.0843 25.5811 71.5336C26.0216 71.983 26.5731 72.2077 27.2356 72.2077C27.8625 72.2077 28.4867 72.0303 29.1059 71.6728C29.7251 71.3166 30.2804 70.8928 30.7732 70.4C31.2238 69.9493 31.6936 69.3646 32.18 68.6497C32.2158 69.62 32.4494 70.437 32.8847 71.0996C33.3596 71.8209 34.0043 72.1809 34.8188 72.1809C36.0061 72.1809 37.1768 71.4175 38.3309 69.8906C38.3985 70.603 38.6487 71.1634 39.0815 71.5707C39.5143 71.9779 40.0352 72.1809 40.6467 72.1809C40.9863 72.1809 41.3246 72.1222 41.6641 72.0022C42.0037 71.8834 42.3344 71.6932 42.6561 71.4302C42.9778 71.1673 43.2791 70.9043 43.5599 70.6413C43.8395 70.3783 44.1319 70.0272 44.4383 69.5855C44.5085 69.4846 44.5761 69.3864 44.6412 69.2919C44.6374 69.3098 44.6336 69.3263 44.6298 69.3429C44.5366 69.7591 44.4893 70.1102 44.4893 70.3987C44.4893 71.1787 44.774 71.7137 45.3421 72.0022C45.3779 72.02 45.4149 72.0379 45.4519 72.0532C46.6277 72.5639 47.9771 71.8209 48.2439 70.5672C48.466 69.5217 48.7073 68.6433 48.9678 67.9297V67.9042C49.4771 66.5637 50.1333 65.3343 50.9402 64.2147C51.7457 63.0951 52.4377 62.5347 53.0134 62.5347C53.3185 62.5347 53.4717 62.73 53.4717 63.1194C53.4717 63.5087 53.1743 64.5785 52.5806 66.325C51.987 68.0727 51.6895 69.3021 51.6895 70.0145C51.6895 70.7779 51.9679 71.3192 52.5232 71.6371C53.6377 72.2754 55.042 71.5668 55.2858 70.3068C55.4633 69.3902 55.6726 68.5974 55.9139 67.9284V67.9029C56.3544 66.699 56.9735 65.5028 57.7714 64.3156C58.568 63.1283 59.2562 62.5347 59.8332 62.5347C60.1383 62.5347 60.2915 62.7134 60.2915 63.0696C60.2915 63.3747 60.1434 63.9262 59.846 64.7241C59.5485 65.522 59.2562 66.3952 58.9676 67.345C58.6791 68.2948 58.5349 69.1004 58.5349 69.763C58.5349 70.5609 58.7429 71.1621 59.1579 71.5694C59.5728 71.9766 60.1115 72.1796 60.7741 72.1796C61.1813 72.1796 61.5835 72.1081 61.983 71.9639C62.3814 71.8196 62.772 71.6077 63.1537 71.3281C63.5354 71.0485 63.8954 70.7472 64.235 70.4243C64.5746 70.1025 64.918 69.7081 65.2653 69.2408C65.4338 69.0148 65.5921 68.7965 65.7415 68.5885C65.7695 69.5842 66.0032 70.423 66.4487 71.0983C66.9236 71.8196 67.5683 72.1796 68.3828 72.1796C69.5701 72.1796 70.7407 71.4162 71.8948 69.8893C71.9625 70.6017 72.2127 71.1621 72.6455 71.5694C73.0783 71.9766 73.5991 72.1796 74.2106 72.1796C74.5502 72.1796 74.8885 72.1209 75.2281 72.0009C75.5677 71.8822 75.8983 71.6919 76.2201 71.429C76.5418 71.166 76.8431 70.903 77.1239 70.64C77.4035 70.377 77.6959 70.0259 78.0022 69.5842C78.3074 69.1438 78.5665 68.7659 78.7784 68.4519C78.9904 68.1378 79.2444 67.7101 79.5419 67.1663C79.838 66.6237 80.064 66.2075 80.2159 65.919C80.3691 65.6305 80.581 65.2232 80.8517 64.6973C81.0049 64.3922 81.1147 64.1624 81.1823 64.0104C81.2934 63.7896 81.2245 63.5215 81.0215 63.3798C80.9819 63.3517 80.9372 63.3249 80.89 63.2981L80.8913 63.3006ZM38.8415 66.3799C38.4853 67.262 38.0998 67.9872 37.6836 68.5553C37.2674 69.1234 36.8819 69.408 36.5257 69.408C36.1184 69.408 35.8976 69.0263 35.8644 68.2629C35.8299 67.6361 35.9576 66.8727 36.2461 65.9726C36.5346 65.0739 36.924 64.2798 37.4168 63.593C37.9083 62.9062 38.3755 62.5627 38.816 62.5627C39.2564 62.5627 39.4683 62.8679 39.5028 63.4794C39.536 64.2428 39.3164 65.2092 38.8415 66.3799V66.3799ZM72.4042 66.3799C72.048 67.262 71.6625 67.9872 71.2463 68.5553C70.8301 69.1234 70.4446 69.408 70.0884 69.408C69.6811 69.408 69.4603 69.0263 69.4271 68.2629C69.3926 67.6361 69.5203 66.8727 69.8088 65.9726C70.0973 65.0739 70.4867 64.2798 70.9795 63.593C71.471 62.9062 71.9382 62.5627 72.3787 62.5627C72.8191 62.5627 73.031 62.8679 73.0655 63.4794C73.0987 64.2428 72.8791 65.2092 72.4042 66.3799V66.3799Z" fill="#103155"/>
<path d="M78.9533 84.9422C78.7925 84.8567 78.6405 84.8018 78.4988 84.7775C78.3354 84.7507 78.172 84.8261 78.0903 84.9703C76.9579 87.1802 75.6124 88.767 74.0523 89.7322C74.3485 88.8781 74.4979 88.024 74.4979 87.17C74.4979 86.5201 74.3676 85.9635 74.1085 85.4988C74.5911 85.1273 74.8323 84.6269 74.8323 83.995C74.8323 83.4562 74.66 82.9596 74.3166 82.5051C73.9732 82.0507 73.4995 81.6932 72.8957 81.4328C72.2918 81.1736 71.628 81.0434 70.9041 81.0434C69.5854 81.0434 68.3368 81.4749 67.1585 82.3379C66.2495 83.0043 65.4874 83.815 64.8708 84.7673C63.9669 86.0018 63.4397 87.0576 62.892 87.9487C62.3443 88.8398 61.7405 89.639 61.0817 90.3437C60.423 91.0496 59.8613 91.402 59.3966 91.402C58.5987 91.402 57.9386 90.4547 57.4191 88.5615C58.6446 87.8198 59.8 86.7742 60.8864 85.4286C61.9728 84.083 62.5154 83.0566 62.5154 82.3507C62.5154 81.9051 62.3137 81.5311 61.9103 81.2285C60.7089 80.3272 59.2153 80.7893 58.6076 82.1617C56.5612 86.3835 53.9351 87.9385 53.9134 87.9244C54.2096 87.0716 54.7254 85.6354 55.4607 83.6171C56.1935 81.6025 56.7744 79.9404 57.2008 78.6318C57.6271 77.3233 57.8416 76.4271 57.8416 75.9445C57.8416 75.3598 57.5837 74.9041 57.068 74.5798C55.6471 73.6823 53.7653 74.5606 53.4526 76.2113C53.0568 78.2961 52.4402 80.6029 51.6027 83.1307C51.5529 83.3017 51.4993 83.4779 51.4444 83.6579C50.9695 85.2103 50.2061 86.6682 49.1452 87.8964C48.4916 88.6521 47.7894 89.2636 47.0362 89.7296C47.3324 88.8755 47.4817 88.0215 47.4817 87.1674C47.4817 86.5176 47.3515 85.961 47.0924 85.4963C47.5749 85.1248 47.8162 84.6243 47.8162 83.9924C47.8162 83.4537 47.6439 82.9571 47.3005 82.5026C46.957 82.0481 46.4834 81.6906 45.8796 81.4302C45.2757 81.171 44.6119 81.0408 43.888 81.0408C42.5693 81.0408 41.3207 81.4723 40.1424 82.3353C38.9628 83.1983 38.0308 84.3039 37.344 85.6495C36.8423 86.6338 36.5244 87.6449 36.3891 88.6828C36.3572 88.0138 36.2257 87.3551 35.9933 86.7078C35.7239 85.9559 35.3946 85.278 35.0052 84.6754C34.6158 84.0728 34.2252 83.483 33.8358 82.9073C33.4464 82.3315 33.1119 81.7149 32.8336 81.0549C32.5553 80.3961 32.4162 79.7412 32.4162 79.0914C32.4162 78.1442 32.6766 77.3284 33.1962 76.6403C33.7158 75.9535 34.2724 75.61 34.8673 75.61C35.1826 75.61 35.438 75.7211 35.6333 75.9445C35.8286 76.1679 35.9257 76.4922 35.9257 76.9186C35.9257 77.4203 35.7865 77.931 35.5082 78.4505C35.3601 78.7276 35.1827 78.9765 34.9771 79.2012C34.5686 79.6455 34.6133 80.3183 35.0818 80.6987L35.0907 80.7064C35.3869 80.9476 35.6933 81.0689 36.0099 81.0689C36.7338 81.0689 37.3606 80.6744 37.8891 79.8855C38.4176 79.0965 38.6832 78.2195 38.6832 77.2543C38.6832 76.2152 38.3487 75.3419 37.681 74.636C37.0121 73.93 36.084 73.5776 34.8967 73.5776C33.4107 73.5776 32.1353 74.1534 31.0681 75.3049C30.0008 76.4564 29.4672 77.802 29.4672 79.3429C29.4672 80.0668 29.5872 80.7957 29.8297 81.5285C30.071 82.2626 30.3685 82.9354 30.7208 83.5481C31.0732 84.1609 31.4268 84.7686 31.7791 85.3724C32.1315 85.9763 32.429 86.6172 32.6702 87.2938C32.9115 87.9717 33.0328 88.6355 33.0328 89.2853C33.0328 90.2505 32.7545 91.0394 32.1979 91.6522C31.6413 92.265 30.9544 92.5714 30.1374 92.5714C29.5055 92.5714 28.982 92.362 28.5633 91.9446C28.1458 91.5271 27.9365 90.9462 27.9365 90.2045C27.9365 90.1151 27.9403 90.0283 27.9467 89.9428C28.0041 89.2113 27.4348 88.5666 26.7007 88.5615C26.6943 88.5615 26.6892 88.5615 26.6828 88.5615C26.0139 88.5615 25.4943 88.7747 25.1228 89.2023C24.7513 89.63 24.5662 90.1675 24.5662 90.8173C24.5662 91.9688 25.0819 92.9531 26.1122 93.7689C27.1424 94.5859 28.382 94.9944 29.8297 94.9944C30.8881 94.9944 31.9094 94.7621 32.8936 94.2987C33.8779 93.8353 34.7077 93.1344 35.3856 92.1961C35.872 91.522 36.1835 90.7841 36.3201 89.9798C36.3431 91.402 36.7325 92.5535 37.487 93.4344C38.267 94.3446 39.3062 94.7991 40.6058 94.7991C41.5148 94.7991 42.4199 94.5527 43.3212 94.0612C44.2212 93.5697 45.0153 92.9059 45.7021 92.0697C47.1102 91.5016 48.3626 90.6832 49.4618 89.6185C49.3214 90.0577 49.2052 90.4381 49.1133 90.7611C48.8809 91.5782 48.7648 92.2369 48.7648 92.7386C48.7648 93.3335 48.9179 93.788 49.2243 94.1033C49.5307 94.4187 49.9622 94.6089 50.5189 94.674C50.524 94.674 50.5303 94.6753 50.5354 94.6766C51.6027 94.7978 52.5768 94.0382 52.7402 92.9761C52.9802 91.4096 53.3147 89.916 53.7411 88.4925C53.9441 89.7117 54.2326 90.7752 54.6079 91.6803C55.0164 92.6646 55.5028 93.4165 56.0697 93.9361C56.6352 94.4557 57.2531 94.7161 57.922 94.7161C58.3676 94.7161 58.8221 94.6051 59.2868 94.3817C59.7502 94.1595 60.1779 93.885 60.5672 93.5595C60.9566 93.2352 61.3702 92.7986 61.8068 92.251C62.2435 91.7033 62.6098 91.2118 62.9073 90.7752C63.0388 90.5811 63.1818 90.3603 63.3337 90.1151C63.3784 91.4748 63.7678 92.5816 64.4993 93.4357C65.2793 94.3459 66.3185 94.8004 67.6181 94.8004C68.527 94.8004 69.4322 94.554 70.3335 94.0625C71.2335 93.571 72.0276 92.9071 72.7144 92.0709C75.5179 90.9386 77.7086 88.8219 79.2865 85.721C79.4027 85.4886 79.3414 85.2001 79.1295 85.0495C79.0771 85.0124 79.0184 84.9767 78.9533 84.9409V84.9422ZM43.8089 86.7244C43.8089 87.3934 43.6646 88.1261 43.3774 88.924C43.0888 89.7219 42.7224 90.4049 42.2769 90.9705C41.8314 91.5373 41.3947 91.8194 40.9684 91.8194C40.6709 91.8194 40.4347 91.6714 40.2585 91.3739C40.0824 91.0777 39.9943 90.659 39.9943 90.1202C39.9943 89.3224 40.1615 88.4453 40.496 87.4891C40.8305 86.5329 41.299 85.7018 41.9029 84.9971C42.5054 84.2911 43.1322 83.9388 43.7821 83.9388C44.2085 83.9388 44.5519 84.1341 44.8123 84.5235C44.3476 84.6346 43.8931 84.8758 43.4476 85.2473C43.6889 85.6367 43.8101 86.1295 43.8101 86.7231L43.8089 86.7244ZM70.8224 86.7244C70.8224 87.3934 70.6782 88.1261 70.3909 88.924C70.1024 89.7219 69.736 90.4049 69.2905 90.9705C68.8449 91.5373 68.4083 91.8194 67.9819 91.8194C67.6845 91.8194 67.4483 91.6714 67.2721 91.3739C67.0959 91.0777 67.0079 90.659 67.0079 90.1202C67.0079 89.3224 67.1751 88.4453 67.5096 87.4891C67.844 86.5329 68.3126 85.7018 68.9164 84.9971C69.519 84.2911 70.1458 83.9388 70.7956 83.9388C71.222 83.9388 71.5654 84.1341 71.8259 84.5235C71.3612 84.6346 70.9067 84.8758 70.4611 85.2473C70.7024 85.6367 70.8237 86.1295 70.8237 86.7231L70.8224 86.7244Z" fill="#103155"/>
<defs>
<linearGradient id="paint0_linear_1_9453" x1="80.8185" y1="16.0052" x2="52.4849" y2="38.8646" gradientUnits="userSpaceOnUse">
<stop offset="0.16" stop-color="#FFE610"/>
<stop offset="0.5" stop-color="#FFC073"/>
<stop offset="1" stop-color="#FE45D7"/>
</linearGradient>
<linearGradient id="paint1_linear_1_9453" x1="106.553" y1="-4.78365" x2="15.2762" y2="68.8577" gradientUnits="userSpaceOnUse">
<stop offset="0.16" stop-color="#FFE610"/>
<stop offset="0.5" stop-color="#FFC073"/>
<stop offset="1" stop-color="#FE45D7"/>
</linearGradient>
</defs>
</svg>
