<svg width="44" height="36" viewBox="0 0 44 36" fill="none" xmlns="http://www.w3.org/2000/svg">
<path d="M41.2216 16.0756C39.8969 15.1855 38.224 15.0191 36.7469 15.6255L31.1762 17.9158V17.3567C31.1762 14.7229 29.0337 12.5804 26.3999 12.5804H23.7723C22.8923 12.5804 22.1802 13.2933 22.1802 14.1725C22.1802 15.0518 22.8923 15.7646 23.7723 15.7646H26.3999C27.2923 15.7646 27.992 16.4643 27.992 17.3567V31.2238C27.992 32.1015 27.2784 32.8159 26.3999 32.8159H4.77628C3.89783 32.8159 3.18418 32.1015 3.18418 31.2238V17.3567C3.18418 16.479 3.89783 15.7646 4.77628 15.7646H7.40385C8.28385 15.7646 8.99594 15.0518 8.99594 14.1725C8.99594 13.2933 8.28385 12.5804 7.40385 12.5804H4.77628C2.14248 12.5804 0 14.7229 0 17.3567V31.2238C0 33.8576 2.14248 36.0001 4.77628 36.0001H26.3999C29.0337 36.0001 31.1762 33.8576 31.1762 31.2238V30.6593L36.7469 32.9488C37.3331 33.1898 37.9503 33.3087 38.5645 33.3087C39.4973 33.3087 40.4224 33.0343 41.2216 32.4987C42.5478 31.6101 43.3392 30.1277 43.3392 28.5317V20.0434C43.3392 18.4474 42.5478 16.9641 41.2216 16.0756ZM40.155 28.5317C40.155 29.0712 39.8985 29.5532 39.4492 29.854C38.9998 30.1541 38.4572 30.2077 37.9566 30.0041L32.1681 27.6245C31.568 27.378 31.1808 26.7997 31.1808 26.1513V22.423C31.1808 21.7746 31.568 21.197 32.1666 20.9506L37.9566 18.5702C38.4588 18.3665 38.9998 18.4194 39.4492 18.7203C39.8985 19.0211 40.155 19.5031 40.155 20.0434V28.5317Z" fill="#FFC073"/>
<path d="M11.3741 5.35077C14.266 2.46043 18.9677 2.46043 21.8595 5.35077C22.1705 5.66172 22.5779 5.8172 22.9852 5.8172C23.3925 5.8172 23.7999 5.66172 24.1109 5.35077C24.7328 4.72886 24.7328 3.72136 24.1109 3.09945C19.9783 -1.03315 13.2554 -1.03315 9.12281 3.09945C8.50089 3.72136 8.50089 4.72886 9.12281 5.35077C9.74472 5.97268 10.7522 5.97268 11.3741 5.35077Z" fill="#FFC073"/>
<path d="M20.8627 11.8538C21.2701 11.8538 21.6774 11.6983 21.9884 11.3874C22.6103 10.7655 22.6103 9.75719 21.9884 9.13606C19.025 6.17421 14.2083 6.17421 11.2449 9.13606C10.623 9.75719 10.623 10.7655 11.2449 11.3874C11.8668 12.0093 12.8743 12.0093 13.4962 11.3874C15.2158 9.6678 18.0175 9.6678 19.7371 11.3874C20.048 11.6983 20.4554 11.8538 20.8627 11.8538Z" fill="#FFC073"/>
<path d="M16.6897 19.83C14.9843 19.83 13.6139 21.2173 13.6139 22.9284C13.6139 24.6395 15.0145 26.0268 16.7199 26.0268C18.4283 26.0268 19.8108 24.6395 19.8108 22.9284C19.8108 21.2173 18.4283 19.83 16.7199 19.83H16.6897Z" fill="#FFC073"/>
</svg>
