<svg width="24" height="28" viewBox="0 0 24 28" fill="none" xmlns="http://www.w3.org/2000/svg">
<path d="M11.9999 16.7124C9.33735 16.7124 7.16235 14.5499 7.16235 11.8749C7.16235 9.19993 9.33735 7.04993 11.9999 7.04993C14.6624 7.04993 16.8374 9.21243 16.8374 11.8874C16.8374 14.5624 14.6624 16.7124 11.9999 16.7124ZM11.9999 8.92493C10.3749 8.92493 9.03735 10.2499 9.03735 11.8874C9.03735 13.5249 10.3624 14.8499 11.9999 14.8499C13.6374 14.8499 14.9624 13.5249 14.9624 11.8874C14.9624 10.2499 13.6249 8.92493 11.9999 8.92493Z" fill="#FFC073"/>
<path d="M11.9998 27.45C10.1498 27.45 8.28735 26.75 6.83735 25.3625C3.14985 21.8125 -0.925146 16.15 0.612354 9.4125C1.99985 3.3 7.33735 0.5625 11.9998 0.5625H12.0123C16.6748 0.5625 22.0123 3.3 23.3998 9.425C24.9248 16.1625 20.8498 21.8125 17.1623 25.3625C15.7123 26.75 13.8498 27.45 11.9998 27.45ZM11.9998 2.4375C8.36235 2.4375 3.68735 4.375 2.44985 9.825C1.09985 15.7125 4.79985 20.7875 8.14985 24C10.3123 26.0875 13.6998 26.0875 15.8623 24C19.1998 20.7875 22.8998 15.7125 21.5748 9.825C20.3248 4.375 15.6373 2.4375 11.9998 2.4375Z" fill="#FFC073"/>
</svg>
