<svg width="26" height="22" viewBox="0 0 26 22" fill="none" xmlns="http://www.w3.org/2000/svg">
<path fill-rule="evenodd" clip-rule="evenodd" d="M17.9415 0.136313C16.979 0.0624876 15.7919 0.0625 14.2815 0.0625H12.1737C10.6634 0.0625 9.47617 0.0624876 8.51365 0.136313C7.53122 0.211663 6.7128 0.3676 5.95211 0.716325C4.69532 1.29246 3.63136 2.21886 2.8878 3.38445C2.69367 3.68876 2.53288 4.00964 2.39571 4.35572C1.92903 5.53316 1.71328 7.08724 1.39933 9.34863L1.37278 9.53988C1.1054 11.465 0.896371 12.9699 0.832896 14.1821C0.768434 15.4129 0.846408 16.4385 1.21666 17.3801C1.82181 18.9191 2.93917 20.2025 4.38031 21.0136C5.26205 21.5099 6.26722 21.7281 7.49516 21.8336C8.70457 21.9375 10.2239 21.9375 12.1675 21.9375H14.2876C16.2312 21.9375 17.7506 21.9375 18.96 21.8336C20.188 21.7281 21.1931 21.5099 22.0749 21.0136C23.516 20.2025 24.6334 18.9191 25.2385 17.3801C25.6087 16.4385 25.6867 15.4129 25.6222 14.1821C25.5589 12.9699 25.3497 11.4649 25.0824 9.53975L25.0519 9.32025C24.7194 6.92404 24.4966 5.31936 23.954 4.10518C23.8411 3.8525 23.7135 3.61355 23.5674 3.38445C22.8239 2.21886 21.7599 1.29246 20.5031 0.716325C19.7424 0.3676 18.924 0.211663 17.9415 0.136313ZM6.73347 2.42076C7.21298 2.20094 7.78625 2.07261 8.65703 2.00582C9.53951 1.93814 10.655 1.9375 12.2125 1.9375H14.2427C15.8002 1.9375 16.9156 1.93814 17.7981 2.00582C18.669 2.07261 19.2422 2.20094 19.7217 2.42076C20.6245 2.83459 21.3926 3.4929 21.9396 4.32036L21.2519 5.00809C19.1497 7.11016 17.6385 8.61862 16.335 9.61312C15.0531 10.5913 14.083 10.9835 13.0759 10.9835C12.0689 10.9835 11.0987 10.5913 9.81686 9.61312C8.51335 8.61862 7.00207 7.11016 4.9 5.00809L4.39886 4.50695C4.42153 4.46815 4.44475 4.43015 4.46853 4.39286C5.01813 3.53134 5.80453 2.84661 6.73347 2.42076ZM22.6641 6.24744C22.8446 7.08189 23.0012 8.18514 23.219 9.75325C23.4939 11.7324 23.6911 13.1578 23.7499 14.2801C23.8081 15.3932 23.7227 16.1112 23.4936 16.694C23.0462 17.8315 22.2204 18.7801 21.1552 19.3796C20.6095 19.6867 19.9101 19.8701 18.7996 19.9655C17.6797 20.0617 16.2409 20.0625 14.2427 20.0625H12.2125C10.2144 20.0625 8.7754 20.0617 7.65562 19.9655C6.54507 19.8701 5.8457 19.6867 5.29996 19.3796C4.23477 18.7801 3.4089 17.8315 2.96161 16.694C2.73245 16.1112 2.64703 15.3932 2.70532 14.2801C2.76411 13.1578 2.96126 11.7324 3.23613 9.75325C3.43242 8.34 3.57865 7.30342 3.73891 6.49865C5.72497 8.48461 7.29067 10.0441 8.67952 11.1039C10.1282 12.2091 11.4941 12.8585 13.0759 12.8585C14.6577 12.8585 16.0236 12.2091 17.4724 11.1039C18.8876 10.024 20.4866 8.42499 22.527 6.38464L22.6641 6.24744Z" fill="#FFC073"/>
</svg>
