<svg width="28" height="28" viewBox="0 0 28 28" fill="none" xmlns="http://www.w3.org/2000/svg">
<path d="M15.2377 2.4375C16.3137 2.4375 16.79 2.43845 17.1827 2.47361C21.5494 2.86456 25.0101 6.32521 25.401 10.6919C25.4362 11.0846 25.4371 11.5609 25.4371 12.6369V13.8744C25.4371 14.3921 25.8569 14.8119 26.3746 14.8119C26.8924 14.8119 27.3121 14.3921 27.3121 13.8744V12.5739C27.3121 11.5778 27.3121 11.0117 27.2685 10.5246C26.7967 5.25456 22.6201 1.07793 17.35 0.606075C16.8629 0.562475 16.2969 0.562488 15.3006 0.5625H14.0002C13.4825 0.5625 13.0627 0.982238 13.0627 1.5C13.0627 2.01778 13.4825 2.4375 14.0002 2.4375H15.2377Z" fill="#FFC073"/>
<path fill-rule="evenodd" clip-rule="evenodd" d="M7.88979 4.03168C6.57468 2.82326 4.55324 2.82326 3.23813 4.03168C3.18428 4.08116 3.12678 4.13866 3.05213 4.21334L1.93024 5.33521C0.801354 6.46411 0.327454 8.09151 0.673779 9.64999C2.63874 18.4923 9.54442 25.3979 18.3868 27.3629C19.9453 27.7093 21.5726 27.2354 22.7015 26.1064L23.8233 24.9847C23.898 24.9101 23.9555 24.8524 24.005 24.7985C25.2135 23.4834 25.2135 21.462 24.005 20.1469C23.9555 20.0931 23.898 20.0356 23.8233 19.9608L21.9868 18.1242C20.7116 16.8491 18.7859 16.4844 17.1329 17.2051C16.1865 17.6175 15.084 17.4087 14.354 16.6787L11.358 13.6827C10.628 12.9527 10.4192 11.8503 10.8317 10.9039C11.5523 9.25083 11.1876 7.32516 9.91249 6.05004L8.07583 4.21336C8.00115 4.13868 7.94365 4.08116 7.88979 4.03168ZM4.50677 5.41233C5.10454 4.86304 6.02338 4.86304 6.62115 5.41233C6.64179 5.43129 6.66884 5.45803 6.76393 5.55311L8.58667 7.37586C9.31667 8.10586 9.52545 9.2083 9.11293 10.1547C8.39235 11.8078 8.75704 13.7334 10.0322 15.0085L13.0281 18.0045C14.3033 19.2797 16.229 19.6444 17.882 18.9238C18.8284 18.5113 19.9309 18.7201 20.6609 19.4501L22.4836 21.2728C22.5786 21.3679 22.6054 21.3949 22.6244 21.4156C23.1736 22.0133 23.1736 22.9322 22.6244 23.5299C22.6054 23.5505 22.5786 23.5777 22.4836 23.6727L21.3756 24.7807C20.7001 25.4563 19.7261 25.7398 18.7935 25.5326C10.6618 23.7255 4.31117 17.3749 2.50413 9.24324C2.29688 8.31056 2.58048 7.33664 3.25607 6.66104L4.364 5.55311C4.45908 5.45804 4.48613 5.43129 4.50677 5.41233Z" fill="#FFC073"/>
<path d="M14.8838 4.98194C14.366 4.98194 13.9463 5.40166 13.9463 5.91942C13.9463 6.4372 14.366 6.85692 14.8838 6.85692H15.5909C15.6045 6.85692 15.6172 6.85692 15.6289 6.85694C15.711 6.85695 15.7492 6.85702 15.7809 6.85747C18.6554 6.89864 20.9757 9.21889 21.0168 12.0934C21.0173 12.1296 21.0174 12.1744 21.0174 12.2834V12.9905C21.0174 13.5083 21.437 13.928 21.9549 13.928C22.4727 13.928 22.8924 13.5083 22.8924 12.9905V12.2743C22.8924 12.2621 22.8924 12.2506 22.8924 12.2396C22.8923 12.1625 22.8923 12.1116 22.8917 12.0665C22.8359 8.17751 19.6968 5.03836 15.8078 4.98266C15.7562 4.98192 15.697 4.98192 15.5999 4.98194H14.8838Z" fill="#FFC073"/>
</svg>
