<svg width="24" height="25" viewBox="0 0 24 25" fill="none" xmlns="http://www.w3.org/2000/svg">
<g clip-path="url(#clip0_1_22983)">
<path d="M21.2031 10.9436L4.30518 0.738403C3.9646 0.532593 3.6275 0.428223 3.30341 0.428223C2.61584 0.428223 1.92188 0.940002 1.92188 2.08313V22.7783C1.92188 23.9179 2.61145 24.4282 3.29498 24.4282C3.62054 24.4282 3.95929 24.322 4.30188 24.1125L21.2109 13.7711C21.7888 13.4177 22.1193 12.9014 22.1179 12.3548C22.1164 11.808 21.783 11.2937 21.2031 10.9436ZM2.90149 22.7783V2.08313C2.90149 1.91742 2.92456 1.67883 3.03918 1.534L13.1777 12.3945L3.05127 23.3387C2.92035 23.1877 2.90149 22.9185 2.90149 22.7783ZM13.8479 13.1125L16.2328 15.6674L5.29358 22.3577L13.8479 13.1125ZM13.8448 11.6736L5.22144 2.43597L16.2367 9.08856L13.8448 11.6736ZM20.6999 12.9354L17.0859 15.1457L14.515 12.3916L17.0929 9.60565L20.6966 11.782C20.9767 11.9512 21.1377 12.1611 21.1382 12.3575C21.1388 12.554 20.9791 12.7646 20.6999 12.9354Z" fill="#103155"/>
<path d="M4.40997 8.73224C4.13934 8.73224 3.92017 8.95142 3.92017 9.22205V9.43646C3.92017 9.70709 4.13934 9.92627 4.40997 9.92627C4.68042 9.92627 4.89978 9.70709 4.89978 9.43646V9.22205C4.89978 8.95142 4.68042 8.73224 4.40997 8.73224Z" fill="#103155"/>
<path d="M4.40997 10.4965C4.13934 10.4965 3.92017 10.7158 3.92017 10.9863V15.6393C3.92017 15.91 4.13934 16.1292 4.40997 16.1292C4.68042 16.1292 4.89978 15.91 4.89978 15.6393V10.9863C4.89978 10.7158 4.68042 10.4965 4.40997 10.4965Z" fill="#103155"/>
</g>
<defs>
<clipPath id="clip0_1_22983">
<rect width="24" height="24" fill="white" transform="translate(0 0.428223)"/>
</clipPath>
</defs>
</svg>
