<svg width="12" height="12" viewBox="0 0 12 12" fill="none" xmlns="http://www.w3.org/2000/svg">
<path d="M1.87501 6.91659H5.08334V10.1249C5.08334 10.368 5.17992 10.6012 5.35183 10.7731C5.52374 10.945 5.7569 11.0416 6.00001 11.0416C6.24313 11.0416 6.47628 10.945 6.64819 10.7731C6.8201 10.6012 6.91668 10.368 6.91668 10.1249V6.91659H10.125C10.3681 6.91659 10.6013 6.82001 10.7732 6.6481C10.9451 6.47619 11.0417 6.24303 11.0417 5.99992C11.0417 5.7568 10.9451 5.52365 10.7732 5.35174C10.6013 5.17983 10.3681 5.08325 10.125 5.08325H6.91668V1.87492C6.91668 1.6318 6.8201 1.39865 6.64819 1.22674C6.47628 1.05483 6.24313 0.958252 6.00001 0.958252C5.7569 0.958252 5.52374 1.05483 5.35183 1.22674C5.17992 1.39865 5.08334 1.6318 5.08334 1.87492V5.08325H1.87501C1.6319 5.08325 1.39874 5.17983 1.22683 5.35174C1.05492 5.52365 0.958344 5.7568 0.958344 5.99992C0.958344 6.24303 1.05492 6.47619 1.22683 6.6481C1.39874 6.82001 1.6319 6.91659 1.87501 6.91659Z" fill="#FEC933"/>
</svg>
