<svg width="44" height="55" viewBox="0 0 44 55" fill="none" xmlns="http://www.w3.org/2000/svg">
<g clip-path="url(#clip0_2842_7470)">
<path d="M11.1 14C11.4 14 11.7 13.9 11.9 13.7C12.1 13.5 12.2 13.2 12.2 12.9C12.2 12.6 12.1 12.3 11.9 12.1C11.7 11.9 11.4 11.8 11.1 11.8C10.8 11.8 10.5 11.9 10.3 12.1C10.1 12.3 10 12.6 10 12.9C10 13.2 10.1 13.5 10.3 13.7C10.5 13.9 10.8 14 11.1 14Z" fill="#FFC073" stroke="#FFC073" stroke-width="0.2"/>
<path d="M39.3 11.7001H15.2C14.6 11.7001 14.1 12.2001 14.1 12.8001C14.1 13.4001 14.6 13.9001 15.2 13.9001H39.3C40.1 13.9001 40.8 14.6001 40.8 15.4001V36.6001H34C33.4 36.6001 32.9 37.1001 32.9 37.7001C32.9 38.3001 33.4 38.8001 34 38.8001H40.8V39.2001C40.8 40.0001 40.1 40.7001 39.3 40.7001H9.00002C8.70002 40.7001 8.50002 40.8001 8.30002 41.0001L3.20002 45.3001V15.5001C3.20002 14.7001 3.90002 14.0001 4.70002 14.0001H7.00002C7.60002 14.0001 8.10002 13.5001 8.10002 12.9001C8.10002 12.3001 7.60002 11.8001 7.00002 11.8001H4.70002C2.60002 11.8001 0.900024 13.5001 0.900024 15.6001V48.0001C0.900024 48.4001 1.20002 48.8001 1.60002 49.0001C1.70002 49.0001 1.90002 49.0001 2.00002 49.0001C2.30002 49.0001 2.50002 48.9001 2.70002 48.7001L9.30002 43.1001H39.3C41.4 43.1001 43.1 41.4001 43.1 39.3001V15.5001C43.1 13.4001 41.4 11.7001 39.3 11.7001Z" fill="#FFC073" stroke="#FFC073" stroke-width="0.2"/>
<path d="M22 8.30005C22.6 8.30005 23.1 7.80005 23.1 7.20005V1.90005C23.1 1.30005 22.6 0.800049 22 0.800049C21.4 0.800049 20.9 1.30005 20.9 1.90005V7.10005C20.9 7.70005 21.4 8.30005 22 8.30005Z" fill="#FFC073" stroke="#FFC073" stroke-width="0.2"/>
<path d="M13.4 8.30005C13.6 8.50005 13.9 8.60005 14.2 8.60005C14.5 8.60005 14.8 8.50005 15 8.30005C15.4 7.90005 15.4 7.10005 15 6.70005L11.4 3.10005C11 2.70005 10.2 2.70005 9.8 3.10005C9.4 3.50005 9.4 4.30005 9.8 4.70005L13.4 8.30005Z" fill="#FFC073" stroke="#FFC073" stroke-width="0.2"/>
<path d="M29.8001 8.70002C30.1001 8.70002 30.4001 8.60002 30.6001 8.40002L34.2001 4.80002C34.6001 4.40002 34.6001 3.60002 34.2001 3.20002C33.8001 2.80002 33.0001 2.80002 32.6001 3.20002L29.0001 6.70002C28.6001 7.10002 28.6001 7.90002 29.0001 8.30002C29.2001 8.60002 29.5001 8.70002 29.8001 8.70002Z" fill="#FFC073" stroke="#FFC073" stroke-width="0.2"/>
<path d="M22 46.7001C21.4 46.7001 20.9 47.2001 20.9 47.8001V53.0001C20.9 53.6001 21.4 54.1001 22 54.1001C22.6 54.1001 23.1 53.6001 23.1 53.0001V47.8001C23.1 47.3001 22.6 46.7001 22 46.7001Z" fill="#FFC073" stroke="#FFC073" stroke-width="0.2"/>
<path d="M30.6001 46.7C30.2001 46.3 29.4001 46.3 29.0001 46.7C28.6001 47.1 28.6001 47.9 29.0001 48.3L32.6001 51.9C32.8001 52.1 33.1001 52.2 33.4001 52.2C33.7001 52.2 34.0001 52.1 34.2001 51.9C34.6001 51.5 34.6001 50.7 34.2001 50.3L30.6001 46.7Z" fill="#FFC073" stroke="#FFC073" stroke-width="0.2"/>
<path d="M14.6001 46.7001L11.0001 50.3001C10.6001 50.7001 10.6001 51.5001 11.0001 51.9001C11.2001 52.1001 11.5001 52.2001 11.8001 52.2001C12.1001 52.2001 12.4001 52.1001 12.6001 51.9001L16.2001 48.3001C16.6001 47.9001 16.6001 47.1001 16.2001 46.7001C15.8001 46.2001 15.1001 46.2001 14.6001 46.7001Z" fill="#FFC073" stroke="#FFC073" stroke-width="0.2"/>
<path d="M29.1 37.1C28.9 37.3 28.8 37.6001 28.8 37.9001C28.8 38.2001 28.9 38.5001 29.1 38.7001C29.3 38.9001 29.6 39 29.9 39C30.2 39 30.5001 38.9001 30.7001 38.7001C30.9001 38.5001 31 38.2001 31 37.9001C31 37.6001 30.9001 37.3 30.7001 37.1C30.5001 36.9 30.2 36.8 29.9 36.8C29.6 36.8 29.3 36.9 29.1 37.1Z" fill="#FFC073" stroke="#FFC073" stroke-width="0.2"/>
<path d="M11 33.2H12C12.4 33.2 12.7 33 12.8 32.6L13.2 31.4C13.3 31.1 13.7 30.8 14 30.8H18C18.4 30.8 18.7 31 18.8 31.4L19.3 32.7C19.4 33 19.8 33.3 20.1 33.3H21.2C21.8 33.3 22.2 32.7 22 32.1L17.5 21C17.4 20.7 17 20.5 16.7 20.5H15.3C14.9 20.5 14.6 20.7 14.5 21.1L10.2 32C9.99998 32.6 10.4 33.2 11 33.2ZM14.8 27.2L15.2 26.1C15.5 25.3 16.6 25.3 16.9 26.1L17.3 27.2C17.5 27.8 17.1 28.4 16.5 28.4H15.7C15 28.4 14.6 27.8 14.8 27.2Z" fill="#FFC073" stroke="#FFC073" stroke-width="0.2"/>
<path d="M33.5 31.4001C34.1 30.8001 34.5 30.2001 34.8 29.4001C35.1 28.6001 35.3 27.8001 35.3 26.9001C35.3 26.0001 35.1 25.2001 34.8 24.4001C34.5 23.6001 34 22.9001 33.5 22.4001C32.9 21.8001 32.3 21.4001 31.5 21.1001C30.7 20.8001 29.8 20.6001 28.9 20.6001H25C24.5 20.6001 24.1 21.0001 24.1 21.5001V32.4001C24.1 32.9001 24.5 33.3001 25 33.3001H28.9C29.8 33.3001 30.7 33.1001 31.5 32.8001C32.3 32.5001 32.9 31.9001 33.5 31.4001ZM28.8 30.6001H26.8V23.0001H28.8C29.9 23.0001 30.8 23.4001 31.5 24.1001C32.2 24.8001 32.5 25.7001 32.5 26.8001C32.5 27.9001 32.2 28.8001 31.5 29.5001C30.8 30.2001 29.9 30.6001 28.8 30.6001Z" fill="#FFC073" stroke="#FFC073" stroke-width="0.2"/>
</g>
<defs>
<clipPath id="clip0_2842_7470">
<rect width="44" height="55" fill="white"/>
</clipPath>
</defs>
</svg>
