<svg width="42" height="42" viewBox="0 0 42 42" fill="none" xmlns="http://www.w3.org/2000/svg">
<path d="M14 24.5C12.075 24.5 10.5 26.075 10.5 28C10.5 29.925 12.075 31.5 14 31.5C15.925 31.5 17.5 29.925 17.5 28V15.575L28 14.175V21C26.075 21 24.5 22.575 24.5 24.5C24.5 26.425 26.075 28 28 28C29.925 28 31.5 26.425 31.5 24.5V12.25C31.5 11.725 31.325 11.2 30.975 11.025C30.625 10.675 30.1 10.5 29.575 10.675L15.575 12.425C14.7 12.6 14 13.3 14 14.175C14 14 14 24.5 14 24.5Z" fill="#FFC073"/>
<path d="M42 22.75V5.6C42 2.45 39.55 0 36.4 0H5.6C2.45 0 0 2.45 0 5.6V36.4C0 39.55 2.45 42 5.6 42H26.25C27.3 42 28 41.3 28 40.25C28 39.2 27.3 38.5 26.25 38.5H5.6C4.375 38.5 3.5 37.625 3.5 36.4V5.6C3.5 4.375 4.375 3.5 5.6 3.5H36.4C37.625 3.5 38.5 4.375 38.5 5.6V22.75C38.5 23.8 39.2 24.5 40.25 24.5C41.3 24.5 42 23.8 42 22.75Z" fill="#FFC073"/>
<path d="M35 31.4999H33.25C32.2 31.4999 31.5 32.1999 31.5 33.2499C31.5 34.2999 32.2 34.9999 33.25 34.9999H35V36.7499C35 37.7999 35.7 38.4999 36.75 38.4999C37.8 38.4999 38.5 37.7999 38.5 36.7499V34.9999H40.25C41.3 34.9999 42 34.2999 42 33.2499C42 32.1999 41.3 31.4999 40.25 31.4999H38.5V29.7499C38.5 28.6999 37.8 27.9999 36.75 27.9999C35.7 27.9999 35 28.6999 35 29.7499V31.4999Z" fill="#FFC073"/>
</svg>
