<svg width="107" height="150" viewBox="0 0 107 150" fill="none" xmlns="http://www.w3.org/2000/svg">
<g opacity="0.23">
<g clip-path="url(#clip0_1_28921)">
<path d="M96.5467 150C93.0755 150 89.5863 149.766 86.0971 149.281C66.2589 146.529 48.669 136.223 36.6007 120.252C24.5143 104.281 19.3704 84.5504 22.1222 64.7122C24.874 44.8741 35.1798 27.3022 51.151 15.2158C67.1222 3.11152 86.8525 -2.03236 106.691 0.719436C126.529 3.47123 144.119 13.777 156.187 29.7482C168.273 45.7194 173.417 65.4496 170.665 85.2878C167.914 105.126 157.608 122.716 141.637 134.784C128.471 144.73 112.77 149.982 96.5647 149.982L96.5467 150ZM96.3489 6.40289C62.6798 6.40289 33.2194 31.295 28.4532 65.5755C25.9352 83.723 30.6294 101.763 41.6906 116.367C52.7517 130.971 68.8309 140.414 86.9784 142.932C105.126 145.45 123.165 140.755 137.77 129.694C152.374 118.633 161.816 102.554 164.334 84.4065C166.852 66.259 162.158 48.2194 151.097 33.6151C140.036 19.0108 123.957 9.56836 105.809 7.05037C102.626 6.60073 99.4604 6.40289 96.3489 6.40289Z" fill="#FFE610"/>
<path d="M96.4389 98.1655C95.3598 98.1655 94.2806 98.0936 93.2015 97.9497C87.0684 97.1044 81.6367 93.9209 77.9137 88.9749C74.1727 84.0468 72.59 77.9497 73.4353 71.8166C74.2806 65.6835 77.4641 60.2519 82.4101 56.5288C87.3382 52.7878 93.4353 51.2051 99.5684 52.0504C105.701 52.8957 111.133 56.0792 114.856 61.0252C118.597 65.9533 120.18 72.0504 119.335 78.1835C118.489 84.3166 115.306 89.7483 110.36 93.4713C106.295 96.5468 101.439 98.1655 96.4389 98.1655ZM96.3849 53.795C85.9713 53.795 76.8706 61.4929 75.4137 72.0864C74.6403 77.6979 76.0972 83.2734 79.4965 87.7878C82.9137 92.3022 87.8777 95.2159 93.4893 95.9893C99.1008 96.7626 104.676 95.3058 109.191 91.9065C113.705 88.4893 116.619 83.5252 117.392 77.9137C118.166 72.3022 116.709 66.7267 113.309 62.2123C109.892 57.6979 104.928 54.7842 99.3166 54.0108C98.3274 53.867 97.3562 53.813 96.3849 53.813V53.795Z" stroke="#FE45D7" stroke-width="1.02" stroke-miterlimit="10"/>
<path d="M1.62909 0.291085L-0.00317383 2.48413L196.375 148.647L198.008 146.454L1.62909 0.291085Z" fill="#FE45D7"/>
</g>
</g>
<defs>
<clipPath id="clip0_1_28921">
<rect width="198.022" height="150" fill="white"/>
</clipPath>
</defs>
</svg>
