<svg width="42" height="42" viewBox="0 0 42 42" fill="none" xmlns="http://www.w3.org/2000/svg">
<path fill-rule="evenodd" clip-rule="evenodd" d="M2.93023 11.2325V5.37209C2.93023 4.72353 3.18809 4.10427 3.64521 3.64521C4.10427 3.18809 4.72353 2.93023 5.37209 2.93023H11.2325C12.0413 2.93023 12.6977 2.27386 12.6977 1.46511C12.6977 0.656371 12.0413 0 11.2325 0H5.37209C3.948 0 2.58056 0.566511 1.57256 1.57256C0.566511 2.58056 0 3.948 0 5.37209V11.2325C0 12.0413 0.656371 12.6977 1.46511 12.6977C2.27386 12.6977 2.93023 12.0413 2.93023 11.2325Z" fill="#FFC073"/>
<path fill-rule="evenodd" clip-rule="evenodd" d="M0 30.7674V36.6278C0 38.0519 0.566511 39.4194 1.57256 40.4274C2.58056 41.4334 3.948 41.9999 5.37209 41.9999H11.2325C12.0413 41.9999 12.6977 41.3435 12.6977 40.5348C12.6977 39.726 12.0413 39.0697 11.2325 39.0697H5.37209C4.72353 39.0697 4.10427 38.8118 3.64521 38.3547C3.18809 37.8956 2.93023 37.2764 2.93023 36.6278V30.7674C2.93023 29.9586 2.27386 29.3022 1.46511 29.3022C0.656371 29.3022 0 29.9586 0 30.7674Z" fill="#FFC073"/>
<path fill-rule="evenodd" clip-rule="evenodd" d="M41.9999 11.2325V5.37209C41.9999 3.948 41.4334 2.58056 40.4274 1.57256C39.4194 0.566511 38.0519 0 36.6278 0C33.9086 0 30.7674 0 30.7674 0C29.9586 0 29.3022 0.656371 29.3022 1.46511C29.3022 2.27386 29.9586 2.93023 30.7674 2.93023H36.6278C37.2764 2.93023 37.8956 3.18809 38.3547 3.64521C38.8118 4.10427 39.0697 4.72353 39.0697 5.37209V11.2325C39.0697 12.0413 39.726 12.6977 40.5348 12.6977C41.3435 12.6977 41.9999 12.0413 41.9999 11.2325Z" fill="#FFC073"/>
<path fill-rule="evenodd" clip-rule="evenodd" d="M39.0697 30.7674V36.6278C39.0697 37.2764 38.8118 37.8956 38.3547 38.3547C37.8956 38.8118 37.2764 39.0697 36.6278 39.0697H30.7674C29.9586 39.0697 29.3022 39.726 29.3022 40.5348C29.3022 41.3435 29.9586 41.9999 30.7674 41.9999H36.6278C38.0519 41.9999 39.4194 41.4334 40.4274 40.4274C41.4334 39.4194 41.9999 38.0519 41.9999 36.6278C41.9999 33.9086 41.9999 30.7674 41.9999 30.7674C41.9999 29.9586 41.3435 29.3022 40.5348 29.3022C39.726 29.3022 39.0697 29.9586 39.0697 30.7674Z" fill="#FFC073"/>
<path fill-rule="evenodd" clip-rule="evenodd" d="M31.2557 23.9302V28.8139C31.2557 29.4625 30.9979 30.0817 30.5407 30.5408C30.0817 30.9979 29.4624 31.2558 28.8139 31.2558H24.9069C24.0981 31.2558 23.4418 31.9121 23.4418 32.7209C23.4418 33.5296 24.0981 34.186 24.9069 34.186H28.8139C30.238 34.186 31.6054 33.6195 32.6134 32.6134C33.6194 31.6055 34.1859 30.238 34.1859 28.8139V23.9302C34.1859 23.1215 33.5296 22.4651 32.7208 22.4651C31.9121 22.4651 31.2557 23.1215 31.2557 23.9302Z" fill="#FFC073"/>
<path fill-rule="evenodd" clip-rule="evenodd" d="M34.1859 18.0698V13.1861C34.1859 11.762 33.6194 10.3945 32.6134 9.38652C31.6054 8.38048 30.238 7.81396 28.8139 7.81396H24.9069C24.0981 7.81396 23.4418 8.47034 23.4418 9.27908C23.4418 10.0878 24.0981 10.7442 24.9069 10.7442H28.8139C29.4624 10.7442 30.0817 11.0021 30.5407 11.4592C30.9979 11.9182 31.2557 12.5375 31.2557 13.1861V18.0698C31.2557 18.8785 31.9121 19.5349 32.7208 19.5349C33.5296 19.5349 34.1859 18.8785 34.1859 18.0698Z" fill="#FFC073"/>
<path fill-rule="evenodd" clip-rule="evenodd" d="M7.81384 23.9302V28.8139C7.81384 30.238 8.38035 31.6055 9.3864 32.6134C10.3944 33.6195 11.7618 34.186 13.1859 34.186H17.0929C17.9016 34.186 18.558 33.5296 18.558 32.7209C18.558 31.9121 17.9016 31.2558 17.0929 31.2558H13.1859C12.5374 31.2558 11.9181 30.9979 11.459 30.5408C11.0019 30.0817 10.7441 29.4625 10.7441 28.8139V23.9302C10.7441 23.1215 10.0877 22.4651 9.27896 22.4651C8.47021 22.4651 7.81384 23.1215 7.81384 23.9302Z" fill="#FFC073"/>
<path fill-rule="evenodd" clip-rule="evenodd" d="M10.7441 18.0698V13.1861C10.7441 12.5375 11.0019 11.9182 11.459 11.4592C11.9181 11.0021 12.5374 10.7442 13.1859 10.7442H17.0929C17.9016 10.7442 18.558 10.0878 18.558 9.27908C18.558 8.47034 17.9016 7.81396 17.0929 7.81396H13.1859C11.7618 7.81396 10.3944 8.38048 9.3864 9.38652C8.38035 10.3945 7.81384 11.762 7.81384 13.1861V18.0698C7.81384 18.8785 8.47021 19.5349 9.27896 19.5349C10.0877 19.5349 10.7441 18.8785 10.7441 18.0698Z" fill="#FFC073"/>
<path fill-rule="evenodd" clip-rule="evenodd" d="M36.628 22.4651H5.37222C4.56348 22.4651 3.9071 23.1215 3.9071 23.9302C3.9071 24.7389 4.56348 25.3953 5.37222 25.3953H36.628C37.4367 25.3953 38.0931 24.7389 38.0931 23.9302C38.0931 23.1215 37.4367 22.4651 36.628 22.4651Z" fill="#FFC073"/>
</svg>
