<svg width="40" height="42" viewBox="0 0 40 42" fill="none" xmlns="http://www.w3.org/2000/svg">
<path fill-rule="evenodd" clip-rule="evenodd" d="M40 23.5388C40 33.4285 31.9828 41.4457 22.0931 41.4457C12.2034 41.4457 4.18689 33.4285 4.18689 23.5388C4.18689 13.6491 12.2034 5.6319 22.0931 5.6319C27.2005 5.6319 31.8082 7.76959 35.0698 11.1999L34.3329 11.7981L32.3236 13.4295L31.8206 13.8374L31.4974 14.0999L31.4147 14.167L31.3867 14.2693L31.229 14.8486L31.0472 15.5151L30.9508 15.8682L30.2745 16.4553L29.8972 16.7823L29.5571 17.0775C29.518 17.0638 29.4777 17.0534 29.4373 17.0455C29.1949 17.0019 28.9486 17.069 28.7629 17.2306L28.6841 17.299L28.359 17.5811L27.8006 18.0659L27.667 17.9121C27.5954 17.8293 27.4963 17.7727 27.3882 17.7531C27.2435 17.7271 27.0969 17.7668 26.9862 17.8632L26.8904 17.946C26.6891 18.1206 26.6676 18.4262 26.8422 18.6275L26.9829 18.7897C26.8754 18.9187 26.8109 19.0783 26.7985 19.2497C26.7829 19.466 26.8526 19.6752 26.9946 19.8387L27.3875 20.2909C27.5081 20.4303 27.6742 20.5248 27.8553 20.5573C28.099 20.601 28.3453 20.5339 28.5323 20.3716L29.6047 19.4413L29.8999 19.1852L30.2185 18.9089C30.4458 18.7115 30.5384 18.4092 30.4791 18.1278L30.7052 17.9316L31.0674 17.6176L32.0011 16.8071L32.1125 16.7107L32.1881 16.6448L32.2141 16.5478L32.2956 16.2487L32.6474 14.9554L32.723 14.8948L33.2201 14.4948L35.2666 12.8483L36.0002 12.2587C38.5008 15.3379 39.9993 19.2634 39.9993 23.5388H40Z" fill="#162433"/>
<path fill-rule="evenodd" clip-rule="evenodd" d="M39.0778 23.5388C39.0778 32.872 31.5115 40.4384 22.1782 40.4384C12.8449 40.4384 5.27863 32.8727 5.27863 23.5388C5.27863 14.2048 12.8449 6.63916 22.1782 6.63916C26.9501 6.63916 31.26 8.61723 34.3327 11.798L32.3233 13.4295L31.8203 13.8374L31.4972 14.0999L31.4144 14.167L31.3864 14.2693L31.2287 14.8485L31.047 15.5151L30.9505 15.8682L30.2742 16.4552L29.897 16.7823L29.5569 17.0775C29.5178 17.0638 29.4774 17.0533 29.437 17.0455C29.1946 17.0019 28.9484 17.069 28.7627 17.2306L28.6838 17.299L28.3587 17.5811L27.8003 18.0658L27.6668 17.9121C27.5951 17.8293 27.4961 17.7726 27.3879 17.7531C27.2433 17.727 27.0967 17.7668 26.9859 17.8632L26.8902 17.946C26.6888 18.1206 26.6673 18.4261 26.8419 18.6275L26.9827 18.7897C26.8752 18.9187 26.8107 19.0783 26.7983 19.2497C26.7826 19.466 26.8524 19.6751 26.9944 19.8387L27.3873 20.2908C27.5078 20.4303 27.674 20.5247 27.8551 20.5573C28.0988 20.601 28.345 20.5339 28.532 20.3716L29.6045 19.4412L29.8996 19.1852L30.2182 18.9089C30.4456 18.7115 30.5381 18.4092 30.4788 18.1277L30.7049 17.9316L31.0672 17.6176L32.0008 16.8071L32.1122 16.7106L32.1878 16.6448L32.2139 16.5478L32.2953 16.2487L32.6471 14.9554L32.7227 14.8948L33.2198 14.4948L35.2663 12.8483C37.6477 15.7607 39.0765 19.4829 39.0765 23.5388H39.0778Z" fill="url(#paint0_linear_2628_54438)"/>
<path fill-rule="evenodd" clip-rule="evenodd" d="M14.1151 8.63747C5.30891 12.5969 2.07728 24.5396 8.07143 33.5308L11.72 38.1567L11.0249 37.6264C3.28262 31.7137 1.57168 20.6753 7.30587 12.8002C8.73665 10.8358 10.5531 9.1789 12.7579 8.02112L14.1144 8.63747H14.1151Z" fill="#162433"/>
<path fill-rule="evenodd" clip-rule="evenodd" d="M2.3114 5.37856C2.3114 5.37856 5.30587 3.60702 8.17264 5.24238C11.0394 6.87775 10.2595 6.92531 10.2595 6.92531L7.46702 5.14205C5.98868 4.33544 3.66465 4.82475 2.3114 5.37856Z" fill="white"/>
<path fill-rule="evenodd" clip-rule="evenodd" d="M2.8123 5.49645C2.8123 5.49645 5.20018 4.25658 7.74184 5.09902L7.68124 5.27949C6.20355 4.68138 4.07563 4.97978 2.81165 5.49645H2.8123Z" fill="white"/>
<path fill-rule="evenodd" clip-rule="evenodd" d="M3.30304 5.60983C4.65107 5.05276 6.6754 4.86968 8.16286 5.36224L8.10227 5.54272C6.70863 4.97849 4.65759 5.21304 3.30304 5.60983Z" fill="white"/>
<path fill-rule="evenodd" clip-rule="evenodd" d="M3.70251 5.76617C5.05055 5.2091 7.21756 5.19021 8.70503 5.68342L8.64443 5.8639C7.25079 5.29967 5.05641 5.37003 3.70251 5.76617Z" fill="white"/>
<path fill-rule="evenodd" clip-rule="evenodd" d="M4.07568 5.93885C5.4159 5.40524 7.56793 5.4313 9.04432 5.95774L8.98372 6.13822C7.60051 5.54206 5.42176 5.56747 4.07568 5.93885Z" fill="white"/>
<path fill-rule="evenodd" clip-rule="evenodd" d="M4.59904 6.13886C5.93144 5.63 8.06783 5.70232 9.53184 6.26395L9.47124 6.44443C8.09976 5.81439 5.936 5.79354 4.59839 6.13886H4.59904Z" fill="white"/>
<path fill-rule="evenodd" clip-rule="evenodd" d="M6.52572 7.06665C7.44308 6.72655 8.88689 6.78845 10.1646 7.15852C8.82565 6.63794 7.08278 6.57148 6.01035 6.8321C6.99938 6.44639 8.59696 6.50763 9.94369 6.92201C8.58393 6.38189 6.75115 6.34149 5.63832 6.63338C6.61954 6.23203 8.19822 6.25418 9.54104 6.62556C8.17932 6.03787 6.39867 6.14733 5.24414 6.4503C6.40779 5.97402 8.25425 5.91864 9.70783 6.51089L10.259 6.86924L10.6154 7.16764L10.5952 7.2973C10.7744 7.36115 10.9477 7.43151 11.1145 7.50774L11.0865 7.68561C9.71891 6.96241 7.71152 6.80343 6.52572 7.06665Z" fill="white"/>
<path fill-rule="evenodd" clip-rule="evenodd" d="M7.17906 7.30253C8.33749 6.96829 9.49853 7.04843 11.0342 7.5853L10.9736 7.76577C10.1937 7.38593 8.54403 7.02172 7.17841 7.30253H7.17906Z" fill="white"/>
<path fill-rule="evenodd" clip-rule="evenodd" d="M7.74976 7.59117C8.81567 7.25432 9.93697 7.33381 11.4759 7.87068L11.4414 8.0518C10.6458 7.6713 9.02091 7.30775 7.74976 7.59117Z" fill="white"/>
<path fill-rule="evenodd" clip-rule="evenodd" d="M8.20062 7.81854C9.146 7.483 10.2165 7.56314 11.7593 8.09935L11.758 8.27983C10.9429 7.89933 9.34863 7.53577 8.20062 7.81789V7.81854Z" fill="white"/>
<path fill-rule="evenodd" clip-rule="evenodd" d="M8.84558 7.95733C9.71929 7.7345 10.722 7.84852 12.1046 8.32936L12.1033 8.50983C11.3749 8.16973 9.95254 7.82376 8.84558 7.95733Z" fill="white"/>
<path fill-rule="evenodd" clip-rule="evenodd" d="M9.04309 8.19321C9.88097 7.92999 10.8687 8.02707 12.2519 8.50921L12.2636 8.70402C11.5281 8.35675 10.1155 8.0199 9.04309 8.19321Z" fill="white"/>
<path fill-rule="evenodd" clip-rule="evenodd" d="M12.112 8.59321C11.6761 7.63219 10.8597 6.40991 10.0889 5.66846C10.7633 6.50243 11.2956 7.3377 11.6305 8.22379C11.6455 8.25572 11.8129 8.4401 11.8266 8.46942L12.112 8.59386V8.59321Z" fill="white"/>
<path fill-rule="evenodd" clip-rule="evenodd" d="M11.7281 8.34631C11.2923 7.38529 10.371 6.08221 9.60022 5.34076C10.2746 6.17473 10.9118 7.09079 11.2467 7.97688C11.2616 8.00881 11.4291 8.19319 11.4428 8.22251L11.7281 8.34696V8.34631Z" fill="white"/>
<path fill-rule="evenodd" clip-rule="evenodd" d="M11.382 8.12606C10.9461 7.16504 10.0574 5.8789 9.01556 5.05927C9.90817 5.90692 10.6796 7.06731 10.8523 7.7221C10.8672 7.75403 11.0347 7.93841 11.0484 7.96773L11.382 8.12606Z" fill="white"/>
<path fill-rule="evenodd" clip-rule="evenodd" d="M10.935 7.67779C10.4763 6.78518 9.5596 5.58309 8.50476 4.80255C9.41301 5.60394 10.2098 6.6881 10.3988 7.29273C10.4144 7.3227 10.5858 7.49601 10.6001 7.52272L10.935 7.67714V7.67779Z" fill="white"/>
<path fill-rule="evenodd" clip-rule="evenodd" d="M10.6458 7.35725C10.1227 6.50113 9.11995 5.36941 8.01038 4.66901C8.9753 5.40134 9.84967 6.42425 10.0829 7.01324C10.1005 7.04191 10.2842 7.20219 10.3005 7.22825L10.6458 7.3579V7.35725Z" fill="white"/>
<path fill-rule="evenodd" clip-rule="evenodd" d="M10.3291 7.03539C9.73949 6.22358 8.65012 5.1746 7.48907 4.56476C8.50873 5.21825 9.46128 6.16819 9.74079 6.73699C9.76034 6.7637 9.95645 6.90899 9.97469 6.93375L10.3291 7.03539Z" fill="white"/>
<path fill-rule="evenodd" clip-rule="evenodd" d="M9.82223 6.52265C9.14528 5.78185 7.9458 4.86187 6.72351 4.38495C7.80963 4.91986 8.86316 5.75774 9.20457 6.29135C9.22737 6.31611 9.43782 6.4386 9.45932 6.46075L9.82288 6.52199L9.82223 6.52265Z" fill="white"/>
<path fill-rule="evenodd" clip-rule="evenodd" d="M8.65607 5.55902C7.83318 4.98501 6.54574 4.29764 5.42249 4.33022C6.56594 4.41557 7.52761 4.97394 8.15178 5.39613C8.17914 5.41503 8.29577 5.54078 8.32118 5.55772L8.65607 5.55902Z" fill="white"/>
<path fill-rule="evenodd" clip-rule="evenodd" d="M1.6239 15.0804C1.6239 15.0804 2.42138 11.0232 6.13906 9.7749C9.85674 8.52656 9.28208 9.25563 9.28208 9.25563L5.49208 10.3215C3.60784 10.9946 2.20312 13.4424 1.6239 15.0804Z" fill="white"/>
<path fill-rule="evenodd" clip-rule="evenodd" d="M2.12494 14.7299C2.12494 14.7299 2.9146 11.6319 5.67126 10.0441L5.78333 10.2402C4.08477 11.0774 2.66572 13.2008 2.12494 14.7306V14.7299Z" fill="white"/>
<path fill-rule="evenodd" clip-rule="evenodd" d="M2.61371 14.3845C3.18576 12.7479 4.62436 10.8082 6.23822 9.87915L6.35028 10.0753C4.7475 10.8649 3.33366 12.8697 2.61371 14.3845Z" fill="white"/>
<path fill-rule="evenodd" clip-rule="evenodd" d="M3.06842 14.1533C3.64047 12.5166 5.33773 10.5809 6.95159 9.65112L7.06365 9.84724C5.46087 10.6369 3.78772 12.6384 3.06842 14.1533Z" fill="white"/>
<path fill-rule="evenodd" clip-rule="evenodd" d="M3.51652 13.9598C4.10356 12.3492 5.82818 10.461 7.46289 9.56842L7.57495 9.76453C5.95197 10.519 4.25146 12.4723 3.51587 13.9598H3.51652Z" fill="white"/>
<path fill-rule="evenodd" clip-rule="evenodd" d="M4.1076 13.6535C4.71028 12.0697 6.46357 10.2317 8.12043 9.3775L8.23249 9.57362C6.58866 10.2916 4.85883 12.1941 4.1076 13.6535Z" fill="white"/>
<path fill-rule="evenodd" clip-rule="evenodd" d="M6.45438 12.6789C6.87853 11.596 8.07475 10.3646 9.41366 9.52411C7.89297 10.2994 6.45568 11.7928 5.83867 12.9499C6.27846 11.7674 7.59652 10.3998 9.02991 9.53258C7.47534 10.3112 5.98983 11.9042 5.36891 13.1232C5.7885 11.9355 7.05705 10.5529 8.44873 9.65572C6.85051 10.3991 5.53896 12.0645 4.89459 13.3278C5.39237 11.9192 6.8036 10.2375 8.4787 9.41661L9.23253 9.21072L9.77917 9.13124L9.87821 9.25177C10.0763 9.14362 10.2763 9.04458 10.4757 8.95728L10.6112 9.12277C8.88852 9.76323 7.15934 11.4181 6.45503 12.6782L6.45438 12.6789Z" fill="white"/>
<path fill-rule="evenodd" clip-rule="evenodd" d="M7.18018 12.2859C7.79979 10.9939 8.78947 10.0277 10.4802 9.09015L10.5923 9.28626C9.63843 9.67718 8.01089 10.8519 7.18018 12.2859Z" fill="white"/>
<path fill-rule="evenodd" clip-rule="evenodd" d="M7.88831 12.0078C8.43299 10.7959 9.3901 9.86485 11.0835 8.92468L11.2164 9.09864C10.2501 9.50325 8.64214 10.6571 7.88831 12.0084V12.0078Z" fill="white"/>
<path fill-rule="evenodd" clip-rule="evenodd" d="M8.44623 11.7875C8.89644 10.6832 9.81381 9.79774 11.5098 8.85431L11.6694 8.9983C10.6875 9.4205 9.10363 10.5464 8.44623 11.7882V11.7875Z" fill="white"/>
<path fill-rule="evenodd" clip-rule="evenodd" d="M9.07947 11.3263C9.57333 10.375 10.4672 9.57623 11.9873 8.73053L12.1469 8.87452C11.2693 9.25176 9.83721 10.2388 9.08012 11.3263H9.07947Z" fill="white"/>
<path fill-rule="evenodd" clip-rule="evenodd" d="M9.44495 11.3373C9.87431 10.3861 10.7415 9.58727 12.2635 8.74158L12.4453 8.88557C11.5553 9.26281 10.1395 10.2499 9.44495 11.3373Z" fill="white"/>
<path fill-rule="evenodd" clip-rule="evenodd" d="M12.2264 8.93183C11.0288 8.55849 9.29965 8.31547 8.03241 8.41255C9.30486 8.47379 10.4666 8.66274 11.5175 9.0667C11.5572 9.07907 11.8537 9.07582 11.8902 9.08689L12.2264 8.93248V8.93183Z" fill="white"/>
<path fill-rule="evenodd" clip-rule="evenodd" d="M11.7044 9.07711C10.5069 8.70378 8.62267 8.49007 7.35608 8.5865C8.62853 8.64775 9.94529 8.80803 10.9962 9.21198C11.036 9.22436 11.3324 9.2211 11.3689 9.23218L11.7051 9.07776L11.7044 9.07711Z" fill="white"/>
<path fill-rule="evenodd" clip-rule="evenodd" d="M11.2355 9.21005C10.038 8.83672 8.19542 8.60738 6.6441 8.88298C8.1016 8.76179 9.74087 8.99569 10.4582 9.36055C10.498 9.37293 10.7944 9.36968 10.8309 9.38075L11.2348 9.2107L11.2355 9.21005Z" fill="white"/>
<path fill-rule="evenodd" clip-rule="evenodd" d="M10.4842 9.25173C9.32972 8.95268 7.53864 8.81455 6.01208 9.1325C7.44091 8.96115 9.03262 9.1123 9.71869 9.42244C9.75713 9.43221 10.0464 9.41788 10.0822 9.42635L10.4842 9.25173Z" fill="white"/>
<path fill-rule="evenodd" clip-rule="evenodd" d="M9.97142 9.25434C8.798 9.04128 7.00171 9.03542 5.50317 9.46479C6.91571 9.18853 8.51393 9.22176 9.2215 9.48107C9.2606 9.48759 9.54792 9.45241 9.58441 9.45827L9.97207 9.25434H9.97142Z" fill="white"/>
<path fill-rule="evenodd" clip-rule="evenodd" d="M9.43525 9.28042C8.2488 9.16119 6.45772 9.29736 4.99762 9.84531C6.38344 9.45764 7.97971 9.36447 8.70552 9.56645C8.74527 9.57036 9.02869 9.51172 9.06517 9.51433L9.43525 9.28042Z" fill="white"/>
<path fill-rule="evenodd" clip-rule="evenodd" d="M8.57969 9.32471C7.38737 9.33904 5.62236 9.67524 4.23328 10.3822C5.56698 9.84203 7.14305 9.57034 7.88645 9.69022C7.9262 9.68957 8.2018 9.59966 8.23828 9.59835L8.58034 9.32471H8.57969Z" fill="white"/>
<path fill-rule="evenodd" clip-rule="evenodd" d="M6.80234 9.59637C5.64195 9.87198 4.01441 10.4701 3.15503 11.4924C4.13494 10.5457 5.39111 10.1339 6.25896 9.91498C6.2974 9.9052 6.50068 9.9013 6.53651 9.89217L6.80299 9.59637H6.80234Z" fill="white"/>
<path fill-rule="evenodd" clip-rule="evenodd" d="M8.60242 0C8.60242 0 11.5936 1.05614 12.1285 4.01673C12.6635 6.97798 12.1742 6.46065 12.1742 6.46065L11.7858 3.46488C11.4842 1.95983 9.7817 0.621568 8.60242 0Z" fill="white"/>
<path fill-rule="evenodd" clip-rule="evenodd" d="M8.81299 0.418945C8.81299 0.418945 11.0777 1.36237 11.9769 3.63168L11.8153 3.69488C11.3683 2.31232 9.91409 0.999466 8.81299 0.418945Z" fill="white"/>
<path fill-rule="evenodd" clip-rule="evenodd" d="M9.02106 0.828735C10.1997 1.44509 11.5125 2.75208 12.039 4.08056L11.8774 4.14376C11.4559 2.83938 10.0909 1.54282 9.02106 0.828735Z" fill="white"/>
<path fill-rule="evenodd" clip-rule="evenodd" d="M9.14587 1.19946C10.3245 1.81582 11.6061 3.31892 12.1325 4.6474L11.9709 4.7106C11.5494 3.40622 10.2157 1.91355 9.14587 1.19946Z" fill="white"/>
<path fill-rule="evenodd" clip-rule="evenodd" d="M9.24308 1.5611C10.4009 2.18592 11.6427 3.70466 12.1385 5.04487L11.9769 5.10807C11.5841 3.79261 10.2901 2.2843 9.24243 1.5611H9.24308Z" fill="white"/>
<path fill-rule="evenodd" clip-rule="evenodd" d="M9.40965 2.04386C10.5453 2.67716 11.7454 4.21218 12.21 5.56478L12.0484 5.62798C11.6861 4.30014 10.4332 2.77619 9.409 2.04321L9.40965 2.04386Z" fill="white"/>
<path fill-rule="evenodd" clip-rule="evenodd" d="M9.88936 3.93402C10.664 4.37642 11.4661 5.42083 11.9554 6.53105C11.5358 5.29052 10.5618 4.03371 9.75189 3.43625C10.6008 3.90145 11.4928 5.05402 11.9919 6.23851C11.5736 4.97192 10.5285 3.66754 9.6724 3.06031C10.5272 3.51117 11.4361 4.62726 11.9626 5.78374C11.5755 4.48783 10.4575 3.30724 9.56946 2.67786C10.5833 3.21212 11.7032 4.47024 12.1404 5.83326L12.2127 6.42811V6.85226L12.1098 6.91416C12.1697 7.07639 12.2225 7.23928 12.2668 7.40021L12.1261 7.48491C11.8309 6.1056 10.767 4.60967 9.88871 3.93467L9.88936 3.93402Z" fill="white"/>
<path fill-rule="evenodd" clip-rule="evenodd" d="M10.1068 4.52887C11.0189 5.14327 11.6425 6.00135 12.1663 7.38912L12.0047 7.45232C11.8138 6.68481 11.103 5.31853 10.1061 4.52887H10.1068Z" fill="white"/>
<path fill-rule="evenodd" clip-rule="evenodd" d="M10.2397 5.09698C11.0991 5.64493 11.6998 6.47499 12.2256 7.86472L12.079 7.94681C11.879 7.16823 11.1818 5.81954 10.2397 5.09698Z" fill="white"/>
<path fill-rule="evenodd" clip-rule="evenodd" d="M10.3445 5.54462C11.1329 6.00916 11.7037 6.80404 12.2314 8.19638L12.1043 8.30128C11.8926 7.50901 11.2137 6.18182 10.3445 5.54462Z" fill="white"/>
<path fill-rule="evenodd" clip-rule="evenodd" d="M10.6248 6.07688C11.292 6.55707 11.7995 7.32523 12.2726 8.57228L12.1455 8.67717C11.9566 7.96895 11.3663 6.77208 10.6248 6.07623V6.07688Z" fill="white"/>
<path fill-rule="evenodd" clip-rule="evenodd" d="M10.5753 6.35248C11.2496 6.78445 11.7598 7.53111 12.2328 8.78076L12.1032 8.9026C11.9155 8.18526 11.3233 7.00076 10.5746 6.35248H10.5753Z" fill="white"/>
<path fill-rule="evenodd" clip-rule="evenodd" d="M12.0928 8.73192C12.5092 7.86472 12.8858 6.57858 12.9529 5.60583C12.7646 6.5649 12.4922 7.42623 12.0694 8.17876C12.0557 8.20808 12.0251 8.43286 12.0127 8.45957L12.0928 8.73192Z" fill="white"/>
<path fill-rule="evenodd" clip-rule="evenodd" d="M12.0406 8.31949C12.4569 7.45229 12.8283 6.04497 12.8961 5.07288C12.7078 6.03194 12.4406 7.01381 12.0171 7.76699C12.0035 7.79631 11.9728 8.02109 11.9604 8.0478L12.0406 8.32014V8.31949Z" fill="white"/>
<path fill-rule="evenodd" clip-rule="evenodd" d="M11.9917 7.94808C12.4081 7.08089 12.7866 5.70679 12.7501 4.49884C12.6804 5.61883 12.3208 6.83721 11.9637 7.3415C11.95 7.37082 11.9194 7.5956 11.907 7.62231L11.9917 7.94808Z" fill="white"/>
<path fill-rule="evenodd" clip-rule="evenodd" d="M12.0433 7.37349C12.3984 6.5304 12.7027 5.18562 12.6304 3.992C12.6017 5.09571 12.3105 6.28737 11.9984 6.77407C11.9867 6.80209 11.9658 7.02361 11.9554 7.04967L12.0433 7.37414V7.37349Z" fill="white"/>
<path fill-rule="evenodd" clip-rule="evenodd" d="M12.0986 6.98383C12.3905 6.11663 12.5951 4.75361 12.4348 3.56781C12.4876 4.67086 12.2849 5.88077 12.01 6.38897C12.0002 6.41829 11.9957 6.64046 11.9872 6.66718L12.0986 6.98383Z" fill="white"/>
<path fill-rule="evenodd" clip-rule="evenodd" d="M12.1383 6.57405C12.3605 5.68665 12.4556 4.31125 12.2022 3.1424C12.3423 4.23763 12.2361 5.45992 12.0022 5.98831C11.995 6.01829 12.008 6.23981 12.0022 6.26717L12.1383 6.57405Z" fill="white"/>
<path fill-rule="evenodd" clip-rule="evenodd" d="M12.1996 5.91988C12.3215 5.01294 12.2622 3.63559 11.8791 2.50256C12.141 3.575 12.1723 4.80184 11.999 5.35304C11.9951 5.38301 12.0329 5.60258 12.0296 5.62995L12.1996 5.91988Z" fill="white"/>
<path fill-rule="evenodd" clip-rule="evenodd" d="M12.1907 4.54058C12.1099 3.62908 11.8369 2.32731 11.1561 1.5611C11.7659 2.41005 11.9392 3.40951 12.0089 4.09232C12.0115 4.12294 11.992 4.27736 11.9952 4.30538L12.1901 4.54058H12.1907Z" fill="white"/>
<path fill-rule="evenodd" clip-rule="evenodd" d="M0 10.0981C0 10.0981 1.97742 7.15774 6.05409 7.4177C10.1314 7.67702 9.34501 8.06077 9.34501 8.06077L5.24879 7.63271C3.17039 7.53303 1.05549 8.99703 0 10.0981Z" fill="white"/>
<path fill-rule="evenodd" clip-rule="evenodd" d="M0.601868 9.98867C0.601868 9.98867 2.29196 7.80341 5.50795 7.47308L5.56333 7.66594C3.6224 7.75846 1.58764 8.9612 0.602519 9.98933L0.601868 9.98867Z" fill="white"/>
<path fill-rule="evenodd" clip-rule="evenodd" d="M1.19116 9.87919C2.23884 8.77744 4.24036 7.72586 6.12266 7.53235L6.17804 7.7252C4.34721 7.81251 2.35155 8.92273 1.19181 9.87919H1.19116Z" fill="white"/>
<path fill-rule="evenodd" clip-rule="evenodd" d="M1.71228 9.84926C2.75995 8.7475 5.01884 7.78583 6.90113 7.59167L6.95651 7.78453C5.12569 7.87184 2.87202 8.8928 1.71228 9.84926Z" fill="white"/>
<path fill-rule="evenodd" clip-rule="evenodd" d="M2.21655 9.84665C3.27139 8.76966 5.54396 7.85555 7.43668 7.69788L7.49206 7.89073C5.65146 7.94351 3.38411 8.9169 2.2172 9.84665H2.21655Z" fill="white"/>
<path fill-rule="evenodd" clip-rule="evenodd" d="M2.89612 9.80298C3.95878 8.7527 6.24503 7.88746 8.14817 7.76758L8.20355 7.96043C6.35253 7.97672 4.07149 8.90126 2.89612 9.80298Z" fill="white"/>
<path fill-rule="evenodd" clip-rule="evenodd" d="M5.52385 9.81926C6.2627 9.10582 7.81531 8.53312 9.3979 8.31746C7.65308 8.42041 5.78317 9.11885 4.82997 9.82708C5.61311 9.04002 7.32796 8.40021 9.01154 8.19497C7.23219 8.28945 5.28474 9.05109 4.30939 9.80623C5.07429 9.00809 6.74353 8.34027 8.39453 8.09789C6.58195 8.14937 4.78696 9.02634 3.77643 9.80948C4.68337 8.8628 6.5826 8.00668 8.49487 7.91937L9.30799 8.00928L9.87743 8.12982L9.94128 8.25882C10.1706 8.23993 10.3987 8.22885 10.6234 8.22625L10.7108 8.40281C8.80305 8.3318 6.59498 9.06022 5.52451 9.82056L5.52385 9.81926Z" fill="white"/>
<path fill-rule="evenodd" clip-rule="evenodd" d="M6.36377 9.75216C7.35867 8.93839 8.62852 8.50642 10.5903 8.33246L10.6457 8.52531C9.57911 8.51489 7.61147 8.89734 6.36442 9.75281L6.36377 9.75216Z" fill="white"/>
<path fill-rule="evenodd" clip-rule="evenodd" d="M7.15143 9.76911C8.04794 8.99378 9.27479 8.5781 11.2398 8.40283L11.3226 8.58461C10.2391 8.5807 8.29748 8.95338 7.15143 9.76911Z" fill="white"/>
<path fill-rule="evenodd" clip-rule="evenodd" d="M7.77209 9.78211C8.54286 9.06021 9.71694 8.66733 11.6859 8.49011L11.8032 8.65756C10.6995 8.66212 8.7898 9.02112 7.77209 9.78211Z" fill="white"/>
<path fill-rule="evenodd" clip-rule="evenodd" d="M8.53967 9.62971C9.30979 9.04332 10.4356 8.71104 12.1994 8.55206L12.3166 8.71951C11.3302 8.72342 9.61276 9.02378 8.53967 9.62971Z" fill="white"/>
<path fill-rule="evenodd" clip-rule="evenodd" d="M8.90131 9.76126C9.60692 9.15338 10.7054 8.81197 12.4724 8.6543L12.6125 8.82891C11.6137 8.82891 9.91249 9.13448 8.90196 9.76126H8.90131Z" fill="white"/>
<path fill-rule="evenodd" clip-rule="evenodd" d="M12.38 8.79242C11.2926 8.09528 9.63569 7.32385 8.34174 6.97528C9.5953 7.4509 10.701 7.98973 11.6327 8.66146C11.6691 8.68427 11.9656 8.78135 11.9995 8.80219L12.38 8.79242Z" fill="white"/>
<path fill-rule="evenodd" clip-rule="evenodd" d="M11.8162 8.73184C10.7288 8.03469 8.90901 7.23395 7.61505 6.88538C8.86861 7.361 10.1372 7.92849 11.0689 8.60022C11.1053 8.62303 11.4018 8.72011 11.4357 8.74096L11.8162 8.73118V8.73184Z" fill="white"/>
<path fill-rule="evenodd" clip-rule="evenodd" d="M11.3087 8.67972C10.2213 7.98257 8.44719 7.18378 6.81769 6.88147C8.30906 7.27435 9.87862 8.00928 10.4891 8.53833C10.5256 8.56114 10.822 8.65821 10.8559 8.67906H11.3094V8.67972H11.3087Z" fill="white"/>
<path fill-rule="evenodd" clip-rule="evenodd" d="M10.5464 8.46085C9.47986 7.83733 7.73113 7.12715 6.11401 6.86719C7.59105 7.21055 9.1378 7.86404 9.73266 8.33966C9.76849 8.36051 10.0617 8.44586 10.0943 8.46411L10.5464 8.46085Z" fill="white"/>
<path fill-rule="evenodd" clip-rule="evenodd" d="M10.0331 8.29073C8.92283 7.72845 7.13045 7.12187 5.50812 6.95898C6.99949 7.21439 8.58664 7.77667 9.21733 8.21841C9.25446 8.23665 9.55222 8.30506 9.5861 8.322L10.0324 8.29073H10.0331Z" fill="white"/>
<path fill-rule="evenodd" clip-rule="evenodd" d="M9.49038 8.13178C8.33977 7.63921 6.5109 7.14665 4.89313 7.08997C6.39036 7.24829 8.01204 7.70958 8.67791 8.11288C8.71635 8.12917 9.01671 8.17803 9.05255 8.19237L9.49038 8.13178Z" fill="white"/>
<path fill-rule="evenodd" clip-rule="evenodd" d="M8.62295 7.87964C7.42738 7.49067 5.56723 7.1649 3.97357 7.25807C5.46299 7.27827 7.11659 7.59231 7.82416 7.93567C7.86391 7.9487 8.16557 7.96955 8.20205 7.98128L8.62295 7.87964Z" fill="white"/>
<path fill-rule="evenodd" clip-rule="evenodd" d="M6.7688 7.49853C5.52958 7.32783 3.72938 7.2542 2.57355 7.77478C3.82776 7.35519 5.20185 7.45032 6.1329 7.56824C6.17395 7.57346 6.37853 7.63861 6.41632 7.64317L6.7688 7.49853Z" fill="white"/>
<path fill-rule="evenodd" clip-rule="evenodd" d="M15.0769 0.0267334C15.0769 0.0267334 16.6035 2.62702 14.9264 5.32569C13.2487 8.02436 13.2409 7.3207 13.2409 7.3207L15.0541 4.68002C15.8842 3.29094 15.5343 1.21709 15.0769 0.0267334Z" fill="white"/>
<path fill-rule="evenodd" clip-rule="evenodd" d="M14.942 0.487366C14.942 0.487366 15.9962 2.57164 15.0821 4.9263L14.9153 4.88329C15.5492 3.5079 15.3694 1.59954 14.942 0.488017V0.487366Z" fill="white"/>
<path fill-rule="evenodd" clip-rule="evenodd" d="M14.8116 0.938843C15.2723 2.12464 15.3485 3.94569 14.8136 5.3237L14.6468 5.28069C15.2449 3.98348 15.1211 2.14093 14.8123 0.938843H14.8116Z" fill="white"/>
<path fill-rule="evenodd" clip-rule="evenodd" d="M14.6456 1.31024C15.1063 2.49604 15.0209 4.45717 14.4853 5.83452L14.3185 5.79152C14.9167 4.49431 14.9551 2.51168 14.6456 1.31024Z" fill="white"/>
<path fill-rule="evenodd" clip-rule="evenodd" d="M14.4646 1.65948C14.9037 2.83942 14.7767 4.78947 14.2105 6.15966L14.0437 6.11666C14.6718 4.82661 14.7506 2.85506 14.4646 1.65948Z" fill="white"/>
<path fill-rule="evenodd" clip-rule="evenodd" d="M14.2515 2.14557C14.6672 3.31964 14.4984 5.25862 13.899 6.62033L13.7322 6.57733C14.3916 5.29576 14.5134 3.33528 14.2515 2.14557Z" fill="white"/>
<path fill-rule="evenodd" clip-rule="evenodd" d="M13.2851 3.94834C13.562 4.75755 13.435 6.06845 13.0258 7.24903C13.5803 6.00394 13.7256 4.42201 13.5314 3.46686C13.8481 4.33796 13.7138 5.78829 13.2597 7.03468C13.8337 5.76939 13.9588 4.10732 13.736 3.11763C14.0676 3.98092 13.9719 5.4117 13.5575 6.65092C14.1758 5.38042 14.1582 3.77503 13.9269 2.74951C14.3204 3.77308 14.2846 5.44167 13.6578 6.79556L13.2943 7.31745L12.9959 7.65885L12.8747 7.64843C12.8063 7.81457 12.732 7.97615 12.6518 8.13187L12.485 8.11754C13.2317 6.834 13.4767 5.00579 13.2851 3.94899V3.94834Z" fill="white"/>
<path fill-rule="evenodd" clip-rule="evenodd" d="M13.0318 4.55493C13.2917 5.58306 13.1608 6.6392 12.5822 8.06347L12.4154 8.02046C12.8109 7.29009 13.2324 5.77396 13.0324 4.55493H13.0318Z" fill="white"/>
<path fill-rule="evenodd" clip-rule="evenodd" d="M12.7326 5.09045C12.9991 6.03453 12.8707 7.05484 12.2922 8.48171L12.1234 8.46217C12.5195 7.71811 12.9398 6.22348 12.7333 5.09045H12.7326Z" fill="white"/>
<path fill-rule="evenodd" clip-rule="evenodd" d="M12.4975 5.51263C12.7685 6.34791 12.6428 7.32196 12.0635 8.75273L11.8935 8.76316C12.2903 8.00086 12.7092 6.5349 12.4981 5.51263H12.4975Z" fill="white"/>
<path fill-rule="evenodd" clip-rule="evenodd" d="M12.3358 6.10492C12.5045 6.8822 12.3488 7.79762 11.8302 9.07919L11.6602 9.08962C12.0152 8.40811 12.4094 7.09917 12.3358 6.10492Z" fill="white"/>
<path fill-rule="evenodd" clip-rule="evenodd" d="M12.104 6.29907C12.3118 7.04117 12.1737 7.9416 11.6531 9.22448L11.4694 9.24728C11.8316 8.55926 12.216 7.25879 12.104 6.29907Z" fill="white"/>
<path fill-rule="evenodd" clip-rule="evenodd" d="M11.5812 9.10267C12.5077 8.64725 13.6981 7.83152 14.4337 7.08746C13.616 7.75073 12.8035 8.28499 11.9526 8.64334C11.922 8.65897 11.7402 8.82186 11.7122 8.83619L11.5812 9.10267Z" fill="white"/>
<path fill-rule="evenodd" clip-rule="evenodd" d="M11.8322 8.73969C12.7587 8.28427 14.0305 7.3682 14.7661 6.62415C13.9484 7.28676 13.0545 7.92136 12.2036 8.28036C12.173 8.29599 11.9912 8.45888 11.9632 8.47321L11.8322 8.73969Z" fill="white"/>
<path fill-rule="evenodd" clip-rule="evenodd" d="M12.0558 8.41269C12.9823 7.95726 14.2358 7.07182 15.0581 6.07758C14.2169 6.93891 13.0865 7.71033 12.461 7.90775C12.4304 7.92338 12.2486 8.08627 12.2206 8.1006L12.0558 8.41269Z" fill="white"/>
<path fill-rule="evenodd" clip-rule="evenodd" d="M12.4994 7.98001C13.362 7.50829 14.5387 6.6033 15.3245 5.59863C14.5263 6.47104 13.4663 7.26071 12.8877 7.4705C12.859 7.48614 12.687 7.65228 12.661 7.66727L12.4994 7.98001Z" fill="white"/>
<path fill-rule="evenodd" clip-rule="evenodd" d="M12.8155 7.69797C13.6475 7.17023 14.7616 6.19162 15.4744 5.14264C14.7388 6.06196 13.7329 6.91808 13.1667 7.16632C13.1393 7.18391 12.979 7.36048 12.9536 7.37676L12.8155 7.69732V7.69797Z" fill="white"/>
<path fill-rule="evenodd" clip-rule="evenodd" d="M13.134 7.39104C13.9276 6.80595 14.9675 5.75372 15.5975 4.6637C14.9329 5.62797 13.9921 6.55055 13.4435 6.83918C13.4175 6.85873 13.2709 7.04507 13.2467 7.06331L13.134 7.39038V7.39104Z" fill="white"/>
<path fill-rule="evenodd" clip-rule="evenodd" d="M13.6408 6.8998C14.3712 6.24045 15.2951 5.09635 15.8026 3.95941C15.2468 4.97711 14.407 5.98309 13.8877 6.3258C13.8636 6.34795 13.7379 6.54667 13.7157 6.56687L13.6408 6.8998Z" fill="white"/>
<path fill-rule="evenodd" clip-rule="evenodd" d="M14.6047 5.78301C15.1852 5.00182 15.8941 3.79256 15.9162 2.77747C15.7814 3.81797 15.21 4.72426 14.7825 5.31586C14.7637 5.34192 14.6399 5.45529 14.6223 5.47939L14.6047 5.78301Z" fill="white"/>
<path fill-rule="evenodd" clip-rule="evenodd" d="M21.1453 17.2423C21.1453 17.2423 21.3472 12.9063 17.8687 10.7028C14.3901 8.49998 14.7941 9.38672 14.7941 9.38672L18.3919 11.4221C20.1445 12.5799 20.9641 15.4271 21.1453 17.2423Z" fill="white"/>
<path fill-rule="evenodd" clip-rule="evenodd" d="M20.7228 16.7595C20.7228 16.7595 20.6929 13.4028 18.2796 11.0944L18.116 11.2664C19.6387 12.5454 20.5541 15.0649 20.7228 16.7602V16.7595Z" fill="white"/>
<path fill-rule="evenodd" clip-rule="evenodd" d="M20.3104 16.2852C20.1364 14.4733 19.1552 12.1362 17.742 10.7849L17.5785 10.9569C19.0151 12.1636 19.9553 14.5612 20.3104 16.2859V16.2852Z" fill="white"/>
<path fill-rule="evenodd" clip-rule="evenodd" d="M19.9045 15.936C19.7305 14.1241 18.4842 11.7257 17.0716 10.3745L16.9081 10.5465C18.3447 11.7531 19.5494 14.212 19.9045 15.9366V15.936Z" fill="white"/>
<path fill-rule="evenodd" clip-rule="evenodd" d="M19.4961 15.6265C19.3006 13.8374 18.0145 11.4808 16.5713 10.1614L16.4078 10.3334C17.8737 11.5088 19.1188 13.926 19.4961 15.6265Z" fill="white"/>
<path fill-rule="evenodd" clip-rule="evenodd" d="M18.9702 15.1665C18.752 13.4008 17.4241 11.0885 15.9491 9.80304L15.7855 9.97505C17.2821 11.1185 18.5695 13.4907 18.9702 15.1672V15.1665Z" fill="white"/>
<path fill-rule="evenodd" clip-rule="evenodd" d="M16.8216 13.5852C16.6601 12.3753 15.7486 10.8207 14.5934 9.62843C15.9499 10.7992 17.0419 12.6815 17.3813 14.0159C17.2289 12.7004 16.2268 10.9758 14.983 9.73333C16.3734 10.9159 17.4895 12.9122 17.8178 14.3104C17.6869 12.9943 16.7395 11.267 15.5446 10.0044C16.9884 11.1622 17.9091 13.1878 18.2492 14.6375C18.0941 13.077 17.0757 11.009 15.5733 9.75287L14.8566 9.35413L14.3191 9.13652L14.1881 9.2349C14.0129 9.07527 13.8343 8.92412 13.6532 8.78534L13.4734 8.92021C15.0697 10.0044 16.4183 12.1245 16.8216 13.5852Z" fill="white"/>
<path fill-rule="evenodd" clip-rule="evenodd" d="M16.179 13.0034C15.8701 11.5309 15.1033 10.2982 13.6139 8.91956L13.4503 9.09156C14.3253 9.72942 15.691 11.3342 16.179 13.0034Z" fill="white"/>
<path fill-rule="evenodd" clip-rule="evenodd" d="M15.5269 12.5421C15.2747 11.1706 14.532 9.98156 13.0406 8.599L12.8615 8.74299C13.7456 9.39713 15.0962 10.9758 15.5269 12.5421Z" fill="white"/>
<path fill-rule="evenodd" clip-rule="evenodd" d="M15.0135 12.1786C14.8304 10.94 14.117 9.80762 12.6236 8.42114L12.4249 8.52799C13.3208 9.20429 14.6538 10.7484 15.0135 12.1786Z" fill="white"/>
<path fill-rule="evenodd" clip-rule="evenodd" d="M14.4831 11.5492C14.2179 10.4559 13.5057 9.41735 12.1681 8.17487L11.9694 8.28172C12.7702 8.88635 13.9833 10.2507 14.4831 11.5492Z" fill="white"/>
<path fill-rule="evenodd" clip-rule="evenodd" d="M14.1079 11.469C13.9079 10.3914 13.2238 9.35998 11.8836 8.11749L11.662 8.21848C12.4745 8.82572 13.6714 10.1868 14.1079 11.469Z" fill="white"/>
<path fill-rule="evenodd" clip-rule="evenodd" d="M11.873 8.32076C13.1872 8.23932 15.0115 8.42501 16.2787 8.84004C14.9659 8.58463 13.7338 8.48625 12.5617 8.6348C12.5181 8.63741 12.2171 8.56053 12.1767 8.56183L11.873 8.32011V8.32076Z" fill="white"/>
<path fill-rule="evenodd" clip-rule="evenodd" d="M12.3695 8.59904C13.6837 8.5176 15.6585 8.77105 16.9257 9.18673C15.6129 8.93133 14.2303 8.76453 13.0582 8.91308C13.0145 8.91569 12.7135 8.83881 12.6731 8.84011L12.3695 8.59839V8.59904Z" fill="white"/>
<path fill-rule="evenodd" clip-rule="evenodd" d="M12.8147 8.85246C14.1288 8.77102 16.0652 8.99905 17.5781 9.66753C16.1219 9.17888 14.3921 9.00752 13.5698 9.20038C13.5262 9.20299 13.2252 9.1261 13.1848 9.12741L12.8153 8.85246H12.8147Z" fill="white"/>
<path fill-rule="evenodd" clip-rule="evenodd" d="M13.5698 9.0825C14.8214 9.06686 16.6828 9.37374 18.1592 10.08C16.7454 9.5477 15.0839 9.30337 14.3073 9.44801C14.2656 9.44801 13.9744 9.36071 13.9359 9.36071L13.5698 9.08185V9.0825Z" fill="white"/>
<path fill-rule="evenodd" clip-rule="evenodd" d="M14.0921 9.21405C15.3417 9.29028 17.1752 9.73398 18.5955 10.5471C17.2247 9.91185 15.5861 9.54634 14.8003 9.63299C14.7586 9.63038 14.4745 9.52158 14.4361 9.51897L14.0914 9.21405H14.0921Z" fill="white"/>
<path fill-rule="evenodd" clip-rule="evenodd" d="M14.6324 9.37433C15.8723 9.54959 17.664 10.1366 19.0159 11.0605C17.6998 10.3184 16.0957 9.82389 15.3054 9.84865C15.2644 9.84278 14.9894 9.71183 14.9516 9.70596L14.6324 9.37498V9.37433Z" fill="white"/>
<path fill-rule="evenodd" clip-rule="evenodd" d="M15.4931 9.63365C16.7056 9.94639 18.4205 10.7308 19.6603 11.7994C18.4355 10.9146 16.8965 10.2435 16.1088 10.1796C16.0684 10.1692 15.8104 10.0083 15.7733 9.99786L15.4931 9.633V9.63365Z" fill="white"/>
<path fill-rule="evenodd" clip-rule="evenodd" d="M17.2373 10.3555C18.3514 10.9269 19.861 11.944 20.482 13.2014C19.7197 11.9915 18.5423 11.2573 17.7123 10.8168C17.6751 10.7973 17.4693 10.7425 17.4354 10.7243L17.238 10.3562L17.2373 10.3555Z" fill="white"/>
<path fill-rule="evenodd" clip-rule="evenodd" d="M9.43677 21.0283C9.43677 21.0283 13.5362 18.7636 13.2411 14.6367C12.9453 10.5099 12.4026 11.3432 12.4026 11.3432L12.931 15.4752C13.0365 17.5817 10.977 19.8601 9.43677 21.029V21.0283Z" fill="white"/>
<path fill-rule="evenodd" clip-rule="evenodd" d="M9.59766 20.4061C9.59766 20.4061 12.6475 18.4984 13.1557 15.197L12.8899 15.1573C12.7316 17.1399 11.0356 19.3148 9.59766 20.4061Z" fill="white"/>
<path fill-rule="evenodd" clip-rule="evenodd" d="M9.75751 19.7976C11.299 18.6365 12.7846 16.5093 13.0823 14.5775L12.8165 14.5377C12.6673 16.4083 11.099 18.5349 9.75751 19.7976Z" fill="white"/>
<path fill-rule="evenodd" clip-rule="evenodd" d="M9.8075 19.2646C11.349 18.1036 12.7147 15.7222 13.0124 13.7897L12.7466 13.75C12.5974 15.6206 11.149 18.0019 9.8075 19.264V19.2646Z" fill="white"/>
<path fill-rule="evenodd" clip-rule="evenodd" d="M9.81927 18.7512C11.3256 17.5849 12.6268 15.1938 12.8743 13.2542L12.6085 13.2144C12.5069 15.0921 11.1243 17.4833 9.81927 18.7512Z" fill="white"/>
<path fill-rule="evenodd" clip-rule="evenodd" d="M9.89032 18.056C11.3602 16.8846 12.5929 14.483 12.789 12.5355L12.5232 12.4958C12.4711 14.3807 11.1569 16.7816 9.89032 18.0554V18.056Z" fill="white"/>
<path fill-rule="evenodd" clip-rule="evenodd" d="M9.90938 15.3827C10.9088 14.5696 11.7252 12.9394 12.0484 11.3113C11.8783 13.0958 10.8828 15.0589 9.88788 16.0903C10.9896 15.2257 11.9011 13.4248 12.2113 11.6944C12.0529 13.5128 10.9688 15.5606 9.90808 16.618C11.0248 15.771 11.9754 14.0145 12.3364 12.3133C12.2367 14.1624 10.9948 16.0642 9.8957 17.1608C11.2196 16.1561 12.4347 14.15 12.5852 12.1967L12.4732 11.3771L12.3155 10.8083L12.1383 10.7548C12.1683 10.5196 12.1872 10.2864 12.1937 10.0577L11.9506 9.98407C12.0191 11.9191 10.9766 14.2288 9.90808 15.384L9.90938 15.3827Z" fill="white"/>
<path fill-rule="evenodd" clip-rule="evenodd" d="M10.0148 14.5227C11.1563 13.4399 11.7739 12.1107 12.0456 10.0994L11.7798 10.0597C11.7778 11.1445 11.2175 13.1799 10.0148 14.5221V14.5227Z" fill="white"/>
<path fill-rule="evenodd" clip-rule="evenodd" d="M10.0036 13.722C11.0904 12.7434 11.6846 11.4586 11.9583 9.44335L11.7074 9.37494C11.6963 10.4767 11.1497 12.4854 10.003 13.7214L10.0036 13.722Z" fill="white"/>
<path fill-rule="evenodd" clip-rule="evenodd" d="M9.99512 13.0913C11.0063 12.2443 11.5679 11.0162 11.8442 8.99705L11.6148 8.89215C11.5914 10.0161 11.0643 11.9902 9.99512 13.0913Z" fill="white"/>
<path fill-rule="evenodd" clip-rule="evenodd" d="M10.2186 12.2977C11.0428 11.4637 11.519 10.2896 11.7666 8.48032L11.5373 8.37543C11.5164 9.3801 11.074 11.1536 10.2186 12.2977Z" fill="white"/>
<path fill-rule="evenodd" clip-rule="evenodd" d="M10.0421 11.9407C10.8943 11.1699 11.3836 10.0232 11.6299 8.21128L11.3901 8.08423C11.3744 9.10063 10.9249 10.8585 10.0421 11.9407Z" fill="white"/>
<path fill-rule="evenodd" clip-rule="evenodd" d="M11.4377 8.31683C12.3851 9.3632 13.4269 10.9836 13.8895 12.2704C13.2509 11.0357 12.5225 9.95675 11.6078 9.0661C11.5765 9.03092 11.4468 8.73773 11.4188 8.70515L11.4384 8.31683H11.4377Z" fill="white"/>
<path fill-rule="evenodd" clip-rule="evenodd" d="M11.5118 8.8856C12.4591 9.93197 13.5387 11.7152 14.0006 13.002C13.3621 11.7674 12.5966 10.5249 11.6818 9.63422C11.6505 9.59903 11.5209 9.30584 11.4929 9.27327L11.5124 8.88495L11.5118 8.8856Z" fill="white"/>
<path fill-rule="evenodd" clip-rule="evenodd" d="M11.5764 9.39769C12.5238 10.4441 13.6014 12.1811 13.9949 13.8132C13.4744 12.329 12.4827 10.7952 11.7595 10.2193C11.7282 10.1841 11.5986 9.8909 11.5706 9.85832L11.5764 9.39703V9.39769Z" fill="white"/>
<path fill-rule="evenodd" clip-rule="evenodd" d="M11.8676 10.1542C12.714 11.1855 13.6691 12.9043 14.0034 14.5279C13.5512 13.0542 12.671 11.5367 12.0227 10.9718C11.9947 10.9373 11.8807 10.6461 11.8559 10.6141L11.8676 10.1535V10.1542Z" fill="white"/>
<path fill-rule="evenodd" clip-rule="evenodd" d="M12.0943 10.6624C12.8546 11.7439 13.6665 13.5161 13.8665 15.1528C13.5368 13.6569 12.783 12.0906 12.1816 11.4859C12.1568 11.4495 12.0669 11.153 12.0441 11.1191L12.0943 10.6617V10.6624Z" fill="white"/>
<path fill-rule="evenodd" clip-rule="evenodd" d="M12.3061 11.2012C12.9694 12.3297 13.6222 14.1488 13.6757 15.79C13.4802 14.2798 12.8664 12.6691 12.3192 12.0261C12.2977 11.9883 12.2345 11.6866 12.2149 11.6521L12.3061 11.2012Z" fill="white"/>
<path fill-rule="evenodd" clip-rule="evenodd" d="M12.6413 12.0619C13.1605 13.2451 13.5821 15.1104 13.4283 16.7406C13.4238 15.2264 13.0152 13.5709 12.5507 12.8802C12.5338 12.8405 12.509 12.5362 12.494 12.4997L12.6413 12.0625V12.0619Z" fill="white"/>
<path fill-rule="evenodd" clip-rule="evenodd" d="M13.1395 13.9168C13.3565 15.1632 13.4301 16.9888 12.6919 18.2098C13.292 16.8969 13.1819 15.5066 13.0333 14.5696C13.0261 14.528 12.9395 14.326 12.9336 14.2875L13.1395 13.9168Z" fill="white"/>
<path fill-rule="evenodd" clip-rule="evenodd" d="M21.4125 9.6434C21.4125 9.6434 19.6189 7.02682 16.6198 7.27636C13.6215 7.5259 14.2476 7.8647 14.2476 7.8647L17.2421 7.46465C18.7745 7.36692 20.5069 8.66479 21.4125 9.6434Z" fill="white"/>
<path fill-rule="evenodd" clip-rule="evenodd" d="M20.953 9.54825C20.953 9.54825 19.4558 7.60471 17.0314 7.32324L17.0118 7.49525C18.4635 7.56952 20.1073 8.63414 20.953 9.54825Z" fill="white"/>
<path fill-rule="evenodd" clip-rule="evenodd" d="M20.5035 9.45379C19.6031 8.47453 18.001 7.54478 16.5819 7.37994L16.5624 7.55195C17.9313 7.62166 19.5367 8.60484 20.5035 9.45379Z" fill="white"/>
<path fill-rule="evenodd" clip-rule="evenodd" d="M20.1132 9.42903C19.2128 8.44977 17.4289 7.60081 16.0098 7.43597L15.9903 7.60798C17.3592 7.67769 19.1457 8.58008 20.1132 9.42838V9.42903Z" fill="white"/>
<path fill-rule="evenodd" clip-rule="evenodd" d="M19.7386 9.42839C18.8355 8.47193 17.0471 7.66532 15.6241 7.53241L15.6046 7.70442C16.9773 7.74351 18.7684 8.60289 19.7386 9.42773V9.42839Z" fill="white"/>
<path fill-rule="evenodd" clip-rule="evenodd" d="M19.2289 9.39254C18.3233 8.45954 16.5303 7.69724 15.1034 7.59821L15.0839 7.77021C16.4599 7.77673 18.2562 8.59245 19.2289 9.39254Z" fill="white"/>
<path fill-rule="evenodd" clip-rule="evenodd" d="M17.2797 9.41801C16.6523 8.78406 15.4352 8.27977 14.2364 8.09409C15.5433 8.17879 17.0093 8.79449 17.7957 9.42192C17.1266 8.72217 15.7825 8.15859 14.5093 7.98267C15.8411 8.0589 17.3716 8.73064 18.1795 9.40107C17.5227 8.69155 16.2092 8.10256 14.9563 7.89341C16.3082 7.93185 17.7377 8.70653 18.5756 9.40172C17.797 8.56059 16.292 7.80415 14.8625 7.73444L14.2689 7.81848L13.8598 7.92859L13.8265 8.04392C13.6539 8.02763 13.4832 8.01916 13.3164 8.01786L13.2714 8.17618C14.68 8.10451 16.4001 8.74562 17.2797 9.41931V9.41801Z" fill="white"/>
<path fill-rule="evenodd" clip-rule="evenodd" d="M16.6482 9.36196C15.8187 8.6394 14.8284 8.25955 13.3527 8.1123L13.3331 8.28431C14.1241 8.27063 15.6272 8.60356 16.6482 9.36196Z" fill="white"/>
<path fill-rule="evenodd" clip-rule="evenodd" d="M16.0653 9.3808C15.3141 8.69212 14.3563 8.32661 12.878 8.17871L12.8369 8.3416C13.6409 8.33313 15.1238 8.65759 16.0653 9.3808Z" fill="white"/>
<path fill-rule="evenodd" clip-rule="evenodd" d="M15.6059 9.39517C14.9531 8.75406 14.0383 8.40809 12.5561 8.25824L12.4877 8.40809C13.308 8.40809 14.7654 8.71953 15.6059 9.39517Z" fill="white"/>
<path fill-rule="evenodd" clip-rule="evenodd" d="M15.0189 9.26226C14.3823 8.74168 13.5092 8.45044 12.1821 8.31622L12.1136 8.46608C12.8466 8.46608 14.1556 8.72604 15.0195 9.26226H15.0189Z" fill="white"/>
<path fill-rule="evenodd" clip-rule="evenodd" d="M14.7654 9.38083C14.1738 8.84135 13.3203 8.54099 11.9911 8.40808L11.9064 8.56445C12.6479 8.56054 13.9451 8.82572 14.7654 9.38083Z" fill="white"/>
<path fill-rule="evenodd" clip-rule="evenodd" d="M12.0744 8.53057C12.8048 7.90379 13.9495 7.20794 14.8715 6.8913C13.9932 7.32131 13.2322 7.80671 12.6145 8.41068C12.5898 8.43153 12.3806 8.51949 12.3578 8.53773L12.0744 8.53057Z" fill="white"/>
<path fill-rule="evenodd" clip-rule="evenodd" d="M12.4862 8.47458C13.2166 7.8478 14.4793 7.12524 15.4012 6.80859C14.5229 7.23861 13.644 7.75072 13.0263 8.35404C13.0016 8.37489 12.7924 8.46285 12.7696 8.48109L12.4862 8.47393V8.47458Z" fill="white"/>
<path fill-rule="evenodd" clip-rule="evenodd" d="M12.8578 8.42566C13.5882 7.79888 14.817 7.07828 15.9936 6.80072C14.9297 7.15776 13.8455 7.82038 13.4513 8.29535C13.4266 8.3162 13.2174 8.40416 13.1946 8.4224L12.8584 8.42501L12.8578 8.42566Z" fill="white"/>
<path fill-rule="evenodd" clip-rule="evenodd" d="M13.3991 8.22695C14.1217 7.66597 15.342 7.02421 16.5141 6.7851C15.4554 7.09783 14.3797 7.68813 13.9901 8.11489C13.9659 8.13313 13.7575 8.21131 13.7353 8.2276L13.3991 8.2263V8.22695Z" fill="white"/>
<path fill-rule="evenodd" clip-rule="evenodd" d="M13.7612 8.07317C14.5235 7.56692 15.7875 7.01702 16.9739 6.86456C15.895 7.09847 14.7789 7.60797 14.3593 8.00476C14.3339 8.0217 14.1202 8.08359 14.0967 8.09858L13.7618 8.07252L13.7612 8.07317Z" fill="white"/>
<path fill-rule="evenodd" clip-rule="evenodd" d="M14.1471 7.92858C14.9472 7.48423 16.2503 7.03662 17.4452 6.97864C16.3512 7.12654 15.198 7.54548 14.7478 7.90773C14.7211 7.92207 14.5035 7.96702 14.4787 7.9807L14.1471 7.92858Z" fill="white"/>
<path fill-rule="evenodd" clip-rule="evenodd" d="M14.7635 7.70052C15.6079 7.34869 16.9533 7.04964 18.1476 7.12587C17.0439 7.15063 15.8509 7.4373 15.3636 7.74743C15.3355 7.75916 15.114 7.77936 15.088 7.78978L14.7641 7.70052H14.7635Z" fill="white"/>
<path fill-rule="evenodd" clip-rule="evenodd" d="M16.0975 7.35198C16.9986 7.19431 18.3271 7.12133 19.2432 7.58067C18.2652 7.21125 17.2553 7.30246 16.5771 7.41127C16.5471 7.41648 16.4025 7.47512 16.3751 7.47968L16.0975 7.35198Z" fill="white"/>
<path fill-rule="evenodd" clip-rule="evenodd" d="M16.5359 21.7738C16.5359 21.7738 18.5661 17.8203 16.184 13.773C13.802 9.7256 13.8105 10.7876 13.8105 10.7876L16.3775 14.7457C17.5581 16.83 17.1327 19.9684 16.5352 21.7745L16.5359 21.7738Z" fill="white"/>
<path fill-rule="evenodd" clip-rule="evenodd" d="M16.3379 21.0805C16.3379 21.0805 17.7322 17.9141 16.4096 14.3736L16.1809 14.442C17.0905 16.5087 16.895 19.3943 16.3379 21.0805Z" fill="white"/>
<path fill-rule="evenodd" clip-rule="evenodd" d="M16.1457 20.4004C16.7478 18.6015 16.8031 15.8494 16.0291 13.7769L15.8004 13.8453C16.6585 15.7947 16.5386 18.58 16.1457 20.4004Z" fill="white"/>
<path fill-rule="evenodd" clip-rule="evenodd" d="M15.9072 19.842C16.5092 18.0431 16.3379 15.0825 15.5638 13.0106L15.3351 13.079C16.1932 15.0284 16.3001 18.0223 15.9072 19.8426V19.842Z" fill="white"/>
<path fill-rule="evenodd" clip-rule="evenodd" d="M15.6487 19.3188C16.2207 17.529 15.9934 14.5854 15.1763 12.5259L14.9476 12.5943C15.8468 14.532 16.0096 17.5082 15.6487 19.3195V19.3188Z" fill="white"/>
<path fill-rule="evenodd" clip-rule="evenodd" d="M15.3424 18.5878C15.8825 16.8071 15.5971 13.8811 14.7358 11.8346L14.5071 11.903C15.4486 13.8277 15.6707 16.7869 15.3424 18.5878Z" fill="white"/>
<path fill-rule="evenodd" clip-rule="evenodd" d="M13.9638 15.8806C14.3228 14.6531 14.113 12.6757 13.5168 10.8996C14.3137 12.7708 14.5567 15.158 14.315 16.6038C14.7267 15.2825 14.5026 13.094 13.8439 11.2195C14.6681 13.1207 14.8857 15.6291 14.6062 17.1276C15.0395 15.8181 14.8681 13.6582 14.2648 11.7935C15.1502 13.7019 15.1691 16.1269 14.8798 17.6808C15.3933 16.1282 15.2988 13.608 14.399 11.5746L13.8843 10.7927L13.464 10.2819L13.2973 10.2995C13.1982 10.05 13.0914 9.80696 12.9773 9.57306L12.7487 9.59717C13.8107 11.5238 14.1977 14.2804 13.9631 15.8806H13.9638Z" fill="white"/>
<path fill-rule="evenodd" clip-rule="evenodd" d="M13.5988 14.9685C13.9285 13.4106 13.72 11.8176 12.8847 9.67603L12.656 9.74444C13.2196 10.841 13.8412 13.124 13.5988 14.9685Z" fill="white"/>
<path fill-rule="evenodd" clip-rule="evenodd" d="M13.1725 14.1651C13.5139 12.735 13.3093 11.196 12.4741 9.04987L12.2421 9.08244C12.8077 10.1998 13.4266 12.4502 13.1725 14.1651Z" fill="white"/>
<path fill-rule="evenodd" clip-rule="evenodd" d="M12.8371 13.5312C13.1876 12.2652 12.9876 10.796 12.1517 8.64462L11.9171 8.63159C12.484 9.77634 13.1003 11.9838 12.8371 13.5305V13.5312Z" fill="white"/>
<path fill-rule="evenodd" clip-rule="evenodd" d="M12.598 12.6386C12.8085 11.4619 12.57 10.0819 11.8214 8.15469L11.5869 8.14166C12.0937 9.16458 12.6717 11.1355 12.598 12.6386Z" fill="white"/>
<path fill-rule="evenodd" clip-rule="evenodd" d="M12.2743 12.3499C12.5401 11.2254 12.3258 9.86823 11.5745 7.93838L11.3204 7.9071C11.8378 8.93979 12.402 10.8977 12.2743 12.3499Z" fill="white"/>
<path fill-rule="evenodd" clip-rule="evenodd" d="M11.4786 8.12341C12.766 8.79515 14.4261 10.0077 15.4588 11.1198C14.3154 10.1321 13.183 9.33918 12.0024 8.81144C11.9594 8.78863 11.7053 8.54496 11.6662 8.52411L11.4792 8.12406L11.4786 8.12341Z" fill="white"/>
<path fill-rule="evenodd" clip-rule="evenodd" d="M11.8337 8.66748C13.1212 9.33922 14.896 10.7016 15.928 11.8131C14.7846 10.8254 13.5375 9.8826 12.3569 9.35485C12.3139 9.33205 12.0598 9.08837 12.0207 9.06752L11.8337 8.66748Z" fill="white"/>
<path fill-rule="evenodd" clip-rule="evenodd" d="M12.1503 9.15808C13.4377 9.82982 15.1871 11.1459 16.3455 12.6347C15.1649 11.3472 13.5882 10.2012 12.7223 9.91387C12.6793 9.89106 12.4252 9.64739 12.3861 9.62654L12.1503 9.15808Z" fill="white"/>
<path fill-rule="evenodd" clip-rule="evenodd" d="M12.7725 9.80438C13.9727 10.5022 15.6165 11.8502 16.7248 13.3533C15.6028 12.0489 14.1225 10.8742 13.3205 10.5673C13.2807 10.5439 13.0397 10.2963 13.0032 10.2741L12.7725 9.80438Z" fill="white"/>
<path fill-rule="evenodd" clip-rule="evenodd" d="M13.2149 10.2253C14.374 11.0084 15.9338 12.4679 16.943 14.04C15.9051 12.6633 14.4984 11.3876 13.7127 11.0221C13.6742 10.9954 13.4495 10.7322 13.4143 10.7074L13.2149 10.2253Z" fill="white"/>
<path fill-rule="evenodd" clip-rule="evenodd" d="M13.662 10.6833C14.7696 11.5538 16.229 13.1253 17.1262 14.7613C16.186 13.3156 14.866 11.9382 14.1024 11.5115C14.0659 11.4821 13.8594 11.2033 13.8255 11.1759L13.662 10.6833Z" fill="white"/>
<path fill-rule="evenodd" clip-rule="evenodd" d="M14.3729 11.4163C15.3958 12.4001 16.6989 14.1123 17.4273 15.8213C16.6344 14.2941 15.4519 12.7884 14.728 12.2795C14.6941 12.2463 14.5156 11.9486 14.485 11.9179L14.3729 11.4163Z" fill="white"/>
<path fill-rule="evenodd" clip-rule="evenodd" d="M15.73 13.0869C16.5496 14.2577 17.5582 16.0716 17.6168 17.604C17.4031 16.0344 16.592 14.6753 15.9873 13.7892C15.96 13.7501 15.7867 13.5814 15.7626 13.5449L15.7306 13.0869H15.73Z" fill="white"/>
<path d="M25.8724 24.5878C26.2036 22.5476 24.8182 20.6252 22.778 20.294C20.7378 19.9629 18.8154 21.3483 18.4843 23.3885C18.1531 25.4287 19.5385 27.351 21.5787 27.6822C23.6189 28.0134 25.5413 26.628 25.8724 24.5878Z" fill="#FCEFB6"/>
<path d="M24.3997 24.3487C24.5989 23.1219 23.7658 21.966 22.539 21.7668C21.3122 21.5677 20.1562 22.4008 19.9571 23.6276C19.7579 24.8544 20.591 26.0104 21.8178 26.2095C23.0446 26.4087 24.2006 25.5756 24.3997 24.3487Z" fill="#1F2F40"/>
<g opacity="0.19">
<path d="M28.6849 17.2996L28.3598 17.5817C28.294 17.5061 28.2262 17.4312 28.1578 17.3569C27.4203 16.564 26.5374 15.9072 25.5614 15.4264C24.5841 14.9416 23.5156 14.6419 22.4093 14.5123C23.5228 14.4628 24.6578 14.6784 25.7015 15.1195C26.7453 15.5613 27.6978 16.2304 28.4732 17.0637C28.5455 17.1412 28.6159 17.2201 28.6849 17.3002V17.2996Z" fill="white"/>
<path d="M30.584 23.295C30.5332 22.1828 30.3104 21.0947 29.8973 20.0862C29.808 19.8672 29.711 19.6522 29.6054 19.4418L29.9006 19.1857C30.0191 19.4411 30.124 19.7017 30.2146 19.9676C30.5801 21.04 30.7143 22.188 30.584 23.295Z" fill="white"/>
<path d="M30.2754 16.4551L29.8982 16.7822C29.7386 16.5828 29.5711 16.39 29.3971 16.203C28.5084 15.2485 27.4445 14.4569 26.2672 13.8783C25.0911 13.2958 23.8024 12.9368 22.4706 12.7837C23.8115 12.727 25.1765 12.989 26.4313 13.5206C27.6869 14.0529 28.8316 14.8576 29.7646 15.8603C29.9425 16.0518 30.1132 16.2499 30.2748 16.4545L30.2754 16.4551Z" fill="white"/>
<path d="M32.312 23.3569C32.254 22.0173 31.9875 20.7064 31.4911 19.4913C31.2715 18.9499 31.0089 18.4273 30.7053 17.9309L31.0676 17.6168C31.3888 18.1687 31.6553 18.7511 31.8612 19.3532C32.3016 20.6426 32.4651 22.0232 32.312 23.3569Z" fill="white"/>
<path d="M31.0566 14.6588C31.1152 14.7214 31.1726 14.7846 31.2299 14.8491L31.0481 15.5156C30.9146 15.3573 30.7777 15.2022 30.6364 15.0504C29.5972 13.933 28.3521 13.0078 26.9741 12.3322C25.5974 11.6533 24.0904 11.2324 22.5325 11.0565C24.1001 10.9939 25.6958 11.2988 27.1611 11.923C28.6277 12.5459 29.9653 13.4874 31.056 14.6595L31.0566 14.6588Z" fill="white"/>
<path d="M34.0398 23.4188C33.9753 21.8525 33.6632 20.3194 33.0846 18.8971C32.7895 18.1667 32.4259 17.4663 32.0011 16.807L32.1125 16.7105L32.1881 16.6447L32.2142 16.5477L32.2956 16.2486C32.7992 17.0265 33.2084 17.8651 33.5081 18.7388C34.0254 20.2458 34.2157 21.859 34.0404 23.4181L34.0398 23.4188Z" fill="white"/>
<path d="M32.3238 13.4294L31.8208 13.8373C30.6415 12.5843 29.2349 11.5445 27.6816 10.7835C26.8932 10.3958 26.0671 10.0811 25.2155 9.83876C24.364 9.59313 23.4864 9.4322 22.5957 9.32795C24.39 9.25889 26.215 9.60942 27.8927 10.3235C29.56 11.0324 31.0813 12.1002 32.3245 13.4294H32.3238Z" fill="white"/>
<path d="M35.7678 23.4806C35.7274 22.5841 35.6297 21.6974 35.4453 20.8308C35.2641 19.9643 35.0094 19.1173 34.6791 18.3035C34.1852 17.0812 33.5252 15.9332 32.7231 14.8947L33.2203 14.4946C34.0516 15.5951 34.709 16.8258 35.1547 18.1257C35.7469 19.8496 35.9665 21.6954 35.7678 23.4806Z" fill="white"/>
</g>
<g opacity="0.19">
<path d="M15.3791 29.2885C16.1166 30.0814 16.9995 30.7382 17.9755 31.219C18.9528 31.7038 20.0213 32.0035 21.1276 32.1331C20.0141 32.1827 18.8792 31.967 17.8354 31.5259C16.7916 31.0842 15.8391 30.415 15.0637 29.5817C14.2617 28.7745 13.6362 27.4597 13.6362 27.4597C13.5176 27.2043 13.4128 26.9436 13.3222 26.6778C12.9567 25.6054 12.8225 24.4574 12.9528 23.3504C13.0036 24.4626 13.2264 25.5506 13.6395 26.5592C13.7287 26.7781 13.8258 26.9932 13.9314 27.2036C13.9314 27.2036 14.4572 28.3177 15.3791 29.2879V29.2885Z" fill="white"/>
<path d="M14.1394 30.4424C15.0281 31.3969 16.092 32.1885 17.2694 32.7671C18.4454 33.3496 19.7341 33.7086 21.0659 33.8617C19.725 33.9184 18.36 33.6564 17.1052 33.1248C15.8497 32.5925 14.7049 31.7878 13.7719 30.7851C13.0891 30.013 12.4695 29.0286 12.4695 29.0286C12.1483 28.4767 11.8818 27.8942 11.6759 27.2922C11.2355 26.0028 11.0719 24.6222 11.225 23.2885C11.283 24.6281 11.5495 25.939 12.046 27.1541C12.2656 27.6955 12.5281 28.2181 12.8317 28.7145C12.8317 28.7145 13.2194 29.4267 14.14 30.4431L14.1394 30.4424Z" fill="white"/>
<path d="M12.9002 31.5956C13.9394 32.713 15.1845 33.6382 16.5625 34.3138C17.9392 34.9928 19.4462 35.4136 21.004 35.5896C19.4364 35.6521 17.8408 35.3472 16.3755 34.723C14.9089 34.1001 13.5713 33.1587 12.4806 31.9866C11.7209 31.12 11.2414 30.3962 11.2414 30.3962C10.7377 29.6182 10.3286 28.7797 10.0289 27.906C9.51154 26.399 9.32129 24.7858 9.49655 23.2266C9.56106 24.7929 9.87314 26.326 10.4517 27.7483C10.7469 28.4787 11.1104 29.1791 11.5352 29.8384C11.5352 29.8384 12.046 30.6639 12.9002 31.5956Z" fill="white"/>
<path d="M11.2134 33.216C12.4566 34.5445 13.9779 35.6124 15.6452 36.3219C17.3229 37.0366 19.1479 37.3872 20.9422 37.3174C20.0509 37.2126 19.1733 37.0523 18.3224 36.8066C17.4708 36.5643 16.6446 36.2496 15.8563 35.8619C14.3024 35.1009 12.8963 34.0617 11.7171 32.8082C10.9306 31.9553 10.8147 31.7507 10.8147 31.7507C10.0126 30.7122 9.35262 29.5641 8.85876 28.3419C8.52843 27.5281 8.27368 26.6817 8.09255 25.8145C7.90816 24.9473 7.81043 24.0613 7.77004 23.1647C7.57132 24.9493 7.79089 26.7958 8.38313 28.5197C8.82879 29.8195 9.48619 31.0496 10.3176 32.1507C10.3176 32.1507 10.7723 32.7717 11.2141 33.216H11.2134Z" fill="white"/>
</g>
<path d="M35.2959 11.4417L34.5609 12.0385L32.547 13.6732L32.0453 14.081L31.7065 14.356L31.4902 15.1509L31.3052 15.8298L31.2446 16.0513L30.4771 16.7178L30.1025 17.0429L29.604 17.4755C29.5382 17.4208 29.4607 17.3856 29.3799 17.3706C29.2418 17.3459 29.0945 17.3811 28.9805 17.4808L28.8958 17.5544L28.5726 17.8352L27.77 18.5317L27.4201 18.1284C27.396 18.101 27.3647 18.0841 27.3315 18.0782C27.2872 18.0704 27.2403 18.0815 27.2038 18.1134L27.108 18.1961C27.0441 18.2515 27.0376 18.3486 27.093 18.4125L27.4429 18.8158L27.2943 18.9448C27.0937 19.1194 27.0715 19.423 27.2461 19.6243L27.6383 20.0765C27.7133 20.1625 27.8116 20.2159 27.9159 20.2348C28.0547 20.2596 28.2032 20.2237 28.3179 20.1247L29.449 19.1428L29.7519 18.8803L30.0047 18.6607C30.1898 18.4998 30.221 18.2307 30.0888 18.032L30.5292 17.6502L30.896 17.3322L31.8193 16.5308L31.8981 16.4624L32.0545 15.8891L32.3594 14.7671L32.5203 14.6374L33.02 14.2354L35.0574 12.5968L35.7917 12.0059C35.6308 11.8143 35.4659 11.6267 35.2972 11.443L35.2959 11.4417Z" fill="#162433"/>
<defs>
<linearGradient id="paint0_linear_2628_54438" x1="54.3799" y1="-2.44133" x2="7.79617" y2="35.142" gradientUnits="userSpaceOnUse">
<stop offset="0.16" stop-color="#FFE610"/>
<stop offset="0.5" stop-color="#FFC073"/>
<stop offset="1" stop-color="#FE45D7"/>
</linearGradient>
</defs>
</svg>
