<svg width="43" height="43" viewBox="0 0 43 43" fill="none" xmlns="http://www.w3.org/2000/svg">
<path fill-rule="evenodd" clip-rule="evenodd" d="M20.1187 5.15458C18.5003 6.46779 17.4928 8.59228 17.1951 12.0487C17.1224 12.8937 16.3784 13.5197 15.5334 13.447C14.6883 13.3742 14.0623 12.6302 14.1351 11.7852C14.4722 7.87028 15.6761 4.80416 18.1836 2.76958C20.6486 0.769399 24.0937 0 28.3805 0H28.6467C33.375 0 37.0848 0.937362 39.5738 3.42646C42.0629 5.91558 43.0002 9.62533 43.0002 14.3535V27.7037C43.0002 32.432 42.0629 36.1418 39.5738 38.6308C37.0848 41.1199 33.375 42.0572 28.6467 42.0572H28.3805C24.1248 42.0572 20.7004 41.2982 18.2405 39.3303C15.736 37.3267 14.5162 34.3053 14.1565 30.4466C14.0778 29.6022 14.6986 28.8538 15.543 28.7752C16.3875 28.6964 17.1359 29.3172 17.2146 30.1616C17.5306 33.5516 18.5427 35.6389 20.1591 36.9319C21.8199 38.2604 24.4051 38.9859 28.3805 38.9859H28.6467C33.0713 38.9859 35.7704 38.0907 37.4021 36.4592C39.0337 34.8274 39.9289 32.1283 39.9289 27.7037V14.3535C39.9289 9.92908 39.0337 7.2299 37.4021 5.59825C35.7704 3.96661 33.0713 3.07137 28.6467 3.07137H28.3805C24.3748 3.07137 21.7795 3.80696 20.1187 5.15458Z" fill="#FFC073"/>
<path fill-rule="evenodd" clip-rule="evenodd" d="M0 21.0076C0 20.1595 0.687557 19.4719 1.53569 19.4719H27.9085C28.7566 19.4719 29.4442 20.1595 29.4442 21.0076C29.4442 21.8557 28.7566 22.5433 27.9085 22.5433H1.53569C0.687557 22.5433 0 21.8557 0 21.0076Z" fill="#FFC073"/>
<path fill-rule="evenodd" clip-rule="evenodd" d="M22.257 13.0632C22.8567 12.4635 23.8289 12.4635 24.4287 13.0632L31.288 19.9227C31.8878 20.5224 31.8878 21.4946 31.288 22.0943L24.4287 28.9537C23.8289 29.5535 22.8567 29.5535 22.257 28.9537C21.6573 28.354 21.6573 27.3818 22.257 26.7821L28.0303 21.0085L22.257 15.235C21.6573 14.6353 21.6573 13.6629 22.257 13.0632Z" fill="#FFC073"/>
</svg>
