<svg width="32" height="56" viewBox="0 0 32 56" fill="none" xmlns="http://www.w3.org/2000/svg">
<path d="M29.1486 5.88358C29.1486 6.43705 29.5959 6.88428 30.1493 6.88428C30.7028 6.88428 31.15 6.43705 31.15 5.88358C31.15 2.98572 28.7937 0.629419 25.8959 0.629419C25.3423 0.629419 24.8952 1.07711 24.8952 1.63011C24.8952 2.18358 25.3424 2.63081 25.8959 2.63081C27.6897 2.63081 29.1486 4.08975 29.1486 5.88358Z" fill="#FFC073" stroke="#FFC073" stroke-width="0.3"/>
<path d="M0.225 5.88194C0.225 6.4354 0.672228 6.88263 1.22569 6.88263C1.77916 6.88263 2.22639 6.4354 2.22639 5.88194C2.22639 4.0881 3.68533 2.62916 5.47917 2.62916C6.03263 2.62916 6.47986 2.18193 6.47986 1.62847C6.47986 1.075 6.03263 0.627771 5.47917 0.627771C2.58131 0.627771 0.225 2.98408 0.225 5.88194Z" fill="#FFC073" stroke="#FFC073" stroke-width="0.3"/>
<path d="M5.47917 2.62916H25.8958C26.4493 2.62916 26.8965 2.18193 26.8965 1.62847C26.8965 1.075 26.4493 0.627771 25.8958 0.627771H5.47917C4.92571 0.627771 4.47848 1.075 4.47848 1.62847C4.47848 2.18193 4.92571 2.62916 5.47917 2.62916Z" fill="#FFC073" stroke="#FFC073" stroke-width="0.3"/>
<path d="M6.32986 55.3722H25.0451C28.4107 55.3722 31.15 52.6329 31.15 49.2674V5.88194C31.15 5.32848 30.7028 4.88125 30.1493 4.88125C29.5958 4.88125 29.1486 5.32848 29.1486 5.88194V49.2674C29.1486 51.5297 27.3075 53.3708 25.0451 53.3708H6.32986C4.06748 53.3708 2.22639 51.5297 2.22639 49.2674V5.88194C2.22639 5.32848 1.77916 4.88125 1.22569 4.88125C0.672228 4.88125 0.225 5.32848 0.225 5.88194V49.2674C0.225 52.6329 2.96428 55.3722 6.32986 55.3722Z" fill="#FFC073" stroke="#FFC073" stroke-width="0.3"/>
<path d="M16.583 52.3567C15.3982 52.3567 14.4338 51.3923 14.4338 50.2076C14.4338 49.0228 15.3982 48.0585 16.583 48.0585C17.7677 48.0585 18.7321 49.0228 18.7321 50.2076C18.7321 51.3923 17.7677 52.3567 16.583 52.3567ZM16.583 49.4912C16.1877 49.4912 15.8666 49.8123 15.8666 50.2076C15.8666 50.6029 16.1877 50.924 16.583 50.924C16.9782 50.924 17.2993 50.6029 17.2993 50.2076C17.2993 49.8123 16.9782 49.4912 16.583 49.4912Z" fill="#FFC073"/>
<path d="M16.583 52.3567C15.3982 52.3567 14.4338 51.3923 14.4338 50.2076C14.4338 49.0228 15.3982 48.0585 16.583 48.0585C17.7677 48.0585 18.7321 49.0228 18.7321 50.2076C18.7321 51.3923 17.7677 52.3567 16.583 52.3567ZM16.583 49.4912C16.1877 49.4912 15.8666 49.8123 15.8666 50.2076C15.8666 50.6029 16.1877 50.924 16.583 50.924C16.9782 50.924 17.2993 50.6029 17.2993 50.2076C17.2993 49.8123 16.9782 49.4912 16.583 49.4912Z" stroke="#FFC073"/>
<path d="M9.73265 32.7078C9.63022 32.7078 9.54862 32.6262 9.54862 32.5238V25.7149C9.54862 25.6125 9.63022 25.5309 9.73265 25.5309C9.83509 25.5309 9.91668 25.6125 9.91668 25.7149V32.5238C9.91668 32.6262 9.83509 32.7078 9.73265 32.7078Z" fill="#FFC073" stroke="#FFC073" stroke-width="1.33333"/>
<path d="M21.6424 34.8072C21.1718 34.8072 20.7917 34.4271 20.7917 33.9565V33.7073C20.7917 33.2366 21.1718 32.8566 21.6424 32.8566C22.113 32.8566 22.4931 33.2366 22.4931 33.7073V33.9565C22.4931 34.4271 22.113 34.8072 21.6424 34.8072Z" fill="#FFC073"/>
<path d="M8.03124 43.7635C7.92901 43.7635 7.84721 43.6817 7.84721 43.5795C7.84721 42.071 9.07483 40.8434 10.5833 40.8434C10.6858 40.8434 10.7673 40.925 10.7673 41.0274C10.7673 41.1296 10.6855 41.2114 10.5833 41.2114C9.27679 41.2114 8.21526 42.2729 8.21526 43.5795C8.21526 43.6817 8.13346 43.7635 8.03124 43.7635Z" fill="#FFC073" stroke="#FFC073" stroke-width="1.33333"/>
<path d="M22.5425 19.6796C22.4878 19.617 22.3926 19.6105 22.33 19.6649C22.2672 19.7194 22.2607 19.8146 22.3152 19.8774L24.3672 15.7535C24.2863 15.7454 24.2125 15.8105 24.2069 15.8935C24.2013 15.9765 24.264 16.0483 24.347 16.0538C25.4917 16.1315 26.3886 17.0921 26.3886 18.2409C26.3886 19.4497 25.4054 20.4329 24.1966 20.4329C23.5622 20.4329 22.9593 20.1583 22.5425 19.6796ZM22.5425 19.6796L22.5425 19.6796L22.5425 19.6796ZM24.3754 15.6538C24.2357 15.641 24.1162 15.7513 24.1072 15.8869L24.2069 15.8935L24.1072 15.8867C24.0977 16.0249 24.2022 16.1444 24.3402 16.1536C25.4324 16.2277 26.2886 17.1447 26.2886 18.2409C26.2886 19.3945 25.3501 20.3329 24.1966 20.3329C23.5912 20.3329 23.0158 20.0709 22.6179 19.6139L22.6178 19.6138C22.5268 19.5098 22.3686 19.4988 22.2644 19.5894L22.2644 19.5894C22.1598 19.6803 22.1491 19.8387 22.2398 19.943L22.2398 19.9431C22.733 20.5092 23.4461 20.8341 24.1966 20.8341C25.6266 20.8341 26.7898 19.6707 26.7898 18.2409C26.7898 16.8821 25.7296 15.746 24.3754 15.6538Z" fill="#FFC073" stroke="#FFC073" stroke-width="0.2"/>
<path d="M23.0636 16.4825L23.1121 16.4533V16.4513C23.2673 16.3563 23.4339 16.2829 23.6069 16.2335L23.6069 16.2335L23.6079 16.2332C23.7391 16.1942 23.8166 16.0537 23.7773 15.9214L23.7773 15.9214L23.7771 15.9208C23.7383 15.7934 23.5989 15.7125 23.4655 15.7522L23.4941 15.848L23.4659 15.7521C23.2293 15.8215 23.003 15.9242 22.7941 16.0584L22.7941 16.0584L22.7921 16.0597C22.7242 16.1057 22.6795 16.1827 22.6795 16.2697C22.6795 16.3199 22.6939 16.3642 22.7172 16.4031L22.7172 16.4032L22.7193 16.4064C22.7663 16.4784 22.8448 16.5203 22.9301 16.5203C22.9691 16.5203 23.0066 16.5109 23.0401 16.495L23.0434 16.495L23.056 16.4868C23.0586 16.4854 23.0611 16.4839 23.0636 16.4825ZM23.5794 16.1373C23.6582 16.1139 23.7049 16.0287 23.6815 15.9499L23.5794 16.1373Z" fill="#FFC073" stroke="#FFC073" stroke-width="0.2"/>
<path d="M22.1981 18.8989C22.2004 19.0137 22.1231 19.1093 22.0187 19.1413L22.0137 19.1429L22.0136 19.1428C21.9921 19.1481 21.9705 19.1508 21.9476 19.1508C21.8383 19.1508 21.7416 19.0785 21.7086 18.976L21.7038 18.961V18.9583C21.6379 18.7273 21.6032 18.4859 21.6032 18.2409C21.6032 18.102 21.715 17.9903 21.8538 17.9903C21.9929 17.9903 22.1043 18.1021 22.1043 18.2409C22.1043 18.4404 22.1332 18.6384 22.1891 18.8303L22.1902 18.8341L22.1901 18.8341C22.1954 18.8553 22.1981 18.8764 22.1981 18.8989ZM22.1981 18.8989C22.1982 18.8994 22.1982 18.8998 22.1982 18.9002H22.0982L22.1981 18.8977C22.1981 18.8981 22.1981 18.8985 22.1981 18.8989Z" fill="#FFC073" stroke="#FFC073" stroke-width="0.2"/>
<path d="M22.4715 16.6365L22.4715 16.6365C22.5824 16.7196 22.6051 16.8762 22.5216 16.9873M22.4715 16.6365L22.4417 16.9272M22.4715 16.6365L22.4711 16.6362C22.3624 16.5556 22.2026 16.5765 22.1204 16.6867L22.1203 16.6868C21.9731 16.8846 21.8531 17.1018 21.7676 17.3334C21.7569 17.3606 21.7508 17.3895 21.7508 17.421C21.7508 17.5225 21.8133 17.6198 21.9128 17.6571L21.9127 17.6574L21.9212 17.6598C21.9431 17.6659 21.971 17.6716 22.0016 17.6716C22.1043 17.6716 22.1991 17.6081 22.2358 17.5096M22.4715 16.6365L22.1422 17.4746M22.5216 16.9873C22.5216 16.9873 22.5216 16.9873 22.5216 16.9873L22.4417 16.9272M22.5216 16.9873C22.5217 16.9873 22.5217 16.9872 22.5217 16.9872L22.4417 16.9272M22.5216 16.9873C22.402 17.1468 22.3062 17.3226 22.2358 17.5096M22.4417 16.9272C22.3162 17.0946 22.2158 17.2788 22.1422 17.4746M22.2358 17.5096C22.2358 17.5095 22.2359 17.5095 22.2359 17.5094L22.1422 17.4746M22.2358 17.5096C22.2358 17.5097 22.2358 17.5097 22.2358 17.5098L22.1422 17.4746" fill="#FFC073" stroke="#FFC073" stroke-width="0.2"/>
<path d="M23.5063 17.9903C23.3679 17.9903 23.2557 18.1025 23.2557 18.2409C23.2557 18.3793 23.3679 18.4915 23.5063 18.4915H23.9459V18.9312C23.9459 19.0696 24.0581 19.1818 24.1965 19.1818C24.3349 19.1818 24.4471 19.0696 24.4471 18.9312V18.4915H24.8867C25.0251 18.4915 25.1373 18.3793 25.1373 18.2409C25.1373 18.1025 25.0251 17.9903 24.8867 17.9903H24.4471V17.5507C24.4471 17.4123 24.3349 17.3001 24.1965 17.3001C24.0581 17.3001 23.9459 17.4123 23.9459 17.5507V17.9903H23.5063Z" fill="#FFC073" stroke="#FFC073" stroke-width="0.2"/>
<path d="M15.8178 13.5643L15.8178 13.5643C16.0268 13.286 16.4031 12.95 16.9983 12.95C17.4194 12.95 17.8054 13.1136 18.0837 13.4116L18.0472 13.4457L18.0837 13.4116C18.349 13.6955 18.4944 14.075 18.4944 14.4796C18.4944 14.9229 18.3103 15.3316 17.9251 15.7637C17.583 16.1476 17.092 16.5422 16.529 16.9948L16.5261 16.9971L16.5261 16.9971L16.5243 16.9985C16.3141 17.1675 16.0971 17.3419 15.8661 17.5326L15.8178 13.5643ZM15.8178 13.5643C15.7825 13.6112 15.7508 13.6581 15.7222 13.7039M15.8178 13.5643L15.7222 13.7039M15.7222 13.7039C15.6937 13.6581 15.6619 13.6112 15.6267 13.5643C15.4177 13.286 15.0413 12.95 14.4462 12.95C14.025 12.95 13.6391 13.1136 13.3607 13.4116L13.3607 13.4116C13.0955 13.6955 12.95 14.075 12.95 14.4796C12.95 14.9229 13.1342 15.3316 13.5193 15.7637C13.8615 16.1476 14.3524 16.5422 14.9154 16.9947L14.9184 16.9971C15.1291 17.1665 15.3467 17.3414 15.5783 17.5326L15.7222 13.7039ZM15.2864 13.7983L15.2864 13.7983C15.1312 13.5917 14.8616 13.3509 14.4462 13.3509C14.1445 13.3509 13.8704 13.4677 13.6731 13.6788C13.4776 13.8881 13.369 14.1721 13.369 14.4796C13.369 14.8482 13.5428 15.1767 13.8599 15.5269C14.1777 15.8779 14.6335 16.2445 15.1879 16.6901C15.3598 16.8282 15.5365 16.9704 15.7222 17.1223C15.9079 16.9703 16.0847 16.8282 16.2565 16.6901C16.8109 16.2445 17.2667 15.878 17.5845 15.5269C17.9017 15.1767 18.0754 14.8482 18.0754 14.4796C18.0754 14.1721 17.9669 13.8881 17.7713 13.6788C17.5741 13.4677 17.3 13.3509 16.9983 13.3509C16.5829 13.3509 16.3132 13.5917 16.158 13.7983L16.1181 13.7683L16.158 13.7983C16.0187 13.9838 15.9458 14.1712 15.9211 14.2426C15.9211 14.2426 15.9211 14.2426 15.9211 14.2426L15.2864 13.7983ZM15.2864 13.7983C15.4258 13.9838 15.4986 14.1712 15.5233 14.2426L15.2864 13.7983ZM15.8591 17.5383L15.8661 17.5326H15.5784L15.5853 17.5383L15.5853 17.5383C15.6249 17.571 15.6738 17.587 15.7222 17.587C15.7706 17.587 15.8196 17.571 15.8591 17.5384L15.8591 17.5383Z" fill="#FFC073" stroke="#FFC073" stroke-width="0.1"/>
<path d="M13.1354 41.2164H10.5834C10.4809 41.2164 10.3993 41.1348 10.3993 41.0324C10.3993 40.9302 10.4811 40.8484 10.5834 40.8484H13.1354C13.2377 40.8484 13.3195 40.9302 13.3195 41.0324C13.3195 41.1348 13.2379 41.2164 13.1354 41.2164Z" fill="#FFC073" stroke="#FFC073" stroke-width="1.33333"/>
<path d="M8.03124 46.3189C7.9288 46.3189 7.84721 46.2373 7.84721 46.1349V43.5795C7.84721 43.477 7.9288 43.3954 8.03124 43.3954C8.13367 43.3954 8.21526 43.477 8.21526 43.5795V46.1349C8.21526 46.2373 8.13367 46.3189 8.03124 46.3189Z" fill="#FFC073" stroke="#FFC073" stroke-width="1.33333"/>
<path d="M23.3438 43.7635C23.2415 43.7635 23.1597 43.6817 23.1597 43.5795C23.1597 42.2729 22.0982 41.2114 20.7917 41.2114C20.6895 41.2114 20.6076 41.1296 20.6076 41.0274C20.6076 40.925 20.6892 40.8434 20.7917 40.8434C22.3002 40.8434 23.5278 42.071 23.5278 43.5795C23.5278 43.6817 23.446 43.7635 23.3438 43.7635Z" fill="#FFC073" stroke="#FFC073" stroke-width="1.33333"/>
<path d="M20.7917 41.2164H18.2396C18.1372 41.2164 18.0556 41.1348 18.0556 41.0324C18.0556 40.9302 18.1374 40.8484 18.2396 40.8484H20.7917C20.8939 40.8484 20.9757 40.9302 20.9757 41.0324C20.9757 41.1348 20.8941 41.2164 20.7917 41.2164Z" fill="#FFC073" stroke="#FFC073" stroke-width="1.33333"/>
<path d="M23.3437 46.3189C23.2413 46.3189 23.1597 46.2373 23.1597 46.1349V43.5795C23.1597 43.477 23.2413 43.3954 23.3437 43.3954C23.4462 43.3954 23.5278 43.477 23.5278 43.5795V46.1349C23.5278 46.2373 23.4462 46.3189 23.3437 46.3189Z" fill="#FFC073" stroke="#FFC073" stroke-width="1.33333"/>
<path d="M13.1354 41.2165C13.033 41.2165 12.9514 41.1349 12.9514 41.0325V37.8984C12.9514 37.7962 13.0332 37.7144 13.1354 37.7144C13.2376 37.7144 13.3195 37.7962 13.3195 37.8984V41.0325C13.3195 41.1349 13.2379 41.2165 13.1354 41.2165Z" fill="#FFC073" stroke="#FFC073" stroke-width="1.33333"/>
<path d="M1.22569 47.1339H30.1493C30.7028 47.1339 31.15 46.6867 31.15 46.1332C31.15 45.5798 30.7028 45.1325 30.1493 45.1325H1.22569C0.672228 45.1325 0.225 45.5798 0.225 46.1332C0.225 46.6867 0.672228 47.1339 1.22569 47.1339Z" fill="#FFC073" stroke="#FFC073" stroke-width="0.3"/>
<path d="M18.2396 41.2115C18.1374 41.2115 18.0556 41.1297 18.0556 41.0275V37.8984C18.0556 37.7962 18.1374 37.7144 18.2396 37.7144C18.3418 37.7144 18.4236 37.7962 18.4236 37.8984V41.0275C18.4236 41.1297 18.3418 41.2115 18.2396 41.2115Z" fill="#FFC073" stroke="#FFC073" stroke-width="1.33333"/>
<path d="M15.6875 38.656C12.3029 38.656 9.54862 35.9028 9.54862 32.5204C9.54862 32.418 9.63022 32.3364 9.73265 32.3364C9.83509 32.3364 9.91668 32.418 9.91668 32.5204C9.91668 35.7024 12.5047 38.2879 15.6875 38.2879C18.8703 38.2879 21.4583 35.7024 21.4583 32.5204C21.4583 32.418 21.5399 32.3364 21.6424 32.3364C21.7448 32.3364 21.8264 32.418 21.8264 32.5204C21.8264 35.9028 19.0722 38.656 15.6875 38.656Z" fill="#FFC073" stroke="#FFC073" stroke-width="1.33333"/>
<path d="M12.9819 40.9253L12.9825 40.9245C13.0376 40.8416 13.1508 40.8167 13.2384 40.8747C13.2385 40.8748 13.2386 40.8748 13.2387 40.8749L15.7894 42.5754C15.7895 42.5754 15.7895 42.5754 15.7895 42.5755C15.8749 42.6325 15.8974 42.7459 15.8406 42.8311L15.84 42.8319C15.8064 42.8825 15.749 42.9128 15.6865 42.9128C15.6548 42.9128 15.6187 42.9038 15.5827 42.8804L13.0332 41.1807C13.0332 41.1807 13.0331 41.1807 13.0331 41.1807C12.9476 41.1235 12.9254 41.0099 12.9819 40.9253Z" fill="#FFC073" stroke="#FFC073" stroke-width="1.33333"/>
<path d="M15.5347 42.8319L15.5342 42.8311C15.4774 42.7459 15.4999 42.6325 15.5852 42.5755C15.5853 42.5754 15.5853 42.5754 15.5853 42.5754L18.1361 40.8749C18.1362 40.8748 18.1363 40.8748 18.1363 40.8747C18.224 40.8167 18.3372 40.8416 18.3923 40.9245L18.3929 40.9253C18.4493 41.0099 18.4271 41.1235 18.3417 41.1807C18.3416 41.1807 18.3416 41.1807 18.3416 41.1807L15.7921 42.8804C15.7561 42.9038 15.7199 42.9128 15.6882 42.9128C15.6258 42.9128 15.5684 42.8825 15.5347 42.8319Z" fill="#FFC073" stroke="#FFC073" stroke-width="1.33333"/>
<path d="M23.1597 28.267C23.1597 28.3692 23.2416 28.451 23.3438 28.451C23.446 28.451 23.5278 28.3692 23.5278 28.267C23.5278 24.4133 20.3919 21.2774 16.5382 21.2774C15.132 21.2774 13.6203 21.8555 12.1695 23.019L23.1597 28.267ZM23.1597 28.267C23.1597 24.616 20.1891 21.6454 16.5382 21.6454M23.1597 28.267L16.5382 21.6454M16.5382 21.6454C14.7938 21.6454 13.3014 22.5832 12.4004 23.3059L16.5382 21.6454ZM12.4003 23.306C12.3201 23.3701 12.2052 23.3573 12.1412 23.2779C12.0776 23.1987 12.0903 23.0826 12.1693 23.0191L12.4003 23.306Z" fill="#FFC073" stroke="#FFC073" stroke-width="1.33333"/>
<path d="M23.3437 36.958C23.2415 36.958 23.1597 36.8762 23.1597 36.7739C23.1597 33.123 20.1891 30.1524 16.5382 30.1524C16.436 30.1524 16.3542 30.0706 16.3542 29.9684C16.3542 29.8659 16.4358 29.7843 16.5382 29.7843C20.3919 29.7843 23.5278 32.9202 23.5278 36.7739C23.5278 36.8762 23.446 36.958 23.3437 36.958Z" fill="#FFC073" stroke="#FFC073" stroke-width="1.33333"/>
<path d="M9.73265 30.1524C9.63043 30.1524 9.54862 30.0706 9.54862 29.9683C9.54862 29.8659 9.63022 29.7843 9.73265 29.7843C11.0392 29.7843 12.1007 28.7228 12.1007 27.4162C12.1007 27.3138 12.1823 27.2322 12.2847 27.2322C12.3872 27.2322 12.4688 27.3138 12.4688 27.4162C12.4688 28.9247 11.2411 30.1524 9.73265 30.1524Z" fill="#FFC073" stroke="#FFC073" stroke-width="1.33333"/>
<path d="M9.73265 25.8989C9.63043 25.8989 9.54862 25.8171 9.54862 25.7149C9.54862 24.2064 10.7762 22.9788 12.2847 22.9788C12.3872 22.9788 12.4688 23.0604 12.4688 23.1628C12.4688 23.2651 12.387 23.3469 12.2847 23.3469C10.9782 23.3469 9.91668 24.4084 9.91668 25.7149C9.91668 25.8171 9.83487 25.8989 9.73265 25.8989Z" fill="#FFC073" stroke="#FFC073" stroke-width="1.33333"/>
<path d="M14.8368 30.1524C13.3283 30.1524 12.1007 28.9247 12.1007 27.4162C12.1007 27.3138 12.1823 27.2322 12.2847 27.2322C12.3871 27.2322 12.4687 27.3138 12.4687 27.4162C12.4687 28.7228 13.5303 29.7843 14.8368 29.7843C14.9392 29.7843 15.0208 29.8659 15.0208 29.9683C15.0208 30.0706 14.939 30.1524 14.8368 30.1524Z" fill="#FFC073" stroke="#FFC073" stroke-width="1.33333"/>
<path d="M12.2847 28.267C11.8141 28.267 11.434 27.8865 11.434 27.4163V23.1628C11.434 22.6922 11.8141 22.3121 12.2847 22.3121C12.7553 22.3121 13.1354 22.6922 13.1354 23.1628V27.4163C13.1354 27.8865 12.7553 28.267 12.2847 28.267Z" fill="#FFC073"/>
<path d="M23.3437 36.9579C23.2415 36.9579 23.1597 36.8761 23.1597 36.7739V28.267C23.1597 28.1645 23.2413 28.0829 23.3437 28.0829C23.4462 28.0829 23.5278 28.1645 23.5278 28.267V36.7739C23.5278 36.8761 23.446 36.9579 23.3437 36.9579Z" fill="#FFC073" stroke="#FFC073" stroke-width="1.33333"/>
<path d="M16.5382 31.5851H14.8368C14.7346 31.5851 14.6528 31.5033 14.6528 31.4011C14.6528 31.2987 14.7343 31.2171 14.8368 31.2171H16.5382C16.6406 31.2171 16.7222 31.2987 16.7222 31.4011C16.7222 31.5033 16.6404 31.5851 16.5382 31.5851Z" fill="#FFC073" stroke="#FFC073" stroke-width="1.33333"/>
<path d="M1.22569 10.1152H30.1493C30.7028 10.1152 31.15 9.66802 31.15 9.11455C31.15 8.56108 30.7028 8.11385 30.1493 8.11385H1.22569C0.672228 8.11385 0.225 8.56108 0.225 9.11455C0.225 9.66802 0.672228 10.1152 1.22569 10.1152Z" fill="#FFC073" stroke="#FFC073" stroke-width="0.3"/>
</svg>
